<svg width="73" height="89" viewBox="0 0 73 89" fill="none" xmlns="http://www.w3.org/2000/svg">
<path d="M47.5743 8.8645L51.4731 2.36605C51.9165 1.62596 51.6776 0.667272 50.9375 0.223841C50.1959 -0.221151 49.2387 0.0177395 48.7953 0.759393L44.6811 7.61696C42.2313 6.74571 39.6082 6.24607 36.8633 6.24607C34.1184 6.24607 31.4953 6.74571 29.0455 7.61696L24.9312 0.759393C24.4878 0.0177395 23.5291 -0.21959 22.789 0.223841C22.0489 0.667272 21.81 1.62596 22.2535 2.36605L26.1522 8.8645C18.6155 12.7601 13.4426 20.6139 13.4426 29.6683C13.4426 30.5317 14.1421 31.2296 15.004 31.2296H58.7225C59.5844 31.2296 60.2839 30.5317 60.2839 29.6683C60.2823 20.6154 55.1111 12.7617 47.5743 8.8645ZM16.6247 28.1069C17.4241 17.641 26.1959 9.37038 36.8633 9.37038C47.5306 9.37038 56.3024 17.641 57.1018 28.1069H16.6247Z" fill="#B3131A"/>
<path d="M47.757 17.7439H45.6991C45.1308 17.7439 44.6702 18.2045 44.6702 18.7728V20.8307C44.6702 21.3991 45.1308 21.8597 45.6991 21.8597H47.7586C48.3269 21.8597 48.7875 21.3991 48.7875 20.8307V18.7728C48.7875 18.2045 48.3254 17.7439 47.757 17.7439Z" fill="#B3131A"/>
<path d="M28.0259 17.7439H25.9664C25.3981 17.7439 24.9375 18.2045 24.9375 18.7728V20.8307C24.9375 21.3991 25.3981 21.8597 25.9664 21.8597H28.0259C28.5942 21.8597 29.0549 21.3991 29.0549 20.8307V18.7728C29.0549 18.2045 28.5942 17.7439 28.0259 17.7439Z" fill="#B3131A"/>
<path d="M58.721 32.791H15.0025C14.1406 32.791 13.4411 33.489 13.4411 34.3524V65.8469C13.4411 70.0049 16.8277 73.3868 20.9888 73.3868H22.8094V82.7644C22.8094 86.2026 25.6105 89.0006 29.0549 89.0006C32.4993 89.0006 35.3004 86.2026 35.3004 82.7644V73.3868H38.4231V82.7644C38.4231 86.2026 41.2242 89.0006 44.6686 89.0006C48.113 89.0006 50.9141 86.2026 50.9141 82.7644V73.3868H52.7347C56.8973 73.3868 60.2824 70.0049 60.2824 65.8469V34.3524C60.2824 33.489 59.5845 32.791 58.721 32.791ZM57.1596 65.8469C57.1596 68.2827 55.1751 70.264 52.7347 70.264H49.3528C48.4909 70.264 47.7914 70.962 47.7914 71.8254V82.7644C47.7914 84.4819 46.3908 85.8778 44.6686 85.8778C42.9464 85.8778 41.5459 84.4804 41.5459 82.7644V71.8254C41.5459 70.962 40.8464 70.264 39.9845 70.264H33.739C32.8771 70.264 32.1776 70.962 32.1776 71.8254V82.7644C32.1776 84.4819 30.7771 85.8778 29.0549 85.8778C27.3327 85.8778 25.9321 84.4804 25.9321 82.7644V71.8254C25.9321 70.962 25.2326 70.264 24.3707 70.264H20.9904C18.5499 70.264 16.5639 68.2811 16.5639 65.8469V35.9138H57.1596V65.8469Z" fill="#B3131A"/>
<path d="M67.3086 32.791C64.2951 32.791 61.8438 35.2455 61.8438 38.2621V60.1089C61.8438 63.1254 64.2951 65.5799 67.3086 65.5799C70.322 65.5799 72.7734 63.1254 72.7734 60.1089V38.2621C72.7734 35.2455 70.322 32.791 67.3086 32.791ZM69.6506 60.1089C69.6506 61.4032 68.5998 62.4572 67.3086 62.4572C66.0173 62.4572 64.9665 61.4032 64.9665 60.1089V38.2621C64.9665 36.9677 66.0173 35.9138 67.3086 35.9138C68.5998 35.9138 69.6506 36.9677 69.6506 38.2621V60.1089Z" fill="#B3131A"/>
<path d="M6.41489 32.791C3.40143 32.791 0.950073 35.2455 0.950073 38.2621V60.1089C0.950073 63.1254 3.40143 65.5799 6.41489 65.5799C9.42835 65.5799 11.8797 63.1254 11.8797 60.1089V38.2621C11.8797 35.2455 9.42835 32.791 6.41489 32.791ZM8.75696 60.1089C8.75696 61.4032 7.70615 62.4572 6.41489 62.4572C5.12363 62.4572 4.07283 61.4032 4.07283 60.1089V38.2621C4.07283 36.9677 5.12363 35.9138 6.41489 35.9138C7.70615 35.9138 8.75696 36.9677 8.75696 38.2621V60.1089Z" fill="#B3131A"/>
</svg>
