<svg width="71" height="89" viewBox="0 0 71 89" fill="none" xmlns="http://www.w3.org/2000/svg">
<path d="M54.1775 1.79782L54.0837 0L52.2944 0.192563C52.1189 0.211308 34.824 2.29542 33.638 21.6318L33.5187 23.5677L35.4545 23.4365C35.6522 23.4228 55.2408 21.8602 54.1775 1.79782ZM50.8017 3.95692C50.4762 15.6095 41.4104 18.8507 37.2489 19.7249C38.8338 8.40121 47.0458 4.95041 50.8017 3.95692Z" fill="#B3131A"/>
<path d="M70.847 63.9323L69.7581 63.5796C63.1684 61.4494 58.7428 55.4135 58.7428 48.5596C58.7428 42.4624 62.1902 37.0092 67.7422 34.327L69.3986 33.5278L68.4749 31.9378C68.0796 31.2562 64.3834 25.2186 56.5752 23.2197C50.3825 21.6348 43.4196 23.0373 35.8721 27.3896C32.6769 25.4503 22.0638 19.8609 13.62 25.464C11.967 26.3774 -5.55285 36.8729 3.56579 65.1916C3.83333 65.8256 10.1913 80.7211 17.7149 86.3003C19.7445 88.2396 24.9352 90.6628 30.8672 86.619C31.8947 86.1947 38.7708 83.5482 43.1333 86.6479C44.7436 87.7505 47.5554 88.9996 50.5257 88.9996C52.7785 88.9996 55.1216 88.2822 57.1018 86.2373C58.0254 85.438 66.4624 77.9076 70.847 65.9789L70.9748 65.6313L70.847 63.9323ZM54.8251 83.6964L54.6939 83.8208C50.9568 87.7454 45.2907 83.9913 45.0811 83.8515C42.8521 82.2667 40.2704 81.7504 37.8489 81.7504C33.454 81.7504 29.5891 83.4528 29.342 83.5635L29.0642 83.7203C23.9196 87.3108 20.3972 84.1514 20.024 83.7919L19.8229 83.6198C13.0184 78.6574 6.76438 64.0107 6.75586 64.0056C-1.77827 37.4762 14.5709 28.7989 15.2661 28.4461L15.4536 28.3354C23.3725 23.0186 34.7559 30.7143 34.8684 30.791L35.7767 31.4147L36.7173 30.8472C43.8064 26.5614 50.2036 25.1044 55.73 26.5205C60.2322 27.6725 63.1019 30.4859 64.5061 32.2156C58.8025 35.7107 55.3363 41.8097 55.3363 48.5596C55.3363 56.3235 59.997 63.2217 67.098 66.2226C62.727 76.892 54.9086 83.6266 54.8251 83.6964Z" fill="#B3131A"/>
</svg>
