<svg width="505" height="349" viewBox="0 0 505 349" fill="none" xmlns="http://www.w3.org/2000/svg">
<path d="M115.494 244.857L114.695 244.546C130.688 203.553 172.586 174.39 216.583 173.629C228.364 173.429 240.219 175.111 251.687 176.742C256.997 177.497 262.487 178.278 267.893 178.861C281.373 180.313 301.255 181.3 318.231 173.142C335.062 165.052 345.578 148.424 343.804 132.704L344.656 132.61C346.473 148.684 335.76 165.67 318.602 173.916C301.431 182.169 281.386 181.178 267.8 179.715C262.379 179.129 256.883 178.348 251.567 177.593C240.131 175.967 228.313 174.279 216.598 174.487C172.94 175.242 131.364 204.179 115.494 244.857Z" fill="white"/>
<path d="M446.907 230.956L446.156 230.542C452.146 219.706 458.339 208.504 460.355 196.049C462.095 185.29 460.272 170.709 449.936 162.053C442.099 155.488 431.435 153.952 421.123 152.468L418.918 152.148C407.99 150.546 395.906 147.691 389.127 138.663L389.813 138.148C396.404 146.927 408.288 149.722 419.04 151.301L421.245 151.618C431.676 153.12 442.462 154.673 450.487 161.394C461.1 170.282 462.981 185.194 461.203 196.186C459.163 208.789 452.933 220.058 446.907 230.956Z" fill="white"/>
<path d="M16.3417 198.911C16.3086 198.911 16.2765 198.913 16.2432 198.913C13.5168 198.941 10.7578 200.646 9.21474 203.255C7.94218 205.406 7.79309 207.723 8.80521 209.613C9.7075 211.295 11.2665 212.434 13.3145 212.906C16.6366 213.674 21.0153 212.638 24.2151 210.328C25.3375 209.519 26.3887 208.605 27.3588 207.607C25.6379 203.141 21.48 198.911 16.3417 198.911ZM62.9787 270.242C56.8186 270.242 50.0795 269.234 43.6807 266.22C33.1132 261.243 25.8571 251.355 25.1942 241.03C24.8913 236.309 25.9047 231.602 26.8845 227.05C27.0604 226.233 27.2365 225.417 27.4045 224.602C28.4943 219.314 29.2807 213.709 27.6759 208.521C26.7583 209.427 25.7696 210.265 24.7169 211.025C21.3294 213.47 16.6695 214.562 13.1219 213.743C10.8256 213.213 9.07144 211.926 8.04944 210.019C6.89187 207.858 7.04718 205.235 8.47592 202.819C10.1687 199.955 13.2139 198.085 16.234 198.055C16.2696 198.055 16.3056 198.053 16.3412 198.053C21.7215 198.053 26.0854 202.311 28.0052 206.915C31.8466 202.65 34.2667 197.019 34.5574 191.321C34.9354 183.93 31.7347 176.281 26.2044 171.359L26.7751 170.72C32.5816 175.886 35.8111 183.604 35.4148 191.366C35.1014 197.506 32.5329 203.388 28.3527 207.831C28.398 207.961 28.4411 208.092 28.4825 208.225C30.1622 213.61 29.3612 219.361 28.245 224.774C28.0762 225.593 27.9 226.411 27.7233 227.23C26.7558 231.724 25.7552 236.371 26.0506 240.975C26.6933 250.993 33.7572 260.597 44.046 265.443C55.0932 270.645 67.2129 269.753 75.4357 268.088C85.9952 265.952 96.0322 261.552 105.739 257.298L106.083 258.085C96.3351 262.356 86.2554 266.773 75.6058 268.931C72.0015 269.659 67.657 270.242 62.9787 270.242Z" fill="white"/>
<path d="M219.905 342.209C219.905 345.811 216.988 348.73 213.386 348.73C209.784 348.73 206.867 345.811 206.867 342.209C206.867 338.609 209.784 335.69 213.386 335.69C216.988 335.69 219.905 338.609 219.905 342.209Z" fill="#FF5C33"/>
<path d="M26.1658 86.0629C26.1658 88.635 24.0806 90.7202 21.5084 90.7202C18.9365 90.7202 16.8513 88.635 16.8513 86.0629C16.8513 83.4907 18.9365 81.4055 21.5084 81.4055C24.0806 81.4055 26.1658 83.4907 26.1658 86.0629Z" fill="#007BFF"/>
<path d="M505 223.531C505 225.846 503.123 227.723 500.808 227.723C498.493 227.723 496.616 225.846 496.616 223.531C496.616 221.217 498.493 219.34 500.808 219.34C503.123 219.34 505 221.217 505 223.531Z" fill="#007BFF"/>
<path d="M463.086 311.423L457.159 305.496L463.086 299.568L469.014 305.496L463.086 311.423Z" fill="#BCD5FF"/>
<path d="M271.344 22.2246L265.417 16.2973L271.344 10.3679L277.271 16.2973L271.344 22.2246Z" fill="#BCD5FF"/>
<path d="M387.874 158.406C387.4 166.996 382.453 196.961 376.073 218.113C373.986 225.061 371.742 231.059 369.44 235.037C369.197 235.466 368.957 235.875 368.704 236.257L350.615 234.786C351.903 231.656 353.205 228.442 354.52 225.136C356.736 219.537 358.963 213.698 361.103 207.653C366.87 191.381 371.993 173.646 374.526 155.296L387.874 158.406Z" fill="white"/>
<path d="M369.44 235.037L354.52 225.137C356.442 220.284 358.37 215.249 360.245 210.056C361.554 210.163 362.433 210.163 362.433 210.163L363.641 208.704C368.526 210.92 372.718 214.003 376.073 218.113C373.986 225.062 371.742 231.06 369.44 235.037Z" fill="#BEBEBE"/>
<path d="M433.246 64.8975L412.205 178.201L295.854 156.594L303.311 116.446C299.84 117.791 295.942 118.224 291.984 117.488C280.895 115.429 273.535 105.016 275.54 94.2187C277.544 83.4216 288.152 76.3423 299.243 78.4018C303.199 79.1376 306.683 80.931 309.44 83.4409L316.894 43.2927L357.931 50.9126C356.613 47.5982 356.189 43.9105 356.882 40.1842C358.885 29.3958 369.504 22.3101 380.584 24.3674C391.675 26.4268 399.034 36.8505 397.03 47.639C396.337 51.3653 394.619 54.6561 392.207 57.2775L433.246 64.8975Z" fill="#B8060D"/>
<path d="M359.72 65.9727C367.398 67.365 374.807 63.9905 381.979 60.7276C383.534 60.0175 385.145 59.2839 386.718 58.621C388.835 57.7264 390.946 56.9606 393.042 56.3063C393.207 56.1025 393.361 55.8879 393.518 55.6756C391.205 56.3706 388.876 57.2051 386.535 58.1919C384.958 58.857 383.343 59.5928 381.784 60.3029C374.681 63.5379 367.335 66.8845 359.803 65.5137C351.072 63.9283 345.027 56.2548 342.508 48.0492L341.989 47.9527C343.013 51.4065 344.613 54.6694 346.709 57.4625C350.203 62.1177 354.702 65.061 359.72 65.9727Z" fill="white"/>
<path d="M412.096 105.713C406.139 106.269 399.98 106.841 394.488 109.012C381.807 114.024 373.061 128.161 373.218 143.39C373.318 153.344 376.875 163.523 383.38 172.846L384.045 172.971C377.416 163.617 373.784 153.385 373.683 143.386C373.529 128.345 382.155 114.388 394.657 109.446C400.089 107.3 406.216 106.73 412.139 106.179C416.809 105.743 421.565 105.295 425.974 104.055L426.064 103.57C421.728 104.812 416.987 105.258 412.096 105.713Z" fill="white"/>
<path d="M287.397 116.077C293.857 110.535 301.637 107.599 309.062 108.249C313.531 108.639 317.888 110.263 322.099 111.833C327.357 113.792 332.788 115.817 338.454 115.431C346.778 114.86 353.865 109.199 359.559 104.649L413.827 61.2935L413.222 61.1799L359.269 104.286C352.338 109.823 345.986 114.448 338.42 114.965C332.87 115.349 327.475 113.339 322.262 111.396C318.021 109.815 313.634 108.18 309.103 107.785C301.498 107.12 293.52 110.154 286.93 115.869C287.084 115.939 287.241 116.008 287.397 116.077Z" fill="white"/>
<path d="M321.687 150.304C314.648 146.05 306.515 143.716 298.306 143.39L298.222 143.851C306.374 144.164 314.455 146.477 321.448 150.701C327.052 154.088 331.889 158.668 335.691 163.99L336.354 164.115C332.477 158.571 327.485 153.807 321.687 150.304Z" fill="white"/>
<path d="M260.204 299.77L258.207 306.759L243.999 315.25L270.27 321.063L271.801 300.699L260.204 299.77Z" fill="#001F40"/>
<path d="M261.543 312.626L257.818 307.016L258.595 306.501L262.319 312.111L261.543 312.626Z" fill="white"/>
<path d="M348.912 260.94C348.912 260.94 345.456 267.145 337.566 271.512C331.364 274.951 322.42 277.259 310.257 274.522L301.957 272.398L298.344 271.476L294.058 270.377L283.553 267.694L283.497 267.9L274.238 303.397L271.621 303.088L259.661 301.672L255.926 301.226L259.698 265.383L260.89 254.031L317.578 247.631L334.232 245.75L335.099 245.647L338.181 249.056L345.205 256.832L348.912 260.94Z" fill="#FFB900"/>
<path d="M213.268 275.213L206.573 278.041L191.048 272.3L202.997 296.408L219.818 284.83L213.268 275.213Z" fill="#001F40"/>
<path d="M204.981 284.601L204.093 284.32L206.129 277.899L207.017 278.182L204.981 284.601Z" fill="white"/>
<path d="M345.958 255.586C345.958 255.586 345.718 256.052 345.205 256.833C343.77 259.032 340.258 263.725 334.297 267.61C327.2 272.221 316.637 275.685 301.957 272.399C300.783 272.137 299.582 271.83 298.344 271.476C297.868 271.345 297.383 271.197 296.901 271.047L294.058 270.378L283.497 267.9L263.377 263.176L259.698 265.384L218.044 290.356L216.274 287.274L210.117 276.543L208.422 273.591L250.801 244.446C253.513 242.582 256.634 241.4 259.893 241.009C261.44 240.823 262.995 240.812 264.542 240.99L301.249 245.032L313.824 243.142L328.494 240.934L334.232 245.75L338.182 249.056L345.958 255.586Z" fill="#FFB900"/>
<path d="M320.172 275.769C319.561 275.769 318.945 275.758 318.319 275.734C309.823 275.432 266.52 264.277 263.424 263.476L250.166 271.349L249.881 270.869L263.338 262.876L263.452 262.906C263.913 263.026 309.776 274.872 318.34 275.176C326.861 275.477 334.003 273.677 338.964 269.953L339.299 270.401C334.599 273.926 328.015 275.769 320.172 275.769Z" fill="#001F40"/>
<path d="M337.158 271.167C335.972 270.16 334.8 269.111 333.644 268.024C333.865 267.886 334.082 267.749 334.296 267.61C340.258 263.725 343.77 259.031 345.205 256.832L348.912 260.94C348.912 260.94 345.718 266.674 338.458 270.999C338.746 270.806 339.024 270.607 339.299 270.401L338.964 269.952C338.389 270.383 337.787 270.789 337.158 271.167ZM338.181 249.055L334.232 245.75L335.099 245.647L338.181 249.055Z" fill="#E5A907"/>
<path d="M333.644 268.024C326.462 261.265 319.861 252.956 313.824 243.142L328.494 240.934L334.232 245.75L338.182 249.056L345.958 255.586C345.958 255.586 345.718 256.052 345.205 256.833C343.77 259.032 340.258 263.725 334.297 267.61C334.082 267.75 333.865 267.887 333.644 268.024Z" fill="#E5A907"/>
<path d="M337.566 271.512C337.431 271.399 337.293 271.283 337.158 271.167C337.787 270.789 338.39 270.384 338.964 269.953L339.299 270.401C339.025 270.607 338.746 270.806 338.458 270.999C338.169 271.173 337.87 271.345 337.566 271.512Z" fill="#001F40"/>
<path d="M366.261 206.567L360.247 220.813L348.912 216.156L350.105 212.719L353.177 203.89L360.526 207.708L366.261 206.567Z" fill="#FFBA9A"/>
<path d="M360.526 207.708L360.323 209.319C357.257 211.481 353.857 212.644 350.105 212.719L353.177 203.889L360.526 207.708Z" fill="#001F40"/>
<path d="M354.202 190.671C354.202 190.671 346.84 203.231 350.161 206.696C353.481 210.163 362.433 210.163 362.433 210.163L370.806 200.054L364.742 192.979L354.202 190.671Z" fill="#FFBA9A"/>
<path d="M352.848 194.968C349.843 196.283 347.447 197.733 348.135 198.767C349.066 200.164 350.931 200.94 350.931 200.94L352.848 194.968Z" fill="#FFBA9A"/>
<path d="M351.085 184.484C351.229 189.562 352.005 193.505 359.934 193.721C360.788 194.264 361.874 199.466 361.02 200.397L364.823 209.944C371.81 205.357 377.165 198.844 371.345 193.102C371.345 193.102 369.369 185.093 362.107 185.806C354.966 186.503 351.085 184.484 351.085 184.484Z" fill="#001F40"/>
<path d="M364.113 202.852C362.811 204.274 360.859 204.609 359.752 203.596C358.643 202.584 358.799 200.61 360.102 199.186C361.404 197.761 363.356 197.429 364.463 198.439C365.572 199.452 365.413 201.427 364.113 202.852Z" fill="#FFBA9A"/>
<path d="M361.801 201.97L361.104 201.923C361.168 200.985 361.704 200.067 362.44 199.634C362.931 199.344 363.459 199.31 363.931 199.531L363.633 200.163C363.369 200.039 363.088 200.063 362.796 200.234C362.266 200.547 361.848 201.275 361.801 201.97Z" fill="#001F40"/>
<path d="M355.277 203.579C353.818 203.579 352.638 202.399 352.638 200.94C352.638 199.483 353.818 198.301 355.277 198.301C356.734 198.301 357.916 199.483 357.916 200.94C357.916 202.399 356.734 203.579 355.277 203.579Z" fill="#FFA785"/>
<path d="M318.314 235.101L338.735 213.074C339.499 212.248 340.563 211.748 341.687 211.69C349.708 211.268 353.162 212.709 359.076 215.166C361.642 216.23 363.969 217.802 365.911 219.784C370.787 224.761 371.63 232.424 367.955 238.343L351.947 264.111C350.304 266.757 346.64 267.218 344.392 265.062L318.827 241.144C317.132 239.559 316.911 236.948 318.314 235.101Z" fill="white"/>
<path d="M347.784 141.047C347.646 141.101 347.507 141.165 347.365 141.24C347.058 140.086 344.72 139.213 343.09 141.133C343.377 139.595 340.878 139.097 338.898 140.086C333.127 142.776 328.854 150.182 326.323 159.844L342.418 160.346C343.894 154.086 346.318 148.534 349.997 144.486C351.465 142.871 349.815 140.245 347.784 141.047Z" fill="#FFBA9A"/>
<path d="M329.817 223.761L349.062 217.95C343.65 212.323 337.298 182.066 342.418 160.346L327.798 154.678C319.882 176.257 322.056 203.424 329.817 223.761Z" fill="white"/>
<path d="M62.1367 248.998L62.5744 252.707L107.023 276.247L149.792 270.185L181.51 227.464L179.367 224.01L132.177 254.235L62.1367 248.998Z" fill="#BCD5FF"/>
<path d="M146.826 232.503L145.53 233.807L107.621 271.941L106.773 272.789L62.1381 249L100.365 209.871L144.571 231.405L146.826 232.503Z" fill="white"/>
<path d="M146.821 232.503L179.367 224.01L147.961 266.349L106.777 272.793L146.821 232.503Z" fill="#E2EDFF"/>
<path d="M179.367 224.01L146.821 232.503L106.777 272.793L147.961 266.349L179.367 224.01ZM174.718 227.149L146.92 264.626L112.107 270.073L147.785 234.176L174.718 227.149Z" fill="white"/>
<path d="M180.223 84.2009C176.417 94.5002 181.905 106.016 192.479 109.922C196.256 111.319 200.171 111.555 203.818 110.811L189.662 149.118L78.6571 108.099L93.16 68.8517C89.0409 70.0723 84.4737 70.0123 80.0918 68.3926C69.5186 64.4861 64.031 52.9705 67.8367 42.6711C71.6426 32.3718 83.2996 27.1932 93.8729 31.0997C98.2548 32.7193 101.763 35.6433 104.099 39.2495L118.602 7.62939e-05L229.606 41.0193L215.452 79.3269C213.165 76.3901 210.037 74.0239 206.26 72.6295C195.686 68.7208 184.031 73.9016 180.223 84.2009Z" fill="white"/>
<path d="M79.6867 108.478L78.8904 107.467L78.7012 107.978L78.8518 108.171L79.6867 108.478Z" fill="#B8060D"/>
<path d="M92.2199 69.0894C92.3849 69.0486 92.5501 69.0078 92.7138 68.9649L79.9421 52.7297L79.5761 53.0172L92.2199 69.0894Z" fill="#B8060D"/>
<path d="M69.4298 39.3665C69.344 39.5103 69.2576 39.6519 69.1752 39.7956L79.2881 52.6499L79.6539 52.3625L69.4298 39.3665Z" fill="#B8060D"/>
<path d="M141.044 131.153L141.881 131.46L122.815 107.227L122.45 107.515L141.044 131.153Z" fill="#B8060D"/>
<path d="M92.9888 69.3141L92.7996 69.8268L100.725 79.9009L101.091 79.6113L92.9888 69.3141Z" fill="#B8060D"/>
<path d="M101.379 79.9789L101.013 80.2664L122.162 107.148L122.527 106.861L101.379 79.9789Z" fill="#B8060D"/>
<path d="M170.848 112.962L171.213 112.674L150.065 85.7902L149.698 86.0799L170.848 112.962Z" fill="#B8060D"/>
<path d="M192.283 140.21L192.65 139.923L171.5 113.039L171.136 113.328L192.283 140.21Z" fill="#B8060D"/>
<path d="M128.262 58.8308L149.411 85.7129L149.775 85.4254L128.628 58.5412L128.262 58.8308Z" fill="#B8060D"/>
<path d="M107.191 31.2922L106.976 31.4617L106.898 31.6741L127.973 58.4639L128.34 58.1764L107.191 31.2922Z" fill="#B8060D"/>
<path d="M192.74 140.79L192.921 140.303L192.571 140.577L192.74 140.79Z" fill="#B8060D"/>
<path d="M155.222 37.0264L155.589 36.7389L134.44 9.85684L134.074 10.1443L155.222 37.0264Z" fill="#B8060D"/>
<path d="M130 4.21305L129.164 3.90413L133.786 9.77783L134.152 9.49036L130 4.21305Z" fill="#B8060D"/>
<path d="M185.938 76.0693C186.056 75.9685 186.178 75.872 186.298 75.7754L177.314 64.3542L176.947 64.6416L185.938 76.0693Z" fill="#B8060D"/>
<path d="M176.66 64.2754L177.026 63.9879L155.876 37.1059L155.51 37.3933L176.66 64.2754Z" fill="#B8060D"/>
<path d="M191.357 26.8857L203.909 42.8398L204.275 42.5502L192.193 27.1946L191.357 26.8857Z" fill="#B8060D"/>
<path d="M220.937 64.4834L221.126 63.9728L204.563 42.9172L204.196 43.2047L220.937 64.4834Z" fill="#B8060D"/>
<path d="M183.743 146.929L184.254 147.12L192.571 140.577L192.921 140.303L193.227 139.468L192.65 139.923L192.283 140.21L183.743 146.929Z" fill="#B8060D"/>
<path d="M145.59 132.831L146.103 133.022L171.136 113.329L171.5 113.039L183.552 103.559C183.454 103.439 183.364 103.312 183.267 103.19L171.213 112.674L170.848 112.962L145.59 132.831Z" fill="#B8060D"/>
<path d="M215.017 78.8052L215.903 78.1101L216.209 77.2756L214.718 78.4491C214.821 78.5649 214.918 78.6872 215.017 78.8052Z" fill="#B8060D"/>
<path d="M177.026 63.9879L176.66 64.2754L149.775 85.4254L149.411 85.7128L122.528 106.861L122.162 107.148L107.437 118.732L107.949 118.923L122.45 107.515L122.815 107.227L149.698 86.0797L150.065 85.7901L176.947 64.6423L177.314 64.3548L204.196 43.2048L204.563 42.9174L214.208 35.3297L213.695 35.1409L204.275 42.5505L203.908 42.8401L177.026 63.9879Z" fill="#B8060D"/>
<path d="M128.262 58.8305L128.628 58.5409L155.51 37.3931L155.876 37.1056L176.055 21.2308L175.542 21.0421L155.589 36.7388L155.222 37.0263L128.34 58.1762L127.974 58.4637L101.091 79.6115L100.725 79.9011L84.3032 92.8198L83.9945 93.6543L101.013 80.2658L101.379 79.9784L128.262 58.8305Z" fill="#B8060D"/>
<path d="M70.0469 60.5146L79.5761 53.017L79.942 52.7295L101.355 35.8829C101.244 35.7735 101.142 35.6555 101.028 35.5483L79.6539 52.3627L79.2882 52.6502L69.794 60.1199C69.8779 60.2508 69.9598 60.3838 70.0469 60.5146Z" fill="#B8060D"/>
<path d="M134.074 10.1437L134.44 9.85619L137.901 7.13173L137.391 6.94293L134.152 9.48936L133.786 9.77683L107.285 30.6264L106.976 31.4609L107.191 31.2915L134.074 10.1437Z" fill="#B8060D"/>
<path d="M126.596 160.241L127.306 178.149L116.491 178.578L115.782 160.667L126.596 160.241Z" fill="#974245"/>
<path d="M126.596 160.241L127.014 170.797C124.012 169.847 120.117 166.095 117.851 162.118L123.914 160.346L126.596 160.241Z" fill="#4A191B"/>
<path d="M131.882 155.086C134.021 158.413 134.06 161.086 130.927 159.672C127.794 158.259 131.882 155.086 131.882 155.086Z" fill="#974245"/>
<path d="M132.001 151.333C132.001 151.333 133.096 165.473 127.486 165.696C121.876 165.917 116.481 161.448 116.481 161.448L116.458 150.745L125.65 146.369L132.001 151.333Z" fill="#974245"/>
<path d="M121.955 154.408C122.573 152.215 124.201 150.578 127.118 149.656C127.118 149.656 131.021 154.652 133.924 152.597C138.024 149.69 133.789 142.433 127.286 143.761C123.984 139.942 120.367 141.172 116.587 144.988C109.642 146.17 108.835 150.173 110.667 155.39C106.49 155.354 105.099 157.46 105.72 161.116L117.901 164.647L120.569 155.444L121.955 154.408Z" fill="#4A191B"/>
<path d="M120.138 142.319C120.23 144.649 118.364 146.612 115.968 146.708C113.573 146.803 111.557 144.992 111.464 142.662C111.372 140.335 113.239 138.37 115.634 138.275C118.029 138.179 120.046 139.992 120.138 142.319Z" fill="#4A191B"/>
<path d="M127.211 161.333C125.855 161.333 124.729 160.263 124.675 158.894C124.619 157.493 125.711 156.311 127.112 156.255C127.147 156.255 127.181 156.253 127.215 156.253C128.571 156.253 129.697 157.326 129.751 158.694C129.806 160.095 128.715 161.277 127.313 161.331C127.279 161.333 127.245 161.333 127.211 161.333Z" fill="#803638"/>
<path d="M123.583 153.62C124.426 155.116 124.172 156.858 123.014 157.51C121.857 158.164 120.235 157.482 119.391 155.987C118.548 154.491 118.802 152.749 119.959 152.097C121.117 151.443 122.739 152.125 123.583 153.62Z" fill="#974245"/>
<path d="M122.093 156.156C122.016 155.015 121.506 154.333 120.489 154.013L120.768 153.125C122.161 153.563 122.919 154.56 123.023 156.092L122.093 156.156Z" fill="#4A191B"/>
<path d="M152.266 164.497C147.598 169.412 140.71 171.654 134.03 170.502C123.957 168.766 111.471 169.32 104.407 176.877L101.549 219.038C101.43 220.795 103.106 222.125 104.789 221.612L137.163 211.755C138.26 211.42 138.991 210.386 138.942 209.243L138.249 193.022C154.767 190.892 171.112 165.477 178.813 149.849L167.913 140.846C162.765 150.607 157.567 158.915 152.266 164.497Z" fill="#B8060D"/>
<path d="M182.516 133.882C183.297 132.891 181.304 130.909 180.066 132.209C181.203 130.235 178.923 128.641 177.711 129.22C177.573 126.996 176.516 126.429 174.54 127.521C172.339 132.168 170.132 136.639 167.913 140.846L178.813 149.849C183.14 141.069 184.837 134.221 182.516 133.882Z" fill="#974245"/>
<path d="M146.826 232.503L106.773 272.789L104.621 229.952L104.174 221.122L136.717 211.866L138.629 215.766L146.826 232.503Z" fill="#FF5C33"/>
<path d="M104.621 229.952L104.205 221.719L104.174 221.122L136.717 211.866L138.629 215.766L104.621 229.952Z" fill="#C8482C"/>
<path d="M114.346 180.762L105.963 200.629C104.892 199.28 103.839 197.909 102.824 196.532C100.085 192.834 97.5331 189.034 95.251 185.085C83.8315 165.402 78.8856 142.219 89.4481 112.012L103.317 115.208C96.5457 133.269 101.231 153.443 106.922 167.061C107.77 169.081 108.636 170.954 109.483 172.649C111.263 176.18 112.977 178.973 114.346 180.762Z" fill="#B8060D"/>
<path d="M101.699 96.3085C102.033 95.0943 104.811 95.5212 104.501 97.2867C105.414 95.2016 108.05 96.0897 108.304 97.409C110.175 96.1991 111.259 96.714 111.554 98.9514C108.546 104.553 105.756 110.008 103.335 115.212L89.4492 112.012C94.4356 101.472 99.8509 94.4443 101.699 96.3085Z" fill="#974245"/>
<path d="M102.823 196.532C100.085 192.834 97.5331 189.035 95.251 185.085C97.8589 176.869 101.352 170.171 106.922 167.061C107.77 169.082 108.636 170.954 109.483 172.649L109.53 172.92C102.19 176.627 102.796 186.063 102.823 196.532Z" fill="#710005"/>
<path d="M152.985 338.135C145.759 344.468 126.016 338.023 111.695 331.56L95.7899 314.25C115.217 319.817 134.709 322.052 146.695 311.894L152.985 338.135Z" fill="white"/>
<path d="M112.898 326.377L107.985 320.531L108.698 319.931L113.611 325.776L112.898 326.377Z" fill="#BCD5FF"/>
<path d="M121.94 329.576L116.749 321.241L117.54 320.748L122.731 329.082L121.94 329.576Z" fill="#BCD5FF"/>
<path d="M143.078 333.945L139.446 320.128L140.347 319.892L143.979 333.709L143.078 333.945Z" fill="#BCD5FF"/>
<path d="M503.312 100.217C504.052 105.608 501.797 111.61 496.616 116.887C489.786 123.844 479.437 126.022 470.234 122.797L455.348 117.582C472.967 112.043 483.003 99.3949 485.073 83.445L503.312 100.217Z" fill="white"/>
<path d="M470.234 122.798C474.087 121.682 477.552 119.945 480.731 117.756C483.38 119.531 486.95 120.597 491.052 121.251C482.962 125.475 477.884 125.269 470.234 122.798Z" fill="#BCD5FF"/>
<path d="M448.46 235.294C447.563 235.191 446.639 235.155 445.738 235.183L445.71 234.252C446.656 234.224 447.626 234.262 448.565 234.37L448.46 235.294ZM440.392 236.137L440.094 235.256C440.997 234.953 441.93 234.715 442.865 234.548L443.028 235.464C442.138 235.622 441.25 235.85 440.392 236.137ZM453.709 236.695C452.875 236.337 452.008 236.034 451.135 235.803L451.373 234.902C452.291 235.148 453.203 235.464 454.076 235.841L453.709 236.695ZM435.552 238.6L435.014 237.841C435.788 237.291 436.612 236.794 437.459 236.363L437.88 237.191C437.075 237.603 436.29 238.077 435.552 238.6ZM458.326 239.557C457.631 238.971 456.889 238.433 456.121 237.956L456.612 237.165C457.416 237.665 458.195 238.229 458.927 238.845L458.326 239.557ZM431.624 242.354L430.89 241.781C431.476 241.031 432.122 240.318 432.808 239.662L433.452 240.336C432.798 240.96 432.184 241.64 431.624 242.354ZM461.926 243.624C461.432 242.867 460.877 242.14 460.276 241.46L460.973 240.844C461.604 241.556 462.187 242.32 462.707 243.116L461.926 243.624ZM428.943 247.08L428.074 246.743C428.419 245.855 428.831 244.984 429.301 244.158L430.11 244.617C429.663 245.405 429.271 246.233 428.943 247.08ZM464.202 248.556C463.947 247.685 463.625 246.827 463.245 246.005L464.09 245.615C464.489 246.48 464.828 247.378 465.094 248.294L464.202 248.556ZM427.746 252.379L426.817 252.308C426.89 251.356 427.031 250.403 427.241 249.481L428.149 249.685C427.951 250.564 427.814 251.472 427.746 252.379ZM465.676 256.654L464.753 256.519C464.884 255.625 464.951 254.711 464.951 253.803C464.951 252.935 464.89 252.066 464.772 251.216L465.695 251.088C465.819 251.98 465.882 252.892 465.882 253.803C465.882 254.756 465.813 255.715 465.676 256.654ZM427.211 257.995C427.01 257.066 426.875 256.114 426.81 255.166L427.737 255.101C427.799 256.007 427.93 256.912 428.123 257.798L427.211 257.995ZM464.032 262.116L463.189 261.719C463.575 260.9 463.904 260.044 464.163 259.175L465.056 259.443C464.781 260.355 464.438 261.254 464.032 262.116ZM429.232 263.328C428.769 262.496 428.361 261.625 428.024 260.737L428.898 260.409C429.217 261.252 429.603 262.082 430.045 262.874L429.232 263.328ZM460.879 266.87L460.184 266.248C460.791 265.572 461.351 264.847 461.853 264.094L462.627 264.609C462.104 265.398 461.514 266.16 460.879 266.87ZM432.707 267.848C432.025 267.188 431.386 266.469 430.807 265.716L431.545 265.147C432.096 265.866 432.707 266.548 433.355 267.179L432.707 267.848ZM456.492 270.515L456.007 269.719C456.777 269.251 457.524 268.717 458.223 268.138L458.817 268.852C458.084 269.464 457.301 270.024 456.492 270.515ZM437.337 271.182C436.494 270.747 435.674 270.242 434.9 269.685L435.445 268.927C436.181 269.459 436.961 269.94 437.764 270.354L437.337 271.182ZM451.242 272.74L451.009 271.836C451.886 271.609 452.753 271.315 453.587 270.961L453.95 271.819C453.074 272.19 452.163 272.499 451.242 272.74ZM442.732 273.033C441.793 272.86 440.862 272.615 439.965 272.308L440.269 271.427C441.121 271.721 442.007 271.954 442.902 272.12L442.732 273.033ZM446.323 273.364C446.07 273.364 445.821 273.359 445.573 273.349L445.609 272.42C446.512 272.452 447.439 272.42 448.331 272.325L448.43 273.252C447.737 273.325 447.029 273.364 446.323 273.364Z" fill="#95BEFF"/>
<path d="M463.005 250.311C453.941 257.731 440.581 256.399 433.162 247.335C425.744 238.274 427.076 224.911 436.138 217.493C445.201 210.075 458.562 211.407 465.98 220.468C473.398 229.532 472.066 242.893 463.005 250.311Z" fill="white"/>
<path d="M449.533 213.16C444.762 213.16 440.175 214.79 436.432 217.854C427.582 225.098 426.278 238.191 433.523 247.042C440.765 255.891 453.86 257.195 462.709 249.951C471.558 242.706 472.864 229.614 465.62 220.765C462.11 216.476 457.142 213.814 451.629 213.265C450.927 213.194 450.228 213.16 449.533 213.16ZM449.591 255.565C443.311 255.565 437.079 252.858 432.802 247.632C425.231 238.384 426.596 224.703 435.842 217.133C445.09 209.562 458.772 210.929 466.341 220.175C473.911 229.421 472.547 243.103 463.299 250.672C459.278 253.962 454.422 255.565 449.591 255.565Z" fill="#95BEFF"/>
<path d="M459.107 236.758L448.878 234.276L453.855 220.398L454.846 220.752L450.264 233.529L459.356 235.735L459.107 236.758Z" fill="#95BEFF"/>
<path d="M254.97 178.228C257.231 170.476 252.558 162.345 244.593 160.477C237.859 158.895 230.808 162.553 228.242 168.976C226.946 172.226 226.931 175.605 227.916 178.621C229.042 182.068 229.25 185.75 228.233 189.231L226.498 195.182L242.68 199.902L244.417 193.947C245.421 190.506 247.504 187.5 250.295 185.25C252.46 183.501 254.131 181.103 254.97 178.228Z" fill="#95BEFF"/>
<path d="M239.743 209.91L223.598 205.201L225.402 199.014L241.547 203.721L239.743 209.91Z" fill="#95BEFF"/>
<path d="M237.475 198.577L236.587 198.203L245.001 178.214C244.308 178.242 243.608 178.057 243.012 177.667C242.235 177.163 241.718 176.369 241.59 175.49C241.572 175.367 241.457 175.318 241.422 175.305C241.386 175.294 241.259 175.26 241.167 175.35L240.925 175.582C240.281 176.204 239.376 176.519 238.453 176.446C237.829 176.399 237.241 176.18 236.748 175.829L233.099 197.187L232.151 197.024L236.136 173.679L236.808 174.563C237.213 175.097 237.842 175.434 238.528 175.487C239.183 175.537 239.813 175.32 240.257 174.889L240.498 174.657C240.819 174.346 241.291 174.243 241.733 174.396C242.169 174.544 242.48 174.91 242.544 175.352C242.63 175.957 242.993 176.506 243.538 176.86C244.121 177.24 244.835 177.352 245.49 177.167L246.618 176.852L237.475 198.577Z" fill="white"/>
<path d="M235.111 155.525L229.057 142.949L230.316 142.345L236.37 154.92L235.111 155.525Z" fill="#95BEFF"/>
<path d="M258.741 161.141L257.917 160.013L268.512 152.264L269.338 153.393L258.741 161.141Z" fill="#95BEFF"/>
<path d="M248.757 154.702L247.408 154.343L252.53 135.017L253.882 135.375L248.757 154.702Z" fill="#95BEFF"/>
<path d="M63.4414 169.161L51.9063 161.249C53.9314 150.806 48.8821 139.889 38.8866 134.944C26.8974 129.015 12.3713 133.925 6.44125 145.915C0.511367 157.903 5.42312 172.43 17.4122 178.36C29.3902 184.285 43.8996 179.385 49.8397 167.421L63.4414 169.161Z" fill="white"/>
<path d="M28.1874 132.901C19.4323 132.901 10.9961 137.756 6.85855 146.12C1.05223 157.859 5.87902 172.136 17.6187 177.941C29.3401 183.739 43.6081 178.925 49.4223 167.212L49.5699 166.916L61.5878 168.454L51.3908 161.459L51.4492 161.158C53.4792 150.692 48.2283 140.083 38.6798 135.36C35.3054 133.691 31.72 132.901 28.1874 132.901ZM28.1029 181.33C24.432 181.33 20.7106 180.511 17.2057 178.777C5.00591 172.743 -0.0103109 157.908 6.02405 145.706C12.058 133.506 26.8932 128.491 39.093 134.525C48.9246 139.388 54.3725 150.256 52.4199 161.036L65.2952 169.868L50.1071 167.922C45.7516 176.411 37.0853 181.33 28.1029 181.33Z" fill="#95BEFF"/>
<path d="M18.2485 156.651C18.2485 158.258 16.9453 159.562 15.3377 159.562C13.7302 159.562 12.4268 158.258 12.4268 156.651C12.4268 155.045 13.7302 153.74 15.3377 153.74C16.9453 153.74 18.2485 155.045 18.2485 156.651Z" fill="#95BEFF"/>
<path d="M30.5902 156.651C30.5902 158.258 29.2869 159.562 27.6793 159.562C26.0719 159.562 24.7686 158.258 24.7686 156.651C24.7686 155.045 26.0719 153.74 27.6793 153.74C29.2869 153.74 30.5902 155.045 30.5902 156.651Z" fill="#95BEFF"/>
<path d="M42.9317 156.651C42.9317 158.258 41.6285 159.562 40.0211 159.562C38.4134 159.562 37.1102 158.258 37.1102 156.651C37.1102 155.045 38.4134 153.74 40.0211 153.74C41.6285 153.74 42.9317 155.045 42.9317 156.651Z" fill="#95BEFF"/>
<path d="M375.262 307.482L383.976 326.369L355.785 339.373L347.074 320.486L365.518 323.425L375.262 307.482Z" fill="white"/>
<path d="M375.262 307.482L367.125 327.645L347.074 320.486L375.262 307.482Z" fill="#95BEFF"/>
<path d="M25.7191 288.762H1.39012C0.622336 288.762 0 288.14 0 287.372C0 286.604 0.622336 285.982 1.39012 285.982H25.7191C26.4869 285.982 27.1092 286.604 27.1092 287.372C27.1092 288.14 26.4869 288.762 25.7191 288.762Z" fill="#BCD5FF"/>
<path d="M16.7076 294.759H1.12754C0.504777 294.759 0 294.255 0 293.63V293.107C0 292.483 0.504777 291.979 1.12754 291.979H16.7076C17.3304 291.979 17.8351 292.483 17.8351 293.107V293.63C17.8351 294.255 17.3304 294.759 16.7076 294.759Z" fill="#BCD5FF"/>
<path d="M21.2579 300.754H1.2672C0.567419 300.754 0 300.185 0 299.486V299.239C0 298.54 0.567419 297.974 1.2672 297.974H21.2579C21.9579 297.974 22.5253 298.54 22.5253 299.239V299.486C22.5253 300.185 21.9579 300.754 21.2579 300.754Z" fill="#BCD5FF"/>
<path d="M23.669 293.368C23.669 294.231 22.9705 294.928 22.109 294.928C21.2474 294.928 20.5489 294.231 20.5489 293.368C20.5489 292.506 21.2474 291.809 22.109 291.809C22.9705 291.809 23.669 292.506 23.669 293.368Z" fill="#BCD5FF"/>
</svg>
