<svg width="44" height="60" viewBox="0 0 44 60" fill="none" xmlns="http://www.w3.org/2000/svg">
<path d="M43.3327 17.727C43.3279 13.378 39.803 9.85314 35.454 9.84833H32.4553C31.9455 4.27018 27.2681 0 21.6663 0C16.0646 0 11.3871 4.27018 10.8774 9.84833H7.87867C3.52722 9.84833 0 13.3756 0 17.727C0 22.0784 3.52722 25.6057 7.87867 25.6057H18.7118V23.636H7.87867C4.61544 23.636 1.96967 20.9902 1.96967 17.727C1.96967 14.4638 4.61544 11.818 7.87867 11.818H12.8028V10.8332C12.8028 5.93785 16.771 1.96967 21.6663 1.96967C26.5616 1.96967 30.5298 5.93785 30.5298 10.8332V11.818H35.454C38.7172 11.818 41.363 14.4638 41.363 17.727C41.363 20.9902 38.7172 23.636 35.454 23.636H24.6208V25.6057H35.454C39.803 25.6009 43.3279 22.076 43.3327 17.727Z" fill="#B8060D"/>
<path d="M39.3933 56.1355V39.3934C39.3914 37.7622 38.07 36.4408 36.4388 36.4389H34.4692V34.2879C35.7651 33.832 36.5744 32.5414 36.4201 31.1762C36.2657 29.811 35.1881 28.7333 33.8229 28.5789C32.4577 28.4246 31.167 29.2339 30.7111 30.5299H22.6512V18.1348L24.9094 20.393L26.302 19.0004L21.6663 14.3647L17.0307 19.0004L18.4233 20.393L20.6815 18.1348V30.5299H12.6215C12.1657 29.2339 10.875 28.4241 9.5098 28.5789C8.14459 28.7333 7.06695 29.8105 6.91259 31.1757C6.75823 32.5409 7.56754 33.832 8.8635 34.2874V37.4237H2.9545C1.32337 37.4256 0.0019235 38.7471 0 40.3782V52.1962C0.0019235 53.8273 1.32337 55.1488 2.9545 55.1507H8.8635V57.1204H5.909V59.09H13.7877V57.1204H10.8332V55.1507H16.7422C18.3733 55.1488 19.6947 53.8273 19.6967 52.1962V40.3782C19.6947 38.7471 18.3733 37.4256 16.7422 37.4237H10.8332V34.2879C11.6675 33.9902 12.3239 33.3338 12.6215 32.4995H30.7111C31.0088 33.3338 31.6652 33.9902 32.4995 34.2874V36.4389H26.5905C24.9594 36.4408 23.6379 37.7622 23.636 39.3934V56.1355C23.6379 57.7667 24.9594 59.0881 26.5905 59.09H36.4388C38.07 59.0881 39.3914 57.7667 39.3933 56.1355ZM17.727 52.1962C17.7265 52.7401 17.286 53.1805 16.7422 53.181H2.9545C2.41063 53.1805 1.97015 52.7401 1.96967 52.1962V50.2265H17.727V52.1962ZM16.7422 39.3934C17.286 39.3938 17.7265 39.8343 17.727 40.3782V48.2569H1.96967V40.3782C1.97015 39.8343 2.41063 39.3938 2.9545 39.3934H16.7422ZM9.84833 32.4995C9.30446 32.4995 8.8635 32.0586 8.8635 31.5147C8.8635 30.9708 9.30446 30.5299 9.84833 30.5299C10.3922 30.5299 10.8332 30.9708 10.8332 31.5147C10.8327 32.0586 10.3922 32.499 9.84833 32.4995ZM33.4843 30.5299C34.0282 30.5299 34.4692 30.9708 34.4692 31.5147C34.4692 32.0586 34.0282 32.4995 33.4843 32.4995C32.9405 32.4995 32.4995 32.0586 32.4995 31.5147C32.5 30.9708 32.9405 30.5303 33.4843 30.5299ZM25.6057 39.3934C25.6061 38.8495 26.0466 38.409 26.5905 38.4085H36.4388C36.9827 38.409 37.4232 38.8495 37.4237 39.3934V52.1962H25.6057V39.3934ZM25.6057 56.1355V54.1659H37.4237V56.1355C37.4232 56.6794 36.9827 57.1199 36.4388 57.1204H26.5905C26.0466 57.1199 25.6061 56.6794 25.6057 56.1355Z" fill="#B8060D"/>
</svg>
