<svg width="90" height="89" viewBox="0 0 90 89" fill="none" xmlns="http://www.w3.org/2000/svg">
<path d="M12.563 28.7095H18.3049V31.5804H12.563V28.7095Z" fill="#B3131A"/>
<path d="M85.6436 22.9677C88.0176 22.9677 89.9501 21.0353 89.9501 18.6613V4.30645C89.9501 1.93244 88.0176 0 85.6436 0H65.5468C63.1728 0 61.2404 1.93244 61.2404 4.30645V18.6613C61.2404 21.0353 63.1728 22.9677 65.5468 22.9677H69.8533V25.8387H66.9823V28.7097H74.1597V43.0645H68.2356C67.0903 41.9465 65.68 41.0907 64.1015 40.6197C64.1086 40.4746 64.1114 40.3344 64.1114 40.1935C64.1114 33.8614 58.9596 28.7097 52.6275 28.7097C48.6988 28.7097 45.047 30.7536 42.9555 34.0226C41.4822 33.361 39.889 33.0161 38.2727 33.0161C33.5085 33.0161 29.2189 36.0189 27.5409 40.4234C26.4502 40.6576 25.4339 41.0767 24.5108 41.629H13.8694V37.3226H19.6114C21.9854 37.3226 23.9178 35.3901 23.9178 33.0161V4.30645C23.9178 1.93244 21.9854 0 19.6114 0H5.25652C2.88251 0 0.950073 1.93244 0.950073 4.30645V33.0161C0.950073 35.3901 2.88251 37.3226 5.25652 37.3226H10.9985V44.5H21.4576C20.8471 45.3712 20.3733 46.3329 20.0621 47.371H13.8694V63.1613H8.12749C5.75348 63.1613 3.82104 65.0937 3.82104 67.4677V80.3871H0.950073V84.6935C0.950073 87.0676 2.88251 89 5.25652 89H28.2243C30.5983 89 32.5307 87.0676 32.5307 84.6935V80.3871H29.6597V67.4677C29.6597 65.0937 27.7273 63.1613 25.3533 63.1613H16.7404V50.2419H19.6114C19.6114 55.7813 24.1204 60.2903 29.6597 60.2903H61.2404C66.2919 60.2903 70.4736 56.5383 71.1738 51.6774H77.0307V63.1613H66.9823V89H89.9501V63.1613H79.9017V48.8064H71.1682C71.0189 47.7957 70.7091 46.8341 70.2753 45.9355H77.0307V28.7097H84.2081V25.8387H81.3372V22.9677H85.6436ZM21.0468 22.9677H3.82104V8.6129H21.0468V22.9677ZM5.25652 2.87097H19.6114C20.4034 2.87097 21.0468 3.51441 21.0468 4.30645V5.74194H3.82104V4.30645C3.82104 3.51441 4.46449 2.87097 5.25652 2.87097ZM3.82104 33.0161V25.8387H21.0468V33.0161C21.0468 33.8082 20.4034 34.4516 19.6114 34.4516H5.25652C4.46449 34.4516 3.82104 33.8082 3.82104 33.0161ZM29.6597 84.6935C29.6597 85.4856 29.0163 86.129 28.2243 86.129H5.25652C4.46449 86.129 3.82104 85.4856 3.82104 84.6935V83.2581H29.6597V84.6935ZM26.7888 67.4677V80.3871H6.69201V67.4677C6.69201 66.6757 7.33545 66.0323 8.12749 66.0323H25.3533C26.1453 66.0323 26.7888 66.6757 26.7888 67.4677ZM69.8533 86.129V77.5161H87.0791V86.129H69.8533ZM87.0791 74.6452H69.8533V66.0323H87.0791V74.6452ZM61.2404 57.4194H29.6597C25.7024 57.4194 22.4823 54.1993 22.4823 50.2419C22.4823 46.6133 25.1984 43.5524 28.7983 43.122L29.7404 43.0084L30.006 42.0972C31.0679 38.4405 34.4688 35.8871 38.2727 35.8871C39.8574 35.8871 41.4135 36.3322 42.7775 37.1719L44.1478 38.0172L44.8312 36.5572C46.2442 33.5327 49.3044 31.5806 52.6275 31.5806C57.3776 31.5806 61.2404 35.4434 61.2404 40.1935C61.2404 40.5896 61.2046 41.0115 61.1268 41.5211L60.9103 42.9412L62.3296 43.1563C65.8006 43.6862 68.4178 46.7324 68.4178 50.2419C68.4178 54.1993 65.1978 57.4194 61.2404 57.4194ZM65.5468 2.87097H85.6436C86.4357 2.87097 87.0791 3.51441 87.0791 4.30645V14.3548H64.1114V4.30645C64.1114 3.51441 64.7548 2.87097 65.5468 2.87097ZM64.1114 18.6613V17.2258H87.0791V18.6613C87.0791 19.4533 86.4357 20.0968 85.6436 20.0968H65.5468C64.7548 20.0968 64.1114 19.4533 64.1114 18.6613ZM78.4662 25.8387H72.7243V22.9677H78.4662V25.8387Z" fill="#B3131A"/>
<path d="M75.7242 68.9033H78.5952V71.7743H75.7242V68.9033Z" fill="#B3131A"/>
<path d="M84.3372 80.3872H87.2081V83.2582H84.3372V80.3872Z" fill="#B3131A"/>
<path d="M81.4662 68.9033H87.2082V71.7743H81.4662V68.9033Z" fill="#B3131A"/>
<path d="M75.7242 80.3872H81.4662V83.2582H75.7242V80.3872Z" fill="#B3131A"/>
</svg>
