<svg width="60" height="60" viewBox="0 0 60 60" fill="none" xmlns="http://www.w3.org/2000/svg">
<path d="M59.09 30.4981C59.09 24.123 54.5934 18.7849 48.6063 17.4716V4.76532C48.6063 2.13772 46.4686 0 43.841 0H19.0613C16.4337 0 14.296 2.13772 14.296 4.76532V15.249H8.7863L8.2116 17.5516L6.17776 16.3308L1.08078 21.4249L2.30165 23.4606L0 24.0353V31.2424L2.3026 31.8171L1.08078 33.8529L6.17681 38.9479L8.21065 37.7271L8.7863 40.0287H14.296V54.3247C14.296 56.9523 16.4337 59.09 19.0613 59.09H43.841C46.4686 59.09 48.6063 56.9523 48.6063 54.3247V43.5245C54.5934 42.2112 59.09 36.8731 59.09 30.4981ZM57.1839 30.4981C57.1839 32.3556 56.7293 34.1054 55.9401 35.658C55.4112 34.2026 54.1941 33.058 52.6216 32.6644L48.6063 31.6599V31.4321C49.7938 30.5371 50.5124 29.1295 50.5124 27.6398V25.7337C50.5124 24.4023 49.9492 23.1213 48.9665 22.2197C47.9849 21.321 46.6544 20.8693 45.3239 20.9865C42.8889 21.1971 40.9818 23.3701 40.9818 25.93V27.6389C40.9818 29.1285 41.7004 30.5362 42.8879 31.4311V31.6589L38.8726 32.6634C37.3001 33.057 36.083 34.2017 35.5541 35.657C34.7649 34.1054 34.3103 32.3556 34.3103 30.4981C34.3103 24.1916 39.4407 19.0613 45.7471 19.0613C52.0535 19.0613 57.1839 24.1916 57.1839 30.4981ZM42.8879 17.4716C42.2322 17.6155 41.5975 17.8137 40.9818 18.0501V15.249H21.9205V28.5919H32.5567C32.4661 29.2162 32.4042 29.849 32.4042 30.4981C32.4042 36.8731 36.9008 42.2112 42.8879 43.5245V45.7471H20.0144V13.3429H42.8879V17.4716ZM32.9665 26.6858H23.8266V17.1552H39.0756V18.9603C36.165 20.65 33.9482 23.4006 32.9665 26.6858ZM19.0613 1.90613H43.841C45.4173 1.90613 46.7002 3.18895 46.7002 4.76532V7.62452H16.2021V4.76532C16.2021 3.18895 17.4849 1.90613 19.0613 1.90613V1.90613ZM14.296 31.9963C13.6946 32.2612 13.0455 32.4042 12.3898 32.4042C9.76224 32.4042 7.62452 30.2665 7.62452 27.6389C7.62452 25.0113 9.76224 22.8735 12.3898 22.8735C13.0455 22.8735 13.6946 23.0165 14.296 23.2815V31.9963ZM10.275 38.1226L9.81085 36.2651L9.61737 35.7552L8.52897 35.3129L6.47226 36.5481L3.48154 33.5564L4.71672 31.4988L4.24018 30.336L1.90613 29.7537V25.524L4.23732 24.9417L4.71672 23.779L3.48154 21.7213L6.47226 18.7296L8.52897 19.9648L9.69171 19.4921L10.275 17.1552H14.296V21.2581C13.6774 21.0723 13.037 20.9674 12.3898 20.9674C8.71101 20.9674 5.71839 23.961 5.71839 27.6389C5.71839 31.3167 8.71101 34.3103 12.3898 34.3103C13.037 34.3103 13.6774 34.2055 14.296 34.0196V38.1226H10.275ZM43.841 57.1839H19.0613C17.4849 57.1839 16.2021 55.901 16.2021 54.3247V51.4655H46.7002V54.3247C46.7002 55.901 45.4173 57.1839 43.841 57.1839ZM46.7002 49.5594H16.2021V9.53065H46.7002V17.2038C46.3837 17.1809 46.0692 17.1552 45.7471 17.1552C45.425 17.1552 45.1104 17.1809 44.794 17.2038V11.4368H18.1082V47.6532H44.794V43.7924C45.1104 43.8152 45.425 43.841 45.7471 43.841C46.0692 43.841 46.3837 43.8152 46.7002 43.7924V49.5594ZM45.7471 41.9348C42.3304 41.9348 39.2672 40.4204 37.1695 38.0378V37.2867C37.1695 35.9725 38.0606 34.8317 39.3349 34.5124L44.794 33.1485V30.3742L44.3204 30.0987C43.4235 29.5765 42.8879 28.6567 42.8879 27.6389V25.93C42.8879 24.3489 44.0306 23.0117 45.4888 22.885C46.3065 22.8192 47.0814 23.0766 47.679 23.6246C48.268 24.165 48.6063 24.9331 48.6063 25.7327V27.6389C48.6063 28.6567 48.0707 29.5765 47.1738 30.0987L46.7002 30.3742V33.1485L52.1593 34.5124C53.4336 34.8317 54.3247 35.9725 54.3247 37.2867V38.0378C52.227 40.4204 49.1638 41.9348 45.7471 41.9348Z" fill="#B8060D"/>
<path d="M35.2634 3.81226H37.1695V5.71838H35.2634V3.81226Z" fill="#B8060D"/>
<path d="M25.7327 3.81226H33.3572V5.71838H25.7327V3.81226Z" fill="#B8060D"/>
<path d="M27.6389 53.3716H35.2634V55.2777H27.6389V53.3716Z" fill="#B8060D"/>
<path d="M40.9818 53.3716H42.8879V55.2777H40.9818V53.3716Z" fill="#B8060D"/>
<path d="M20.0143 53.3716H21.9205V55.2777H20.0143V53.3716Z" fill="#B8060D"/>
<path d="M21.9205 30.498H30.4981V32.4042H21.9205V30.498Z" fill="#B8060D"/>
<path d="M21.9205 34.3103H30.4981V36.2164H21.9205V34.3103Z" fill="#B8060D"/>
<path d="M21.9205 38.1226H30.4981V40.0287H21.9205V38.1226Z" fill="#B8060D"/>
<path d="M21.9205 41.9348H30.4981V43.8409H21.9205V41.9348Z" fill="#B8060D"/>
<path d="M53.3716 17.1552C54.948 17.1552 56.2308 15.8723 56.2308 14.296C56.2308 13.0551 55.4312 12.0067 54.3247 11.6121V3.81226H52.4186V11.6121C51.3121 12.0067 50.5125 13.0551 50.5125 14.296C50.5125 15.8723 51.7953 17.1552 53.3716 17.1552ZM53.3716 13.3429C53.8968 13.3429 54.3247 13.7699 54.3247 14.296C54.3247 14.8221 53.8968 15.249 53.3716 15.249C52.8465 15.249 52.4186 14.8221 52.4186 14.296C52.4186 13.7699 52.8465 13.3429 53.3716 13.3429Z" fill="#B8060D"/>
<path d="M52.4186 0H54.3247V1.90613H52.4186V0Z" fill="#B8060D"/>
<path d="M9.53064 41.9348C7.95427 41.9348 6.67145 43.2176 6.67145 44.794C6.67145 46.0349 7.47107 47.0833 8.57758 47.4778V55.2777H10.4837V47.4778C11.5902 47.0833 12.3898 46.0349 12.3898 44.794C12.3898 43.2176 11.107 41.9348 9.53064 41.9348ZM9.53064 45.7471C9.0055 45.7471 8.57758 45.3201 8.57758 44.794C8.57758 44.2679 9.0055 43.8409 9.53064 43.8409C10.0558 43.8409 10.4837 44.2679 10.4837 44.794C10.4837 45.3201 10.0558 45.7471 9.53064 45.7471Z" fill="#B8060D"/>
<path d="M8.57758 57.1838H10.4837V59.09H8.57758V57.1838Z" fill="#B8060D"/>
</svg>
