<svg width="87" height="89" viewBox="0 0 87 89" fill="none" xmlns="http://www.w3.org/2000/svg">
<path d="M86.9467 19.0708C86.946 19.0512 86.9453 19.0308 86.9439 19.0104C86.9385 18.9378 86.9304 18.8658 86.9168 18.7958C86.9161 18.7931 86.9161 18.7904 86.9154 18.7884C86.9005 18.7116 86.8788 18.6376 86.8543 18.5643C86.8496 18.5507 86.8441 18.5371 86.8394 18.5236C86.8136 18.4557 86.785 18.3891 86.7518 18.3253C86.7491 18.3205 86.747 18.3151 86.745 18.3103C86.709 18.2431 86.6676 18.1793 86.6234 18.1175C86.6133 18.1032 86.6024 18.089 86.5915 18.0754C86.5454 18.0143 86.4965 17.9559 86.4421 17.9016C86.4415 17.9009 86.4408 17.9002 86.4401 17.8995L69.0505 0.509262C69.0498 0.508583 69.0485 0.507904 69.0478 0.507225C68.9941 0.453583 68.9358 0.404694 68.8746 0.358521C68.8604 0.347656 68.8461 0.336792 68.8319 0.326607C68.7708 0.282471 68.7069 0.241051 68.6397 0.205063C68.6343 0.202347 68.6288 0.20031 68.6234 0.197594C68.5603 0.165001 68.4944 0.136482 68.4265 0.11068C68.4129 0.105927 68.3993 0.100494 68.3851 0.0957412C68.3124 0.0706177 68.2384 0.0495681 68.1617 0.0339507C68.159 0.0339507 68.1569 0.0332717 68.1542 0.0332717C68.0843 0.0196914 68.0123 0.0115433 67.939 0.00611114C67.9193 0.00475312 67.8996 0.0040741 67.8792 0.00339507C67.8595 0.00203706 67.8405 0 67.8208 0H19.1292C18.1684 0 17.3903 0.778832 17.3903 1.73896V10.6076H5.34386C2.39693 10.6076 0 13.0052 0 15.9514V36.5664C0 39.5126 2.39693 41.9096 5.34386 41.9096H17.3903V87.261C17.3903 88.2212 18.1684 89 19.1292 89H85.2104C86.1712 89 86.9501 88.2212 86.9501 87.261V19.1292C86.9501 19.1096 86.9473 19.0905 86.9467 19.0708ZM69.5598 5.93732L81.0121 17.3903H69.5598V5.93732ZM20.8682 85.5221V41.9096H23.3867C24.3475 41.9096 25.1256 41.1307 25.1256 40.1706C25.1256 39.2105 24.3475 38.4316 23.3867 38.4316H5.34386C4.31515 38.4316 3.47792 37.5951 3.47792 36.5657V15.9514C3.47792 14.9227 4.31515 14.0862 5.34386 14.0862H46.8263C47.855 14.0862 48.6922 14.9227 48.6922 15.9514V36.5664C48.6922 37.5951 47.855 38.4316 46.8263 38.4316H37.299C36.3382 38.4316 35.5601 39.2105 35.5601 40.1713C35.5601 41.1314 36.3382 41.9102 37.299 41.9102H46.8263C49.7726 41.9102 52.1702 39.5126 52.1702 36.5664V15.9514C52.1702 13.0052 49.7726 10.6076 46.8263 10.6076H20.8682V3.47792H66.0818V19.1292C66.0818 20.0894 66.8607 20.8682 67.8208 20.8682H83.4715V85.5221H20.8682Z" fill="#B3131A"/>
<path d="M12.1727 17.5642H8.6948C7.73467 17.5642 6.95584 18.343 6.95584 19.3032V33.2155C6.95584 34.1757 7.73467 34.9545 8.6948 34.9545C9.65561 34.9545 10.4338 34.1757 10.4338 33.2155V27.9986H12.1727C15.0497 27.9986 17.3903 25.6581 17.3903 22.7818C17.3903 19.9048 15.0497 17.5642 12.1727 17.5642ZM12.1727 24.5207H10.4338V21.0421H12.1727C13.1322 21.0421 13.9117 21.8223 13.9117 22.7818C13.9117 23.7405 13.1322 24.5207 12.1727 24.5207Z" fill="#B3131A"/>
<path d="M27.824 33.2155C27.824 34.1757 28.6022 34.9545 29.563 34.9545C30.5231 34.9545 31.302 34.1757 31.302 33.2155V19.3032C31.302 18.343 30.5231 17.5642 29.563 17.5642C28.6022 17.5642 27.824 18.343 27.824 19.3032V24.5207H24.3461V19.3032C24.3461 18.343 23.5673 17.5642 22.6072 17.5642C21.6463 17.5642 20.8682 18.343 20.8682 19.3032V33.2155C20.8682 34.1757 21.6463 34.9545 22.6072 34.9545C23.5673 34.9545 24.3461 34.1757 24.3461 33.2155V27.9986H27.824V33.2155Z" fill="#B3131A"/>
<path d="M36.5188 34.9545C37.4796 34.9545 38.2578 34.1757 38.2578 33.2155V27.9986H39.9968C42.8737 27.9986 45.2136 25.6581 45.2136 22.7818C45.2136 19.9048 42.8737 17.5642 39.9968 17.5642H36.5188C35.5587 17.5642 34.7799 18.343 34.7799 19.3032V33.2155C34.7799 34.1757 35.5587 34.9545 36.5188 34.9545ZM38.2578 21.0421H39.9968C40.9555 21.0421 41.7357 21.8223 41.7357 22.7818C41.7357 23.7405 40.9555 24.5207 39.9968 24.5207H38.2578V21.0421Z" fill="#B3131A"/>
<path d="M40.1706 55.8036H74.9505C75.9106 55.8036 76.6894 55.0255 76.6894 54.0646C76.6894 53.1045 75.9106 52.3257 74.9505 52.3257H40.1706C39.2105 52.3257 38.4316 53.1045 38.4316 54.0646C38.4316 55.0255 39.2105 55.8036 40.1706 55.8036Z" fill="#B3131A"/>
<path d="M33.8571 62.7783C34.3025 62.7783 34.7473 62.6079 35.0868 62.2691C35.7658 61.5894 35.7658 60.4887 35.0868 59.809L31.1526 55.8748L35.1927 51.8346C35.8717 51.1556 35.8717 50.0549 35.1927 49.3752C34.5137 48.6962 33.413 48.6962 32.7333 49.3752L27.4635 54.6451C26.7845 55.3248 26.7845 56.4255 27.4635 57.1052L32.6274 62.2691C32.9676 62.6079 33.4123 62.7783 33.8571 62.7783Z" fill="#B3131A"/>
<path d="M71.7652 66.7656C71.0855 66.0866 69.9848 66.0866 69.3058 66.7656C68.6268 67.4446 68.6268 68.546 69.3058 69.225L73.24 73.1592L69.1999 77.1994C68.5209 77.8784 68.5209 78.9798 69.1999 79.6588C69.5394 79.9983 69.9841 80.168 70.4296 80.168C70.8743 80.168 71.3191 79.9983 71.6586 79.6588L76.9291 74.3889C77.6081 73.7099 77.6081 72.6085 76.9291 71.9295L71.7652 66.7656Z" fill="#B3131A"/>
<path d="M64.5167 59.2815H40.1706C39.2105 59.2815 38.4316 60.0603 38.4316 61.0205C38.4316 61.9813 39.2105 62.7601 40.1706 62.7601H64.5167C65.4768 62.7601 66.2557 61.9813 66.2557 61.0205C66.2557 60.0603 65.4768 59.2815 64.5167 59.2815Z" fill="#B3131A"/>
<path d="M64.5167 66.2378H40.1706C39.2105 66.2378 38.4316 67.0159 38.4316 67.9768C38.4316 68.9369 39.2105 69.7157 40.1706 69.7157H64.5167C65.4768 69.7157 66.2557 68.9369 66.2557 67.9768C66.2557 67.0159 65.4768 66.2378 64.5167 66.2378Z" fill="#B3131A"/>
<path d="M64.5167 73.1755H29.7368C28.776 73.1755 27.9979 73.9544 27.9979 74.9145C27.9979 75.8746 28.776 76.6535 29.7368 76.6535H64.5167C65.4768 76.6535 66.2557 75.8746 66.2557 74.9145C66.2557 73.9544 65.4768 73.1755 64.5167 73.1755Z" fill="#B3131A"/>
<path d="M30.9509 38.4892C30.8443 38.4458 30.735 38.4125 30.6257 38.3901C30.4009 38.3446 30.17 38.3446 29.9453 38.3901C29.8339 38.4125 29.7246 38.4458 29.62 38.4892C29.5141 38.5327 29.4136 38.5863 29.3192 38.6488C29.2235 38.7113 29.1352 38.7846 29.0551 38.8647C28.975 38.9462 28.9023 39.0351 28.8392 39.1288C28.7767 39.2246 28.7231 39.3258 28.6796 39.4297C28.6361 39.5342 28.6029 39.6435 28.5805 39.7549C28.5581 39.8676 28.5458 39.981 28.5458 40.0958C28.5458 40.2085 28.5581 40.3219 28.5805 40.4346C28.6029 40.546 28.6361 40.656 28.6796 40.7598C28.7231 40.8644 28.7767 40.9656 28.8392 41.0606C28.9023 41.155 28.975 41.2433 29.0551 41.3255C29.3783 41.6487 29.8271 41.8347 30.2848 41.8347C30.3975 41.8347 30.5123 41.8225 30.6257 41.8001C30.735 41.7777 30.8443 41.7444 30.9509 41.701C31.0548 41.6575 31.156 41.6039 31.2497 41.5407C31.3454 41.4782 31.4344 41.4056 31.5138 41.3255C31.5939 41.2433 31.6673 41.155 31.7311 41.0613C31.7943 40.9656 31.8479 40.8644 31.8913 40.7598C31.9348 40.656 31.9681 40.5466 31.9905 40.4353C32.0129 40.3219 32.0238 40.2092 32.0238 40.0958C32.0238 39.981 32.0129 39.8683 31.9905 39.7549C31.9681 39.6435 31.9348 39.5342 31.8913 39.4303C31.8479 39.3258 31.7943 39.2246 31.7311 39.1288C31.6673 39.0351 31.5939 38.9469 31.5138 38.8647C31.4344 38.7846 31.3454 38.7119 31.2497 38.6495C31.156 38.5863 31.0548 38.5327 30.9509 38.4892Z" fill="#B3131A"/>
</svg>
