<svg width="60" height="60" viewBox="0 0 60 60" fill="none" xmlns="http://www.w3.org/2000/svg">
<path d="M44.8245 53.2543L46.7385 39.91L48.6257 40.1807L46.7117 53.525L44.8245 53.2543Z" fill="#B8060D"/>
<path d="M48.8887 44.5176L51.0742 46.7032L48.8887 48.8887L50.2364 50.2364L53.7696 46.7032L50.2364 43.1699L48.8887 44.5176Z" fill="#B8060D"/>
<path d="M43.1699 43.1699L39.6367 46.7032L43.1699 50.2364L44.5176 48.8887L42.3321 46.7032L44.5176 44.5176L43.1699 43.1699Z" fill="#B8060D"/>
<path d="M57.0769 43.4444C56.7891 43.35 56.5642 43.1432 56.4612 42.8782C56.4126 42.7524 56.3621 42.6276 56.3078 42.5037C56.1953 42.2435 56.2086 41.9404 56.344 41.6716C56.9168 40.5393 56.6985 39.1744 55.8007 38.2775L55.2812 37.758V2.85938C55.2812 1.28291 53.9983 0 52.4219 0H2.85938C1.28291 0 0 1.28291 0 2.85938V42.8906C0 44.4671 1.28291 45.75 2.85938 45.75H34.3525C34.3268 45.9063 34.3125 46.0664 34.3125 46.2285V47.1778C34.3125 48.4464 35.1227 49.5654 36.3293 49.9619C36.6172 50.0562 36.8421 50.263 36.945 50.528C36.9936 50.6538 37.0442 50.7787 37.0985 50.9026C37.211 51.1628 37.1976 51.4659 37.0623 51.7347C36.4894 52.867 36.7077 54.2319 37.6055 55.1288L38.2765 55.8007C39.1734 56.6985 40.5374 56.9159 41.6706 56.344C41.9394 56.2077 42.2425 56.1943 42.5037 56.3078C42.6266 56.3611 42.7515 56.4126 42.8754 56.4612C43.1423 56.5642 43.3491 56.79 43.4434 57.0788C43.8409 58.2836 44.9599 59.0938 46.2285 59.0938H47.1778C48.4464 59.0938 49.5654 58.2836 49.9619 57.0769C50.0562 56.7891 50.263 56.5642 50.528 56.4612C50.6538 56.4126 50.7787 56.3621 50.9026 56.3078C51.1618 56.1943 51.4659 56.2077 51.7347 56.344C52.867 56.9159 54.2319 56.6985 55.1288 55.8007L55.8007 55.1297C56.6985 54.2328 56.9168 52.8679 56.344 51.7356C56.2077 51.4668 56.1953 51.1637 56.3078 50.9026C56.3611 50.7796 56.4126 50.6548 56.4612 50.5309C56.5642 50.264 56.79 50.0572 57.0788 49.9628C58.2836 49.5654 59.0938 48.4464 59.0938 47.1778V46.2285C59.0938 44.9599 58.2836 43.8409 57.0769 43.4444ZM1.90625 2.85938C1.90625 2.3342 2.3342 1.90625 2.85938 1.90625H52.4219C52.947 1.90625 53.375 2.3342 53.375 2.85938V11.4375H1.90625V2.85938ZM2.85938 43.8438C2.3342 43.8438 1.90625 43.4158 1.90625 42.8906V13.3438H53.375V36.7706C52.8241 36.7106 52.256 36.7992 51.7347 37.0623C51.4668 37.1986 51.1637 37.211 50.9016 37.0985C50.7796 37.0451 50.6548 36.9946 50.5299 36.945C50.264 36.8421 50.0562 36.6162 49.9619 36.3274C49.5654 35.1227 48.4464 34.3125 47.1778 34.3125H46.2285C44.9599 34.3125 43.8409 35.1227 43.4444 36.3293C43.35 36.6172 43.1432 36.8421 42.8763 36.945C42.7515 36.9936 42.6276 37.0442 42.5037 37.0985C42.2435 37.211 41.9404 37.1986 41.6716 37.0623C40.5383 36.4894 39.1744 36.7077 38.2775 37.6055L37.6065 38.2765C36.7087 39.1734 36.4904 40.5383 37.0632 41.6706C37.1995 41.9394 37.2119 42.2425 37.0994 42.5037C37.0461 42.6266 36.9946 42.7515 36.946 42.8754C36.843 43.1423 36.6172 43.3491 36.3284 43.4434C36.0424 43.5378 35.7803 43.675 35.5449 43.8428H2.85938V43.8438ZM57.1875 47.1778C57.1875 47.621 56.9044 48.0118 56.4822 48.1509C55.6511 48.4235 54.9953 49.0392 54.6846 49.8399C54.6446 49.9418 54.6026 50.0438 54.5597 50.143C54.2204 50.9245 54.25 51.8176 54.6427 52.5944C54.8428 52.9899 54.7666 53.4665 54.453 53.7801L53.781 54.452C53.4665 54.7666 52.9899 54.8419 52.5953 54.6417C51.8195 54.249 50.9245 54.2204 50.1449 54.5588C50.0448 54.6017 49.9428 54.6436 49.8389 54.6846C49.0392 54.9953 48.4245 55.6511 48.1509 56.4831C48.0127 56.9044 47.621 57.1875 47.1778 57.1875H46.2285C45.7853 57.1875 45.3945 56.9044 45.2553 56.4822C44.9827 55.6511 44.367 54.9953 43.5664 54.6846C43.4644 54.6446 43.3624 54.6026 43.2633 54.5597C42.903 54.4025 42.5189 54.3243 42.1329 54.3243C41.6821 54.3243 41.2303 54.4311 40.8119 54.6417C40.4154 54.8419 39.9398 54.7656 39.6262 54.452L38.9542 53.7801C38.6406 53.4665 38.5644 52.9899 38.7645 52.5944C39.1572 51.8176 39.1868 50.9245 38.8475 50.1439C38.8046 50.0438 38.7626 49.9418 38.7217 49.838C38.4109 49.0383 37.7552 48.4235 36.9231 48.15C36.5018 48.0127 36.2188 47.621 36.2188 47.1778V46.2285C36.2188 45.7853 36.5018 45.3945 36.9231 45.2553C37.7552 44.9827 38.4109 44.367 38.7217 43.5664C38.7617 43.4644 38.8036 43.3624 38.8465 43.2633C39.1858 42.4817 39.1563 41.5887 38.7636 40.8119C38.5634 40.4163 38.6397 39.9388 38.9533 39.6252L39.6243 38.9542C39.9378 38.6397 40.4144 38.5634 40.8109 38.7645C41.5877 39.1572 42.4817 39.1868 43.2614 38.8475C43.3624 38.8036 43.4644 38.7617 43.5664 38.7226C44.3661 38.4109 44.9818 37.7552 45.2553 36.9241C45.3935 36.5018 45.7853 36.2188 46.2285 36.2188H47.1778C47.621 36.2188 48.0118 36.5018 48.1509 36.9241C48.4245 37.7552 49.0392 38.4109 49.8389 38.7217C49.9409 38.7617 50.0429 38.8036 50.143 38.8465C50.9226 39.1858 51.8176 39.1553 52.5944 38.7636C52.989 38.5625 53.4665 38.6397 53.781 38.9533L54.452 39.6243C54.7656 39.9378 54.8419 40.4154 54.6417 40.8109C54.249 41.5877 54.2195 42.4808 54.5588 43.2614C54.6017 43.3615 54.6436 43.4635 54.6846 43.5673C54.9953 44.367 55.6511 44.9818 56.4831 45.2553C56.9044 45.3935 57.1875 45.7853 57.1875 46.2285V47.1778Z" fill="#B8060D"/>
<path d="M3.8125 9.53125H9.53125V3.8125H3.8125V9.53125ZM5.71875 5.71875H7.625V7.625H5.71875V5.71875Z" fill="#B8060D"/>
<path d="M11.4375 9.53125H17.1562V3.8125H11.4375V9.53125ZM13.3438 5.71875H15.25V7.625H13.3438V5.71875Z" fill="#B8060D"/>
<path d="M19.0625 9.53125H24.7812V3.8125H19.0625V9.53125ZM20.9688 5.71875H22.875V7.625H20.9688V5.71875Z" fill="#B8060D"/>
<path d="M33.3594 15.25H6.67188C5.09541 15.25 3.8125 16.5329 3.8125 18.1094V33.3594C3.8125 34.9358 5.09541 36.2188 6.67188 36.2188H20.68L25.7897 39.6252C26.189 39.8911 26.6522 40.0312 27.1307 40.0312C28.4632 40.0312 29.5469 38.9475 29.5469 37.6151V36.2188H33.3594C34.9358 36.2188 36.2188 34.9358 36.2188 33.3594V18.1094C36.2188 16.5329 34.9358 15.25 33.3594 15.25ZM34.3125 33.3594C34.3125 33.8845 33.8845 34.3125 33.3594 34.3125H27.6406V37.6151C27.6406 37.9963 27.165 38.2499 26.8476 38.0392L21.2575 34.3125H6.67188C6.1467 34.3125 5.71875 33.8845 5.71875 33.3594V18.1094C5.71875 17.5842 6.1467 17.1562 6.67188 17.1562H33.3594C33.8845 17.1562 34.3125 17.5842 34.3125 18.1094V33.3594Z" fill="#B8060D"/>
<path d="M5.71875 40.0312H7.625V41.9375H5.71875V40.0312Z" fill="#B8060D"/>
<path d="M9.53125 40.0312H11.4375V41.9375H9.53125V40.0312Z" fill="#B8060D"/>
<path d="M13.3438 40.0312H15.25V41.9375H13.3438V40.0312Z" fill="#B8060D"/>
<path d="M17.1562 40.0312H19.0625V41.9375H17.1562V40.0312Z" fill="#B8060D"/>
<path d="M9.53125 22.875C9.53125 23.9263 8.6763 24.7812 7.625 24.7812V26.6875C8.6763 26.6875 9.53125 27.5425 9.53125 28.5938C9.53125 30.6963 11.2412 32.4062 13.3438 32.4062V30.5C12.2925 30.5 11.4375 29.645 11.4375 28.5938C11.4375 27.45 10.9209 26.434 10.1203 25.7344C10.9209 25.0348 11.4375 24.0188 11.4375 22.875C11.4375 21.8237 12.2925 20.9688 13.3438 20.9688V19.0625C11.2412 19.0625 9.53125 20.7724 9.53125 22.875Z" fill="#B8060D"/>
<path d="M30.5 22.875C30.5 20.7724 28.7901 19.0625 26.6875 19.0625V20.9688C27.7388 20.9688 28.5938 21.8237 28.5938 22.875C28.5938 24.0188 29.1103 25.0348 29.911 25.7344C29.1103 26.434 28.5938 27.45 28.5938 28.5938C28.5938 29.645 27.7388 30.5 26.6875 30.5V32.4062C28.7901 32.4062 30.5 30.6963 30.5 28.5938C30.5 27.5425 31.355 26.6875 32.4062 26.6875V24.7812C31.355 24.7812 30.5 23.9263 30.5 22.875Z" fill="#B8060D"/>
<path d="M15.25 19.0625H24.7812V20.9688H15.25V19.0625Z" fill="#B8060D"/>
<path d="M15.25 22.875H24.7812V24.7812H15.25V22.875Z" fill="#B8060D"/>
<path d="M15.25 26.6875H17.1562V28.5938H15.25V26.6875Z" fill="#B8060D"/>
<path d="M19.0625 26.6875H24.7812V28.5938H19.0625V26.6875Z" fill="#B8060D"/>
<path d="M15.25 30.5H24.7812V32.4062H15.25V30.5Z" fill="#B8060D"/>
<path d="M38.125 19.0625H40.0312V20.9688H38.125V19.0625Z" fill="#B8060D"/>
<path d="M41.9375 19.0625H51.4688V20.9688H41.9375V19.0625Z" fill="#B8060D"/>
<path d="M38.125 22.875H51.4688V24.7812H38.125V22.875Z" fill="#B8060D"/>
<path d="M38.125 26.6875H41.9375V28.5938H38.125V26.6875Z" fill="#B8060D"/>
<path d="M43.8438 26.6875H45.75V28.5938H43.8438V26.6875Z" fill="#B8060D"/>
<path d="M47.6562 26.6875H51.4688V28.5938H47.6562V26.6875Z" fill="#B8060D"/>
<path d="M38.125 30.5H51.4688V32.4062H38.125V30.5Z" fill="#B8060D"/>
<path d="M38.125 15.25H51.4688V17.1562H38.125V15.25Z" fill="#B8060D"/>
</svg>
