<svg width="89" height="89" viewBox="0 0 89 89" fill="none" xmlns="http://www.w3.org/2000/svg">
<path d="M83.7852 13.9062H79.6133V5.21484C79.6133 2.33938 77.2739 0 74.3984 0H14.6016C11.7261 0 9.38672 2.33938 9.38672 5.21484V13.9062H5.21484C2.33938 13.9062 0 16.2456 0 19.1211V69.1832C0 72.0587 2.33938 74.3981 5.21484 74.3981H35.8086V78.5696H32.5017C29.6262 78.5696 27.2868 80.909 27.2868 83.7845V87.2617C27.2868 88.2218 28.0651 89 29.0251 89H59.975C60.9351 89 61.7133 88.2218 61.7133 87.2617V83.7845C61.7133 80.909 59.374 78.5696 56.4985 78.5696H53.1914V74.3981H83.7852C86.6606 74.3981 89 72.0587 89 69.1832V19.1211C89 16.2456 86.6606 13.9062 83.7852 13.9062ZM83.7852 17.3828C84.7436 17.3828 85.5234 18.1626 85.5234 19.1211V59.1012H79.6133V17.3828H83.7852ZM14.6016 3.47656H74.3984C75.3569 3.47656 76.1367 4.25636 76.1367 5.21484V13.9062H12.8633V5.21484C12.8633 4.25636 13.6431 3.47656 14.6016 3.47656ZM5.21484 17.3828H9.38672V30.4182C9.38672 31.3782 10.1649 32.1565 11.125 32.1565C12.0851 32.1565 12.8633 31.3782 12.8633 30.4182V17.3828H76.1367V59.1012H67.2715V53.3729C67.2715 52.4128 66.4933 51.6346 65.5332 51.6346H63.2715C62.874 50.2659 62.3285 48.95 61.6405 47.6997L63.2406 46.0997C63.9194 45.4209 63.9194 44.3203 63.2406 43.6413L57.9632 38.3639C57.2844 37.6852 56.1837 37.6852 55.5047 38.3639L53.9048 39.964C52.6546 39.2759 51.3386 38.7305 49.9699 38.3331V36.0714C49.9699 35.1114 49.1916 34.3331 48.2316 34.3331H40.7681C39.808 34.3331 39.0298 35.1114 39.0298 36.0714V38.3331C37.6611 38.7306 36.3452 39.2759 35.0949 39.964L33.4949 38.3639C32.8161 37.6852 31.7155 37.6852 31.0365 38.3639L25.7591 43.6413C25.0803 44.3201 25.0803 45.4208 25.7591 46.0997L27.3592 47.6997C26.6711 48.9498 26.1257 50.2659 25.7281 51.6346H23.4668C22.5067 51.6346 21.7285 52.4128 21.7285 53.3729V59.1012H12.8633V46.0627C12.8633 45.1027 12.0851 44.3244 11.125 44.3244C10.1649 44.3244 9.38672 45.1027 9.38672 46.0627V59.1012H3.47656V19.1211C3.47656 18.1626 4.25636 17.3828 5.21484 17.3828ZM30.7754 46.199L29.4468 44.8704L32.266 42.0513L33.5945 43.3799C34.1746 43.9596 35.0811 44.0553 35.7695 43.6091C37.4144 42.5425 39.2182 41.7949 41.1309 41.3871C41.9333 41.216 42.5067 40.5073 42.5067 39.687V37.8094H46.4936V39.687C46.4936 40.5073 47.0671 41.216 47.8695 41.3871C49.7819 41.7949 51.5858 42.5423 53.2309 43.6091C53.9192 44.0553 54.8257 43.9597 55.4058 43.3799L56.7344 42.0513L59.5535 44.8704L58.2249 46.199C57.6451 46.7791 57.5493 47.6856 57.9957 48.3739C59.0623 50.019 59.8099 51.8229 60.2177 53.7353C60.3888 54.5375 61.0975 55.1112 61.9178 55.1112H63.7949V59.1012H52.958C53.1127 58.4494 53.1925 57.7794 53.1925 57.1046C53.1925 52.3115 49.293 48.4122 44.5 48.4122C39.707 48.4122 35.8076 52.3117 35.8076 57.1046C35.8076 57.7794 35.8873 58.4494 36.042 59.1012H25.2051V55.1112H27.0826C27.9029 55.1112 28.6116 54.5377 28.7826 53.7353C29.1904 51.8227 29.9381 50.0189 31.0047 48.3739C31.4511 47.6857 31.3555 46.7791 30.7754 46.199ZM39.2841 57.1046C39.2841 54.2286 41.6238 51.8887 44.5 51.8887C47.3762 51.8887 49.7159 54.2286 49.7159 57.1046C49.7159 57.7911 49.577 58.4692 49.3133 59.1012H39.6867C39.423 58.4692 39.2841 57.7911 39.2841 57.1046ZM58.2366 83.7845V85.5234H30.7634V83.7845C30.7634 82.826 31.5432 82.0462 32.5017 82.0462H56.4985C57.457 82.0462 58.2366 82.826 58.2366 83.7845ZM49.7148 78.5696H39.2852V74.3981H49.7148V78.5696ZM83.7852 70.9215H5.21484C4.25636 70.9215 3.47656 70.1417 3.47656 69.1832V62.5778H85.5234V69.1832C85.5234 70.1417 84.7436 70.9215 83.7852 70.9215Z" fill="#B3131A"/>
<path d="M49.7148 10.4297H68.4883C69.4483 10.4297 70.2266 9.65146 70.2266 8.69141C70.2266 7.73135 69.4483 6.95312 68.4883 6.95312H49.7148C48.7548 6.95312 47.9766 7.73135 47.9766 8.69141C47.9766 9.65146 48.7548 10.4297 49.7148 10.4297Z" fill="#B3131A"/>
<path d="M28.1602 10.4297C28.6173 10.4297 29.0658 10.2437 29.3891 9.92037C29.7124 9.59705 29.8984 9.14857 29.8984 8.69141C29.8984 8.23424 29.7124 7.78576 29.3891 7.46244C29.0658 7.13912 28.6173 6.95312 28.1602 6.95312C27.703 6.95312 27.2545 7.13912 26.9312 7.46244C26.6079 7.78576 26.4219 8.23424 26.4219 8.69141C26.4219 9.14857 26.6079 9.59705 26.9312 9.92037C27.2545 10.2437 27.703 10.4297 28.1602 10.4297Z" fill="#B3131A"/>
<path d="M20.5117 10.4297C20.9689 10.4297 21.4174 10.2437 21.7407 9.92037C22.064 9.59705 22.25 9.14857 22.25 8.69141C22.25 8.23424 22.064 7.78576 21.7407 7.46244C21.4174 7.13912 20.9689 6.95312 20.5117 6.95312C20.0546 6.95312 19.6061 7.13912 19.2828 7.46244C18.9594 7.78576 18.7734 8.23424 18.7734 8.69141C18.7734 9.14857 18.9594 9.59705 19.2828 9.92037C19.6061 10.2437 20.0546 10.4297 20.5117 10.4297Z" fill="#B3131A"/>
<path d="M35.8086 10.4297C36.2658 10.4297 36.7142 10.2437 37.0376 9.92037C37.3609 9.59705 37.5469 9.14857 37.5469 8.69141C37.5469 8.23424 37.3609 7.78576 37.0376 7.46244C36.7142 7.13912 36.2658 6.95312 35.8086 6.95312C35.3514 6.95312 34.9029 7.13912 34.5796 7.46244C34.2563 7.78576 34.0703 8.23424 34.0703 8.69141C34.0703 9.14857 34.2563 9.59705 34.5796 9.92037C34.9029 10.2437 35.3514 10.4297 35.8086 10.4297Z" fill="#B3131A"/>
<path d="M19.4688 25.7261H23.6055C24.5656 25.7261 25.3438 24.9478 25.3438 23.9878C25.3438 23.0277 24.5656 22.2495 23.6055 22.2495H19.4688C18.5087 22.2495 17.7305 23.0277 17.7305 23.9878C17.7305 24.9478 18.5087 25.7261 19.4688 25.7261Z" fill="#B3131A"/>
<path d="M31.254 25.7261H47.2006C48.1607 25.7261 48.9389 24.9478 48.9389 23.9878C48.9389 23.0277 48.1607 22.2495 47.2006 22.2495H31.254C30.2939 22.2495 29.5157 23.0277 29.5157 23.9878C29.5157 24.9478 30.2939 25.7261 31.254 25.7261Z" fill="#B3131A"/>
<path d="M19.4688 34.0698H29.5508C30.5108 34.0698 31.2891 33.2916 31.2891 32.3315C31.2891 31.3715 30.5108 30.5933 29.5508 30.5933H19.4688C18.5087 30.5933 17.7305 31.3715 17.7305 32.3315C17.7305 33.2916 18.5087 34.0698 19.4688 34.0698Z" fill="#B3131A"/>
<path d="M54.849 25.7261H69.5312C70.4913 25.7261 71.2695 24.9478 71.2695 23.9878C71.2695 23.0277 70.4913 22.2495 69.5312 22.2495H54.849C53.889 22.2495 53.1107 23.0277 53.1107 23.9878C53.1107 24.9478 53.889 25.7261 54.849 25.7261Z" fill="#B3131A"/>
<path d="M69.5313 30.5933H57.6346C56.6746 30.5933 55.8963 31.3715 55.8963 32.3315C55.8963 33.2916 56.6746 34.0698 57.6346 34.0698H69.5313C70.4913 34.0698 71.2695 33.2916 71.2695 32.3315C71.2695 31.3715 70.4913 30.5933 69.5313 30.5933Z" fill="#B3131A"/>
<path d="M11.125 39.9785C11.5822 39.9785 12.0306 39.7925 12.354 39.4692C12.6773 39.1459 12.8633 38.6974 12.8633 38.2402C12.8633 37.7831 12.6773 37.3346 12.354 37.0113C12.0306 36.6879 11.5822 36.502 11.125 36.502C10.6678 36.502 10.2194 36.6879 9.89604 37.0113C9.57271 37.3346 9.38672 37.7831 9.38672 38.2402C9.38672 38.6974 9.57271 39.1459 9.89604 39.4692C10.2194 39.7925 10.6678 39.9785 11.125 39.9785Z" fill="#B3131A"/>
</svg>
