<svg width="60" height="60" viewBox="0 0 60 60" fill="none" xmlns="http://www.w3.org/2000/svg">
<path d="M30.5298 49.2417H28.5602V51.2114H30.5298V49.2417Z" fill="#B8060D"/>
<path d="M58.1052 51.2113H57.1203V15.7573C57.1203 13.5817 55.3566 11.818 53.181 11.818H47.272V3.93933C47.272 1.76371 45.5083 0 43.3327 0H15.7573C13.5817 0 11.818 1.76371 11.818 3.93933V11.818H5.909C3.73338 11.818 1.96967 13.5817 1.96967 15.7573V51.2113H0.984833C0.440959 51.2113 0 51.6523 0 52.1962V55.1507C0 57.3263 1.76371 59.09 3.93933 59.09H55.1507C57.3263 59.09 59.09 57.3263 59.09 55.1507V52.1962C59.09 51.6523 58.649 51.2113 58.1052 51.2113ZM13.7877 3.93933C13.7877 2.85146 14.6695 1.96967 15.7573 1.96967H43.3327C44.4205 1.96967 45.3023 2.85146 45.3023 3.93933V7.87867H13.7877V3.93933ZM13.7877 9.84833H45.3023V38.4085C45.3023 39.4964 44.4205 40.3782 43.3327 40.3782H15.7573C14.6695 40.3782 13.7877 39.4964 13.7877 38.4085V9.84833ZM15.7573 42.3478H43.3327C45.5083 42.3478 47.272 40.5841 47.272 38.4085V17.727H51.2113V45.3023H7.87867V17.727H11.818V38.4085C11.818 40.5841 13.5817 42.3478 15.7573 42.3478ZM3.93933 15.7573C3.93933 14.6695 4.82113 13.7877 5.909 13.7877H11.818V15.7573H6.89383C6.34996 15.7573 5.909 16.1983 5.909 16.7422V46.2872C5.909 46.831 6.34996 47.272 6.89383 47.272H52.1962C52.74 47.272 53.181 46.831 53.181 46.2872V16.7422C53.181 16.1983 52.74 15.7573 52.1962 15.7573H47.272V13.7877H53.181C54.2689 13.7877 55.1507 14.6695 55.1507 15.7573V51.2113H38.4085C38.1475 51.2111 37.897 51.3146 37.7122 51.4989L36.0311 53.181H23.0589L21.3778 51.4989C21.193 51.3146 20.9425 51.2111 20.6815 51.2113H3.93933V15.7573ZM57.1203 55.1507C57.1203 56.2385 56.2385 57.1203 55.1507 57.1203H3.93933C2.85146 57.1203 1.96967 56.2385 1.96967 55.1507V53.181H20.2738L21.9549 54.8621C22.1395 55.0468 22.3899 55.1507 22.6512 55.1507H36.4388C36.7001 55.1507 36.9505 55.0468 37.1351 54.8621L38.8162 53.181H57.1203V55.1507Z" fill="#B8060D"/>
<path d="M42.3479 31.5146H16.7422V33.4843H42.3479V31.5146Z" fill="#B8060D"/>
<path d="M40.3782 35.454H16.7422V37.4236H40.3782V35.454Z" fill="#B8060D"/>
<path d="M42.3479 27.5753H22.6512V29.545H42.3479V27.5753Z" fill="#B8060D"/>
<path d="M17.727 3.93933H15.7573V5.909H17.727V3.93933Z" fill="#B8060D"/>
<path d="M21.6664 3.93933H19.6967V5.909H21.6664V3.93933Z" fill="#B8060D"/>
<path d="M25.6057 3.93933H23.636V5.909H25.6057V3.93933Z" fill="#B8060D"/>
<path d="M20.6815 27.5753H18.7119V29.545H20.6815V27.5753Z" fill="#B8060D"/>
<path d="M26.1965 16.5452L25.0147 14.9695L21.0754 17.924C20.6402 18.2503 20.5521 18.8676 20.8784 19.3027C20.9344 19.3774 21.0008 19.4437 21.0754 19.4997L25.0147 22.4542L26.1965 20.8785L23.308 18.7118L26.1965 16.5452Z" fill="#B8060D"/>
<path d="M38.2115 18.1209C38.1555 18.0463 38.0892 17.98 38.0146 17.924L34.0752 14.9695L32.8934 16.5452L35.7819 18.7118L32.8934 20.8785L34.0752 22.4542L38.0146 19.4997C38.4497 19.1734 38.5379 18.5561 38.2115 18.1209Z" fill="#B8060D"/>
<path d="M30.6013 13.424L26.6609 23.2712L28.4895 24.003L32.4299 14.1558L30.6013 13.424Z" fill="#B8060D"/>
</svg>
