<svg width="86" height="86" viewBox="0 0 86 86" fill="none" xmlns="http://www.w3.org/2000/svg">
<path d="M61.6546 33.7532L61.6545 33.7533L39.1179 56.2905C39.1178 56.2906 39.1178 56.2906 39.1178 56.2906C38.0008 57.407 36.1909 57.407 35.0739 56.2906C35.0739 56.2906 35.0738 56.2906 35.0738 56.2905L24.3455 45.5616L24.3454 45.5615C23.2286 44.4452 23.2286 42.6348 24.3454 41.5185L24.3456 41.5183C25.4619 40.4014 27.2724 40.4014 28.3887 41.5183L28.3888 41.5184L36.742 49.8715L37.0955 50.2251L37.4491 49.8715L57.6105 29.7095C58.7275 28.593 60.5382 28.5931 61.6545 29.7094C62.7715 30.8264 62.7714 32.6369 61.6546 33.7532ZM85.5 43C85.5 66.4921 66.4888 85.5 43 85.5C19.5079 85.5 0.5 66.4888 0.5 43C0.5 19.5079 19.5112 0.5 43 0.5C66.4921 0.5 85.5 19.5112 85.5 43ZM79.7812 43C79.7812 22.6693 63.328 6.21875 43 6.21875C22.6693 6.21875 6.21875 22.672 6.21875 43C6.21875 63.3307 22.672 79.7812 43 79.7812C63.3307 79.7812 79.7812 63.328 79.7812 43Z" fill="#D00409" stroke="white"/>
</svg>
