<svg width="84" height="84" viewBox="0 0 84 84" fill="none" xmlns="http://www.w3.org/2000/svg">
<path d="M35.1321 33.0472C36.4912 33.0472 37.593 31.9453 37.593 30.5862C37.593 21.8627 44.6902 14.7656 53.4138 14.7656C54.7729 14.7656 55.8747 13.6638 55.8747 12.3047C55.8747 10.9456 54.7729 9.84375 53.4138 9.84375C41.9763 9.84375 32.6711 19.1487 32.6711 30.5862C32.6711 31.9453 33.773 33.0472 35.1321 33.0472Z" fill="#D00409"/>
<path d="M7.68109 83.2793C8.64201 84.2403 10.2003 84.2405 11.1614 83.2793L30.5096 63.9308C31.4707 62.9698 31.4707 61.4117 30.5096 60.4506L28.7702 58.7112L33.5974 53.8831C39.1241 58.5819 46.0703 61.1725 53.4146 61.1725C70.2794 61.1725 84 47.4512 84 30.5854C83.9998 13.7206 70.2793 0 53.4144 0C36.5488 0 22.8274 13.7206 22.8274 30.5854C22.8274 37.9477 25.4299 44.8899 30.1172 50.4029L25.2901 55.2309L23.5492 53.4901C22.5888 52.5295 21.0297 52.5291 20.069 53.4901L0.720564 72.8385C-0.23986 73.7987 -0.240516 75.3578 0.720564 76.3187L7.68109 83.2793ZM27.7493 30.5854C27.7493 16.4345 39.2627 4.92188 53.4144 4.92188C67.5653 4.92188 79.078 16.4345 79.078 30.5854C79.078 44.7373 67.5653 56.2506 53.4144 56.2506C39.2627 56.2506 27.7493 44.7814 27.7493 30.5854ZM21.809 58.7105L25.2893 62.1908L9.42131 78.0588L5.94088 74.5785L21.809 58.7105Z" fill="#D00409"/>
</svg>
