<svg width="94" height="94" viewBox="0 0 94 94" fill="none" xmlns="http://www.w3.org/2000/svg">
<path d="M47.3439 14.3617C40.3818 14.2996 33.6723 16.9667 28.6527 21.7915C23.6331 26.6163 20.7027 33.2151 20.4893 40.1742C20.3213 45.9081 22.0322 51.5398 25.3612 56.2114C28.8814 61.2477 30.7398 67.2582 30.6766 73.4024V80.4832C30.6765 80.6701 30.7172 80.8546 30.7958 81.0241C30.8745 81.1936 30.9892 81.3438 31.1319 81.4644L35.8054 85.4175V90.2387C35.8066 91.2363 36.2036 92.1927 36.9092 92.8979C37.6148 93.6031 38.5715 93.9996 39.5691 94.0001H54.4314C55.4289 93.9992 56.3852 93.6025 57.0906 92.8971C57.7959 92.1918 58.1926 91.2354 58.1936 90.2379V85.4168L62.8671 81.4636C63.0098 81.3431 63.1245 81.1928 63.2032 81.0234C63.2818 80.8539 63.3225 80.6693 63.3224 80.4825V73.3995C63.3239 67.1662 65.2382 61.0835 68.8067 55.9728C71.5437 52.0174 73.1535 47.3922 73.4638 42.5922C73.7741 37.7922 72.7732 32.9983 70.5682 28.7234C68.3633 24.4486 65.0373 20.8539 60.9464 18.324C56.8554 15.7942 52.1535 14.4246 47.3439 14.3617V14.3617ZM56.4384 83.5397H37.565L33.8535 80.401H60.1499L56.4384 83.5397ZM60.7529 77.8307H33.2476V74.6861H60.7529V77.8307ZM55.624 90.2416C55.6236 90.5576 55.4979 90.8605 55.2745 91.084C55.051 91.3074 54.7481 91.4331 54.4321 91.4335H39.5691C39.2531 91.4331 38.9502 91.3074 38.7267 91.084C38.5033 90.8605 38.3776 90.5576 38.3772 90.2416V86.11H55.6232L55.624 90.2416ZM66.6947 54.5084C63.0782 59.6904 61.0246 65.8014 60.7778 72.1158H33.2241C33.0469 65.8782 31.0416 59.83 27.4571 54.7221C24.453 50.504 22.9089 45.4202 23.0596 40.2439C23.2478 34.0109 25.8506 28.0949 30.3187 23.7448C34.7867 19.3948 40.7703 16.9511 47.0061 16.9298H47.3109C51.6544 16.986 55.9009 18.2224 59.5957 20.5066C63.2906 22.7908 66.2946 26.0368 68.2864 29.8972C70.2781 33.7575 71.1826 38.0869 70.9028 42.4218C70.6231 46.7567 69.1697 50.9339 66.6983 54.5062L66.6947 54.5084Z" fill="#D00409"/>
<path d="M61.1323 40.8915C60.7802 39.4421 60.2084 38.0552 59.4366 36.779L61.1213 35.0936C61.2407 34.9743 61.3355 34.8326 61.4001 34.6767C61.4648 34.5207 61.498 34.3536 61.498 34.1848C61.498 34.016 61.4648 33.8488 61.4001 33.6929C61.3355 33.5369 61.2407 33.3953 61.1213 33.276L58.0626 30.2173C57.9433 30.0979 57.8016 30.0031 57.6457 29.9385C57.4898 29.8738 57.3226 29.8406 57.1538 29.8406C56.985 29.8406 56.8179 29.8738 56.6619 29.9385C56.506 30.0031 56.3643 30.0979 56.245 30.2173L54.5699 31.8924C53.2929 31.1139 51.9039 30.536 50.4515 30.1791V27.8152C50.4515 27.4743 50.3161 27.1475 50.0751 26.9064C49.8341 26.6654 49.5072 26.53 49.1664 26.53H44.8373C44.4964 26.53 44.1695 26.6654 43.9285 26.9064C43.6875 27.1475 43.5521 27.4743 43.5521 27.8152V30.1791C42.0984 30.5357 40.7082 31.1135 39.4301 31.8924L37.7542 30.2166C37.6349 30.0971 37.4933 30.0024 37.3373 29.9377C37.1814 29.8731 37.0142 29.8398 36.8454 29.8398C36.6766 29.8398 36.5095 29.8731 36.3535 29.9377C36.1976 30.0024 36.0559 30.0971 35.9366 30.2166L32.878 33.2753C32.7585 33.3945 32.6638 33.5362 32.5991 33.6922C32.5345 33.8481 32.5012 34.0152 32.5012 34.184C32.5012 34.3529 32.5345 34.52 32.5991 34.6759C32.6638 34.8319 32.7585 34.9735 32.878 35.0928L34.5626 36.7782C33.7909 38.0545 33.219 39.4414 32.867 40.8907H30.4766C30.1357 40.8907 29.8088 41.0261 29.5678 41.2671C29.3268 41.5081 29.1914 41.835 29.1914 42.1759V46.5013C29.1914 46.8422 29.3268 47.1691 29.5678 47.4101C29.8088 47.6511 30.1357 47.7865 30.4766 47.7865H32.8875C33.2443 49.227 33.8188 50.6046 34.5913 51.8718L32.878 53.5851C32.7585 53.7044 32.6638 53.8461 32.5991 54.002C32.5345 54.1579 32.5012 54.3251 32.5012 54.4939C32.5012 54.6627 32.5345 54.8299 32.5991 54.9858C32.6638 55.1417 32.7585 55.2834 32.878 55.4027L35.9366 58.4614C36.1821 58.6938 36.5074 58.8233 36.8454 58.8233C37.1835 58.8233 37.5087 58.6938 37.7542 58.4614L39.4771 56.7385C40.7411 57.5028 42.1139 58.0708 43.5484 58.4232V60.862C43.5484 61.2029 43.6838 61.5298 43.9248 61.7708C44.1659 62.0118 44.4927 62.1472 44.8336 62.1472H49.1598C49.5006 62.1472 49.8275 62.0118 50.0685 61.7708C50.3095 61.5298 50.4449 61.2029 50.4449 60.862V58.4232C51.8807 58.0712 53.2548 57.5032 54.52 56.7385L56.2428 58.4614C56.3621 58.5808 56.5038 58.6755 56.6597 58.7402C56.8156 58.8048 56.9828 58.8381 57.1516 58.8381C57.3204 58.8381 57.4876 58.8048 57.6435 58.7402C57.7994 58.6755 57.9411 58.5808 58.0604 58.4614L61.1191 55.4027C61.2385 55.2834 61.3333 55.1417 61.3979 54.9858C61.4626 54.8299 61.4958 54.6627 61.4958 54.4939C61.4958 54.3251 61.4626 54.1579 61.3979 54.002C61.3333 53.8461 61.2385 53.7044 61.1191 53.5851L59.4109 51.8718C60.1833 50.6049 60.7578 49.2275 61.1147 47.7872H63.5234C63.8642 47.7872 64.1911 47.6518 64.4321 47.4108C64.6732 47.1698 64.8086 46.8429 64.8086 46.5021V42.1766C64.8086 41.8358 64.6732 41.5089 64.4321 41.2679C64.1911 41.0269 63.8642 40.8915 63.5234 40.8915H61.1323ZM62.2382 45.2169H60.0674C59.7633 45.2168 59.4691 45.3245 59.237 45.521C59.0049 45.7174 58.85 45.9899 58.7999 46.2898C58.4946 48.0918 57.7809 49.8 56.7135 51.2836C56.5338 51.5315 56.4485 51.8356 56.4732 52.1408C56.4978 52.4461 56.6307 52.7325 56.8479 52.9484L58.396 54.4906L57.1549 55.7317L55.6017 54.1778C55.3866 53.9625 55.1021 53.8306 54.7989 53.8054C54.4956 53.7803 54.1933 53.8636 53.9457 54.0404C52.46 55.0996 50.7519 55.8054 48.9519 56.104C48.6518 56.1547 48.3794 56.3103 48.1833 56.5431C47.9872 56.7759 47.8801 57.0708 47.8812 57.3752V59.5783H46.1187V57.3752C46.1192 57.0709 46.0116 56.7762 45.8151 56.5438C45.6186 56.3114 45.346 56.1563 45.0458 56.1062C43.2458 55.8076 41.5378 55.1018 40.0521 54.0426C39.8045 53.8658 39.5021 53.7825 39.1989 53.8076C38.8956 53.8328 38.6111 53.9647 38.3961 54.18L36.8429 55.7339L35.6018 54.4928L37.152 52.9484C37.3681 52.7328 37.5003 52.4472 37.5249 52.1429C37.5495 51.8387 37.465 51.5356 37.2864 51.288C36.2191 49.8044 35.5054 48.0962 35.2001 46.2942C35.15 45.9943 34.9951 45.7219 34.763 45.5254C34.5309 45.3289 34.2366 45.2212 33.9325 45.2213H31.7617V43.4662H33.9186C34.224 43.4662 34.5194 43.3576 34.7519 43.1596C34.9844 42.9617 35.1389 42.6874 35.1876 42.3859C35.4832 40.5744 36.1913 38.855 37.257 37.3606C37.4339 37.113 37.5172 36.8106 37.492 36.5074C37.4669 36.2041 37.3349 35.9197 37.1197 35.7046L35.604 34.1888L36.8451 32.9477L38.3549 34.4576C38.5707 34.6735 38.8562 34.8056 39.1604 34.8302C39.4646 34.8549 39.7677 34.7704 40.0153 34.592C41.5086 33.517 43.2299 32.8012 45.0451 32.5005C45.3461 32.4503 45.6194 32.2946 45.8161 32.0613C46.0128 31.828 46.1201 31.5323 46.1187 31.2271V29.0974H47.8812V31.2271C47.8812 31.5319 47.9896 31.8268 48.1869 32.0591C48.3843 32.2914 48.6577 32.4461 48.9586 32.4954C50.7727 32.7973 52.4926 33.5138 53.9846 34.5891C54.2322 34.7678 54.5353 34.8524 54.8396 34.8278C55.1439 34.8031 55.4295 34.6709 55.645 34.4547L57.1549 32.9448L58.396 34.1859L56.8803 35.7016C56.665 35.9167 56.5331 36.2012 56.5079 36.5045C56.4828 36.8077 56.5661 37.11 56.7429 37.3576C57.8087 38.8521 58.5167 40.5714 58.8124 42.383C58.8611 42.6844 59.0155 42.9587 59.2481 43.1567C59.4806 43.3546 59.776 43.4633 60.0814 43.4632H62.2382V45.2169Z" fill="#D00409"/>
<path d="M47.0001 35.2683C45.2136 35.2683 43.4672 35.7981 41.9817 36.7906C40.4963 37.7831 39.3385 39.1939 38.6549 40.8444C37.9712 42.4949 37.7923 44.3111 38.1409 46.0633C38.4894 47.8155 39.3497 49.425 40.6129 50.6883C41.8762 51.9515 43.4857 52.8118 45.2379 53.1604C46.9901 53.5089 48.8063 53.33 50.4568 52.6463C52.1073 51.9627 53.5181 50.8049 54.5106 49.3195C55.5031 47.834 56.0329 46.0876 56.0329 44.3011C56.0296 41.9065 55.0769 39.6109 53.3836 37.9176C51.6903 36.2243 49.3947 35.2716 47.0001 35.2683V35.2683ZM47.0001 50.768C45.7219 50.768 44.4725 50.389 43.4097 49.6789C42.347 48.9688 41.5187 47.9595 41.0295 46.7786C40.5404 45.5977 40.4124 44.2983 40.6618 43.0447C40.9111 41.7911 41.5266 40.6396 42.4304 39.7358C43.3342 38.832 44.4857 38.2166 45.7393 37.9672C46.9929 37.7178 48.2923 37.8458 49.4732 38.335C50.654 38.8241 51.6634 39.6524 52.3735 40.7152C53.0836 41.7779 53.4626 43.0274 53.4626 44.3055C53.4603 46.0188 52.7787 47.6613 51.5672 48.8729C50.3558 50.0844 48.7134 50.7662 47.0001 50.7688V50.768Z" fill="#D00409"/>
<path d="M47 9.97501C47.3408 9.97501 47.6677 9.83961 47.9087 9.59859C48.1498 9.35758 48.2852 9.0307 48.2852 8.68985V1.28515C48.2852 0.944311 48.1498 0.617426 47.9087 0.376413C47.6677 0.1354 47.3408 0 47 0C46.6592 0 46.3323 0.1354 46.0913 0.376413C45.8502 0.617426 45.7148 0.944311 45.7148 1.28515V8.68985C45.7148 9.0307 45.8502 9.35758 46.0913 9.59859C46.3323 9.83961 46.6592 9.97501 47 9.97501V9.97501Z" fill="#D00409"/>
<path d="M78.4167 13.7661L73.1806 19.0022C73.0613 19.1215 72.9666 19.2632 72.902 19.4191C72.8374 19.5751 72.8042 19.7422 72.8042 19.911C72.8042 20.0797 72.8374 20.2469 72.902 20.4028C72.9666 20.5587 73.0613 20.7004 73.1806 20.8197C73.3 20.9391 73.4417 21.0338 73.5976 21.0983C73.7535 21.1629 73.9206 21.1962 74.0894 21.1962C74.2582 21.1962 74.4253 21.1629 74.5812 21.0983C74.7372 21.0338 74.8789 20.9391 74.9982 20.8197L80.2343 15.5837C80.3536 15.4643 80.4483 15.3226 80.5129 15.1667C80.5775 15.0108 80.6107 14.8436 80.6107 14.6749C80.6107 14.5061 80.5775 14.339 80.5129 14.183C80.4483 14.0271 80.3536 13.8854 80.2343 13.7661C80.1149 13.6467 79.9733 13.5521 79.8173 13.4875C79.6614 13.4229 79.4943 13.3896 79.3255 13.3896C79.1567 13.3896 78.9896 13.4229 78.8337 13.4875C78.6777 13.5521 78.5361 13.6467 78.4167 13.7661V13.7661Z" fill="#D00409"/>
<path d="M92.7143 45.7148H85.3096C84.9687 45.7148 84.6418 45.8502 84.4008 46.0913C84.1598 46.3323 84.0244 46.6592 84.0244 47C84.0244 47.3408 84.1598 47.6677 84.4008 47.9087C84.6418 48.1498 84.9687 48.2852 85.3096 48.2852H92.7143C93.0551 48.2852 93.382 48.1498 93.623 47.9087C93.864 47.6677 93.9994 47.3408 93.9994 47C93.9994 46.6592 93.864 46.3323 93.623 46.0913C93.382 45.8502 93.0551 45.7148 92.7143 45.7148V45.7148Z" fill="#D00409"/>
<path d="M8.68985 45.7148H1.28515C0.944311 45.7148 0.617426 45.8502 0.376413 46.0913C0.1354 46.3323 0 46.6592 0 47C0 47.3408 0.1354 47.6677 0.376413 47.9087C0.617426 48.1498 0.944311 48.2852 1.28515 48.2852H8.68985C9.0307 48.2852 9.35758 48.1498 9.59859 47.9087C9.83961 47.6677 9.97501 47.3408 9.97501 47C9.97501 46.6592 9.83961 46.3323 9.59859 46.0913C9.35758 45.8502 9.0307 45.7148 8.68985 45.7148V45.7148Z" fill="#D00409"/>
<path d="M20.8193 19.0022L15.5832 13.7661C15.3421 13.5251 15.0152 13.3896 14.6744 13.3896C14.3335 13.3896 14.0066 13.5251 13.7656 13.7661C13.5246 14.0071 13.3892 14.334 13.3892 14.6749C13.3892 15.0157 13.5246 15.3426 13.7656 15.5837L19.0017 20.8197C19.2427 21.0608 19.5696 21.1962 19.9105 21.1962C20.2513 21.1962 20.5782 21.0608 20.8193 20.8197C21.0603 20.5787 21.1957 20.2518 21.1957 19.911C21.1957 19.5701 21.0603 19.2432 20.8193 19.0022V19.0022Z" fill="#D00409"/>
</svg>
