<svg width="96" height="94" viewBox="0 0 96 94" fill="none" xmlns="http://www.w3.org/2000/svg">
<path d="M44.5296 62.1296C43.6495 62.1296 42.936 62.8431 42.936 63.7232C42.936 64.6032 43.6495 65.3167 44.5296 65.3167C47.1699 65.3167 49.3102 67.457 49.3102 70.0973C49.3102 70.9773 50.0237 71.6909 50.9037 71.6909C51.7837 71.6909 52.4972 70.9773 52.4972 70.0973C52.4921 65.699 48.9279 62.1348 44.5296 62.1296Z" fill="#D00409"/>
<path d="M95.057 19.6054C95.0566 19.605 95.0562 19.6046 95.0558 19.6042L75.8997 0.448331C75.2675 -0.149444 74.2787 -0.149444 73.6465 0.448331L64.6318 9.46296C64.0098 10.0852 64.0098 11.0939 64.6318 11.7162L65.7585 12.8428L64.9888 13.6141C61.3633 14.2874 58.0284 16.0482 55.4276 18.6624L50.5338 23.5657L47.7914 20.8233C44.6133 17.6282 40.289 15.8373 35.7825 15.8498H31.5485L29.7621 14.0635L30.8887 12.9369C31.5108 12.3146 31.5108 11.3059 30.8887 10.6836L21.8741 1.6642C21.2518 1.04212 20.2431 1.04212 19.6208 1.6642L0.466557 20.8185C-0.155519 21.4408 -0.155519 22.4495 0.466557 23.0717L9.47959 32.0864C10.1019 32.7085 11.1106 32.7085 11.7329 32.0864L12.8595 30.9597L13.6308 31.731C14.3058 35.3559 16.0663 38.6904 18.6791 41.2922L30.1876 52.7944V60.5358C30.1746 65.0423 31.9664 69.3663 35.1626 72.543L38.1553 75.5373V78.0646H36.5617C35.6817 78.0646 34.9682 78.7782 34.9682 79.6582V92.4065C34.9682 93.2865 35.6817 94 36.5617 94H63.6518C64.5318 94 65.2453 93.2865 65.2453 92.4065V79.6582C65.2453 78.7782 64.5318 78.0646 63.6518 78.0646H62.0583V76.9747C64.1418 73.9348 65.2531 70.334 65.2453 66.6486V57.0077C66.2845 56.8846 67.2524 56.4167 67.9942 55.6787L75.8997 47.7731C79.0744 44.5819 80.8622 40.2672 80.8747 35.7658V31.5334L82.6611 29.7455L83.7877 30.8737C84.41 31.4958 85.4187 31.4958 86.041 30.8737L95.0556 21.8591C95.6783 21.237 95.6789 20.2281 95.057 19.6054ZM11.7329 27.5799L10.6062 28.7065L3.84644 21.9451L20.7475 5.04409L27.5088 11.8055L26.3838 12.9305L11.7329 27.5799ZM20.9323 39.0326C18.6695 36.7795 17.1831 33.8642 16.6887 30.7096C16.6358 30.3775 16.479 30.0708 16.241 29.8331L15.1143 28.7065L21.3116 22.5092L27.5088 16.312L29.7621 18.5652C30.0609 18.864 30.4661 19.0321 30.8887 19.0321H35.7825C39.4434 19.0216 42.9564 20.4763 45.5381 23.0717L48.2806 25.8158L46.0257 28.0691L43.2833 25.3266C42.661 24.7025 41.6509 24.7011 41.0268 25.3234C40.4027 25.9457 40.4013 26.9558 41.0236 27.5799L43.7661 30.3223L37.5641 36.5244C36.6679 37.4171 36.1683 38.6328 36.1777 39.8979C36.1904 41.8057 37.3304 43.5254 39.0827 44.2801C38.4843 45.2864 38.2885 46.4818 38.5345 47.6265L33.6408 42.7328C33.0294 42.0998 32.0205 42.0822 31.3875 42.6935C30.7545 43.3049 30.7369 44.3138 31.3483 44.9468C31.361 44.9601 31.3742 44.9731 31.3875 44.986L37.6262 51.2247C37.9216 51.5203 38.0853 51.9225 38.0804 52.3402C38.0716 53.2204 37.3575 53.9304 36.4773 53.9337C36.0588 53.9602 35.6512 53.7935 35.3713 53.4812L20.9323 39.0326ZM62.0583 90.8129H38.1553V81.2517H62.0583V90.8129ZM62.0583 66.6486C62.0654 69.8422 61.0554 72.955 59.174 75.5357C58.977 75.8078 58.871 76.1353 58.8712 76.4711V78.0646H41.3423V74.8776C41.3423 74.4549 41.1742 74.0497 40.8754 73.7509L37.4159 70.2898C34.8202 67.7087 33.3649 64.1963 33.3746 60.5358V55.9368C34.232 56.6896 35.3315 57.1087 36.4725 57.1176H36.498C39.1329 57.1045 41.2654 54.9719 41.2786 52.337C41.2728 51.8335 41.1862 51.3343 41.022 50.8582C41.6258 51.1781 42.2919 51.363 42.9741 51.4C43.1058 53.8318 45.0445 55.7761 47.4758 55.9145C47.6147 58.4423 49.6946 60.4268 52.2262 60.4465H52.2437C53.503 60.4517 54.7119 59.9517 55.5997 59.0586L60.3293 54.321C60.7117 55.1265 61.3103 55.8101 62.0583 56.2954V66.6486ZM78.153 29.7455C77.8542 30.0443 77.6861 30.4494 77.6861 30.8721V35.7658C77.6753 39.4224 76.2232 42.9272 73.6449 45.5199L65.7393 53.4254C65.4475 53.7176 65.0511 53.8812 64.6382 53.8796C63.7618 53.871 63.0532 53.1625 63.0447 52.286C63.0393 51.8685 63.2024 51.4664 63.4972 51.1706L63.5068 51.161L71.4044 43.265C72.0159 42.632 71.9984 41.6231 71.3653 41.0118C70.7478 40.4154 69.7688 40.4154 69.1511 41.0118L63.518 46.6449L61.2551 48.9077L53.3592 56.8037C53.067 57.0961 52.67 57.2596 52.2564 57.2579C51.3804 57.2483 50.6725 56.5404 50.6629 55.6643C50.6585 55.2464 50.8229 54.8443 51.1187 54.5489L61.2774 44.3901C61.8888 43.757 61.8714 42.7483 61.2384 42.1368C60.6209 41.5404 59.6419 41.5404 59.0242 42.1368L48.8654 52.2956C48.5736 52.5878 48.1772 52.7513 47.7643 52.7497C46.8884 52.7394 46.1811 52.0321 46.1707 51.1562C46.1652 50.7383 46.3289 50.3359 46.6249 50.0407L56.7853 39.8819C57.4075 39.2593 57.4072 38.2502 56.7845 37.6279C56.1618 37.0056 55.1527 37.006 54.5304 37.6287L44.3318 47.7875C44.0408 48.0795 43.6446 48.2426 43.2323 48.24H43.2227C42.3463 48.2315 41.6377 47.5229 41.6292 46.6465C41.6282 46.2324 41.7915 45.8346 42.0833 45.5406L52.2421 35.3802C52.8644 34.7567 52.8632 33.7468 52.2397 33.1246C51.6162 32.5023 50.6063 32.5035 49.9841 33.127L43.1191 39.9919L42.0817 41.0309C41.7895 41.3225 41.3933 41.486 40.9806 41.485C40.1041 41.4765 39.3956 40.768 39.3871 39.8915C39.3809 39.4738 39.5442 39.0714 39.8396 38.776L57.7031 20.9141C59.9558 18.6513 62.8704 17.1643 66.0246 16.6689C66.3566 16.6159 66.6634 16.4592 66.901 16.2211L68.0277 15.0945L80.4238 27.4906L78.153 29.7455ZM84.9128 27.4922L68.0117 10.5896L74.7731 3.82822L91.6757 20.7308L84.9128 27.4922Z" fill="#D00409"/>
</svg>
