<svg id="Layer_2" height="512" viewBox="0 0 128 128" width="512" xmlns="http://www.w3.org/2000/svg" data-name="Layer 2"><path d="m64.468 19.556a36.262 36.262 0 0 0 -36.568 35.149 35.823 35.823 0 0 0 6.634 21.838 40.14 40.14 0 0 1 7.238 23.409v9.642a1.748 1.748 0 0 0 .62 1.336l6.364 5.383v6.565a5.128 5.128 0 0 0 5.125 5.122h20.238a5.128 5.128 0 0 0 5.123-5.123v-6.565l6.364-5.383a1.748 1.748 0 0 0 .62-1.336v-9.645a41.467 41.467 0 0 1 7.468-23.73 36.115 36.115 0 0 0 -29.226-56.662zm12.384 94.2h-25.7l-5.054-4.274h35.808zm5.875-7.774h-37.454v-4.282h37.454zm-6.984 16.9a1.625 1.625 0 0 1 -1.623 1.623h-20.239a1.625 1.625 0 0 1 -1.623-1.623v-5.626h23.484zm15.075-48.658a44.962 44.962 0 0 0 -8.057 23.976h-37.52a43.376 43.376 0 0 0 -7.853-23.685 32.362 32.362 0 0 1 -5.988-19.715 32.735 32.735 0 0 1 32.608-31.747h.415a32.615 32.615 0 0 1 26.4 51.168z"/><path d="m83.244 55.682a19.9 19.9 0 0 0 -2.309-5.6l2.294-2.295a1.749 1.749 0 0 0 0-2.475l-4.165-4.165a1.749 1.749 0 0 0 -2.475 0l-2.281 2.281a19.891 19.891 0 0 0 -5.608-2.333v-3.219a1.75 1.75 0 0 0 -1.75-1.75h-5.895a1.75 1.75 0 0 0 -1.75 1.75v3.219a19.891 19.891 0 0 0 -5.613 2.333l-2.282-2.282a1.749 1.749 0 0 0 -2.475 0l-4.165 4.165a1.749 1.749 0 0 0 0 2.475l2.294 2.295a19.9 19.9 0 0 0 -2.309 5.6h-3.255a1.75 1.75 0 0 0 -1.75 1.75v5.89a1.75 1.75 0 0 0 1.75 1.75h3.283a19.864 19.864 0 0 0 2.32 5.563l-2.333 2.333a1.749 1.749 0 0 0 0 2.475l4.165 4.165a1.8 1.8 0 0 0 2.475 0l2.346-2.346a19.878 19.878 0 0 0 5.544 2.294v3.321a1.75 1.75 0 0 0 1.75 1.75h5.891a1.75 1.75 0 0 0 1.75-1.75v-3.321a19.878 19.878 0 0 0 5.549-2.294l2.346 2.346a1.749 1.749 0 0 0 2.475 0l4.165-4.165a1.749 1.749 0 0 0 0-2.475l-2.326-2.333a19.864 19.864 0 0 0 2.32-5.562h3.28a1.75 1.75 0 0 0 1.75-1.75v-5.89a1.75 1.75 0 0 0 -1.75-1.75zm1.506 5.89h-2.956a1.749 1.749 0 0 0 -1.726 1.461 16.309 16.309 0 0 1 -2.841 6.8 1.749 1.749 0 0 0 .183 2.267l2.108 2.1-1.69 1.69-2.115-2.116a1.75 1.75 0 0 0 -2.255-.187 16.315 16.315 0 0 1 -6.8 2.81 1.749 1.749 0 0 0 -1.458 1.731v3h-2.4v-3a1.749 1.749 0 0 0 -1.461-1.728 16.315 16.315 0 0 1 -6.8-2.81 1.75 1.75 0 0 0 -2.255.187l-2.115 2.116-1.69-1.69 2.111-2.103a1.749 1.749 0 0 0 .183-2.261 16.309 16.309 0 0 1 -2.841-6.8 1.749 1.749 0 0 0 -1.726-1.461h-2.956v-2.39h2.937a1.75 1.75 0 0 0 1.728-1.471 16.31 16.31 0 0 1 2.818-6.843 1.75 1.75 0 0 0 -.187-2.255l-2.064-2.064 1.69-1.69 2.056 2.056a1.75 1.75 0 0 0 2.261.183 16.276 16.276 0 0 1 6.849-2.848 1.75 1.75 0 0 0 1.462-1.734v-2.9h2.4v2.9a1.75 1.75 0 0 0 1.467 1.727 16.276 16.276 0 0 1 6.844 2.851 1.748 1.748 0 0 0 2.261-.183l2.056-2.056 1.69 1.69-2.064 2.064a1.75 1.75 0 0 0 -.187 2.255 16.31 16.31 0 0 1 2.818 6.843 1.75 1.75 0 0 0 1.728 1.471h2.937z"/><path d="m64 48.025a12.3 12.3 0 1 0 12.3 12.3 12.317 12.317 0 0 0 -12.3-12.3zm0 21.106a8.8 8.8 0 1 1 8.8-8.8 8.813 8.813 0 0 1 -8.8 8.801z"/><path d="m64 13.583a1.75 1.75 0 0 0 1.75-1.75v-10.083a1.75 1.75 0 0 0 -3.5 0v10.083a1.75 1.75 0 0 0 1.75 1.75z"/><path d="m106.78 18.745-7.13 7.13a1.75 1.75 0 1 0 2.475 2.475l7.13-7.13a1.75 1.75 0 1 0 -2.475-2.475z"/><path d="m126.25 62.25h-10.083a1.75 1.75 0 1 0 0 3.5h10.083a1.75 1.75 0 0 0 0-3.5z"/><path d="m11.833 62.25h-10.083a1.75 1.75 0 0 0 0 3.5h10.083a1.75 1.75 0 0 0 0-3.5z"/><path d="m28.35 25.875-7.13-7.13a1.75 1.75 0 0 0 -2.475 2.475l7.13 7.13a1.75 1.75 0 1 0 2.475-2.475z"/></svg>