<svg width="466" height="378" viewBox="0 0 466 378" fill="none" xmlns="http://www.w3.org/2000/svg">
<path d="M453.798 133.69C453.347 129.343 452.833 124.997 452.255 120.65C448.83 94.9624 443.295 64.7668 423.482 45.3566C403.669 25.9464 375.124 16.3531 346.58 15.8688C306.167 15.1889 283.855 41.1281 269.718 62.7084C252.035 89.8025 258.208 128.176 234.582 150.958C220.832 164.211 200.203 168.654 180.639 171.02C161.075 173.385 140.695 174.391 123.152 182.848C90.2962 198.682 76.2181 239.067 87.0405 272.085C97.863 305.103 129.434 329.831 164.6 340.328C199.765 350.825 265.158 363.613 301.149 355.826C319.21 351.886 336.285 350.368 353.579 343.15C369.671 336.499 384.473 327.4 397.386 316.223C423.581 293.293 440.427 262.091 448.701 229.697C456.666 198.384 457.114 165.795 453.798 133.69Z" fill="#EBEBEB"/>
<path d="M189.382 52.3887C180.879 27.9304 162.251 9.07903 131.128 2.27057C99.8057 -6.38204 64.0429 10.7555 48.6306 35.6982C33.1088 60.8457 37.9077 94.8694 58.2882 116.729C80.9486 141.066 121.769 149.086 152.464 134.37C183.159 119.654 200.075 83.078 189.382 52.3887Z" fill="#EBEBEB"/>
<path d="M229.267 251.65C229.267 251.65 226.937 242.187 217.548 242.662C208.16 243.137 205.88 243.137 201.827 242.662C197.775 242.187 191.483 237.624 189.711 239.039C187.938 240.455 188.924 243.557 192.22 246.295C195.515 249.033 201.18 250.952 201.18 250.952L189.183 252.88C189.183 252.88 178.37 247.478 175.832 248.428C175.1 248.73 174.484 249.235 174.068 249.875C173.651 250.514 173.454 251.257 173.502 252.004C173.502 252.004 169.012 250.141 167.747 251.781C166.483 253.42 166.164 254.575 167.439 255.506C167.439 255.506 166.602 254.733 164.272 255.376C162.281 255.925 162.45 259.362 164.272 260.284L164.89 260.62C164.89 260.62 181.895 269.775 182.413 269.84C185.4 270.213 203.739 269.486 213.178 269.077C214.881 269.003 216.576 269.353 218.087 270.093C219.599 270.833 220.873 271.935 221.78 273.287L236.973 295.826L254.137 277.291L229.267 251.65Z" fill="#B78876"/>
<path d="M198.443 256.829C197.534 257.085 196.605 257.278 195.665 257.406C193.903 257.713 191.434 258.123 188.547 258.58H188.477H188.407L184.564 256.931L175.394 252.982L172.626 251.753C172.273 251.618 171.938 251.443 171.631 251.231C172 251.305 172.357 251.421 172.696 251.576L175.534 252.665L179.705 254.351L184.773 256.512L188.606 258.179H188.457C191.344 257.751 193.833 257.406 195.605 257.173C196.54 256.988 197.489 256.873 198.443 256.829Z" fill="#AA6550"/>
<path d="M194.231 261.048C191.444 262.045 189.052 263.821 187.381 266.133C187.934 264.791 188.861 263.612 190.065 262.718C191.27 261.824 192.708 261.247 194.231 261.048V261.048Z" fill="#AA6550"/>
<path d="M213.696 247.785C213.756 247.785 213.805 248.362 214.134 249.294C214.589 250.571 215.384 251.718 216.444 252.628L216.792 252.917L216.334 253.001C214.739 253.285 213.178 253.719 211.675 254.295C209.3 255.21 207.092 256.467 205.133 258.021C203.63 259.222 202.834 260.107 202.764 260.051C202.694 259.995 202.913 259.791 203.262 259.381C203.766 258.812 204.308 258.274 204.885 257.769C206.811 256.094 209.044 254.757 211.476 253.82C213.013 253.231 214.616 252.803 216.255 252.544L216.135 252.917C215.035 251.947 214.249 250.708 213.865 249.34C213.692 248.839 213.634 248.309 213.696 247.785V247.785Z" fill="#AA6550"/>
<path d="M202.454 250.467C200.352 251.26 198.156 251.813 195.913 252.116C194.071 252.433 192.389 252.656 191.174 252.768C190.517 252.876 189.847 252.901 189.183 252.842C189.183 252.693 192.169 252.284 195.813 251.641L200.493 250.775C201.132 250.603 201.79 250.499 202.454 250.467Z" fill="#AA6550"/>
<path d="M186.485 262.892C185.517 262.589 184.569 262.231 183.647 261.821C181.905 261.15 179.466 260.284 176.748 259.381C174.03 258.477 171.58 257.611 169.838 256.912C168.874 256.584 167.95 256.163 167.08 255.655C168.064 255.905 169.028 256.216 169.967 256.586L176.937 258.915C179.655 259.846 182.084 260.778 183.797 261.504C184.746 261.869 185.648 262.335 186.485 262.892V262.892Z" fill="#AA6550"/>
<path d="M190.805 262.51C188.512 263.494 185.933 263.734 183.478 263.19C183.478 263.05 185.15 263.134 187.151 262.939C189.153 262.743 190.766 262.37 190.805 262.51Z" fill="#AA6550"/>
<path d="M285.42 208.098C285.42 208.098 270.237 216.267 267.061 241.228C265.408 254.267 259.345 278.437 259.345 278.437L246.87 265.342L228.022 285.516C228.022 285.516 248.383 326.171 259.882 337.254C271.382 348.338 294.192 351.756 294.192 351.756L298.781 283.811L285.42 208.098Z" fill="#B8060D"/>
<path d="M400.545 196.875L365.469 191.128L320.756 193.205C320.756 193.205 283.52 207.586 285.421 208.108L278.163 275.335L296.144 307.822L291.674 377.034H415.131L408.689 328.918L400.615 270.939L415.937 315.823L418.257 377.034H452.606C456.24 350.377 457.375 313.345 457.375 313.345L429.339 227.658C425.497 215.726 417.028 205.568 405.593 199.176C403.995 198.257 402.304 197.486 400.545 196.875V196.875Z" fill="#B8060D"/>
<path d="M285.021 242.02L285.101 242.364C285.151 242.616 285.22 242.951 285.3 243.379C285.469 244.311 285.718 245.596 286.027 247.273C286.634 250.654 287.51 255.553 288.506 261.616C289.502 267.679 290.676 274.916 291.672 282.963C292.668 291.011 293.753 299.896 294.33 309.247C294.38 310.123 294.43 310.989 294.48 311.79C293.962 329.943 293.365 346.251 292.817 358.024C292.538 363.901 292.289 368.651 292.07 371.93C291.958 373.55 291.868 374.792 291.802 375.655C291.802 376.065 291.742 376.391 291.722 376.633C291.73 376.745 291.73 376.857 291.722 376.969C291.711 376.857 291.711 376.745 291.722 376.633C291.722 376.382 291.722 376.065 291.722 375.646C291.722 374.761 291.821 373.495 291.901 371.92C292.031 368.614 292.23 363.873 292.479 358.006C292.927 346.233 293.474 329.924 293.982 311.781C293.982 310.98 293.882 310.113 293.833 309.238C293.255 299.924 292.25 291.029 291.214 282.982C290.179 274.935 289.083 267.698 288.128 261.635C287.172 255.571 286.355 250.681 285.808 247.263L285.181 243.351C285.121 242.923 285.071 242.588 285.031 242.336C285.017 242.231 285.014 242.125 285.021 242.02V242.02Z" fill="#263238"/>
<path d="M392.639 245.671C392.578 245.534 392.541 245.39 392.53 245.242C392.47 244.898 392.391 244.488 392.301 243.994C392.301 243.715 392.211 243.417 392.161 243.063C392.112 242.709 392.102 242.374 392.072 241.982C391.989 241.103 391.959 240.22 391.982 239.337C391.982 238.844 391.982 238.331 391.982 237.8C391.982 237.27 392.082 236.711 392.142 236.133C392.268 234.91 392.467 233.694 392.739 232.491C393.383 229.735 394.338 227.05 395.586 224.482C396.893 221.938 398.478 219.529 400.316 217.291C401.132 216.317 402.003 215.385 402.924 214.497C403.352 214.087 403.751 213.677 404.179 213.314L405.423 212.299C406.13 211.717 406.872 211.173 407.643 210.669C407.982 210.436 408.291 210.213 408.639 210.036L409.465 209.561L410.63 208.918C410.763 208.841 410.903 208.775 411.048 208.722C411.048 208.722 410.939 208.834 410.68 209.002L409.585 209.719L408.778 210.222C408.49 210.418 408.191 210.65 407.872 210.883C407.122 211.406 406.4 211.966 405.712 212.56L404.507 213.584C404.089 213.948 403.701 214.367 403.283 214.776C402.382 215.663 401.534 216.596 400.744 217.571C397.07 221.997 394.501 227.137 393.227 232.613C392.947 233.8 392.734 235 392.59 236.208C392.52 236.776 392.43 237.316 392.4 237.847C392.371 238.378 392.351 238.881 392.331 239.374C392.251 240.306 392.331 241.237 392.331 241.992C392.331 242.383 392.331 242.737 392.331 243.072C392.331 243.407 392.4 243.696 392.44 244.003C392.49 244.497 392.53 244.935 392.56 245.252C392.605 245.387 392.632 245.528 392.639 245.671V245.671Z" fill="#263238"/>
<path d="M415.896 315.823C415.796 315.646 415.719 315.458 415.667 315.264C415.518 314.845 415.329 314.333 415.1 313.643C414.612 312.181 413.935 310.16 413.108 307.682C411.426 302.644 409.126 295.677 406.448 288.021C403.769 280.365 401.31 273.435 399.319 268.508C398.323 266.059 397.278 264.14 396.661 262.78C396.352 262.1 396.113 261.569 395.964 261.206C395.883 261.021 395.816 260.832 395.765 260.638C395.884 260.804 395.984 260.982 396.063 261.169L396.84 262.706C397.517 264.038 398.572 265.928 399.658 268.378C401.748 273.305 404.267 280.206 406.936 287.872C409.604 295.537 411.864 302.513 413.467 307.58C414.263 310.113 414.891 312.172 415.309 313.597C415.498 314.267 415.657 314.808 415.777 315.236C415.84 315.427 415.88 315.624 415.896 315.823V315.823Z" fill="#263238"/>
<path d="M441.774 313.681C441.774 313.764 440.44 313.41 438.28 313.094C435.469 312.695 432.615 312.632 429.787 312.908C426.962 313.195 424.188 313.821 421.533 314.77C419.542 315.515 418.308 316.13 418.258 316.056C418.498 315.855 418.766 315.686 419.054 315.553C419.81 315.143 420.591 314.776 421.394 314.454C424.048 313.389 426.857 312.699 429.727 312.405C432.599 312.11 435.502 312.219 438.34 312.731C439.199 312.877 440.047 313.077 440.878 313.327C441.193 313.405 441.495 313.524 441.774 313.681V313.681Z" fill="#263238"/>
<path d="M286.474 308.94C286.135 308.528 285.826 308.095 285.548 307.645C284.941 306.816 284.045 305.633 282.84 304.246C280.461 301.451 276.966 297.726 273.083 293.6C269.2 289.474 265.685 285.776 263.206 283.029C261.972 281.659 260.976 280.542 260.309 279.75C259.941 279.36 259.608 278.943 259.313 278.502C259.731 278.844 260.115 279.221 260.458 279.629L263.445 282.805L273.402 293.274C277.284 297.381 280.739 301.153 283.059 304.031C283.989 305.157 284.853 306.33 285.648 307.543C285.927 307.971 286.106 308.325 286.235 308.567C286.365 308.809 286.494 308.93 286.474 308.94Z" fill="#263238"/>
<g opacity="0.3">
<path opacity="0.3" d="M293.335 351.756C293.892 332.942 294.938 315.6 293.116 297.028C292.299 313.513 285.887 332.802 279.426 348.161L293.335 351.756Z" fill="black"/>
</g>
<g opacity="0.3">
<path opacity="0.3" d="M400.573 270.939C400.573 270.939 394.849 258.962 395.237 258.962C394.669 281.371 399.548 307.096 408.509 327.885L400.573 270.939Z" fill="black"/>
</g>
<path d="M384.833 334.46C384.613 334.609 384.384 334.746 384.146 334.87L382.155 335.959C380.412 336.891 377.893 338.307 374.817 340.086C371.74 341.864 368.067 343.96 363.865 346.168C359.359 348.593 354.651 350.674 349.787 352.389C344.906 354.14 339.748 355.122 334.524 355.295C332.234 355.302 329.955 354.988 327.764 354.364C325.851 353.816 324.064 352.937 322.497 351.774C320.186 350.115 318.521 347.792 317.758 345.162C317.57 344.451 317.466 343.723 317.449 342.991C317.444 342.739 317.461 342.487 317.499 342.237C317.544 343.209 317.698 344.173 317.957 345.115C318.78 347.665 320.446 349.905 322.716 351.514C324.265 352.626 326.02 353.463 327.893 353.982C330.048 354.563 332.282 354.842 334.524 354.811C339.687 354.607 344.781 353.623 349.608 351.896C354.446 350.184 359.136 348.126 363.636 345.739C367.798 343.56 371.482 341.473 374.588 339.75C377.694 338.027 380.243 336.667 382.015 335.755L384.076 334.739C384.318 334.623 384.571 334.53 384.833 334.46V334.46Z" fill="#263238"/>
<path d="M384.683 307.179C384.599 307.728 384.469 308.27 384.295 308.8C384.139 309.43 383.946 310.052 383.717 310.663C383.459 311.38 383.2 312.218 382.801 313.103C382.403 313.988 382.015 314.966 381.487 315.981C380.96 316.996 380.372 318.067 379.735 319.185C376.833 323.981 373.067 328.273 368.604 331.871C367.608 332.681 366.613 333.463 365.617 334.106C364.621 334.749 363.715 335.363 362.849 335.876C361.983 336.388 361.186 336.807 360.48 337.198C359.773 337.589 359.145 337.869 358.628 338.13C358.103 338.386 357.561 338.61 357.005 338.8C357.492 338.484 358.005 338.204 358.538 337.962C359.036 337.71 359.653 337.403 360.33 337.03C361.007 336.658 361.824 336.22 362.65 335.661C363.476 335.103 364.422 334.553 365.358 333.864C366.294 333.175 367.29 332.42 368.345 331.61C372.701 327.98 376.397 323.711 379.287 318.971C379.934 317.872 380.571 316.838 381.069 315.813C381.567 314.789 382.065 313.857 382.433 313.019C382.802 312.181 383.13 311.333 383.429 310.626C383.727 309.918 383.936 309.294 384.096 308.763C384.244 308.221 384.44 307.691 384.683 307.179V307.179Z" fill="#263238"/>
<path d="M286.785 264.224C286.785 264.354 281.568 263.395 275.206 262.082C268.844 260.768 263.697 259.604 263.737 259.474C263.776 259.343 268.944 260.294 275.316 261.607C281.688 262.92 286.815 264.094 286.785 264.224Z" fill="#FAFAFA"/>
<path d="M286.784 258.766C285.683 258.742 284.587 258.626 283.508 258.422C281.517 258.133 278.729 257.667 275.673 257.127L267.877 255.702C266.79 255.54 265.715 255.31 264.661 255.013C265.762 255.037 266.858 255.153 267.937 255.357C269.928 255.646 272.726 256.112 275.772 256.652L283.568 258.086C284.656 258.243 285.73 258.47 286.784 258.766V258.766Z" fill="#FAFAFA"/>
<path d="M392.828 259.502C392.828 259.632 370.416 259.586 342.768 259.39C315.119 259.194 292.718 258.924 292.718 258.794C292.718 258.664 315.129 258.71 342.778 258.906C370.426 259.101 392.828 259.334 392.828 259.502Z" fill="#FAFAFA"/>
<path d="M394.481 264.224C394.481 264.354 371.422 264.466 342.977 264.466C314.532 264.466 291.474 264.354 291.474 264.224C291.474 264.093 314.532 263.982 342.977 263.982C371.422 263.982 394.481 264.084 394.481 264.224Z" fill="#FAFAFA"/>
<path d="M436.456 253.159C436.456 253.159 436.456 253.159 436.576 253.159C436.695 253.159 436.486 253.159 436.426 253.215H436.337V253.122H436.775L436.466 253.224C434.634 253.858 426.928 256.298 417.838 259.539L404.437 264.354L400.375 265.807C399.885 266.008 399.379 266.17 398.861 266.292C399.316 266.032 399.796 265.814 400.295 265.64C401.241 265.249 402.605 264.708 404.278 264.038C407.673 262.715 412.382 260.936 417.629 259.083C426.739 255.841 434.554 253.55 436.416 253.122V253.224H436.297V253.131H436.386C436.446 253.131 436.496 253.131 436.536 253.206L436.456 253.159Z" fill="#FAFAFA"/>
<path d="M435.64 247.142C435.64 247.273 426.949 250.132 416.116 253.532C405.284 256.931 396.473 259.595 396.433 259.474C396.393 259.353 405.125 256.484 415.957 253.075C426.789 249.666 435.591 247.012 435.64 247.142Z" fill="#FAFAFA"/>
<path d="M369.043 191.827C369.099 192.075 369.129 192.328 369.133 192.581C369.2 193.3 369.22 194.021 369.193 194.742C369.086 197.416 368.49 200.053 367.43 202.538C365.851 206.244 363.313 209.524 360.043 212.085C355.956 215.15 350.954 216.956 345.725 217.255C340.496 217.553 335.297 216.33 330.841 213.752C327.26 211.586 324.314 208.618 322.269 205.118C320.892 202.773 319.956 200.224 319.501 197.583C319.38 196.868 319.306 196.146 319.282 195.422C319.254 195.171 319.254 194.918 319.282 194.668C319.345 194.915 319.382 195.168 319.392 195.422C319.392 195.916 319.541 196.633 319.71 197.555C320.24 200.15 321.215 202.647 322.598 204.95C324.66 208.35 327.579 211.227 331.1 213.333C335.481 215.838 340.578 217.025 345.703 216.732C350.828 216.439 355.733 214.68 359.754 211.693C362.453 209.6 364.666 207.012 366.256 204.089C367.847 201.166 368.782 197.969 369.004 194.696C369.004 193.764 369.063 193.038 369.004 192.544C368.995 192.304 369.008 192.064 369.043 191.827Z" fill="#FAFAFA"/>
<path d="M247.745 267.27C247.614 267.6 247.436 267.913 247.218 268.201C246.859 268.76 246.302 269.561 245.595 270.539C244.171 272.476 242.1 275.093 239.621 277.841C237.501 280.182 235.255 282.42 232.891 284.547C231.985 285.366 231.238 286.009 230.7 286.41C230.443 286.654 230.152 286.864 229.834 287.034C230.049 286.757 230.292 286.502 230.561 286.27L232.632 284.277C234.384 282.591 236.754 280.225 239.223 277.496C241.692 274.767 243.803 272.197 245.296 270.306L247.048 268.071C247.245 267.778 247.479 267.509 247.745 267.27V267.27Z" fill="#FAFAFA"/>
<g opacity="0.3">
<path opacity="0.3" d="M360.221 337.087C355.193 339.76 348.413 340.188 342.36 340.337C341.219 340.434 340.069 340.29 338.995 339.918C338.461 339.723 338.003 339.383 337.68 338.941C337.357 338.499 337.183 337.976 337.183 337.441C337.312 336.155 338.676 335.336 339.941 334.842C344.829 332.979 350.315 333.054 355.452 331.852C364.194 329.794 373.125 323.954 379.935 318.422C375.259 326.166 368.452 332.598 360.221 337.049" fill="black"/>
</g>
<path d="M341.393 213.864C335.728 213.442 330.445 211.027 326.61 207.105C322.774 203.183 320.67 198.046 320.724 192.73C320.724 187.496 320.823 183.305 320.823 183.305C320.823 183.305 302.802 180.688 302.583 163.829C302.364 146.971 305.481 108.253 305.481 108.253C315.727 104.133 326.963 102.646 338.029 103.948C349.094 105.25 359.587 109.292 368.424 115.658L371.092 117.577L365.596 194.304C365.4 197.082 364.616 199.796 363.289 202.288C361.962 204.779 360.119 206.999 357.867 208.819C355.615 210.639 352.999 212.022 350.171 212.888C347.343 213.754 344.359 214.086 341.393 213.864V213.864Z" fill="#B78876"/>
<path d="M320.796 183.044C329.116 183.19 337.295 181.018 344.292 176.804C344.292 176.804 338.747 188.912 320.756 187.412L320.796 183.044Z" fill="#AA6550"/>
<path d="M368.873 135.022C369.181 134.901 381.258 131.594 380.82 143.125C380.382 154.655 368.136 151.898 368.126 151.572C368.116 151.247 368.873 135.022 368.873 135.022Z" fill="#B78876"/>
<path d="M372.079 147.316C372.139 147.316 372.288 147.465 372.647 147.632C373.151 147.848 373.725 147.875 374.249 147.707C375.564 147.297 376.729 145.397 376.858 143.32C376.925 142.335 376.755 141.348 376.36 140.433C376.256 140.069 376.059 139.735 375.787 139.457C375.515 139.18 375.175 138.968 374.797 138.84C374.553 138.772 374.291 138.786 374.056 138.88C373.822 138.973 373.63 139.141 373.513 139.352C373.334 139.669 373.403 139.902 373.343 139.921C373.284 139.939 373.085 139.725 373.194 139.25C373.275 138.968 373.453 138.719 373.702 138.542C374.053 138.314 374.484 138.221 374.907 138.281C375.411 138.388 375.878 138.616 376.26 138.943C376.642 139.27 376.927 139.683 377.087 140.144C377.576 141.157 377.791 142.267 377.714 143.376C377.565 145.704 376.211 147.837 374.419 148.266C374.079 148.352 373.723 148.364 373.378 148.301C373.033 148.238 372.708 148.101 372.427 147.903C372.089 147.595 372.039 147.334 372.079 147.316Z" fill="#AA6550"/>
<path d="M312.024 135.264C312.015 135.892 312.27 136.497 312.734 136.952C313.197 137.406 313.832 137.673 314.503 137.695C314.831 137.72 315.161 137.683 315.473 137.587C315.786 137.491 316.074 137.338 316.322 137.135C316.57 136.933 316.772 136.686 316.916 136.409C317.06 136.133 317.144 135.832 317.161 135.524C317.167 134.897 316.911 134.293 316.448 133.839C315.985 133.385 315.352 133.118 314.682 133.094C314.354 133.068 314.024 133.105 313.712 133.201C313.399 133.297 313.11 133.451 312.862 133.653C312.615 133.855 312.413 134.102 312.268 134.379C312.124 134.655 312.041 134.956 312.024 135.264V135.264Z" fill="#263238"/>
<path d="M308.896 131.948C309.215 132.265 311.156 130.914 313.934 130.923C316.712 130.933 318.733 132.227 319.032 131.911C319.181 131.771 318.852 131.203 317.966 130.597C316.768 129.822 315.342 129.412 313.884 129.424C312.453 129.423 311.059 129.847 309.902 130.635C309.026 131.24 308.737 131.808 308.896 131.948Z" fill="#263238"/>
<path d="M338.617 135.832C338.612 136.459 338.867 137.064 339.33 137.517C339.793 137.971 340.426 138.239 341.096 138.263C341.424 138.287 341.753 138.249 342.065 138.153C342.377 138.056 342.666 137.902 342.913 137.7C343.161 137.498 343.363 137.252 343.507 136.976C343.652 136.7 343.736 136.399 343.755 136.093C343.763 135.465 343.508 134.859 343.045 134.404C342.581 133.95 341.946 133.683 341.276 133.662C340.948 133.636 340.618 133.673 340.305 133.769C339.993 133.865 339.704 134.019 339.456 134.221C339.208 134.423 339.006 134.67 338.862 134.947C338.718 135.224 338.635 135.524 338.617 135.832V135.832Z" fill="#263238"/>
<path d="M336.118 132.432C336.436 132.749 338.388 131.398 341.156 131.408C343.924 131.417 345.955 132.712 346.253 132.395C346.403 132.255 346.084 131.687 345.198 131.082C343.999 130.307 342.573 129.898 341.116 129.908C339.685 129.905 338.289 130.329 337.133 131.119C336.247 131.724 335.959 132.293 336.118 132.432Z" fill="#263238"/>
<path d="M326.061 151.647C326.061 151.498 324.358 151.228 321.57 150.893C320.864 150.818 320.187 150.688 320.067 150.241C320.012 149.555 320.178 148.871 320.545 148.275C321.212 146.673 321.899 144.997 322.636 143.236C325.543 136.065 327.614 130.197 327.335 130.067C327.056 129.936 324.418 135.655 321.511 142.855L319.519 147.921C319.075 148.721 318.945 149.64 319.151 150.52C319.258 150.747 319.418 150.949 319.62 151.11C319.821 151.272 320.059 151.388 320.316 151.451C320.705 151.552 321.107 151.606 321.511 151.61C324.308 151.787 326.051 151.796 326.061 151.647Z" fill="#263238"/>
<path d="M335.4 122.28C335.678 122.988 338.436 122.653 341.692 123.016C344.948 123.379 347.566 124.217 347.994 123.584C348.193 123.277 347.735 122.653 346.67 121.935C345.255 121.101 343.656 120.578 341.993 120.407C340.33 120.236 338.647 120.421 337.072 120.948C335.887 121.395 335.28 121.945 335.4 122.28Z" fill="#263238"/>
<path d="M309.912 124.45C310.399 125.047 312.301 124.45 314.601 124.404C316.901 124.357 318.832 124.795 319.28 124.18C319.479 123.882 319.171 123.249 318.285 122.737C317.149 122.061 315.815 121.735 314.471 121.805C313.123 121.827 311.814 122.24 310.728 122.988C309.961 123.519 309.692 124.171 309.912 124.45Z" fill="#263238"/>
<path d="M296.7 97.589C296.569 96.5388 296.727 95.4748 297.157 94.4972C297.587 93.5196 298.276 92.6604 299.159 92.0006C300.066 91.3795 301.179 91.0813 302.3 91.1599C303.421 91.2384 304.475 91.6884 305.272 92.429C305.102 91.7247 305.092 90.9949 305.244 90.2868C305.395 89.5788 305.703 88.9083 306.149 88.319C306.595 87.7297 307.168 87.2347 307.832 86.8661C308.496 86.4975 309.235 86.2636 310.001 86.1794C312.988 86.0118 315.447 88.0888 318.295 88.8153C321.142 89.5418 324.04 88.9084 326.708 87.8839C329.376 86.8593 331.865 85.4902 334.563 84.5681C340.27 82.6213 346.568 82.8597 352.088 85.2315C357.608 87.6033 361.904 91.9168 364.044 97.235C368.026 96.0801 372.467 97.9522 374.896 101.072C377.325 104.193 377.953 108.3 377.465 112.137C377.088 114.754 376.397 117.322 375.404 119.793C375.404 120.008 375.404 120.222 375.404 120.445C375.215 129.713 374.1 140.601 369.868 140.656C362.501 140.768 364.253 127.775 364.253 127.775C355.213 124.506 358.578 111.83 356.288 109.911C353.998 107.993 349.319 103.522 330.402 112.575C323.054 116.086 313.277 115.975 307.94 114.848L307.463 114.754H307.353C307.305 114.732 307.255 114.713 307.204 114.699C305.488 114.293 303.849 113.643 302.345 112.771C300.579 111.813 299.185 110.355 298.363 108.607C297.963 107.732 297.845 106.766 298.021 105.828C298.198 104.891 298.663 104.021 299.358 103.326C297.886 101.701 296.961 99.705 296.7 97.589V97.589Z" fill="#263238"/>
<path d="M323.711 159.619C324.097 160.667 324.64 161.658 325.323 162.563C325.67 163.016 326.115 163.395 326.63 163.674C327.145 163.953 327.718 164.127 328.31 164.183C328.943 164.185 329.566 164.038 330.121 163.755C330.676 163.471 331.146 163.061 331.486 162.563C332.159 161.553 332.469 160.368 332.372 159.182C332.323 158.12 331.795 156.853 330.67 156.723C330.193 156.707 329.72 156.807 329.296 157.012L323.322 159.266" fill="#AA6550"/>
<path d="M326.091 164.193C327.161 164.264 328.236 164.141 329.257 163.83C330.297 163.448 331.151 162.722 331.656 161.79C331.941 161.223 332.095 160.607 332.108 159.982C332.122 159.356 331.995 158.734 331.736 158.158C331.599 157.86 331.426 157.579 331.218 157.319C330.979 157.096 331.019 157.105 330.77 157.133C330.521 157.161 330.133 157.375 329.775 157.487L328.779 157.859C327.505 158.344 326.35 158.791 325.384 159.098C323.393 159.778 322.198 160.141 322.148 160.03C322.098 159.918 323.213 159.322 325.085 158.474C326.021 158.055 327.146 157.543 328.391 157.04L329.386 156.63C329.74 156.473 330.102 156.333 330.472 156.211C330.759 156.123 331.07 156.123 331.358 156.211C331.616 156.319 331.842 156.485 332.015 156.695C332.654 157.472 333.039 158.405 333.124 159.381C333.209 160.358 332.989 161.337 332.493 162.2C331.859 163.3 330.785 164.121 329.506 164.482C328.675 164.731 327.786 164.763 326.937 164.575C326.34 164.435 326.061 164.249 326.091 164.193Z" fill="#263238"/>
<path d="M356.937 108.29C357.012 107.612 357.012 106.929 356.937 106.251C356.623 104.412 355.625 102.737 354.119 101.519C351.864 99.7324 348.955 98.8342 346.005 99.0138C342.67 99.0138 339.125 100.057 335.461 101.212C333.67 101.79 331.849 102.285 330.005 102.693C328.274 103.049 326.511 103.251 324.739 103.298C321.735 103.369 318.738 102.998 315.858 102.199C313.925 101.661 312.061 100.923 310.302 100.001C309.822 99.7549 309.357 99.4844 308.908 99.1908C308.744 99.1 308.591 98.9939 308.45 98.8741C308.45 98.8741 309.137 99.228 310.441 99.8055C312.221 100.651 314.085 101.332 316.007 101.836C320.55 103.032 325.34 103.154 329.946 102.19C331.708 101.817 333.51 101.258 335.352 100.718C339.006 99.5634 342.62 98.5295 346.055 98.5202C349.111 98.3818 352.104 99.3642 354.398 101.258C355.931 102.55 356.914 104.316 357.166 106.232C357.254 106.926 357.176 107.629 356.937 108.29V108.29Z" fill="#455A64"/>
<path d="M370.953 136.782C370.953 136.782 370.854 136.67 370.715 136.428C370.506 136.082 370.319 135.724 370.157 135.357C369.524 134.01 369.04 132.605 368.713 131.166C368.23 129.024 368.076 126.829 368.255 124.646C368.594 122.003 369.129 119.386 369.858 116.813C370.571 114.273 370.571 111.604 369.858 109.064C369.514 107.98 368.923 106.979 368.126 106.13C367.419 105.405 366.529 104.857 365.537 104.537C364.097 104.039 362.507 104.079 361.097 104.649C360.6 104.911 360.136 105.223 359.713 105.58C360.034 105.122 360.476 104.75 360.997 104.5C361.715 104.166 362.498 103.971 363.299 103.926C364.099 103.881 364.901 103.988 365.657 104.239C366.724 104.553 367.687 105.117 368.454 105.878C369.309 106.764 369.947 107.813 370.326 108.952C371.074 111.57 371.074 114.326 370.326 116.943C369.602 119.497 369.057 122.092 368.693 124.711C368.495 126.855 368.609 129.014 369.032 131.128C369.324 132.554 369.747 133.953 370.296 135.31C370.734 136.251 370.993 136.763 370.953 136.782Z" fill="#455A64"/>
<path d="M358.669 106.931C358.647 106.704 358.647 106.477 358.669 106.251C358.669 105.757 358.669 105.124 358.739 104.323C358.861 101.962 358.582 99.5978 357.912 97.3187C357.414 95.7664 356.595 94.3205 355.503 93.0622C354.272 91.6152 352.581 90.5715 350.674 90.0818C348.539 89.6198 346.311 89.7034 344.223 90.3239C341.963 90.9932 339.797 91.9125 337.771 93.0622C335.717 94.2203 333.581 95.2472 331.379 96.1358C329.276 96.9047 327.045 97.3239 324.788 97.3746C322.748 97.4206 320.713 97.1884 318.745 96.6853C317.045 96.2388 315.405 95.6139 313.856 94.8226C311.619 93.6337 309.648 92.0525 308.052 90.1656C307.617 89.66 307.225 89.1245 306.877 88.5636C306.745 88.3731 306.629 88.1739 306.528 87.9675C306.696 88.1314 306.843 88.3126 306.966 88.5077C307.348 89.0426 307.764 89.5557 308.211 90.0445C309.847 91.8449 311.821 93.3505 314.035 94.4873C315.57 95.2494 317.189 95.8522 318.864 96.2848C320.789 96.7626 322.778 96.9759 324.768 96.9182C326.965 96.8583 329.135 96.4423 331.18 95.6887C333.36 94.7988 335.476 93.7752 337.512 92.6245C339.573 91.447 341.78 90.5087 344.083 89.8303C346.258 89.1919 348.576 89.1146 350.794 89.6068C352.795 90.1303 354.564 91.2402 355.842 92.7735C356.955 94.0805 357.781 95.581 358.271 97.1883C358.917 99.5055 359.146 101.907 358.948 104.295C358.898 105.142 358.828 105.794 358.769 106.232C358.764 106.468 358.731 106.702 358.669 106.931V106.931Z" fill="#455A64"/>
<path d="M465.002 377.034C465.002 377.165 363.817 377.276 238.996 377.276C114.174 377.276 12.9893 377.165 12.9893 377.034C12.9893 376.904 114.155 376.792 238.996 376.792C363.837 376.792 465.002 376.857 465.002 377.034Z" fill="#263238"/>
<path d="M185.898 338.791C187.819 341.334 191.523 340.468 193.225 338.903C194.928 337.338 195.655 335.084 196.302 332.933C197.775 328.006 199.289 322.846 198.114 317.853C197.837 316.337 197.117 314.922 196.033 313.765C195.486 313.196 194.789 312.771 194.011 312.534C193.234 312.297 192.403 312.256 191.603 312.414C189.731 312.889 188.616 314.603 187.75 316.233C185.305 321.056 184.044 326.328 184.056 331.666C184.056 334.153 184.384 336.751 185.898 338.791Z" fill="#B8060D"/>
<g opacity="0.2">
<path opacity="0.2" d="M185.898 338.791C187.819 341.334 191.523 340.468 193.225 338.903C194.928 337.338 195.655 335.084 196.302 332.933C197.775 328.006 199.289 322.846 198.114 317.853C197.837 316.337 197.117 314.922 196.033 313.765C195.486 313.196 194.789 312.771 194.011 312.534C193.234 312.297 192.403 312.256 191.603 312.414C189.731 312.889 188.616 314.603 187.75 316.233C185.305 321.056 184.044 326.328 184.056 331.666C184.056 334.153 184.384 336.751 185.898 338.791Z" fill="black"/>
</g>
<path d="M193.108 351.709C196.294 350.284 199.886 349.856 203.353 350.489C205.247 350.634 207.035 351.369 208.43 352.576C209.705 353.879 209.954 356.171 208.51 357.307C207.577 357.904 206.45 358.177 205.324 358.08C202.606 358.08 199.599 357.633 197.439 359.17C196.214 360.045 195.398 361.498 193.924 361.964C193.186 362.128 192.411 362.064 191.716 361.78C191.021 361.496 190.444 361.008 190.071 360.39C189.358 359.12 189.194 357.643 189.613 356.264C189.778 355.303 190.18 354.392 190.787 353.601C191.393 352.811 192.188 352.163 193.108 351.709V351.709Z" fill="#B8060D"/>
<path d="M180.68 342.479C181.65 341.275 182.292 339.869 182.552 338.381C182.812 336.893 182.682 335.369 182.174 333.939C181.109 331.083 179.225 328.557 176.728 326.636C173.889 324.302 170.592 322.505 167.021 321.346C165.634 320.836 164.147 320.611 162.66 320.685C161.918 320.728 161.198 320.94 160.565 321.304C159.931 321.668 159.403 322.172 159.026 322.771C158.03 324.587 159.026 326.785 160.021 328.583C161.907 331.738 164.051 334.753 166.433 337.599C168.355 339.881 170.545 342.135 173.452 343.187C176.359 344.24 179.376 344.072 180.909 342.181" fill="#B8060D"/>
<path d="M186.008 377.229C186.103 376.85 186.156 376.464 186.168 376.075C186.247 375.236 186.357 374.212 186.476 372.917C186.634 371.354 186.88 369.799 187.213 368.26C187.642 366.39 188.231 364.555 188.975 362.774C189.716 360.996 190.721 359.325 191.962 357.81C192.965 356.579 194.247 355.571 195.716 354.857C196.716 354.393 197.787 354.078 198.892 353.926C199.308 353.908 199.722 353.852 200.126 353.758C199.71 353.714 199.289 353.714 198.872 353.758C197.723 353.847 196.6 354.128 195.557 354.587C194.002 355.281 192.639 356.301 191.574 357.568C190.294 359.107 189.264 360.814 188.517 362.635C187.757 364.446 187.168 366.316 186.755 368.223C186.452 369.763 186.243 371.318 186.128 372.88C186.028 374.23 185.999 375.311 185.979 376.065C185.939 376.453 185.949 376.844 186.008 377.229V377.229Z" fill="#263238"/>
<path d="M186.216 374.799C186.241 374.622 186.241 374.444 186.216 374.268C186.216 373.858 186.216 373.336 186.216 372.731C186.216 371.39 186.216 369.462 186.216 367.077C186.315 362.318 186.714 355.733 187.51 348.496C188.307 341.259 189.412 334.749 190.417 330.083C190.656 328.909 190.895 327.857 191.114 326.925C191.333 325.994 191.513 325.211 191.692 324.559C191.871 323.907 191.971 323.46 192.07 323.069C192.127 322.897 192.157 322.718 192.16 322.538C192.079 322.7 192.016 322.868 191.971 323.041C191.841 323.423 191.692 323.917 191.503 324.513C191.313 325.109 191.084 325.947 190.836 326.869C190.587 327.791 190.318 328.844 190.059 330.008C188.692 336.1 187.671 342.256 187.002 348.45C186.196 355.696 185.857 362.299 185.857 367.077C185.857 369.462 185.907 371.399 185.977 372.731C185.977 373.355 186.057 373.867 186.086 374.268C186.112 374.448 186.155 374.626 186.216 374.799V374.799Z" fill="#263238"/>
<path d="M186.137 362.076C186.187 361.543 186.187 361.007 186.137 360.474C186.03 359.016 185.844 357.564 185.579 356.124C184.707 351.373 183.223 346.738 181.159 342.321C179.17 337.842 176.326 333.739 172.765 330.213C172.141 329.609 171.476 329.042 170.774 328.518C170.475 328.285 170.207 328.052 169.938 327.866L169.171 327.382C168.717 327.058 168.234 326.771 167.728 326.525C169.401 327.736 170.991 329.045 172.487 330.446C175.92 333.993 178.687 338.059 180.671 342.47C181.809 344.891 182.774 347.38 183.558 349.921C184.315 352.25 184.822 354.383 185.211 356.189C185.599 357.996 185.788 359.468 185.918 360.492C185.952 361.024 186.025 361.553 186.137 362.076V362.076Z" fill="#263238"/>
<path d="M205.182 231.998L162.938 230.312V190.802H205.182V231.998Z" fill="#B8060D"/>
<path d="M221.929 179.496H179.685V219.014H221.929V179.496Z" fill="#B8060D"/>
<path d="M205.183 230.312L221.929 219.014V179.496L205.183 190.803V230.312Z" fill="#B8060D"/>
<path d="M162.938 190.803L179.684 179.496H221.928L205.182 190.803H162.938Z" fill="#B8060D"/>
<path d="M205.183 231.998L221.929 219.014V179.496L205.183 190.803V231.998Z" fill="#B8060D"/>
<path opacity="0.3" d="M162.938 190.803L179.684 179.496H221.928L205.182 190.803H162.938Z" fill="white"/>
<path opacity="0.4" d="M205.183 231.998L221.929 219.014V179.496L205.183 190.803V231.998Z" fill="black"/>
<path d="M227.833 220.523C228.085 221.275 228.173 222.067 228.091 222.852C227.882 223.243 228.032 222.963 227.992 223.047H227.932L227.833 223.112L227.633 223.252L227.255 223.504C227.006 223.662 226.787 223.802 226.588 223.904C226.2 224.128 225.941 224.239 225.901 224.184C225.861 224.128 226.04 223.923 226.369 223.634L226.966 223.15L227.325 222.87L227.524 222.731L227.623 222.656C227.623 222.749 227.733 222.47 227.524 222.852C227.458 222.064 227.563 221.272 227.833 220.523V220.523Z" fill="#B8060D"/>
<path d="M227.834 210.539C228.179 212.187 228.179 213.882 227.834 215.531C227.489 213.882 227.489 212.187 227.834 210.539Z" fill="#B8060D"/>
<path d="M227.834 200.554C228.179 202.203 228.179 203.898 227.834 205.546C227.489 203.898 227.489 202.203 227.834 200.554V200.554Z" fill="#B8060D"/>
<path d="M227.834 190.579C228.179 192.228 228.179 193.923 227.834 195.571C227.489 193.923 227.489 192.228 227.834 190.579Z" fill="#B8060D"/>
<path d="M227.834 180.585C228.179 182.234 228.179 183.929 227.834 185.577C227.489 183.929 227.489 182.234 227.834 180.585V180.585Z" fill="#B8060D"/>
<path d="M225.344 173.264C226.147 173.023 226.994 172.941 227.833 173.022L228.092 173.264V173.721V174.158C228.092 174.438 228.092 174.689 228.032 174.904C228.032 175.323 227.922 175.583 227.853 175.583C227.783 175.583 227.713 175.323 227.674 174.904C227.674 174.689 227.674 174.438 227.614 174.158V173.227L227.873 173.469C227.024 173.563 226.163 173.493 225.344 173.264Z" fill="#B8060D"/>
<path d="M215.795 173.265C217.369 172.942 219 172.942 220.574 173.265C219 173.587 217.369 173.587 215.795 173.265V173.265Z" fill="#B8060D"/>
<path d="M206.248 173.264C207.819 172.941 209.446 172.941 211.017 173.264C209.446 173.587 207.819 173.587 206.248 173.264V173.264Z" fill="#B8060D"/>
<path d="M196.699 173.264C198.27 172.941 199.897 172.941 201.468 173.264C199.897 173.587 198.27 173.587 196.699 173.264Z" fill="#B8060D"/>
<path d="M187.132 173.264C188.703 172.941 190.33 172.941 191.901 173.264C190.33 173.587 188.703 173.587 187.132 173.264V173.264Z" fill="#B8060D"/>
<path d="M177.802 173.814C177.802 173.749 177.961 173.498 178.339 173.144H178.429C178.837 173.144 179.365 173.088 179.952 173.088C180.755 173.006 181.567 173.089 182.332 173.33C181.566 173.565 180.755 173.648 179.952 173.572C179.365 173.572 178.837 173.572 178.429 173.516L178.558 173.47C178.17 173.693 177.852 173.814 177.802 173.814Z" fill="#B8060D"/>
<path d="M170.455 179.486C170.365 179.384 171.112 178.657 172.127 177.875C173.143 177.093 174.039 176.534 174.118 176.636C174.198 176.739 173.461 177.456 172.446 178.247C171.43 179.039 170.544 179.589 170.455 179.486Z" fill="#B8060D"/>
<path d="M163.107 185.186C163.017 185.084 163.764 184.367 164.78 183.575C165.795 182.783 166.691 182.234 166.771 182.336C166.85 182.439 166.114 183.165 165.098 183.948C164.083 184.73 163.236 185.298 163.107 185.186Z" fill="#B8060D"/>
<path d="M157.49 191.855C157.245 191.102 157.163 190.31 157.251 189.527L157.351 189.34H157.4L157.5 189.266L157.689 189.126L158.057 188.856L158.705 188.418C159.083 188.185 159.332 188.064 159.382 188.12C159.431 188.176 159.252 188.381 158.934 188.688C158.774 188.837 158.585 189.014 158.366 189.201L158.018 189.489L157.828 189.638L157.729 189.713H157.679C157.679 189.638 157.59 189.899 157.779 189.536C157.848 190.319 157.75 191.108 157.49 191.855V191.855Z" fill="#B8060D"/>
<path d="M157.393 201.095C157.148 200.347 157.07 199.561 157.164 198.785C157.089 198.005 157.183 197.219 157.442 196.475C157.783 198.013 157.767 199.601 157.393 201.132V201.095Z" fill="#B8060D"/>
<path d="M157.262 210.334C157.011 209.588 156.929 208.801 157.023 208.024C156.948 207.244 157.043 206.458 157.302 205.714C157.554 206.46 157.635 207.247 157.541 208.024C157.616 208.804 157.521 209.589 157.262 210.334V210.334Z" fill="#B8060D"/>
<path d="M157.203 219.573C156.957 218.826 156.876 218.041 156.964 217.263C156.889 216.483 156.987 215.697 157.253 214.954C157.498 215.701 157.576 216.487 157.482 217.263C157.557 218.043 157.462 218.829 157.203 219.573V219.573Z" fill="#B8060D"/>
<path d="M157.104 228.813C156.859 228.065 156.781 227.279 156.875 226.503C156.799 225.723 156.894 224.937 157.153 224.193C157.399 224.94 157.48 225.726 157.392 226.503C157.467 227.283 157.369 228.069 157.104 228.813V228.813Z" fill="#B8060D"/>
<path d="M159.522 235.798C158.712 236.022 157.862 236.091 157.023 236.003C156.515 235.509 156.883 235.863 156.774 235.752V235.286V234.848C156.774 234.569 156.774 234.317 156.834 234.112C156.883 233.693 156.953 233.432 157.023 233.432C157.093 233.432 157.162 233.693 157.202 234.112C157.202 234.326 157.202 234.578 157.252 234.857C157.302 235.137 157.252 235.155 157.252 235.295V235.733L156.993 235.491C157.85 235.43 158.71 235.535 159.522 235.798V235.798Z" fill="#B8060D"/>
<path d="M168.951 235.938C168.192 236.172 167.386 236.245 166.592 236.152C165.796 236.212 164.996 236.117 164.242 235.873C165.002 235.639 165.809 235.569 166.602 235.668C167.397 235.603 168.197 235.695 168.951 235.938V235.938Z" fill="#B8060D"/>
<path d="M178.379 236.087C177.617 236.31 176.813 236.379 176.02 236.292C175.224 236.362 174.422 236.266 173.67 236.012C174.432 235.789 175.236 235.719 176.03 235.807C176.825 235.741 177.627 235.837 178.379 236.087Z" fill="#B8060D"/>
<path d="M187.818 236.217C186.258 236.515 184.647 236.49 183.099 236.143C184.659 235.845 186.27 235.87 187.818 236.217V236.217Z" fill="#B8060D"/>
<path d="M197.247 236.376C195.687 236.674 194.076 236.648 192.527 236.301C193.293 236.08 194.1 236.01 194.897 236.096C195.692 236.033 196.493 236.128 197.247 236.376V236.376Z" fill="#B8060D"/>
<path d="M206.675 236.525C205.913 236.748 205.109 236.817 204.315 236.73C203.52 236.796 202.718 236.7 201.966 236.45C202.728 236.227 203.532 236.157 204.325 236.245C205.121 236.174 205.924 236.269 206.675 236.525V236.525Z" fill="#B8060D"/>
<path d="M214.571 232.249C214.65 232.352 213.884 233.032 212.838 233.768C212.266 234.274 211.588 234.664 210.847 234.913C210.757 234.801 211.534 234.122 212.569 233.386C213.605 232.65 214.481 232.138 214.571 232.249Z" fill="#B8060D"/>
<path d="M222.088 226.903C222.177 227.006 221.401 227.695 220.365 228.431C219.791 228.932 219.113 229.319 218.374 229.567C218.294 229.455 219.061 228.775 220.096 228.039C221.132 227.304 221.978 226.81 222.088 226.903Z" fill="#B8060D"/>
<path d="M216.362 170.088C216.501 170.088 216.501 170.657 216.362 171.281C216.223 171.905 215.974 172.389 215.834 172.361C215.695 172.333 215.705 171.802 215.834 171.178C215.964 170.554 216.223 170.014 216.362 170.088Z" fill="#B8060D"/>
<path d="M218.654 160.579C218.719 161.398 218.611 162.221 218.335 163.001C218.222 163.813 217.941 164.598 217.509 165.311C217.548 163.678 217.937 162.069 218.654 160.579V160.579Z" fill="#B8060D"/>
<path d="M220.983 151.107C220.941 152.738 220.555 154.346 219.848 155.838C219.889 154.206 220.275 152.599 220.983 151.107V151.107Z" fill="#B8060D"/>
<path d="M223.223 141.635C223.183 143.27 222.794 144.882 222.078 146.375C222.013 145.556 222.121 144.733 222.397 143.954C222.509 143.138 222.79 142.35 223.223 141.635V141.635Z" fill="#B8060D"/>
<path d="M225.502 132.162C225.568 132.981 225.46 133.804 225.184 134.584C225.077 135.401 224.796 136.189 224.357 136.903C224.398 135.267 224.787 133.655 225.502 132.162V132.162Z" fill="#B8060D"/>
<path d="M227.792 122.699C227.852 123.518 227.744 124.34 227.474 125.121C227.361 125.934 227.08 126.718 226.647 127.431C226.582 126.612 226.69 125.789 226.966 125.009C227.074 124.195 227.355 123.41 227.792 122.699Z" fill="#B8060D"/>
<path d="M229.475 115.695C229.615 115.695 229.605 116.254 229.475 116.878C229.346 117.502 229.087 117.996 228.948 117.958C228.808 117.921 228.818 117.4 228.948 116.775C229.077 116.151 229.336 115.658 229.475 115.695Z" fill="#B8060D"/>
<path d="M177.354 171.178C177.484 171.122 177.832 171.541 178.141 172.109C178.45 172.678 178.599 173.199 178.469 173.264C178.34 173.33 177.992 172.901 177.683 172.333C177.374 171.765 177.225 171.243 177.354 171.178Z" fill="#B8060D"/>
<path d="M172.983 163.075C173.113 163.01 173.71 163.876 174.308 164.994C174.748 165.643 175.042 166.368 175.174 167.127C175.044 167.192 174.447 166.326 173.85 165.208C173.409 164.559 173.115 163.834 172.983 163.075V163.075Z" fill="#B8060D"/>
<path d="M168.623 154.963C169.2 155.511 169.65 156.164 169.947 156.881C170.387 157.533 170.679 158.262 170.803 159.024C170.227 158.475 169.776 157.822 169.479 157.105C169.037 156.454 168.746 155.725 168.623 154.963V154.963Z" fill="#B8060D"/>
<path d="M164.232 146.86C164.362 146.794 164.949 147.661 165.557 148.778C165.996 149.427 166.287 150.153 166.413 150.911C166.283 150.976 165.696 150.11 165.089 148.993C164.65 148.344 164.358 147.618 164.232 146.86V146.86Z" fill="#B8060D"/>
<path d="M159.891 138.747C160.471 139.293 160.922 139.947 161.215 140.666C161.659 141.316 161.953 142.046 162.081 142.808C161.501 142.262 161.05 141.609 160.757 140.889C160.316 140.238 160.021 139.509 159.891 138.747Z" fill="#B8060D"/>
<path d="M155.53 130.644C155.66 130.579 156.247 131.445 156.854 132.563C157.293 133.211 157.585 133.937 157.711 134.696C157.134 134.147 156.684 133.494 156.387 132.777C155.948 132.129 155.656 131.402 155.53 130.644V130.644Z" fill="#B8060D"/>
<path d="M151.17 122.532C151.746 123.08 152.197 123.733 152.494 124.45C152.933 125.099 153.225 125.825 153.35 126.583C153.221 126.648 152.633 125.792 152.026 124.72C151.579 124.055 151.288 123.31 151.17 122.532Z" fill="#B8060D"/>
<path d="M146.798 114.429C146.927 114.363 147.525 115.22 148.122 116.347C148.564 116.995 148.859 117.721 148.988 118.48C148.408 117.934 147.957 117.281 147.664 116.561C147.224 115.913 146.929 115.187 146.798 114.429V114.429Z" fill="#B8060D"/>
<path d="M143.503 108.291C143.632 108.235 143.981 108.645 144.289 109.222C144.598 109.8 144.747 110.312 144.618 110.368C144.488 110.424 144.14 110.014 143.831 109.436C143.523 108.859 143.373 108.356 143.503 108.291Z" fill="#B8060D"/>
<path d="M99.3857 185.27C99.3857 185.401 98.8082 185.475 98.1212 185.419C97.4343 185.363 96.8867 185.224 96.8966 185.093C96.9066 184.963 97.4741 184.888 98.1611 184.935C98.848 184.981 99.3956 185.14 99.3857 185.27Z" fill="#B8060D"/>
<path d="M109.473 186.015C108.635 186.191 107.769 186.21 106.924 186.071C106.066 186.086 105.213 185.94 104.415 185.643C105.252 185.467 106.119 185.448 106.964 185.587C107.823 185.568 108.676 185.714 109.473 186.015Z" fill="#B8060D"/>
<path d="M119.617 186.751C117.922 186.951 116.201 186.824 114.56 186.379C116.255 186.179 117.976 186.305 119.617 186.751V186.751Z" fill="#B8060D"/>
<path d="M129.734 187.496C128.038 187.696 126.317 187.569 124.676 187.124C125.513 186.948 126.379 186.929 127.225 187.068C128.084 187.046 128.938 187.192 129.734 187.496V187.496Z" fill="#B8060D"/>
<path d="M139.86 188.232C139.023 188.413 138.156 188.432 137.311 188.288C136.453 188.304 135.6 188.162 134.802 187.869C135.636 187.678 136.504 187.649 137.351 187.785C138.21 187.78 139.062 187.932 139.86 188.232Z" fill="#B8060D"/>
<path d="M149.975 188.977C149.137 189.153 148.271 189.172 147.426 189.033C146.567 189.052 145.713 188.906 144.917 188.605C146.612 188.405 148.334 188.532 149.975 188.977V188.977Z" fill="#B8060D"/>
<path d="M157.511 189.526C157.511 189.666 156.944 189.731 156.257 189.685C155.57 189.638 155.022 189.48 155.032 189.349C155.042 189.219 155.61 189.145 156.297 189.2C156.984 189.256 157.531 189.396 157.511 189.526Z" fill="#B8060D"/>
<path d="M165.6 82.8429C171.058 60.7774 156.362 38.7502 132.775 33.6438C109.187 28.5374 85.641 42.2855 80.1824 64.351C74.7239 86.4165 89.4201 108.444 113.007 113.55C136.595 118.657 160.141 104.908 165.6 82.8429Z" fill="white"/>
<path d="M166.732 73.6052C166.732 73.6052 166.732 73.3816 166.672 72.9346C166.612 72.4875 166.592 71.8355 166.532 70.988C166.532 70.5595 166.503 70.0845 166.443 69.5629C166.393 69.032 166.274 68.4639 166.174 67.8492C166.074 67.2344 165.955 66.5638 165.835 65.8467C165.686 65.0924 165.493 64.3463 165.258 63.6113C164.241 59.7759 162.606 56.1076 160.409 52.7327C157.538 48.2371 153.765 44.3029 149.298 41.1462L147.406 39.8236C146.739 39.4231 146.042 39.0506 145.355 38.6501C144.668 38.2496 143.981 37.8212 143.225 37.4952L140.965 36.48L139.82 35.9677L138.605 35.5579L136.156 34.7196C135.32 34.4588 134.443 34.3005 133.587 34.077C132.718 33.8381 131.833 33.6515 130.939 33.5181C129.121 33.2005 127.281 33.0014 125.433 32.922C124.487 32.922 123.541 32.801 122.586 32.8196L119.698 32.9593C119.22 32.9593 118.703 32.9593 118.245 33.0431L116.791 33.2573C115.795 33.4064 114.8 33.5088 113.854 33.7044C111.88 34.112 109.937 34.6441 108.039 35.2971C106.09 35.9559 104.191 36.7369 102.354 37.6349C101.439 38.1006 100.552 38.6408 99.6364 39.153C99.1984 39.4138 98.7204 39.6467 98.2923 39.9447L97.008 40.8761C95.2572 42.0815 93.5942 43.3945 92.0299 44.8066L89.8096 47.0885L89.2521 47.6659L88.7543 48.2807L87.7586 49.5287L86.763 50.7861L85.8869 52.1273L85.0107 53.4778L84.5726 54.1577L84.1943 54.8656L82.7208 57.7436L81.5957 60.7333C78.6025 69.0829 78.6025 78.118 81.5957 86.4676C81.994 87.4735 82.3922 88.4795 82.7805 89.4854C83.1688 90.4913 83.7761 91.404 84.264 92.3633L84.6324 93.0712L85.0704 93.7511L85.9566 95.1016L86.8327 96.4428L87.8283 97.7002L88.824 98.9483L89.3218 99.5723L89.8793 100.14L92.0896 102.422C93.654 103.837 95.317 105.153 97.0677 106.362L98.3521 107.294C98.7802 107.601 99.2581 107.824 99.6962 108.095C100.612 108.597 101.498 109.138 102.414 109.613C104.251 110.511 106.15 111.292 108.099 111.95C110 112.595 111.942 113.127 113.914 113.543C114.909 113.729 115.905 113.841 116.851 113.99L118.304 114.195C118.792 114.26 119.3 114.251 119.758 114.288L122.645 114.428C123.641 114.428 124.547 114.353 125.493 114.326C127.344 114.243 129.187 114.041 131.009 113.72C131.9 113.586 132.781 113.399 133.647 113.161C134.513 112.947 135.379 112.779 136.216 112.519L138.675 111.68L139.88 111.271L141.034 110.758L143.295 109.743C144.026 109.393 144.737 109.007 145.425 108.588C146.122 108.197 146.819 107.824 147.476 107.415L149.368 106.101C153.827 102.939 157.595 99.0059 160.469 94.5149C162.637 91.1191 164.241 87.4355 165.228 83.5897C165.463 82.8547 165.656 82.1085 165.806 81.3543C165.925 80.6465 166.035 79.9759 166.144 79.3611C166.254 78.7464 166.363 78.169 166.413 77.6474C166.463 77.1258 166.483 76.6415 166.503 76.2131C166.562 75.3655 166.612 74.7228 166.642 74.2664C166.672 73.8101 166.702 73.6052 166.702 73.6052C166.702 73.6052 166.702 73.8287 166.702 74.2664C166.702 74.7042 166.652 75.3748 166.622 76.2224C166.622 76.6508 166.622 77.1537 166.552 77.6567C166.483 78.1596 166.393 78.7557 166.303 79.3798C166.214 80.0038 166.104 80.6744 165.985 81.3823C165.847 82.1425 165.664 82.8949 165.437 83.6362C164.456 87.5131 162.844 91.226 160.658 94.6453C157.794 99.1913 154.014 103.174 149.527 106.371L147.635 107.703C146.968 108.113 146.261 108.495 145.565 108.896C144.868 109.296 144.181 109.743 143.424 110.069L141.144 111.103L139.979 111.624L138.754 112.044L136.285 112.891C135.439 113.152 134.563 113.329 133.687 113.552C132.813 113.79 131.926 113.98 131.028 114.121C129.186 114.44 127.324 114.646 125.453 114.735C124.457 114.735 123.551 114.856 122.586 114.847L119.668 114.707C119.181 114.707 118.673 114.707 118.195 114.624L116.721 114.419C115.726 114.27 114.73 114.158 113.734 113.972C109.692 113.126 105.784 111.795 102.106 110.013C101.17 109.538 100.284 108.989 99.3576 108.476C98.9096 108.206 98.4218 107.983 97.9936 107.675L96.6894 106.744C94.9392 105.521 93.2763 104.193 91.7113 102.767L89.4612 100.457L88.9036 99.8797L88.3958 99.2556L87.4002 97.9889L86.4046 96.7222L85.5185 95.3624L84.5826 93.984L84.1346 93.304L83.7562 92.5776C83.2584 91.6213 82.7606 90.6527 82.2628 89.6716C81.8645 88.6564 81.4663 87.6412 81.0581 86.6167C78.0249 78.1712 78.0249 69.0298 81.0581 60.5843L82.2528 57.5294C82.7507 56.5514 83.2485 55.5828 83.7562 54.6141L84.1246 53.8969L84.5726 53.217L85.4587 51.8479L86.3548 50.4881L87.3504 49.2214L88.3461 47.9547L88.8538 47.3306L89.4213 46.7532L91.6615 44.4433C93.2243 43.0183 94.8874 41.6927 96.6396 40.4756L97.9339 39.5442C98.362 39.2462 98.8499 39.0133 99.2979 38.7432C100.224 38.231 101.11 37.6814 102.046 37.2157C105.724 35.4336 109.632 34.1032 113.675 33.2573C114.67 33.0617 115.666 32.9593 116.662 32.8103L118.135 32.6054C118.623 32.5402 119.131 32.5495 119.609 32.5122L122.526 32.3818C123.521 32.3818 124.447 32.4563 125.393 32.4843C127.262 32.5718 129.121 32.7803 130.959 33.1083C131.86 33.2438 132.752 33.4335 133.627 33.6765C134.503 33.9 135.379 34.0676 136.216 34.3284L138.695 35.1853L139.919 35.6044L141.074 36.126L143.364 37.1599C144.121 37.4859 144.798 37.9422 145.505 38.3241C146.212 38.706 146.899 39.1065 147.566 39.5163L149.467 40.8482C153.952 44.0481 157.732 48.0301 160.598 52.5744C162.786 55.9817 164.404 59.6816 165.397 63.5461C165.623 64.2877 165.806 65.0401 165.945 65.8001C166.064 66.5173 166.164 67.1879 166.264 67.8026C166.363 68.4173 166.463 69.0041 166.512 69.5257C166.562 70.0472 166.562 70.5409 166.582 70.9693C166.582 71.8169 166.642 72.4689 166.662 72.9159C166.682 73.363 166.732 73.6052 166.732 73.6052Z" fill="#B8060D"/>
<path d="M124.964 58.5639C124.964 58.5639 125.093 58.5174 125.362 58.4801C125.756 58.4353 126.154 58.4353 126.547 58.4801C128.045 58.586 129.456 59.1829 130.529 60.1659C131.161 60.7421 131.664 61.4308 132.007 62.1914C132.349 62.952 132.526 63.7692 132.526 64.5947C132.526 65.4202 132.349 66.2373 132.007 66.9979C131.664 67.7586 131.161 68.4473 130.529 69.0234C129.511 69.9524 128.201 70.5501 126.791 70.7279C125.382 70.9057 123.949 70.6542 122.704 70.0107C121.93 69.6158 121.248 69.0799 120.699 68.4344C120.15 67.789 119.744 67.0472 119.507 66.2528C119.269 65.4584 119.204 64.6276 119.316 63.8093C119.427 62.991 119.712 62.2019 120.155 61.4885C120.898 60.2848 122.067 59.3622 123.461 58.8806C123.833 58.7461 124.22 58.6524 124.615 58.6012C124.754 58.5789 124.895 58.5789 125.034 58.6012C125.034 58.6012 124.466 58.7036 123.54 59.0669C122.239 59.5964 121.161 60.5132 120.474 61.6748C119.975 62.5323 119.714 63.4928 119.714 64.4689C119.714 65.445 119.975 66.4056 120.474 67.2631C121.045 68.2747 121.926 69.1046 123.003 69.6475C124.157 70.2268 125.477 70.4516 126.776 70.2901C128.029 70.1257 129.198 69.608 130.129 68.8059C131.059 68.0039 131.706 66.9556 131.983 65.8008C132.205 64.8529 132.172 63.8683 131.887 62.9353C131.602 62.0023 131.074 61.15 130.35 60.4546C129.356 59.5059 128.053 58.8932 126.647 58.7129C125.531 58.5174 124.964 58.6105 124.964 58.5639Z" fill="#263238"/>
<path d="M127.393 50.8707L127.304 50.6751L127.045 50.0883L126.049 47.7226H126.139L120.165 48.5236L120.275 48.4118C120.185 49.4363 120.086 50.5726 119.986 51.7834V51.8673H119.896C118.703 52.3452 117.585 52.9718 116.571 53.73L116.491 53.7859H116.402L113.096 52.3981L113.325 52.3423L109.711 56.8036V56.5708L112.041 59.16L112.121 59.2532V59.3649C111.627 60.4769 111.292 61.645 111.125 62.839V62.9787H110.996L107.61 64.1709L107.76 63.9381C108.019 65.6798 108.287 67.5612 108.576 69.5264L108.357 69.3401L111.961 69.6289H112.111V69.7593C112.628 70.8695 113.297 71.912 114.102 72.8608L114.192 72.9725L114.132 73.1029L112.628 76.1765L112.559 75.8971L117.318 79.2781H116.999L119.777 77.1079L119.896 77.0148L120.036 77.0707C121.222 77.5314 122.467 77.8445 123.74 78.0021L123.959 78.1604V78.207V78.3094L124.038 78.505L124.198 78.9055L124.506 79.6972C124.725 80.2281 124.934 80.759 125.143 81.2805L124.865 81.1222L130.838 80.3771L130.619 80.5913C130.719 79.455 130.828 78.328 130.938 77.2197V77.08L131.077 77.0241C132.264 76.5644 133.38 75.9566 134.393 75.2172L134.512 75.1334L134.652 75.1893L137.947 76.5957L137.648 76.6702C138.883 75.1427 140.094 73.6587 141.282 72.2181V72.4975C140.496 71.5662 139.729 70.7465 138.963 69.899L138.873 69.7965L138.933 69.6754C139.425 68.563 139.76 67.395 139.928 66.2014V66.071L140.048 66.0244L143.443 64.8508L143.304 65.0651C143.025 63.1184 142.766 61.2743 142.517 59.4767L142.696 59.635L139.092 59.3277H138.983V59.2346C138.489 58.1192 137.84 57.0699 137.051 56.1144L136.991 56.0306V55.9467L138.505 52.8732L138.554 53.0501L133.815 49.6226H133.955L131.167 51.7741H131.117C130.214 51.4193 129.277 51.1448 128.319 50.9545L127.613 50.8241L127.393 50.8707C127.476 50.8567 127.56 50.8567 127.642 50.8707C127.883 50.8886 128.122 50.9197 128.359 50.9638C129.332 51.1171 130.283 51.3701 131.197 51.7182H131.117L133.865 49.5202L133.935 49.4643L134.014 49.5202L138.793 52.8825L138.893 52.9477L138.843 53.0594L137.35 56.1516V55.9933C138.161 56.9645 138.831 58.0326 139.341 59.1694L139.192 59.0669L142.796 59.3556H142.945V59.5046L143.762 65.0464V65.2141L143.602 65.27L140.217 66.4621L140.366 66.2852C140.205 67.5163 139.87 68.722 139.371 69.871V69.6568C140.137 70.5044 140.914 71.3612 141.701 72.2461L141.82 72.3765L141.711 72.5255L138.086 76.9868L137.967 77.1266L137.788 77.052L134.492 75.655H134.751C133.704 76.4162 132.552 77.0426 131.326 77.5177L131.485 77.3221C131.376 78.4305 131.276 79.5575 131.167 80.6845V80.8801H130.968L124.994 81.6345H124.785L124.715 81.4482L124.088 79.8648L123.769 79.0732L123.61 78.6727L123.53 78.4771V78.3746V78.328L123.74 78.4864C122.421 78.3339 121.129 78.0207 119.896 77.555H120.165L117.387 79.7251L117.228 79.8462L117.069 79.7344L112.31 76.3349L112.15 76.2231L112.23 76.0461L113.734 72.9725V73.2147C112.918 72.2324 112.248 71.1515 111.742 70.0014L111.941 70.1411L108.347 69.8431H108.148V69.6661C107.869 67.7381 107.6 65.8567 107.352 64.0778V63.9101L107.531 63.8449L110.916 62.6714L110.777 62.839C110.939 61.6081 111.274 60.4025 111.772 59.2532V59.4581C110.956 58.5267 110.169 57.6698 109.452 56.8595L109.353 56.7477L109.442 56.6267L113.086 52.1746L113.176 52.0722L113.315 52.128L116.601 53.5438H116.422C117.465 52.7809 118.613 52.1543 119.837 51.681L119.747 51.8021C119.867 50.5819 119.986 49.455 120.086 48.4304V48.328H120.185L126.159 47.6201H126.229V47.676C126.607 48.6912 126.906 49.4829 127.125 50.0417C127.214 50.2932 127.294 50.4981 127.344 50.6564C127.37 50.7255 127.387 50.7975 127.393 50.8707Z" fill="#263238"/>
<path fill-rule="evenodd" clip-rule="evenodd" d="M116.89 83.8045C117.604 83.8881 118.304 84.0603 118.97 84.3168L120.504 83.1246L123.132 84.9874L122.306 86.6825C122.749 87.215 123.114 87.8008 123.391 88.4242L125.382 88.5918L125.82 91.6561L123.958 92.3081C123.864 92.977 123.677 93.6314 123.401 94.2547L124.685 95.689L122.694 98.1479L120.882 97.3748C120.309 97.7814 119.683 98.1193 119.02 98.3807L118.841 100.244L115.565 100.663L114.868 98.9116C114.154 98.828 113.454 98.6558 112.788 98.3994L111.254 99.6009L108.626 97.7381L109.452 96.0336C109.007 95.5024 108.642 94.9163 108.367 94.2919L106.376 94.1336L105.928 91.0693L107.8 90.4174C107.89 89.7458 108.074 89.0883 108.347 88.4614L107.063 87.0364L109.054 84.5775L110.876 85.3506C111.444 84.9339 112.07 84.5923 112.738 84.3354L112.907 82.4726L116.183 82.0535L116.88 83.8045H116.89ZM115.545 88.0609C114.849 88.1495 114.196 88.4299 113.67 88.8664C113.144 89.303 112.769 89.876 112.592 90.5126C112.415 91.1492 112.445 91.8206 112.677 92.4414C112.909 93.0622 113.334 93.6045 113.896 93.9991C114.458 94.3937 115.134 94.623 115.836 94.6576C116.538 94.6923 117.235 94.5309 117.839 94.1938C118.443 93.8568 118.926 93.3594 119.226 92.7648C119.527 92.1703 119.632 91.5056 119.528 90.8551C119.39 89.9932 118.895 89.2168 118.149 88.6939C117.404 88.171 116.469 87.9436 115.545 88.0609V88.0609Z" fill="#B8060D"/>
<path d="M273.714 106.668C290.833 90.6525 290.833 64.6869 273.714 48.6719C256.594 32.6568 228.838 32.6568 211.718 48.6719C194.599 64.6869 194.599 90.6524 211.718 106.667C228.838 122.683 256.594 122.683 273.714 106.668Z" fill="white"/>
<path d="M286.554 77.6665C286.554 77.6665 286.554 77.443 286.494 77.0053C286.434 76.5675 286.414 75.8969 286.364 75.0586C286.364 74.6302 286.305 74.1273 286.275 73.6243C286.245 73.1214 286.096 72.5253 285.996 71.9105C285.897 71.2958 285.777 70.6252 285.658 69.9081C285.538 69.1909 285.279 68.4644 285.09 67.6727C284.065 63.8384 282.427 60.1709 280.231 56.7941C277.36 52.3013 273.591 48.3676 269.13 45.2076L267.239 43.885C266.581 43.4845 265.885 43.112 265.188 42.7115C264.491 42.311 263.814 41.8825 263.067 41.5566L260.807 40.5413L259.652 40.0291L258.447 39.6193L255.988 38.781C255.152 38.5295 254.285 38.3619 253.419 38.1384C252.552 37.9049 251.671 37.7183 250.781 37.5795C248.959 37.2614 247.116 37.0622 245.265 36.9834C244.319 36.9834 243.373 36.8717 242.418 36.881L239.53 37.0207C239.052 37.0207 238.535 37.0207 238.077 37.1045L236.623 37.3187C235.628 37.4677 234.632 37.5795 233.686 37.7658C229.689 38.6102 225.824 39.9312 222.187 41.6963C221.271 42.162 220.385 42.7115 219.478 43.2144C219.03 43.4845 218.553 43.7081 218.124 44.0061L216.85 44.9375C215.099 46.1431 213.436 47.4562 211.872 48.868L209.652 51.1499L209.094 51.7273L208.596 52.342L207.601 53.5901L206.605 54.8475L205.729 56.1887L204.853 57.5392L204.415 58.2191L204.046 58.927L202.563 61.805L201.388 64.8413C198.388 73.1898 198.388 82.2271 201.388 90.5756L202.573 93.5933L204.046 96.4713L204.425 97.1792L204.863 97.8591L205.739 99.2096L206.615 100.551L207.611 101.808L208.606 103.056L209.104 103.68L209.662 104.248L211.882 106.54C213.446 107.952 215.109 109.265 216.86 110.47L218.144 111.401C218.572 111.709 219.05 111.932 219.498 112.202C220.404 112.705 221.291 113.255 222.206 113.721C224.046 114.62 225.948 115.401 227.901 116.058C229.801 116.705 231.743 117.237 233.716 117.651C234.712 117.837 235.707 117.949 236.643 118.098L238.097 118.303C238.585 118.368 239.092 118.359 239.56 118.396L242.448 118.536C243.443 118.536 244.349 118.461 245.285 118.433C247.136 118.35 248.979 118.151 250.801 117.837C251.69 117.695 252.571 117.509 253.439 117.279C254.305 117.055 255.182 116.887 256.008 116.627L258.467 115.798L259.682 115.379L260.827 114.866L263.097 113.851C263.853 113.534 264.521 113.078 265.227 112.705C265.934 112.333 266.611 111.932 267.278 111.523L269.16 110.209C273.624 107.052 277.393 103.118 280.261 98.6228C282.455 95.242 284.093 91.5716 285.12 87.7349C285.309 86.9432 285.598 86.2167 285.687 85.4995C285.777 84.7824 285.916 84.1211 286.026 83.5063C286.135 82.8916 286.245 82.3142 286.305 81.7926C286.364 81.271 286.364 80.7867 286.394 80.3583C286.444 79.5107 286.494 78.868 286.524 78.4117C286.554 77.9553 286.584 77.7504 286.584 77.7504C286.584 77.7504 286.584 77.9739 286.584 78.4117C286.584 78.8494 286.584 79.52 286.504 80.3676C286.504 80.796 286.504 81.299 286.444 81.8019C286.384 82.3049 286.275 82.9009 286.185 83.525C286.096 84.149 285.986 84.8196 285.877 85.5368C285.767 86.254 285.508 86.9898 285.319 87.7814C284.335 91.6516 282.716 95.3559 280.52 98.7625C277.657 103.304 273.88 107.283 269.399 110.479L267.497 111.811C266.83 112.23 266.123 112.603 265.436 113.013C264.749 113.423 264.053 113.851 263.286 114.177L260.966 115.136L259.801 115.658L258.587 116.077L256.107 116.925C255.271 117.185 254.385 117.362 253.519 117.586C252.642 117.822 251.751 118.012 250.851 118.154C249.013 118.482 247.153 118.688 245.285 118.769C244.289 118.769 243.373 118.89 242.408 118.881L239.491 118.741C239.003 118.741 238.495 118.741 238.017 118.657L236.553 118.452C235.558 118.303 234.562 118.191 233.567 118.005C231.57 117.591 229.604 117.056 227.682 116.403C225.71 115.74 223.787 114.953 221.928 114.047C221.002 113.572 220.106 113.022 219.18 112.51C218.732 112.249 218.254 112.016 217.816 111.709L216.521 110.777C214.772 109.554 213.109 108.226 211.543 106.8L209.303 104.491L208.736 103.913L208.228 103.289L207.232 102.022L206.237 100.756L205.341 99.3959L204.455 98.036L204.006 97.3468L203.638 96.6296C203.14 95.6983 202.643 94.6923 202.135 93.7144L200.94 90.6594C197.9 82.215 197.9 73.0716 200.94 64.6271L202.135 61.5721L203.638 58.6662L204.016 57.9397L204.455 57.2598L205.351 55.8906L206.237 54.5308L207.232 53.2641L208.228 52.0067L208.736 51.3734L209.303 50.7959C210.05 50.0229 210.807 49.2591 211.543 48.4861C213.109 47.0636 214.772 45.7383 216.521 44.5184L217.816 43.587C218.254 43.2796 218.732 43.0468 219.18 42.7767C220.106 42.2644 221.002 41.7242 221.928 41.2492C223.785 40.3394 225.708 39.552 227.682 38.8928C229.604 38.2397 231.57 37.7046 233.567 37.2908C234.562 37.1045 235.558 36.9927 236.553 36.8437L238.017 36.6388C238.505 36.5736 239.013 36.5829 239.491 36.5457L242.408 36.4153C243.403 36.4153 244.329 36.4898 245.275 36.527C247.147 36.6074 249.01 36.8128 250.851 37.1418C251.749 37.2782 252.637 37.468 253.509 37.7099C254.385 37.9334 255.261 38.1011 256.107 38.3712L258.577 39.2188L259.811 39.6938L260.976 40.2153L263.256 41.2492C264.013 41.5752 264.69 42.0316 265.397 42.4134C266.104 42.7953 266.8 43.1958 267.468 43.6056L269.359 44.9375C273.844 48.1374 277.624 52.1194 280.49 56.6637C282.683 60.0676 284.298 63.7688 285.279 67.6355C285.468 68.4365 285.747 69.1723 285.837 69.8894C285.926 70.6066 286.046 71.2772 286.145 71.9012C286.245 72.5253 286.355 73.0934 286.404 73.615C286.454 74.1366 286.404 74.6302 286.464 75.0586C286.464 75.9062 286.524 76.5582 286.544 77.0146C286.564 77.471 286.554 77.6665 286.554 77.6665Z" fill="#B8060D"/>
<path d="M261.546 86.404C266.568 76.0182 261.64 63.7904 250.538 59.0923C239.436 54.3942 226.364 59.005 221.342 69.3907C216.32 79.7765 221.249 92.0043 232.351 96.7024C243.453 101.401 256.524 96.7897 261.546 86.404Z" fill="#F5F5F5"/>
<path d="M219.419 76.5302C219.428 76.6418 219.428 76.7539 219.419 76.8655C219.419 77.1076 219.419 77.4336 219.419 77.8434V78.5699C219.419 78.8307 219.419 79.1194 219.499 79.4361C219.553 80.1561 219.66 80.8718 219.817 81.5783C220.209 83.5265 220.907 85.4097 221.888 87.1666C224.219 91.3948 228.051 94.7323 232.725 96.6068C237.399 98.4812 242.625 98.7758 247.506 97.4399C248.501 97.1686 249.475 96.8357 250.423 96.4433C251.385 96.026 252.313 95.5435 253.201 94.9996C254.112 94.4527 254.984 93.8491 255.809 93.1927C256.626 92.494 257.394 91.7473 258.109 90.9574C259.578 89.3399 260.761 87.513 261.614 85.546C262.471 83.5131 263.001 81.3725 263.187 79.194C263.312 77.0012 263.084 74.8033 262.51 72.6742C261.948 70.6159 261.033 68.6563 259.802 66.8717C259.195 66.0012 258.53 65.1675 257.81 64.3755C257.086 63.6219 256.308 62.9155 255.481 62.2613C254.674 61.6152 253.819 61.0238 252.922 60.4916C248.148 57.7185 242.418 56.7675 236.916 57.8354C231.415 58.9033 226.562 61.9083 223.362 66.229C222.14 67.8492 221.187 69.6327 220.534 71.5193C220.275 72.1999 220.069 72.8972 219.917 73.6056C219.847 73.913 219.768 74.1924 219.718 74.4532C219.668 74.714 219.638 74.9561 219.608 75.1703C219.549 75.5802 219.499 75.8968 219.469 76.1017C219.456 76.2152 219.433 76.3274 219.399 76.437C219.384 76.3257 219.384 76.213 219.399 76.1017C219.399 75.8503 219.459 75.5336 219.499 75.1238C219.499 74.9002 219.549 74.6581 219.578 74.3973C219.608 74.1365 219.688 73.8478 219.758 73.5404C219.895 72.8204 220.088 72.1107 220.335 71.4168C220.962 69.5003 221.899 67.6848 223.113 66.0334C224.862 63.6198 227.136 61.5795 229.787 60.0463C232.438 58.5132 235.406 57.5219 238.496 57.1375C241.585 56.7531 244.727 56.9844 247.714 57.8161C250.701 58.6477 253.467 60.0611 255.829 61.9632C256.679 62.6304 257.477 63.3524 258.219 64.1241C258.94 64.9304 259.606 65.7798 260.21 66.6668C261.473 68.494 262.411 70.5008 262.988 72.609C263.575 74.7773 263.81 77.016 263.685 79.2498C263.495 81.4858 262.951 83.6829 262.072 85.7696C261.2 87.7999 259.987 89.6866 258.477 91.3579C257.745 92.1658 256.957 92.928 256.118 93.6398C255.273 94.315 254.382 94.9373 253.45 95.5026C252.538 96.0543 251.587 96.546 250.602 96.9742C245.971 98.8494 240.804 99.2295 235.917 98.0546C232.863 97.3094 230.015 95.9647 227.56 94.1099C225.105 92.2551 223.1 89.9327 221.679 87.297C220.712 85.5085 220.04 83.5928 219.688 81.6156C219.545 80.8988 219.455 80.1737 219.419 79.4454C219.419 79.1287 219.359 78.84 219.359 78.5699C219.359 78.2998 219.359 78.067 219.359 77.8434C219.359 77.4336 219.359 77.1076 219.409 76.8655C219.399 76.7537 219.403 76.6413 219.419 76.5302V76.5302Z" fill="#263238"/>
<path d="M251.448 78.5144C251.186 78.5399 250.923 78.5399 250.661 78.5144L248.521 78.5609C246.699 78.5609 244.17 78.5609 241.302 78.5609H241.163V77.0893C241.163 74.0996 241.163 71.3986 241.163 69.4426C241.163 68.5113 241.163 67.7103 241.213 67.1235C241.202 66.837 241.219 66.5503 241.263 66.2666C241.307 66.5503 241.327 66.8368 241.322 67.1235C241.322 67.7103 241.322 68.4926 241.322 69.4426C241.322 71.3986 241.372 74.0996 241.372 77.0893V78.4306L241.223 78.3002C244.09 78.3002 246.619 78.3002 248.441 78.3467H250.582C250.876 78.3708 251.167 78.4271 251.448 78.5144V78.5144Z" fill="#263238"/>
<path d="M241.373 60.6316C241.559 61.78 241.559 62.948 241.373 64.0964C241.187 62.948 241.187 61.78 241.373 60.6316V60.6316Z" fill="#263238"/>
<path d="M251.427 63.4163C250.703 64.3431 249.83 65.1599 248.839 65.8379C249.162 65.3474 249.565 64.9074 250.034 64.5339C250.432 64.0947 250.903 63.7174 251.427 63.4163V63.4163Z" fill="#263238"/>
<path d="M257.303 69.4238C256.834 69.7872 256.323 70.0997 255.78 70.3552C255.286 70.6872 254.751 70.9624 254.187 71.1748C254.591 70.741 255.081 70.3837 255.63 70.1224C256.137 69.7947 256.704 69.5579 257.303 69.4238V69.4238Z" fill="#263238"/>
<path d="M260.747 78.3372C259.066 78.5111 257.37 78.5111 255.689 78.3372C257.37 78.1633 259.066 78.1633 260.747 78.3372Z" fill="#263238"/>
<path d="M225.713 78.0205C224.125 78.1944 222.521 78.1944 220.934 78.0205C222.521 77.8467 224.125 77.8467 225.713 78.0205V78.0205Z" fill="#263238"/>
<path d="M228.181 84.6521C227.652 85.2333 227.046 85.7497 226.379 86.1889C225.773 86.7017 225.105 87.1457 224.388 87.5115C224.926 86.9385 225.53 86.4231 226.19 85.9747C226.799 85.4657 227.467 85.0221 228.181 84.6521V84.6521Z" fill="#263238"/>
<path d="M234.303 89.7839C233.945 90.4757 233.532 91.1419 233.069 91.7771C232.692 92.4581 232.255 93.1092 231.765 93.7237C232.005 92.9818 232.364 92.2784 232.83 91.6374C233.215 90.9517 233.712 90.3263 234.303 89.7839Z" fill="#263238"/>
<path d="M241.373 96.4063C241.187 94.8339 241.187 93.2472 241.373 91.6748C241.559 93.2472 241.559 94.8339 241.373 96.4063V96.4063Z" fill="#263238"/>
<path d="M252.266 93.2579C251.498 92.9248 250.795 92.4747 250.185 91.9261C249.52 91.4327 248.945 90.8412 248.482 90.175C249.146 90.6538 249.778 91.1702 250.374 91.7212C251.036 92.199 251.667 92.7121 252.266 93.2579Z" fill="#263238"/>
<path d="M257.383 88.1263C256.766 87.7337 256.204 87.2707 255.71 86.7478C255.145 86.2917 254.649 85.7652 254.236 85.1831C254.853 85.5757 255.415 86.0387 255.909 86.5616C256.468 87.0237 256.963 87.5494 257.383 88.1263V88.1263Z" fill="#263238"/>
<path d="M227.952 71.6686C227.405 71.3357 226.909 70.9346 226.478 70.4764C225.984 70.0743 225.554 69.6068 225.204 69.0886C225.751 69.4215 226.247 69.8226 226.678 70.2808C227.172 70.6829 227.602 71.1504 227.952 71.6686V71.6686Z" fill="#263238"/>
<path d="M234.265 65.4469C233.718 65.132 233.228 64.7392 232.811 64.2826C232.324 63.8926 231.902 63.4375 231.557 62.9321C232.103 63.247 232.593 63.6399 233.01 64.0964C233.497 64.4864 233.92 64.9415 234.265 65.4469V65.4469Z" fill="#263238"/>
<path d="M262.618 70.6562C268.528 68.3852 271.351 62.062 268.924 56.533C266.496 51.004 259.737 48.3629 253.827 50.6338C247.916 52.9048 245.093 59.228 247.521 64.757C249.948 70.286 256.707 72.9272 262.618 70.6562Z" fill="#B8060D"/>
<path d="M263.794 57.26C263.383 57.881 262.906 58.4614 262.37 58.9924C261.454 60.0169 260.15 61.4233 258.686 62.9508C258.278 63.3699 257.88 63.7704 257.501 64.1709L257.332 64.3386L257.153 64.1896C255.829 63.0812 254.694 62.0939 253.897 61.3954C253.442 61.0454 253.037 60.6415 252.692 60.1939C253.21 60.4614 253.688 60.7901 254.116 61.1718C254.972 61.8238 256.107 62.7645 257.481 63.8543H257.133C257.505 63.4569 257.893 63.047 258.298 62.6248C259.761 61.0973 261.105 59.7375 262.101 58.7595C262.6 58.1994 263.169 57.6961 263.794 57.26V57.26Z" fill="#FAFAFA"/>
<path d="M153.33 238.871C153.24 238.778 153.987 237.996 155.012 237.139C156.038 236.282 156.934 235.658 157.003 235.761C157.073 235.863 156.346 236.636 155.321 237.493C154.295 238.35 153.429 239.011 153.33 238.871Z" fill="#B8060D"/>
<path d="M145.931 245.103C145.831 245 146.578 244.227 147.603 243.361C148.629 242.495 149.535 241.89 149.595 241.992C149.654 242.094 148.948 242.868 147.922 243.724C146.897 244.581 146.02 245.205 145.931 245.103Z" fill="#B8060D"/>
<path d="M138.525 251.334C138.426 251.231 139.183 250.402 140.208 249.592C140.768 249.014 141.445 248.545 142.199 248.213C142.289 248.316 141.542 249.089 140.517 249.955C139.957 250.533 139.28 251.002 138.525 251.334Z" fill="#B8060D"/>
<path d="M131.128 257.555C131.028 257.462 131.775 256.68 132.801 255.823C133.826 254.966 134.732 254.342 134.792 254.444C134.852 254.547 134.145 255.32 133.119 256.186C132.094 257.052 131.218 257.639 131.128 257.555Z" fill="#B8060D"/>
<path d="M123.72 263.786C123.62 263.684 124.377 262.911 125.402 262.054C126.428 261.197 127.324 260.573 127.394 260.675C127.463 260.778 126.736 261.551 125.711 262.408C124.685 263.265 123.819 263.889 123.72 263.786Z" fill="#B8060D"/>
<path d="M139.554 306.466C145.132 284.427 130.555 262.33 106.996 257.112C83.4366 251.894 59.8162 265.531 54.2383 287.57C48.6604 309.61 63.2373 331.706 86.7967 336.924C110.356 342.142 133.976 328.506 139.554 306.466Z" fill="white"/>
<path d="M140.735 297.028C140.735 297.028 140.735 296.804 140.675 296.366C140.616 295.929 140.606 295.267 140.546 294.42C140.546 293.991 140.486 293.488 140.456 292.985C140.426 292.482 140.277 291.886 140.178 291.272C140.078 290.657 139.959 289.986 139.839 289.278C139.694 288.524 139.505 287.778 139.272 287.043C138.249 283.205 136.61 279.534 134.413 276.155C131.542 271.662 127.773 267.729 123.312 264.569L121.42 263.228C120.753 262.818 120.056 262.445 119.359 262.045C118.662 261.644 117.995 261.216 117.238 260.899L114.968 259.884L113.813 259.372L112.609 258.952L110.15 258.123C109.313 257.863 108.447 257.695 107.581 257.472C106.712 257.242 105.832 257.056 104.942 256.913C103.12 256.599 101.277 256.4 99.4267 256.317C98.4908 256.317 97.535 256.205 96.5792 256.214L93.7018 256.354C93.214 256.354 92.7062 256.354 92.2383 256.447L90.7847 256.652C89.789 256.801 88.7934 256.913 87.8575 257.099C85.8849 257.513 83.9427 258.045 82.0431 258.692C80.0926 259.347 78.193 260.128 76.3581 261.029C75.4321 261.495 74.546 262.045 73.64 262.548C73.192 262.818 72.7141 263.041 72.2959 263.349L71.0116 264.28C69.261 265.486 67.598 266.799 66.0335 268.21L63.8232 270.492L63.2656 271.07L62.7579 271.694L61.7622 272.942L60.7666 274.19L59.8905 275.531L59.0143 276.882L58.5762 277.562L58.2079 278.279C57.71 279.21 57.2122 280.188 56.7244 281.147C56.2365 282.107 55.9378 283.159 55.5396 284.174C52.5392 292.52 52.5392 301.554 55.5396 309.899C55.9378 310.905 56.3261 311.921 56.7244 312.917C57.1226 313.914 57.72 314.845 58.1979 315.795L58.5762 316.512L59.0143 317.183L59.8905 318.533L60.7666 319.884L61.7622 321.132L62.7579 322.38L63.2557 323.004L63.8132 323.582L66.0335 325.863C67.598 327.275 69.261 328.588 71.0116 329.794L72.286 330.725C72.7141 331.023 73.192 331.247 73.64 331.517C74.546 332.02 75.4321 332.57 76.3481 333.035C78.1873 333.935 80.0901 334.716 82.0431 335.373C83.9398 336.028 85.8825 336.561 87.8575 336.966C88.8532 337.161 89.8488 337.264 90.7847 337.413L92.2383 337.627C92.7261 337.683 93.2339 337.683 93.7018 337.711L96.5891 337.85C97.5848 337.85 98.4908 337.776 99.4267 337.748C101.278 337.669 103.121 337.47 104.942 337.152C105.834 337.02 106.715 336.833 107.581 336.593C108.447 336.37 109.323 336.202 110.15 335.95L112.609 335.112L113.823 334.702L114.968 334.19L117.238 333.166C117.995 332.849 118.662 332.393 119.369 332.02C120.076 331.647 120.753 331.247 121.42 330.837L123.302 329.524C127.768 326.367 131.541 322.433 134.413 317.937C136.611 314.542 138.249 310.855 139.272 307.003C139.503 306.268 139.693 305.522 139.839 304.768C139.959 304.05 140.078 303.389 140.178 302.765C140.277 302.141 140.397 301.582 140.456 301.051C140.516 300.52 140.516 300.045 140.546 299.617C140.606 298.779 140.645 298.127 140.675 297.67C140.705 297.214 140.735 297.009 140.735 297.009C140.735 297.009 140.735 297.233 140.735 297.68C140.735 298.127 140.735 298.779 140.655 299.626C140.655 300.055 140.655 300.558 140.596 301.07C140.536 301.582 140.436 302.169 140.337 302.784C140.237 303.398 140.138 304.078 140.028 304.795C139.885 305.555 139.699 306.308 139.471 307.049C138.484 310.914 136.869 314.615 134.682 318.021C131.812 322.56 128.032 326.539 123.551 329.738L121.649 331.079C120.982 331.489 120.275 331.862 119.588 332.271C118.901 332.681 118.204 333.11 117.438 333.436L115.158 334.47L113.993 334.991L112.778 335.41L110.299 336.258C109.463 336.528 108.576 336.696 107.71 336.919C106.834 337.16 105.943 337.35 105.042 337.487C103.205 337.816 101.345 338.021 99.4765 338.102C98.4808 338.102 97.5649 338.223 96.5991 338.214L93.6819 338.083C93.1941 338.083 92.6863 338.083 92.2184 337.99L90.7448 337.785C89.7492 337.636 88.7536 337.534 87.758 337.338C85.7603 336.929 83.7944 336.394 81.8738 335.736C79.9008 335.074 77.9781 334.286 76.1191 333.38C75.1932 332.914 74.2971 332.365 73.3712 331.852C72.9232 331.582 72.4453 331.349 72.0072 331.042L70.7129 330.111C68.9606 328.89 67.2975 327.562 65.7348 326.134L63.4946 323.833L62.9271 323.246L62.4193 322.622L61.4237 321.356L60.4281 320.089L59.532 318.738L58.6459 317.369L58.2079 316.68L57.8295 315.963L56.3261 313.048L55.1314 309.993C52.0916 301.548 52.0916 292.405 55.1314 283.96L56.3261 280.905C56.8339 279.974 57.3218 278.968 57.8295 277.999L58.2079 277.273L58.6559 276.593L59.542 275.224L60.4281 273.873L61.4237 272.597L62.4193 271.34L62.9271 270.716L63.4946 270.129L65.7149 267.884C67.2801 266.459 68.943 265.131 70.693 263.907L71.9972 262.976C72.4254 262.669 72.9033 262.436 73.3613 262.166C74.2772 261.663 75.1733 261.113 76.0992 260.638C77.9601 259.736 79.8825 258.948 81.8539 258.282C83.7864 257.637 85.762 257.111 87.7679 256.708C88.7635 256.522 89.7592 256.41 90.7548 256.261L92.2184 256.056C92.7162 256 93.214 256 93.6919 255.972L96.6091 255.832C97.6047 255.832 98.5306 255.907 99.4864 255.944C101.355 256.025 103.215 256.23 105.052 256.559C105.949 256.7 106.837 256.889 107.71 257.127C108.586 257.35 109.463 257.527 110.309 257.788L112.788 258.636L114.003 259.055L115.167 259.576L117.447 260.61C118.214 260.936 118.881 261.393 119.588 261.775C120.295 262.156 120.992 262.557 121.659 262.976L123.551 264.308C128.035 267.505 131.815 271.483 134.682 276.025C136.878 279.431 138.497 283.136 139.481 287.006C139.71 287.744 139.896 288.493 140.038 289.251C140.148 289.968 140.257 290.638 140.347 291.262C140.436 291.886 140.556 292.455 140.606 292.985C140.655 293.516 140.606 293.991 140.665 294.42C140.665 295.267 140.735 295.919 140.745 296.376C140.755 296.832 140.735 297.028 140.735 297.028Z" fill="#B8060D"/>
<path d="M118.892 315.385C118.612 315.421 118.329 315.437 118.046 315.432L115.626 315.478L106.666 315.562L77.245 315.646H74.9053V315.385C74.9053 305.14 74.965 295.882 74.9849 289.167C74.9849 285.879 75.0546 283.206 75.0745 281.296C75.0745 280.365 75.0745 279.694 75.1243 279.164C75.1091 278.915 75.1091 278.667 75.1243 278.418C75.1702 278.664 75.1902 278.914 75.184 279.164C75.184 279.694 75.184 280.402 75.184 281.296C75.184 283.206 75.1841 285.879 75.2737 289.167C75.2737 295.882 75.2737 305.103 75.3533 315.385L75.0745 315.125H77.1753L106.596 315.199L115.557 315.283L117.976 315.329C118.282 315.32 118.589 315.338 118.892 315.385V315.385Z" fill="#263238"/>
<path d="M114.033 287.388C113.634 287.81 113.198 288.199 112.729 288.552L109.045 291.579C105.909 294.122 101.558 297.605 96.739 301.424L96.0023 302.011L95.8131 302.16L95.6339 302.001L90.158 297.242H90.5562L82.5116 303.445L80.1818 305.187C79.9122 305.41 79.6185 305.606 79.3057 305.773C79.5335 305.512 79.7905 305.275 80.0723 305.065L82.3125 303.203L90.2177 296.86L90.3969 296.72L90.5662 296.869L96.062 301.601H95.6936L96.4204 301.023C101.249 297.195 105.64 293.758 108.836 291.29L112.639 288.384C113.077 288.021 113.543 287.687 114.033 287.388V287.388Z" fill="#263238"/>
<path d="M114.033 295.947C113.883 295.107 113.82 294.256 113.843 293.405C113.843 291.821 113.764 289.623 113.764 287.183L114.033 287.444H113.565C110.847 287.444 108.387 287.444 106.595 287.369C105.629 287.397 104.661 287.335 103.708 287.183C104.663 287.042 105.629 286.98 106.595 286.997C108.377 286.997 110.837 286.922 113.565 286.922H114.311V287.183C114.311 289.623 114.311 291.84 114.232 293.405C114.262 294.256 114.196 295.109 114.033 295.947V295.947Z" fill="#263238"/>
<path d="M95.6269 192.015C101.431 170.027 87.0812 147.801 63.5764 142.371C40.0717 136.942 16.3124 150.366 10.5087 172.354C4.70489 194.342 19.0544 216.569 42.5591 221.998C66.0639 227.427 89.8231 214.004 95.6269 192.015Z" fill="white"/>
<path d="M96.8972 182.197C96.8972 182.197 96.8972 181.964 96.8375 181.526C96.7777 181.088 96.7678 180.427 96.708 179.579C96.708 179.151 96.6483 178.648 96.6184 178.145C96.5885 177.642 96.4392 177.055 96.3396 176.431C96.2401 175.807 96.1206 175.146 96.0011 174.438C95.8817 173.73 95.6228 172.994 95.4336 172.203C94.4042 168.361 92.7594 164.687 90.5551 161.305C87.6844 156.81 83.9154 152.873 79.4539 149.71L77.612 148.396C76.9449 147.996 76.248 147.623 75.551 147.223C74.8541 146.822 74.187 146.394 73.4303 146.068L71.1603 145.053L70.0054 144.54L68.8007 144.131L66.3415 143.292C65.5052 143.032 64.639 142.864 63.7728 142.65C62.9067 142.412 62.0255 142.225 61.1344 142.091C59.3128 141.773 57.4698 141.574 55.6186 141.495C54.6827 141.495 53.7269 141.374 52.7712 141.392L49.8938 141.532C49.4059 141.532 48.8982 141.532 48.4302 141.616L46.9766 141.83C45.981 141.979 44.9854 142.082 44.0495 142.268C42.0755 142.681 40.133 143.216 38.235 143.87C36.2845 144.525 34.385 145.306 32.55 146.208C31.6241 146.673 30.738 147.214 29.832 147.726C29.3839 147.987 28.906 148.219 28.4879 148.517L27.2035 149.449C25.453 150.654 23.7899 151.968 22.2254 153.379L20.0151 155.661L19.4576 156.229L18.9498 156.853L17.9542 158.101L16.9586 159.359L16.0824 160.7L15.2063 162.051L14.7682 162.721L14.3998 163.438L12.8964 166.288L11.7116 169.306C8.7112 177.651 8.7112 186.686 11.7116 195.031C12.1099 196.046 12.4982 197.052 12.8964 198.058C13.2947 199.064 13.892 199.977 14.3699 200.927L14.7483 201.644L15.1864 202.324L16.0625 203.674L16.9387 205.016L17.9343 206.273L18.9299 207.521L19.4277 208.136L19.9853 208.713L22.2055 210.995C23.77 212.407 25.4331 213.72 27.1836 214.926L28.458 215.857C28.8861 216.155 29.364 216.388 29.8121 216.649C30.7181 217.161 31.6042 217.701 32.5202 218.167C36.1624 219.931 40.03 221.255 44.0296 222.107C45.0252 222.293 46.0208 222.395 46.9567 222.554L48.4103 222.759C48.8982 222.814 49.4059 222.814 49.8739 222.842L52.7612 222.982C53.7568 222.982 54.6628 222.917 55.5987 222.88C57.4499 222.801 59.2929 222.602 61.1145 222.284C62.006 222.151 62.8874 221.965 63.7529 221.725C64.6191 221.511 65.4952 221.343 66.3216 221.082L68.7808 220.244L69.9954 219.834L71.1404 219.322L73.4104 218.307C74.1671 217.981 74.8342 217.524 75.5411 217.152C76.248 216.779 76.925 216.388 77.5921 215.978L79.4738 214.665C83.9328 211.493 87.6954 207.547 90.5551 203.041C92.7439 199.662 94.3783 195.995 95.4038 192.162C95.6357 191.427 95.8252 190.681 95.9713 189.927C96.0907 189.219 96.2102 188.549 96.3098 187.934C96.4093 187.319 96.5288 186.742 96.5885 186.22C96.6483 185.699 96.6483 185.214 96.6782 184.786C96.7379 183.938 96.7777 183.296 96.8076 182.839C96.8375 182.383 96.8673 182.178 96.8673 182.178C96.8673 182.178 96.8673 182.401 96.8673 182.839C96.8673 183.277 96.8673 183.948 96.7877 184.786C96.7877 185.224 96.7877 185.717 96.7279 186.229C96.6682 186.742 96.5686 187.328 96.4691 187.953C96.3695 188.577 96.2699 189.238 96.1604 189.955C96.018 190.715 95.8319 191.468 95.6029 192.209C94.6182 196.075 93.0029 199.775 90.8139 203.181C87.9509 207.722 84.1783 211.703 79.7028 214.907L77.8011 216.239C77.1341 216.649 76.4272 217.031 75.7402 217.431C75.0532 217.832 74.3563 218.279 73.5896 218.605L71.3097 219.638L70.1448 220.151L68.9301 220.57L66.451 221.427C65.6147 221.687 64.7286 221.855 63.8624 222.079C62.9866 222.323 62.0955 222.516 61.1941 222.656C59.3554 222.975 57.4962 223.181 55.6286 223.271C54.633 223.271 53.717 223.392 52.7512 223.383L49.8341 223.243C49.3462 223.243 48.8384 223.243 48.3705 223.159L46.897 222.945C45.9013 222.796 44.9057 222.693 43.9101 222.507C41.9134 222.09 39.9478 221.552 38.026 220.896C36.0592 220.226 34.1432 219.433 32.2912 218.521C31.3652 218.055 30.4692 217.506 29.5432 216.993C29.0952 216.723 28.6173 216.5 28.1792 216.192L26.8849 215.261C25.1327 214.044 23.4696 212.718 21.9068 211.293L19.6667 208.983L19.0992 208.406L18.5914 207.782L17.5958 206.515L16.6001 205.248L15.7041 203.889L14.818 202.519L14.3799 201.84L14.0016 201.113C13.5038 200.182 13.0059 199.176 12.4982 198.207L11.2437 195.236C8.20393 186.792 8.20393 177.648 11.2437 169.204L12.4384 166.149L13.9418 163.233L14.3202 162.516L14.7682 161.827L15.6543 160.467L16.5404 159.107L17.536 157.841L18.5316 156.574L19.0394 155.95L19.6069 155.373L21.857 153.016C23.4198 151.591 25.0829 150.265 26.8352 149.048L28.1394 148.117C28.5675 147.819 29.0454 147.586 29.5034 147.316C30.4194 146.804 31.3155 146.254 32.2414 145.789C34.1004 144.882 36.023 144.095 37.9961 143.432C39.9167 142.775 41.8825 142.24 43.8802 141.83C44.8759 141.635 45.8715 141.532 46.8671 141.383L48.3307 141.169C48.8285 141.113 49.3263 141.113 49.8042 141.085L52.7214 140.955C53.717 140.955 54.6429 141.029 55.5987 141.057C57.4663 141.147 59.3256 141.353 61.1643 141.672C62.0626 141.811 62.9505 142.004 63.8226 142.249C64.6987 142.473 65.5749 142.64 66.4212 142.901L68.9003 143.758L70.1149 144.177L71.2798 144.689L73.6295 145.742C74.3961 146.068 75.0632 146.534 75.7701 146.915C76.4769 147.297 77.1739 147.698 77.841 148.108L79.7326 149.44C84.2174 152.639 87.9973 156.621 90.8637 161.166C93.0596 164.569 94.6785 168.27 95.6626 172.138C95.8518 172.939 96.1306 173.665 96.2202 174.391C96.3098 175.118 96.4392 175.77 96.5288 176.394C96.6184 177.018 96.7379 177.586 96.7877 178.117C96.8375 178.648 96.7877 179.123 96.8474 179.561C96.8474 180.408 96.9071 181.051 96.9271 181.507C96.947 181.964 96.8972 182.197 96.8972 182.197Z" fill="#B8060D"/>
<path d="M54.196 164.342L58.9451 173.348C59.0367 173.515 59.1694 173.658 59.3322 173.767C59.495 173.875 59.6831 173.946 59.881 173.972L70.5043 175.416C70.7327 175.447 70.9471 175.538 71.1232 175.678C71.2993 175.817 71.43 176 71.5005 176.206C71.571 176.412 71.5785 176.632 71.522 176.841C71.4656 177.05 71.3476 177.241 71.1813 177.391L63.4951 184.395C63.3533 184.527 63.2475 184.689 63.1869 184.867C63.1262 185.045 63.1124 185.235 63.1466 185.419L64.9587 195.31C64.9983 195.523 64.9735 195.742 64.8869 195.942C64.8004 196.142 64.6556 196.316 64.4689 196.443C64.2823 196.57 64.0614 196.646 63.8312 196.661C63.6009 196.677 63.3707 196.631 63.1665 196.531L53.6683 191.874C53.4919 191.786 53.2954 191.741 53.0958 191.741C52.8963 191.741 52.6997 191.786 52.5233 191.874L43.0151 196.531C42.8116 196.633 42.5815 196.679 42.3512 196.664C42.1209 196.649 41.8998 196.573 41.7135 196.445C41.5272 196.318 41.3833 196.144 41.2982 195.943C41.2132 195.742 41.1906 195.523 41.233 195.31L43.045 185.419C43.0771 185.234 43.0613 185.044 42.999 184.866C42.9366 184.688 42.8295 184.526 42.6866 184.395L35.0004 177.391C34.8376 177.239 34.723 177.048 34.6693 176.839C34.6155 176.629 34.6247 176.41 34.6959 176.206C34.767 176.002 34.8973 175.819 35.0723 175.68C35.2473 175.541 35.4602 175.449 35.6873 175.416L46.3106 173.972C46.507 173.945 46.6935 173.874 46.8546 173.765C47.0156 173.657 47.1466 173.514 47.2366 173.348L51.9857 164.342C52.088 164.15 52.2457 163.988 52.4409 163.875C52.6361 163.762 52.8612 163.702 53.0908 163.702C53.3205 163.702 53.5455 163.762 53.7407 163.875C53.936 163.988 54.0936 164.15 54.196 164.342V164.342Z" fill="#FAFAFA"/>
<path d="M54.1957 164.342C54.1957 164.342 54.1957 164.249 53.9966 164.1C53.8571 163.963 53.683 163.861 53.4905 163.804C53.298 163.747 53.0931 163.736 52.8948 163.772C52.6965 163.808 52.5111 163.89 52.3557 164.011C52.2003 164.132 52.0798 164.287 52.0054 164.463L51.0794 166.27C50.3825 167.63 49.5263 169.278 48.5306 171.197L47.7541 172.687C47.6246 172.948 47.4852 173.209 47.3459 173.469C47.1676 173.77 46.8712 173.994 46.5195 174.093C45.1953 174.298 43.8711 174.466 42.4474 174.671L37.987 175.295L35.6274 175.63C35.4557 175.662 35.2959 175.735 35.1642 175.843C35.0324 175.95 34.9333 176.088 34.8767 176.243C34.8202 176.398 34.8083 176.564 34.8422 176.725C34.8761 176.885 34.9546 177.035 35.0698 177.158L42.766 184.18C42.9753 184.351 43.1299 184.573 43.2125 184.822C43.2951 185.07 43.3025 185.335 43.2339 185.587L42.995 186.928C42.8257 187.859 42.6664 188.735 42.4972 189.648C42.1686 191.51 41.8201 193.373 41.5015 195.236C41.4483 195.428 41.4621 195.631 41.5409 195.816C41.6197 196 41.7594 196.156 41.9396 196.261C42.1124 196.369 42.3208 196.415 42.527 196.391C42.7523 196.365 42.9674 196.288 43.1543 196.167L45.9719 194.789L51.7166 191.995L52.4534 191.632C52.7639 191.495 53.1142 191.459 53.449 191.529C53.7315 191.61 54.0023 191.722 54.2555 191.864L54.9723 192.218L57.8298 193.625L63.3953 196.363C63.5367 196.417 63.6894 196.44 63.8417 196.43C63.994 196.42 64.1418 196.377 64.2737 196.305C64.4055 196.233 64.5179 196.134 64.6021 196.014C64.6863 195.895 64.7401 195.76 64.7593 195.618C64.7585 195.402 64.7318 195.186 64.6797 194.975C64.5104 194.044 64.3411 193.112 64.1719 192.181C63.8433 190.318 63.5148 188.558 63.1763 186.798L62.9373 185.494C62.8887 185.243 62.9129 184.984 63.0075 184.745C63.102 184.506 63.2635 184.295 63.475 184.134C64.1321 183.528 64.7892 182.942 65.4662 182.355C66.7605 181.181 68.0117 180.042 69.2197 178.937L71.0118 177.316C71.1521 177.223 71.2643 177.098 71.3374 176.952C71.4105 176.807 71.4421 176.646 71.4291 176.485C71.416 176.325 71.3588 176.171 71.263 176.037C71.1672 175.904 71.0361 175.795 70.8824 175.723C70.541 175.602 70.1818 175.529 69.8171 175.509L68.6522 175.351L66.4718 175.044L62.4196 174.475L60.5478 174.215C60.2392 174.159 59.9704 174.149 59.6418 174.066C59.3285 173.97 59.0631 173.772 58.8951 173.507L56.3264 168.57L54.7135 165.432L54.3152 164.621C54.2256 164.435 54.1858 164.333 54.1858 164.333C54.2539 164.412 54.3108 164.5 54.355 164.593C54.4745 164.798 54.6239 165.059 54.8031 165.394C55.2113 166.13 55.7987 167.164 56.4857 168.477L59.1241 173.358C59.2494 173.568 59.4506 173.73 59.6916 173.814C59.9305 173.879 60.2691 173.898 60.5578 173.944L62.4196 174.187L66.4817 174.727L68.6622 175.016L69.7972 175.165C70.2069 175.184 70.6105 175.266 70.9919 175.407C71.1933 175.515 71.3641 175.666 71.49 175.849C71.6159 176.031 71.6934 176.239 71.7158 176.455C71.7382 176.671 71.705 176.889 71.6189 177.091C71.5328 177.293 71.3963 177.472 71.2209 177.614L69.4487 179.244L65.7052 182.672L63.7139 184.469C63.5612 184.574 63.4436 184.717 63.3749 184.882C63.3061 185.047 63.289 185.227 63.3256 185.401L63.5646 186.705C63.8898 188.456 64.2217 190.25 64.5602 192.088C64.7294 193.019 64.8987 193.951 65.0779 194.882C65.1379 195.136 65.1646 195.395 65.1576 195.655C65.1322 195.947 65.0025 196.223 64.7892 196.438C64.583 196.656 64.3077 196.807 64.0032 196.869C63.6988 196.931 63.3812 196.901 63.0966 196.782L57.4913 194.044L54.7135 192.637L53.9966 192.284C53.7836 192.163 53.5564 192.066 53.3196 191.995C53.1085 191.952 52.8883 191.975 52.6924 192.06L51.9655 192.414L46.2208 195.208L43.4032 196.596C43.1515 196.742 42.87 196.837 42.5768 196.875C42.2578 196.899 41.9394 196.824 41.6708 196.661C41.4074 196.504 41.2026 196.275 41.0849 196.005C40.9672 195.734 40.9423 195.436 41.0137 195.152C41.3655 193.252 41.6974 191.389 42.0093 189.564C42.1786 188.632 42.3478 187.701 42.5171 186.844L42.756 185.503C42.8193 185.324 42.8227 185.13 42.7658 184.949C42.7089 184.768 42.5944 184.607 42.4374 184.488L34.7114 177.4C34.5596 177.22 34.459 177.007 34.4189 176.78C34.3789 176.554 34.4007 176.322 34.4824 176.105C34.5588 175.895 34.6897 175.706 34.8635 175.555C35.0372 175.404 35.2484 175.295 35.478 175.239L37.8675 174.913L42.3279 174.326L46.3701 173.786C46.6378 173.712 46.8655 173.545 47.0073 173.32L47.4155 172.547L48.212 171.066L50.8405 166.177C51.2089 165.506 51.5275 164.91 51.8361 164.388C51.9451 164.152 52.1303 163.953 52.3659 163.819C52.6014 163.686 52.8757 163.624 53.1503 163.643C53.3163 163.654 53.478 163.697 53.6253 163.769C53.7727 163.841 53.9025 163.941 54.0066 164.062C54.0943 164.139 54.1594 164.235 54.1957 164.342V164.342Z" fill="#263238"/>
<path d="M95.6269 192.015C101.431 170.027 87.0812 147.801 63.5764 142.371C40.0717 136.942 16.3124 150.366 10.5087 172.354C4.70489 194.342 19.0544 216.569 42.5591 221.998C66.0639 227.427 89.8231 214.004 95.6269 192.015Z" fill="white"/>
<path d="M96.8972 182.197C96.8972 182.197 96.8972 181.964 96.8375 181.526C96.7777 181.088 96.7678 180.427 96.708 179.579C96.708 179.151 96.6483 178.648 96.6184 178.145C96.5885 177.642 96.4392 177.055 96.3396 176.431C96.2401 175.807 96.1206 175.146 96.0011 174.438C95.8817 173.73 95.6228 172.994 95.4336 172.203C94.4042 168.361 92.7594 164.687 90.5551 161.305C87.6844 156.81 83.9154 152.873 79.4539 149.71L77.612 148.396C76.9449 147.996 76.248 147.623 75.551 147.223C74.8541 146.822 74.187 146.394 73.4303 146.068L71.1603 145.053L70.0054 144.54L68.8007 144.131L66.3415 143.292C65.5052 143.032 64.639 142.864 63.7728 142.65C62.9067 142.412 62.0255 142.225 61.1344 142.091C59.3128 141.773 57.4698 141.574 55.6186 141.495C54.6827 141.495 53.7269 141.374 52.7712 141.392L49.8938 141.532C49.4059 141.532 48.8982 141.532 48.4302 141.616L46.9766 141.83C45.981 141.979 44.9854 142.082 44.0495 142.268C42.0755 142.681 40.133 143.216 38.235 143.87C36.2845 144.525 34.385 145.306 32.55 146.208C31.6241 146.673 30.738 147.214 29.832 147.726C29.3839 147.987 28.906 148.219 28.4879 148.517L27.2035 149.449C25.453 150.654 23.7899 151.968 22.2254 153.379L20.0151 155.661L19.4576 156.229L18.9498 156.853L17.9542 158.101L16.9586 159.359L16.0824 160.7L15.2063 162.051L14.7682 162.721L14.3998 163.438L12.8964 166.288L11.7116 169.306C8.7112 177.651 8.7112 186.686 11.7116 195.031C12.1099 196.046 12.4982 197.052 12.8964 198.058C13.2947 199.064 13.892 199.977 14.3699 200.927L14.7483 201.644L15.1864 202.324L16.0625 203.674L16.9387 205.016L17.9343 206.273L18.9299 207.521L19.4277 208.136L19.9853 208.713L22.2055 210.995C23.77 212.407 25.4331 213.72 27.1836 214.926L28.458 215.857C28.8861 216.155 29.364 216.388 29.8121 216.649C30.7181 217.161 31.6042 217.701 32.5202 218.167C36.1624 219.931 40.03 221.255 44.0296 222.107C45.0252 222.293 46.0208 222.395 46.9567 222.554L48.4103 222.759C48.8982 222.814 49.4059 222.814 49.8739 222.842L52.7612 222.982C53.7568 222.982 54.6628 222.917 55.5987 222.88C57.4499 222.801 59.2929 222.602 61.1145 222.284C62.006 222.151 62.8874 221.965 63.7529 221.725C64.6191 221.511 65.4952 221.343 66.3216 221.082L68.7808 220.244L69.9954 219.834L71.1404 219.322L73.4104 218.307C74.1671 217.981 74.8342 217.524 75.5411 217.152C76.248 216.779 76.925 216.388 77.5921 215.978L79.4738 214.665C83.9328 211.493 87.6954 207.547 90.5551 203.041C92.7439 199.662 94.3783 195.995 95.4038 192.162C95.6357 191.427 95.8252 190.681 95.9713 189.927C96.0907 189.219 96.2102 188.549 96.3098 187.934C96.4093 187.319 96.5288 186.742 96.5885 186.22C96.6483 185.699 96.6483 185.214 96.6782 184.786C96.7379 183.938 96.7777 183.296 96.8076 182.839C96.8375 182.383 96.8673 182.178 96.8673 182.178C96.8673 182.178 96.8673 182.401 96.8673 182.839C96.8673 183.277 96.8673 183.948 96.7877 184.786C96.7877 185.224 96.7877 185.717 96.7279 186.229C96.6682 186.742 96.5686 187.328 96.4691 187.953C96.3695 188.577 96.2699 189.238 96.1604 189.955C96.018 190.715 95.8319 191.468 95.6029 192.209C94.6182 196.075 93.0029 199.775 90.8139 203.181C87.9509 207.722 84.1783 211.703 79.7028 214.907L77.8011 216.239C77.1341 216.649 76.4272 217.031 75.7402 217.431C75.0532 217.832 74.3563 218.279 73.5896 218.605L71.3097 219.638L70.1448 220.151L68.9301 220.57L66.451 221.427C65.6147 221.687 64.7286 221.855 63.8624 222.079C62.9866 222.323 62.0955 222.516 61.1941 222.656C59.3554 222.975 57.4962 223.181 55.6286 223.271C54.633 223.271 53.717 223.392 52.7512 223.383L49.8341 223.243C49.3462 223.243 48.8384 223.243 48.3705 223.159L46.897 222.945C45.9013 222.796 44.9057 222.693 43.9101 222.507C41.9134 222.09 39.9478 221.552 38.026 220.896C36.0592 220.226 34.1432 219.433 32.2912 218.521C31.3652 218.055 30.4692 217.506 29.5432 216.993C29.0952 216.723 28.6173 216.5 28.1792 216.192L26.8849 215.261C25.1327 214.044 23.4696 212.718 21.9068 211.293L19.6667 208.983L19.0992 208.406L18.5914 207.782L17.5958 206.515L16.6001 205.248L15.7041 203.889L14.818 202.519L14.3799 201.84L14.0016 201.113C13.5038 200.182 13.0059 199.176 12.4982 198.207L11.2437 195.236C8.20393 186.792 8.20393 177.648 11.2437 169.204L12.4384 166.149L13.9418 163.233L14.3202 162.516L14.7682 161.827L15.6543 160.467L16.5404 159.107L17.536 157.841L18.5316 156.574L19.0394 155.95L19.6069 155.373L21.857 153.016C23.4198 151.591 25.0829 150.265 26.8352 149.048L28.1394 148.117C28.5675 147.819 29.0454 147.586 29.5034 147.316C30.4194 146.804 31.3155 146.254 32.2414 145.789C34.1004 144.882 36.023 144.095 37.9961 143.432C39.9167 142.775 41.8825 142.24 43.8802 141.83C44.8759 141.635 45.8715 141.532 46.8671 141.383L48.3307 141.169C48.8285 141.113 49.3263 141.113 49.8042 141.085L52.7214 140.955C53.717 140.955 54.6429 141.029 55.5987 141.057C57.4663 141.147 59.3256 141.353 61.1643 141.672C62.0626 141.811 62.9505 142.004 63.8226 142.249C64.6987 142.473 65.5749 142.64 66.4212 142.901L68.9003 143.758L70.1149 144.177L71.2798 144.689L73.6295 145.742C74.3961 146.068 75.0632 146.534 75.7701 146.915C76.4769 147.297 77.1739 147.698 77.841 148.108L79.7326 149.44C84.2174 152.639 87.9973 156.621 90.8637 161.166C93.0596 164.569 94.6785 168.27 95.6626 172.138C95.8518 172.939 96.1306 173.665 96.2202 174.391C96.3098 175.118 96.4392 175.77 96.5288 176.394C96.6184 177.018 96.7379 177.586 96.7877 178.117C96.8375 178.648 96.7877 179.123 96.8474 179.561C96.8474 180.408 96.9071 181.051 96.9271 181.507C96.947 181.964 96.8972 182.197 96.8972 182.197Z" fill="#B8060D"/>
<path d="M54.196 164.342L58.9451 173.348C59.0367 173.515 59.1694 173.658 59.3322 173.767C59.495 173.875 59.6831 173.946 59.881 173.972L70.5043 175.416C70.7327 175.447 70.9471 175.538 71.1232 175.678C71.2993 175.817 71.43 176 71.5005 176.206C71.571 176.412 71.5785 176.632 71.522 176.841C71.4656 177.05 71.3476 177.241 71.1813 177.391L63.4951 184.395C63.3533 184.527 63.2475 184.689 63.1869 184.867C63.1262 185.045 63.1124 185.235 63.1466 185.419L64.9587 195.31C64.9983 195.523 64.9735 195.742 64.8869 195.942C64.8004 196.142 64.6556 196.316 64.4689 196.443C64.2823 196.57 64.0614 196.646 63.8312 196.661C63.6009 196.677 63.3707 196.631 63.1665 196.531L53.6683 191.874C53.4919 191.786 53.2954 191.741 53.0958 191.741C52.8963 191.741 52.6997 191.786 52.5233 191.874L43.0151 196.531C42.8116 196.633 42.5815 196.679 42.3512 196.664C42.1209 196.649 41.8998 196.573 41.7135 196.445C41.5272 196.318 41.3833 196.144 41.2982 195.943C41.2132 195.742 41.1906 195.523 41.233 195.31L43.045 185.419C43.0771 185.234 43.0613 185.044 42.999 184.866C42.9366 184.688 42.8295 184.526 42.6866 184.395L35.0004 177.391C34.8376 177.239 34.723 177.048 34.6693 176.839C34.6155 176.629 34.6247 176.41 34.6959 176.206C34.767 176.002 34.8973 175.819 35.0723 175.68C35.2473 175.541 35.4602 175.449 35.6873 175.416L46.3106 173.972C46.507 173.945 46.6935 173.874 46.8546 173.765C47.0156 173.657 47.1466 173.514 47.2366 173.348L51.9857 164.342C52.088 164.15 52.2457 163.988 52.4409 163.875C52.6361 163.762 52.8612 163.702 53.0908 163.702C53.3205 163.702 53.5455 163.762 53.7407 163.875C53.936 163.988 54.0936 164.15 54.196 164.342V164.342Z" fill="#FAFAFA"/>
<path d="M54.1957 164.342C54.1957 164.342 54.1957 164.249 53.9966 164.1C53.8571 163.963 53.683 163.861 53.4905 163.804C53.298 163.747 53.0931 163.736 52.8948 163.772C52.6965 163.808 52.5111 163.89 52.3557 164.011C52.2003 164.132 52.0798 164.287 52.0054 164.463L51.0794 166.27C50.3825 167.63 49.5263 169.278 48.5306 171.197L47.7541 172.687C47.6246 172.948 47.4852 173.209 47.3459 173.469C47.1676 173.77 46.8712 173.994 46.5195 174.093C45.1953 174.298 43.8711 174.466 42.4474 174.671L37.987 175.295L35.6274 175.63C35.4557 175.662 35.2959 175.735 35.1642 175.843C35.0324 175.95 34.9333 176.088 34.8767 176.243C34.8202 176.398 34.8083 176.564 34.8422 176.725C34.8761 176.885 34.9546 177.035 35.0698 177.158L42.766 184.18C42.9753 184.351 43.1299 184.573 43.2125 184.822C43.2951 185.07 43.3025 185.335 43.2339 185.587L42.995 186.928C42.8257 187.859 42.6664 188.735 42.4972 189.648C42.1686 191.51 41.8201 193.373 41.5015 195.236C41.4483 195.428 41.4621 195.631 41.5409 195.816C41.6197 196 41.7594 196.156 41.9396 196.261C42.1124 196.369 42.3208 196.415 42.527 196.391C42.7523 196.365 42.9674 196.288 43.1543 196.167L45.9719 194.789L51.7166 191.995L52.4534 191.632C52.7639 191.495 53.1142 191.459 53.449 191.529C53.7315 191.61 54.0023 191.722 54.2555 191.864L54.9723 192.218L57.8298 193.625L63.3953 196.363C63.5367 196.417 63.6894 196.44 63.8417 196.43C63.994 196.42 64.1418 196.377 64.2737 196.305C64.4055 196.233 64.5179 196.134 64.6021 196.014C64.6863 195.895 64.7401 195.76 64.7593 195.618C64.7585 195.402 64.7318 195.186 64.6797 194.975C64.5104 194.044 64.3411 193.112 64.1719 192.181C63.8433 190.318 63.5148 188.558 63.1763 186.798L62.9373 185.494C62.8887 185.243 62.9129 184.984 63.0075 184.745C63.102 184.506 63.2635 184.295 63.475 184.134C64.1321 183.528 64.7892 182.942 65.4662 182.355C66.7605 181.181 68.0117 180.042 69.2197 178.937L71.0118 177.316C71.1521 177.223 71.2643 177.098 71.3374 176.952C71.4105 176.807 71.4421 176.646 71.4291 176.485C71.416 176.325 71.3588 176.171 71.263 176.037C71.1672 175.904 71.0361 175.795 70.8824 175.723C70.541 175.602 70.1818 175.529 69.8171 175.509L68.6522 175.351L66.4718 175.044L62.4196 174.475L60.5478 174.215C60.2392 174.159 59.9704 174.149 59.6418 174.066C59.3285 173.97 59.0631 173.772 58.8951 173.507L56.3264 168.57L54.7135 165.432L54.3152 164.621C54.2256 164.435 54.1858 164.333 54.1858 164.333C54.2539 164.412 54.3108 164.5 54.355 164.593C54.4745 164.798 54.6239 165.059 54.8031 165.394C55.2113 166.13 55.7987 167.164 56.4857 168.477L59.1241 173.358C59.2494 173.568 59.4506 173.73 59.6916 173.814C59.9305 173.879 60.2691 173.898 60.5578 173.944L62.4196 174.187L66.4817 174.727L68.6622 175.016L69.7972 175.165C70.2069 175.184 70.6105 175.266 70.9919 175.407C71.1933 175.515 71.3641 175.666 71.49 175.849C71.6159 176.031 71.6934 176.239 71.7158 176.455C71.7382 176.671 71.705 176.889 71.6189 177.091C71.5328 177.293 71.3963 177.472 71.2209 177.614L69.4487 179.244L65.7052 182.672L63.7139 184.469C63.5612 184.574 63.4436 184.717 63.3749 184.882C63.3061 185.047 63.289 185.227 63.3256 185.401L63.5646 186.705C63.8898 188.456 64.2217 190.25 64.5602 192.088C64.7294 193.019 64.8987 193.951 65.0779 194.882C65.1379 195.136 65.1646 195.395 65.1576 195.655C65.1322 195.947 65.0025 196.223 64.7892 196.438C64.583 196.656 64.3077 196.807 64.0032 196.869C63.6988 196.931 63.3812 196.901 63.0966 196.782L57.4913 194.044L54.7135 192.637L53.9966 192.284C53.7836 192.163 53.5564 192.066 53.3196 191.995C53.1085 191.952 52.8883 191.975 52.6924 192.06L51.9655 192.414L46.2208 195.208L43.4032 196.596C43.1515 196.742 42.87 196.837 42.5768 196.875C42.2578 196.899 41.9394 196.824 41.6708 196.661C41.4074 196.504 41.2026 196.275 41.0849 196.005C40.9672 195.734 40.9423 195.436 41.0137 195.152C41.3655 193.252 41.6974 191.389 42.0093 189.564C42.1786 188.632 42.3478 187.701 42.5171 186.844L42.756 185.503C42.8193 185.324 42.8227 185.13 42.7658 184.949C42.7089 184.768 42.5944 184.607 42.4374 184.488L34.7114 177.4C34.5596 177.22 34.459 177.007 34.4189 176.78C34.3789 176.554 34.4007 176.322 34.4824 176.105C34.5588 175.895 34.6897 175.706 34.8635 175.555C35.0372 175.404 35.2484 175.295 35.478 175.239L37.8675 174.913L42.3279 174.326L46.3701 173.786C46.6378 173.712 46.8655 173.545 47.0073 173.32L47.4155 172.547L48.212 171.066L50.8405 166.177C51.2089 165.506 51.5275 164.91 51.8361 164.388C51.9451 164.152 52.1303 163.953 52.3659 163.819C52.6014 163.686 52.8757 163.624 53.1503 163.643C53.3163 163.654 53.478 163.697 53.6253 163.769C53.7727 163.841 53.9025 163.941 54.0066 164.062C54.0943 164.139 54.1594 164.235 54.1957 164.342V164.342Z" fill="#263238"/>
</svg>
