<svg width="234" height="193" viewBox="0 0 234 193" fill="none" xmlns="http://www.w3.org/2000/svg">
<path d="M32.6252 111.166C40.233 105.961 42.1806 95.574 36.9753 87.9662C31.7701 80.3584 21.383 78.4107 13.7752 83.616C6.16735 88.8213 4.21971 99.2084 9.42499 106.816C14.6303 114.424 25.0173 116.372 32.6252 111.166Z" fill="#B8060D"/>
<path d="M21.6043 95.9454L12.2637 91.9645C12.4634 91.839 12.695 91.7734 12.9309 91.7754H33.5804C33.8161 91.7746 34.0473 91.8401 34.2476 91.9645L24.9069 95.9454C24.3842 96.1653 23.8228 96.2785 23.2556 96.2785C22.6885 96.2785 22.1271 96.1653 21.6043 95.9454Z" fill="white"/>
<path d="M34.8717 93.4554V102.518C34.8717 102.875 34.7299 103.217 34.4776 103.469C34.2253 103.722 33.883 103.864 33.5262 103.864H12.8766C12.5198 103.864 12.1775 103.722 11.9252 103.469C11.6729 103.217 11.5311 102.875 11.5311 102.518V93.4554C11.5248 93.3999 11.5248 93.344 11.5311 93.2886L21.0831 97.3473C21.7488 97.627 22.4627 97.7743 23.1847 97.781C23.9141 97.7755 24.6355 97.6282 25.3086 97.3473L34.8494 93.2886C34.8632 93.3431 34.8707 93.3991 34.8717 93.4554Z" fill="white"/>
<path d="M119.702 25.4847C122.32 16.6462 117.277 7.35876 108.439 4.74067C99.6001 2.12258 90.3127 7.16524 87.6946 16.0038C85.0765 24.8423 90.1191 34.1297 98.9577 36.7478C107.796 39.3659 117.084 34.3232 119.702 25.4847Z" fill="#B8060D"/>
<path d="M111.678 13.1475H95.7657C94.9711 13.1619 94.2136 13.4863 93.6548 14.0513C93.096 14.6164 92.7801 15.3774 92.7744 16.1721V24.3674C92.7773 25.1716 93.0981 25.9421 93.6668 26.5107C94.2355 27.0794 95.0059 27.4002 95.8101 27.4031H107.453L107.364 30.272L110.31 27.4031H111.678C112.481 27.3973 113.25 27.0756 113.818 26.5075C114.386 25.9395 114.708 25.1707 114.714 24.3674V16.1721C114.708 15.3698 114.386 14.6022 113.818 14.0359C113.249 13.4696 112.48 13.1504 111.678 13.1475ZM95.4543 16.6391C95.4543 16.4139 95.543 16.1978 95.7011 16.0375C95.8593 15.8773 96.0743 15.7858 96.2994 15.7829H99.9467C100.172 15.7858 100.387 15.8773 100.545 16.0375C100.703 16.1978 100.792 16.4139 100.792 16.6391C100.789 16.8613 100.699 17.0734 100.54 17.2295C100.382 17.3856 100.169 17.4731 99.9467 17.4731H96.2994C96.1857 17.4791 96.0719 17.462 95.9649 17.423C95.8579 17.3839 95.76 17.3236 95.6769 17.2457C95.5938 17.1678 95.5273 17.0739 95.4814 16.9697C95.4355 16.8654 95.4112 16.753 95.4098 16.6391H95.4543ZM110.777 24.5564H104.461C104.24 24.5564 104.028 24.4686 103.872 24.3122C103.715 24.1558 103.627 23.9436 103.627 23.7224C103.627 23.5013 103.715 23.2891 103.872 23.1327C104.028 22.9763 104.24 22.8885 104.461 22.8885H110.777C110.999 22.8885 111.211 22.9763 111.367 23.1327C111.524 23.2891 111.611 23.5013 111.611 23.7224C111.611 23.9436 111.524 24.1558 111.367 24.3122C111.211 24.4686 110.999 24.5564 110.777 24.5564ZM110.777 21.0203H97.1C96.8778 21.0174 96.6657 20.9271 96.5096 20.7689C96.3535 20.6107 96.266 20.3974 96.266 20.1752C96.266 19.954 96.3539 19.7419 96.5103 19.5855C96.6667 19.4291 96.8788 19.3412 97.1 19.3412H110.733C110.954 19.3412 111.166 19.4291 111.323 19.5855C111.479 19.7419 111.567 19.954 111.567 20.1752C111.567 20.3974 111.479 20.6107 111.323 20.7689C111.167 20.9271 110.955 21.0174 110.733 21.0203H110.777ZM110.777 17.4731H102.704C102.483 17.4731 102.271 17.3852 102.115 17.2288C101.958 17.0724 101.87 16.8603 101.87 16.6391C101.869 16.5281 101.889 16.4179 101.931 16.3148C101.972 16.2117 102.033 16.1177 102.11 16.0382C102.188 15.9587 102.28 15.8953 102.382 15.8514C102.484 15.8076 102.593 15.7843 102.704 15.7829H110.777C111.001 15.7887 111.213 15.8814 111.369 16.0414C111.524 16.2013 111.612 16.4158 111.611 16.6391C111.61 16.752 111.586 16.8635 111.541 16.967C111.496 17.0704 111.43 17.1638 111.348 17.2415C111.266 17.3193 111.17 17.3798 111.064 17.4196C110.958 17.4594 110.846 17.4776 110.733 17.4731H110.777Z" fill="white"/>
<path d="M66.1483 53.7506C70.6384 45.7 67.752 35.5337 59.7014 31.0436C51.6508 26.5534 41.4845 29.4398 36.9944 37.4904C32.5042 45.5411 35.3906 55.7074 43.4412 60.1975C51.4918 64.6876 61.6581 61.8012 66.1483 53.7506Z" fill="#B8060D"/>
<path d="M58.7797 38.5567H44.3239C43.6268 38.5567 42.9582 38.8329 42.4643 39.3247C41.9704 39.8165 41.6914 40.484 41.6885 41.181V50.0769C41.6885 50.4249 41.7574 50.7694 41.8912 51.0906C42.025 51.4118 42.2211 51.7033 42.4682 51.9483C42.7153 52.1933 43.0085 52.387 43.3308 52.5181C43.6531 52.6492 43.9982 52.7152 44.3461 52.7123H58.8019C59.499 52.7123 60.1676 52.4362 60.6615 51.9443C61.1554 51.4525 61.4344 50.785 61.4373 50.088V41.1921C61.4374 40.8442 61.3684 40.4996 61.2346 40.1784C61.1008 39.8572 60.9047 39.5657 60.6576 39.3207C60.4105 39.0757 60.1174 38.8821 59.795 38.7509C59.4727 38.6198 59.1276 38.5538 58.7797 38.5567ZM49.2611 49.3764V41.9149L55.6884 45.6178L49.2611 49.3764Z" fill="white"/>
<path d="M169.855 46.8799C178.193 42.9492 181.766 33.0034 177.835 24.6653C173.905 16.3272 163.959 12.7544 155.621 16.6851C147.283 20.6158 143.71 30.5616 147.641 38.8997C151.571 47.2377 161.517 50.8106 169.855 46.8799Z" fill="#B8060D"/>
<path d="M170.121 33.9193C171.022 33.0059 171.641 31.8522 171.903 30.5963C172.165 29.3404 172.059 28.0357 171.598 26.8383C171.138 25.6409 170.342 24.6018 169.306 23.8453C168.269 23.0888 167.037 22.6471 165.756 22.5731C164.476 22.4991 163.201 22.7959 162.084 23.428C160.968 24.0601 160.057 25.0007 159.462 26.1371C158.866 27.2734 158.611 28.5573 158.727 29.835C158.842 31.1127 159.324 32.33 160.114 33.341C159.658 33.6969 159.224 34.0638 158.79 34.453C158.156 34.9868 157.545 35.565 156.944 36.0765C156.344 36.588 155.743 37.1885 155.154 37.7667L154.276 38.6341C154.123 38.7723 153.999 38.9384 153.909 39.1234C153.854 39.228 153.817 39.3406 153.797 39.457C153.773 39.5893 153.773 39.7249 153.797 39.8573C153.813 40.1028 153.918 40.3342 154.092 40.5082C154.266 40.6821 154.497 40.7867 154.743 40.8025C154.879 40.82 155.018 40.82 155.154 40.8025L155.477 40.6913C155.664 40.6 155.83 40.4713 155.966 40.3132C156.255 40.0241 156.555 39.735 156.833 39.4347C157.411 38.8565 157.945 38.256 158.523 37.6555C159.102 37.0551 159.635 36.4324 160.147 35.7985C160.525 35.3649 160.881 34.9312 161.259 34.4753C162.547 35.4863 164.162 35.9883 165.796 35.8858C167.43 35.7833 168.97 35.0833 170.121 33.9193ZM161.626 32.9185C160.883 32.177 160.377 31.232 160.172 30.2028C159.966 29.1736 160.071 28.1067 160.472 27.1369C160.873 26.1672 161.553 25.3383 162.425 24.755C163.298 24.1718 164.324 23.8605 165.373 23.8605C166.423 23.8605 167.449 24.1718 168.321 24.755C169.193 25.3383 169.873 26.1672 170.275 27.1369C170.676 28.1067 170.78 29.1736 170.575 30.2028C170.369 31.232 169.863 32.177 169.121 32.9185C168.126 33.9112 166.778 34.4688 165.373 34.4688C163.968 34.4688 162.62 33.9112 161.626 32.9185Z" fill="white"/>
<path d="M211.737 87.6527C219.345 82.4474 221.293 72.0603 216.088 64.4525C210.882 56.8447 200.495 54.8971 192.887 60.1023C185.28 65.3076 183.332 75.6947 188.537 83.3025C193.743 90.9103 204.13 92.858 211.737 87.6527Z" fill="#B8060D"/>
<path d="M213.011 73.84C213.011 73.84 213.011 73.84 213.011 73.7733C213.005 73.2223 212.961 72.6723 212.878 72.1275C212.478 69.6614 211.227 67.4133 209.342 65.7739C207.457 64.1345 205.057 63.2074 202.559 63.1538H202.025C201.552 63.1614 201.08 63.2023 200.613 63.2761C198.105 63.685 195.825 64.972 194.179 66.9071C192.533 68.8423 191.629 71.2996 191.628 73.84C191.628 73.84 191.628 73.84 191.628 73.8956C191.628 73.9512 191.628 73.8956 191.628 73.9623C191.63 74.5131 191.671 75.063 191.75 75.608C192.16 78.1087 193.443 80.3833 195.371 82.0281C197.299 83.6729 199.747 84.5816 202.281 84.5929C202.847 84.5922 203.412 84.5476 203.971 84.4594C206.464 84.048 208.732 82.7691 210.373 80.8485C212.015 78.9279 212.926 76.489 212.945 73.9623C212.945 73.9623 213.011 73.9067 213.011 73.84ZM210.198 78.0655H208.33C208.608 76.9731 208.776 75.8555 208.83 74.7296H211.221C211.115 75.9145 210.767 77.065 210.198 78.11V78.0655ZM194.43 69.6144H196.298C196.021 70.707 195.853 71.8245 195.798 72.9504H193.407C193.528 71.7966 193.876 70.6781 194.43 69.6589V69.6144ZM207.04 72.3499C207.04 72.5612 207.04 72.7614 207.04 72.9726H203.137V69.6367H206.473C206.75 70.5357 206.94 71.4592 207.04 72.3944V72.3499ZM203.181 67.902V65.0664C203.435 65.1618 203.678 65.2849 203.904 65.4334C204.751 66.0791 205.42 66.9283 205.85 67.902H203.181ZM201.447 65.0775V67.902H198.767C199.268 66.6589 200.227 65.6557 201.447 65.0998V65.0775ZM201.447 69.6367V72.9726H197.544C197.607 71.8429 197.798 70.724 198.111 69.6367H201.447ZM193.474 75.2967C193.474 75.1076 193.474 74.9186 193.407 74.7296H195.809C195.809 74.9965 195.809 75.2522 195.809 75.5191C195.89 76.3856 196.039 77.2445 196.254 78.0878H194.375C193.92 77.2225 193.615 76.2862 193.474 75.3189V75.2967ZM197.588 75.3634C197.588 75.1521 197.588 74.9409 197.588 74.7296H201.491V78.0655H198.155C197.883 77.192 197.693 76.2947 197.588 75.3856V75.3634ZM201.447 79.8113V82.7359C201.191 82.645 200.948 82.5217 200.724 82.3689C199.878 81.7232 199.208 80.874 198.778 79.9003L201.447 79.8113ZM203.181 82.6469V79.8447H205.861C205.374 81.1175 204.414 82.1532 203.181 82.7359V82.6469ZM203.181 78.0766V74.7407H207.085C207.022 75.8705 206.831 76.9896 206.517 78.0766H203.181ZM208.819 72.9838C208.819 72.728 208.819 72.4611 208.819 72.1942C208.733 71.3285 208.584 70.47 208.374 69.6256H210.254C210.72 70.4977 211.039 71.4407 211.199 72.4166C211.199 72.6057 211.199 72.7947 211.266 72.9838H208.819ZM208.997 67.8909H207.752C207.513 67.2833 207.219 66.6989 206.873 66.1451C207.107 66.2815 207.333 66.43 207.552 66.5898C208.081 66.9798 208.566 67.4274 208.997 67.9242V67.8909ZM197.744 66.1562C197.4 66.7074 197.106 67.2879 196.865 67.8909H195.631C196.246 67.2211 196.958 66.6476 197.744 66.1895V66.1562ZM195.642 79.8113H196.876C197.121 80.4218 197.419 81.0097 197.766 81.5683C196.972 81.1089 196.255 80.5273 195.642 79.8447V79.8113ZM206.884 81.6239C207.228 81.0688 207.522 80.4847 207.763 79.8781H208.997C208.382 80.56 207.67 81.1482 206.884 81.6239Z" fill="white"/>
<path d="M219.406 146.185C227.014 140.98 228.962 130.593 223.757 122.985C218.551 115.377 208.164 113.429 200.556 118.635C192.949 123.84 191.001 134.227 196.206 141.835C201.412 149.443 211.799 151.39 219.406 146.185Z" fill="#B8060D"/>
<path d="M209.986 122.389C207.849 122.45 205.805 123.279 204.229 124.725C202.652 126.17 201.649 128.135 201.404 130.259C201.158 132.383 201.686 134.525 202.89 136.292C204.095 138.059 205.895 139.333 207.963 139.881L209.986 142.46L212.01 139.881C214.077 139.333 215.878 138.059 217.083 136.292C218.287 134.525 218.815 132.383 218.569 130.259C218.323 128.135 217.321 126.17 215.744 124.725C214.168 123.279 212.124 122.45 209.986 122.389ZM209.986 134.943C209.257 134.941 208.544 134.723 207.938 134.316C207.333 133.909 206.861 133.332 206.584 132.657C206.306 131.982 206.234 131.24 206.378 130.525C206.522 129.809 206.874 129.152 207.391 128.637C207.908 128.122 208.566 127.772 209.281 127.63C209.997 127.488 210.739 127.562 211.413 127.842C212.087 128.122 212.663 128.595 213.068 129.202C213.473 129.809 213.689 130.522 213.689 131.252C213.697 131.742 213.606 132.229 213.423 132.684C213.241 133.139 212.969 133.553 212.624 133.902C212.279 134.251 211.868 134.528 211.416 134.716C210.963 134.904 210.477 135.001 209.986 134.999V134.943Z" fill="white"/>
<path d="M101.848 132.275L92.696 124.068C92.696 124.068 70.2228 144.707 65.8193 144.64C59.8146 144.54 47.3381 143.917 40.3771 142.416C39.1317 143.172 36.5741 146.052 36.3184 147.342C44.2913 153.647 65.0632 158.162 70.2784 156.405C82.1544 152.424 101.848 132.275 101.848 132.275Z" fill="#B55B52"/>
<path d="M106.984 127.516C106.917 135.711 85.1333 152.068 85.1333 152.068L72.4678 137.524C77.4018 131.777 82.9211 126.559 88.9363 121.956C97.8544 115.473 107.05 118.52 106.984 127.516Z" fill="#263238"/>
<path opacity="0.2" d="M85.1348 152.068C85.1348 152.068 105.251 136.967 106.874 128.516C104.305 125.88 90.5501 133.42 85.1348 152.068Z" fill="black"/>
<path d="M41.7443 142.86L34.1495 135.866L27.333 144.606C30.7441 146.462 34.4191 147.786 38.2305 148.531L41.7443 142.86Z" fill="#B55B52"/>
<path d="M25.0982 131.752L22.752 138.346L27.3333 144.606L34.1498 135.866L25.0982 131.752Z" fill="#B55B52"/>
<path d="M95.8673 118.863C95.8673 118.863 85.1033 144.773 93.5432 192.999H139.413C139.902 185.961 136.321 151.611 143.927 118.43C138.871 117.451 133.756 116.801 128.615 116.484C122.123 116.111 115.614 116.111 109.122 116.484C104.649 116.936 100.218 117.731 95.8673 118.863Z" fill="#263238"/>
<path opacity="0.2" d="M133.761 126.614C132.861 132.085 134.262 145.14 139.099 160.241C139.331 147.309 140.704 134.423 143.202 121.733V121.655C140.189 121.355 134.618 121.499 133.761 126.614Z" fill="black"/>
<path d="M126.512 98.3037C125.134 104.575 124.289 112.359 128.614 116.54C128.614 116.54 125.945 122.912 114.281 122.912C103.628 122.912 109.121 116.54 109.121 116.54C116.149 114.872 116.004 106.221 114.903 101.351L126.512 98.3037Z" fill="#B55B52"/>
<path d="M113.724 122.343L111.199 125.145C111.113 125.242 111.053 125.359 111.025 125.486C110.998 125.613 111.004 125.745 111.044 125.868L111.855 128.326C111.898 128.465 111.983 128.587 112.098 128.675C112.214 128.763 112.355 128.812 112.5 128.815L115.214 128.948C115.344 128.954 115.474 128.926 115.59 128.868C115.707 128.81 115.807 128.723 115.881 128.615L117.504 126.235C117.603 126.106 117.656 125.947 117.656 125.785C117.656 125.622 117.603 125.464 117.504 125.334L114.869 122.343C114.799 122.259 114.711 122.192 114.612 122.145C114.513 122.099 114.405 122.075 114.296 122.075C114.187 122.075 114.079 122.099 113.98 122.145C113.881 122.192 113.793 122.259 113.724 122.343Z" fill="#263238"/>
<path d="M114.291 121.734C115.58 123.902 116.296 126.363 116.37 128.884C116.37 128.884 131.093 123.724 130.604 116.185C130.604 116.185 128.558 114.951 127.268 113.961C127.246 113.95 126.656 118.709 114.291 121.734Z" fill="white"/>
<path d="M114.293 121.733C112.906 123.764 111.886 126.022 111.279 128.405C111.279 128.405 104.774 123.957 106.943 116.462C108.166 115.972 109.427 115.578 110.712 115.284C110.712 115.284 109.722 120.121 114.293 121.733Z" fill="white"/>
<path d="M113.09 128.427C113.09 128.427 108.92 159.129 108.831 164.467C108.887 169.522 109.681 174.542 111.188 179.367C111.188 179.367 114.046 173.941 114.524 164.244C115.003 154.548 114.424 133.865 114.636 128.427H113.09Z" fill="#263238"/>
<path opacity="0.2" d="M114.893 101.295C115.549 104.153 115.872 108.312 114.593 111.592C115.687 111.43 116.751 111.108 117.751 110.636C121.743 108.779 123.756 105.855 125.879 101.507C126.068 100.395 126.28 99.2827 126.513 98.2485L114.893 101.295Z" fill="black"/>
<path d="M105.462 93.0218C105.647 94.0513 106.038 95.0329 106.611 95.908C107.184 96.783 107.928 97.5335 108.798 98.1147C111.155 99.6493 113.246 97.7144 113.324 95.0234C113.401 92.5993 112.289 88.8853 109.565 88.4405C108.964 88.3615 108.353 88.4303 107.785 88.6408C107.217 88.8513 106.709 89.1972 106.305 89.6486C105.901 90.0999 105.612 90.643 105.466 91.2308C105.319 91.8186 105.317 92.4334 105.462 93.0218Z" fill="#B55B52"/>
<path opacity="0.2" d="M105.462 93.0218C105.647 94.0513 106.038 95.0329 106.611 95.908C107.184 96.783 107.928 97.5335 108.798 98.1147C111.155 99.6493 113.246 97.7144 113.324 95.0234C113.401 92.5993 112.289 88.8853 109.565 88.4405C108.964 88.3615 108.353 88.4303 107.785 88.6408C107.217 88.8513 106.709 89.1972 106.305 89.6486C105.901 90.0999 105.612 90.643 105.466 91.2308C105.319 91.8186 105.317 92.4334 105.462 93.0218Z" fill="black"/>
<path d="M116.959 76.6198C112.366 76.831 105.839 87.1392 109.886 91.5649C113.934 95.9906 125.632 76.2195 116.959 76.6198Z" fill="#263238"/>
<path d="M132.549 93.033C128.924 100.817 127.189 105.554 121.596 108.167C113.167 112.081 104.916 104.831 106.106 96.1354C107.218 88.3515 112.967 76.9203 121.941 76.6312C123.91 76.5542 125.866 76.9913 127.615 77.8993C129.364 78.8074 130.847 80.1551 131.917 81.8101C132.988 83.465 133.609 85.3701 133.72 87.3379C133.83 89.3057 133.427 91.2684 132.549 93.033Z" fill="#B55B52"/>
<path d="M138.609 83.0246C143.057 85.8935 136.752 98.5924 131.036 98.2477C128.512 98.092 128.979 91.9316 131.503 86.6274C126.9 86.4273 111.732 83.0691 112.233 75.8968C112.388 73.5839 114.757 72.1828 118.149 70.4258C119.07 70.0374 119.813 69.3201 120.234 68.4137C120.656 67.5073 120.725 66.4765 120.428 65.522C121.183 66.2628 121.705 67.207 121.932 68.2397C122.159 69.2723 122.081 70.3487 121.707 71.3377C120.417 74.8515 127.456 73.4615 131.515 73.3615C138.765 73.1613 142.924 78.5767 138.609 83.0246Z" fill="#263238"/>
<path d="M137.609 83.0249C137.609 83.0249 141.179 81.6794 142.391 84.8041C140.964 83.8329 139.324 83.2223 137.609 83.0249Z" fill="#263238"/>
<path d="M132.649 103.151C130.933 104.449 128.778 105.024 126.644 104.753C123.842 104.363 123.63 101.583 125.41 99.5151C127 97.658 130.391 95.6231 132.715 97.0576C135.039 98.492 134.761 101.528 132.649 103.151Z" fill="#B55B52"/>
<path d="M119.683 90.7971C119.428 91.4531 118.883 91.8423 118.46 91.6867C118.038 91.531 117.915 90.886 118.171 90.23C118.427 89.5739 118.972 89.1847 119.394 89.3404C119.817 89.496 119.939 90.1521 119.683 90.7971Z" fill="#263238"/>
<path d="M112.421 88.0954C112.165 88.7404 111.609 89.1407 111.198 88.985C110.787 88.8293 110.642 88.1733 110.898 87.5283C111.154 86.8834 111.698 86.4163 112.121 86.6276C112.544 86.8389 112.677 87.4394 112.421 88.0954Z" fill="#263238"/>
<path d="M114.602 89.2739C113.059 90.9881 111.289 92.4844 109.343 93.7219C109.659 94.2038 110.079 94.6094 110.571 94.9094C111.063 95.2094 111.616 95.3963 112.189 95.4566L114.602 89.2739Z" fill="#A02724"/>
<path d="M113.357 97.8917C113.332 97.8831 113.31 97.8696 113.29 97.8517C113.271 97.8339 113.256 97.8123 113.245 97.7883C113.235 97.7642 113.229 97.7383 113.229 97.712C113.23 97.6858 113.235 97.6599 113.246 97.6359C113.268 97.5866 113.307 97.547 113.356 97.5245C113.405 97.502 113.461 97.4981 113.513 97.5136C114.315 97.8248 115.178 97.9456 116.035 97.8665C116.892 97.7873 117.718 97.5105 118.45 97.0577C118.489 97.0209 118.541 97.0005 118.595 97.0005C118.648 97.0005 118.7 97.0209 118.739 97.0577C118.776 97.0969 118.796 97.1485 118.796 97.2022C118.796 97.2559 118.776 97.3076 118.739 97.3468C117.953 97.8651 117.052 98.1854 116.115 98.2802C115.178 98.3751 114.232 98.2418 113.357 97.8917Z" fill="#263238"/>
<path d="M122.797 89.2516C122.74 89.2267 122.689 89.1901 122.647 89.1441C122.605 89.0982 122.573 89.0438 122.553 88.9847C122.443 88.4846 122.211 88.0196 121.877 87.6314C121.543 87.2432 121.118 86.944 120.64 86.7607C120.538 86.7275 120.452 86.6553 120.402 86.5596C120.352 86.4639 120.342 86.3524 120.373 86.2492C120.409 86.1477 120.481 86.063 120.576 86.0116C120.67 85.9602 120.78 85.9458 120.885 85.9712C121.487 86.1883 122.026 86.5504 122.455 87.0256C122.883 87.5008 123.188 88.0744 123.342 88.6956C123.37 88.8002 123.355 88.9114 123.3 89.0051C123.246 89.0987 123.158 89.1673 123.053 89.196C122.977 89.2426 122.887 89.2622 122.797 89.2516Z" fill="#263238"/>
<path d="M110.177 84.2701C110.112 84.2437 110.056 84.2005 110.014 84.1449C109.972 84.0893 109.945 84.0233 109.937 83.954C109.929 83.8846 109.94 83.8144 109.968 83.7507C109.997 83.6869 110.042 83.6321 110.099 83.5918C110.587 83.1653 111.168 82.8603 111.797 82.7018C112.425 82.5433 113.082 82.5358 113.713 82.6799C113.765 82.6951 113.813 82.7205 113.855 82.7547C113.896 82.7889 113.93 82.8311 113.955 82.8789C113.98 82.9267 113.995 82.979 114 83.0327C114.004 83.0864 113.997 83.1404 113.98 83.1915C113.944 83.2925 113.872 83.3762 113.777 83.4258C113.682 83.4753 113.572 83.487 113.468 83.4583C112.966 83.3563 112.447 83.3714 111.951 83.5026C111.456 83.6337 110.997 83.8773 110.611 84.2145C110.551 84.2636 110.479 84.2948 110.402 84.3047C110.325 84.3145 110.247 84.3025 110.177 84.2701Z" fill="#263238"/>
<path d="M136.431 132.541L148.373 128.66C148.373 128.66 159.338 156.615 163.407 158.228C168.967 160.452 180.165 166.323 187.148 167.724C187.949 168.903 189.016 172.528 188.683 173.807C178.675 176.409 158.303 170.927 154.289 167.324C145.115 159.117 136.431 132.541 136.431 132.541Z" fill="#B55B52"/>
<path d="M143.925 118.43C152.009 119.609 160.605 147.731 160.605 147.731L143.325 157.35C143.325 157.35 136.152 144.006 132.694 133.998C129.08 123.645 135.252 117.207 143.925 118.43Z" fill="#263238"/>
<path d="M187.895 173.996L196.057 174.385L191.72 165.489C191.72 165.489 184.57 165.378 183.392 170.883L187.895 173.996Z" fill="#B55B52"/>
<path d="M202.672 170.081L198.346 162.22L191.719 165.489L196.055 174.385L202.672 170.081Z" fill="#B55B52"/>
</svg>
