<svg width="589" height="365" viewBox="0 0 589 365" fill="none" xmlns="http://www.w3.org/2000/svg">
<path d="M279.046 276.706C324.793 274.725 370.503 271.489 416.03 266.007C450.162 261.9 485.384 256.252 514.538 235.68C558.543 204.638 581.215 138.099 564.575 82.4229C547.936 26.7472 491.93 -10.6847 441.517 2.73687C396.311 14.7833 361.693 61.007 315.708 68.2954C280.174 73.9335 245.721 55.1763 211.562 42.7357C180.777 31.5327 148.167 25.2528 116.025 29.2225C83.8833 33.1921 52.1904 48.0622 29.7569 74.4928C7.32345 100.923 -4.7688 139.52 1.7678 175.466C6.83756 203.171 16.6195 225.687 38.4388 243.106C49.1788 251.685 61.6529 257.832 74.9997 261.12C102.769 267.978 172.187 281.289 279.046 276.706Z" fill="#EBEBEB"/>
<path d="M550.759 359.949C550.759 360.086 430.148 360.187 281.393 360.187C132.637 360.187 12.0078 360.132 12.0078 359.949C12.0078 359.765 132.6 359.71 281.393 359.71C430.185 359.71 550.759 359.82 550.759 359.949Z" fill="#263238"/>
<path d="M339.956 84.2747H27.8582C26.5796 84.2747 25.3136 84.5265 24.1324 85.0158C22.9511 85.5051 21.8778 86.2222 20.9737 87.1263C20.0696 88.0304 19.3525 89.1037 18.8632 90.2849C18.3739 91.4662 18.1221 92.7322 18.1221 94.0108V314.458C18.1209 315.737 18.3719 317.004 18.8607 318.186C19.3496 319.367 20.0667 320.441 20.971 321.345C21.8754 322.25 22.9491 322.967 24.1309 323.456C25.3127 323.945 26.5793 324.196 27.8582 324.194H147.644C147.644 324.194 155.262 347.755 131.646 359.949H243.648C243.648 359.949 216.98 350.781 223.837 324.194H339.956C341.235 324.196 342.502 323.945 343.684 323.456C344.867 322.967 345.941 322.25 346.846 321.346C347.751 320.442 348.469 319.368 348.959 318.186C349.449 317.004 349.701 315.738 349.701 314.458V94.0108C349.698 91.4278 348.671 88.9514 346.843 87.1257C345.016 85.3001 342.539 84.2747 339.956 84.2747V84.2747Z" fill="#263238"/>
<path d="M188.074 301.018C192.319 307.078 185.681 313.725 179.612 309.48C179.407 309.34 179.23 309.162 179.09 308.958C174.854 302.889 181.492 296.26 187.551 300.496C187.756 300.637 187.933 300.814 188.074 301.018V301.018Z" fill="#455A64"/>
<path d="M32.3878 88.3083H335.473C337.832 88.3083 340.094 89.2453 341.761 90.913C343.429 92.5807 344.366 94.8426 344.366 97.2011V283.865H23.4951V97.2011C23.4951 94.8426 24.432 92.5807 26.0997 90.913C27.7674 89.2453 30.0293 88.3083 32.3878 88.3083Z" fill="white"/>
<path d="M541.27 264.246H424.684V295.82H541.27V264.246Z" fill="#455A64"/>
<path d="M434.09 268.216H427.81V292.382H434.09V268.216Z" fill="#263238"/>
<path d="M441.488 273.295C441.488 273.691 441.371 274.077 441.151 274.406C440.931 274.735 440.618 274.991 440.252 275.142C439.887 275.293 439.484 275.332 439.096 275.254C438.709 275.177 438.352 274.985 438.073 274.705C437.794 274.424 437.605 274.068 437.528 273.679C437.452 273.291 437.493 272.889 437.646 272.524C437.799 272.159 438.056 271.847 438.386 271.629C438.716 271.41 439.103 271.295 439.499 271.296C440.027 271.299 440.533 271.51 440.906 271.885C441.279 272.26 441.488 272.766 441.488 273.295V273.295Z" fill="white"/>
<path d="M441.488 281.839C441.488 282.235 441.371 282.622 441.151 282.951C440.931 283.28 440.618 283.536 440.252 283.687C439.887 283.838 439.484 283.877 439.096 283.799C438.709 283.721 438.352 283.53 438.073 283.249C437.794 282.969 437.605 282.612 437.528 282.224C437.452 281.835 437.493 281.433 437.646 281.068C437.799 280.703 438.056 280.392 438.386 280.173C438.716 279.955 439.103 279.839 439.499 279.841C439.761 279.841 440.02 279.893 440.262 279.993C440.504 280.094 440.724 280.241 440.909 280.427C441.094 280.612 441.24 280.833 441.34 281.075C441.439 281.318 441.49 281.577 441.488 281.839V281.839Z" fill="white"/>
<path d="M455.643 271.297H449.473V289.861H455.643V271.297Z" fill="#263238"/>
<path d="M464.555 271.297H458.385V289.861H464.555V271.297Z" fill="#263238"/>
<path d="M473.475 271.297H467.305V289.861H473.475V271.297Z" fill="#263238"/>
<path d="M482.386 271.297H476.216V289.861H482.386V271.297Z" fill="#263238"/>
<path d="M491.306 271.297H485.136V289.861H491.306V271.297Z" fill="#263238"/>
<path d="M500.217 271.297H494.047V289.861H500.217V271.297Z" fill="#263238"/>
<path d="M509.128 271.297H502.958V289.861H509.128V271.297Z" fill="#263238"/>
<path d="M518.048 271.297H511.878V289.861H518.048V271.297Z" fill="#263238"/>
<path d="M526.959 271.297H520.789V289.861H526.959V271.297Z" fill="#263238"/>
<path d="M535.879 271.297H529.709V289.861H535.879V271.297Z" fill="#263238"/>
<path d="M562.1 264.246H541.271V295.82H562.1V264.246Z" fill="#263238"/>
<path d="M541.27 299.075H424.684V330.648H541.27V299.075Z" fill="#455A64"/>
<path d="M434.09 303.044H427.81V327.211H434.09V303.044Z" fill="#263238"/>
<path d="M441.488 308.132C441.488 308.528 441.371 308.915 441.151 309.244C440.931 309.573 440.618 309.829 440.252 309.98C439.887 310.131 439.484 310.17 439.096 310.092C438.709 310.014 438.352 309.823 438.073 309.542C437.794 309.262 437.605 308.905 437.528 308.517C437.452 308.128 437.493 307.726 437.646 307.361C437.799 306.996 438.056 306.685 438.386 306.466C438.716 306.248 439.103 306.132 439.499 306.134C439.761 306.134 440.02 306.186 440.262 306.286C440.504 306.387 440.724 306.534 440.909 306.72C441.094 306.905 441.24 307.126 441.34 307.368C441.439 307.611 441.49 307.87 441.488 308.132V308.132Z" fill="white"/>
<path d="M441.488 316.668C441.488 317.063 441.371 317.45 441.151 317.779C440.931 318.108 440.618 318.364 440.252 318.515C439.887 318.666 439.484 318.705 439.096 318.627C438.709 318.549 438.352 318.358 438.073 318.077C437.794 317.797 437.605 317.44 437.528 317.052C437.452 316.663 437.493 316.261 437.646 315.896C437.799 315.531 438.056 315.22 438.386 315.001C438.716 314.783 439.103 314.667 439.499 314.669C440.027 314.671 440.533 314.883 440.906 315.258C441.279 315.632 441.488 316.139 441.488 316.668Z" fill="white"/>
<path d="M455.643 306.134H449.473V324.699H455.643V306.134Z" fill="#263238"/>
<path d="M464.555 306.134H458.385V324.699H464.555V306.134Z" fill="#263238"/>
<path d="M473.475 306.134H467.305V324.699H473.475V306.134Z" fill="#263238"/>
<path d="M482.386 306.134H476.216V324.699H482.386V306.134Z" fill="#263238"/>
<path d="M491.306 306.134H485.136V324.699H491.306V306.134Z" fill="#263238"/>
<path d="M500.217 306.134H494.047V324.699H500.217V306.134Z" fill="#263238"/>
<path d="M509.128 306.134H502.958V324.699H509.128V306.134Z" fill="#263238"/>
<path d="M518.048 306.134H511.878V324.699H518.048V306.134Z" fill="#263238"/>
<path d="M526.959 306.134H520.789V324.699H526.959V306.134Z" fill="#263238"/>
<path d="M535.879 306.134H529.709V324.699H535.879V306.134Z" fill="#263238"/>
<path d="M562.1 299.075H541.271V330.648H562.1V299.075Z" fill="#263238"/>
<path d="M541.27 333.426H424.684V365H541.27V333.426Z" fill="#455A64"/>
<path d="M434.09 337.396H427.81V361.562H434.09V337.396Z" fill="#263238"/>
<path d="M441.488 342.475C441.49 342.871 441.374 343.259 441.155 343.589C440.936 343.919 440.624 344.176 440.259 344.329C439.893 344.481 439.491 344.522 439.102 344.445C438.714 344.368 438.357 344.177 438.077 343.897C437.797 343.617 437.606 343.26 437.529 342.872C437.452 342.483 437.493 342.081 437.645 341.715C437.798 341.35 438.055 341.038 438.385 340.819C438.715 340.6 439.103 340.484 439.499 340.486C440.027 340.486 440.533 340.695 440.906 341.068C441.279 341.441 441.488 341.947 441.488 342.475Z" fill="white"/>
<path d="M441.488 351.019C441.488 351.415 441.371 351.802 441.151 352.13C440.931 352.459 440.618 352.715 440.252 352.866C439.887 353.017 439.484 353.056 439.096 352.979C438.709 352.901 438.352 352.709 438.073 352.429C437.794 352.149 437.605 351.792 437.528 351.403C437.452 351.015 437.493 350.613 437.646 350.248C437.799 349.883 438.056 349.571 438.386 349.353C438.716 349.134 439.103 349.019 439.499 349.021C440.027 349.023 440.533 349.235 440.906 349.609C441.279 349.984 441.488 350.491 441.488 351.019V351.019Z" fill="white"/>
<path d="M455.643 340.486H449.473V359.05H455.643V340.486Z" fill="#263238"/>
<path d="M464.555 340.486H458.385V359.05H464.555V340.486Z" fill="#263238"/>
<path d="M473.475 340.486H467.305V359.05H473.475V340.486Z" fill="#263238"/>
<path d="M482.386 340.486H476.216V359.05H482.386V340.486Z" fill="#263238"/>
<path d="M491.306 340.486H485.136V359.05H491.306V340.486Z" fill="#263238"/>
<path d="M500.217 340.486H494.047V359.05H500.217V340.486Z" fill="#263238"/>
<path d="M509.128 340.486H502.958V359.05H509.128V340.486Z" fill="#263238"/>
<path d="M518.048 340.486H511.878V359.05H518.048V340.486Z" fill="#263238"/>
<path d="M526.959 340.486H520.789V359.05H526.959V340.486Z" fill="#263238"/>
<path d="M535.879 340.486H529.709V359.05H535.879V340.486Z" fill="#263238"/>
<path d="M562.1 333.426H541.271V365H562.1V333.426Z" fill="#263238"/>
<path d="M570.047 279.841H562.099V285.36H570.047V279.841Z" fill="#263238"/>
<path d="M466.672 131.048V125.117C466.672 124.893 466.761 124.679 466.919 124.52C467.077 124.362 467.292 124.273 467.515 124.273H473.016C473.24 124.273 473.454 124.362 473.612 124.52C473.771 124.679 473.859 124.893 473.859 125.117V131.048C473.859 132.004 473.48 132.92 472.804 133.596C472.128 134.272 471.212 134.651 470.256 134.651V134.651C469.304 134.646 468.392 134.265 467.721 133.59C467.049 132.914 466.672 132.001 466.672 131.048V131.048Z" fill="#263238"/>
<path d="M570.047 313.303H562.099V318.822H570.047V313.303Z" fill="#263238"/>
<path d="M570.047 345.473H562.099V350.992H570.047V345.473Z" fill="#263238"/>
<path d="M424.143 345.473H416.194V350.992H424.143V345.473Z" fill="#263238"/>
<path d="M588.282 298.433C588.327 298.807 588.327 299.186 588.282 299.561C588.291 300.005 588.264 300.45 588.2 300.89C588.14 301.473 588.045 302.051 587.915 302.623C587.774 303.324 587.578 304.014 587.329 304.685C587.2 305.043 587.09 305.428 586.916 305.804L586.375 306.95C584.657 310.334 581.905 313.083 578.518 314.797L577.372 315.338C577.006 315.512 576.621 315.622 576.263 315.76C575.59 316 574.901 316.193 574.2 316.337C573.626 316.467 573.044 316.562 572.459 316.622C572.022 316.686 571.58 316.714 571.138 316.704C570.764 316.75 570.385 316.75 570.011 316.704C570.011 316.594 571.624 316.649 574.127 316.044C574.806 315.879 575.473 315.671 576.126 315.421C576.474 315.274 576.85 315.164 577.207 314.99L578.317 314.44C581.594 312.727 584.268 310.053 585.981 306.776C586.173 306.4 586.348 306.033 586.531 305.666C586.714 305.3 586.815 304.933 586.962 304.584C587.212 303.932 587.42 303.265 587.585 302.586C588.227 300.046 588.172 298.424 588.282 298.433Z" fill="#263238"/>
<path d="M588.282 263.751C588.327 264.126 588.327 264.504 588.282 264.879C588.292 265.323 588.264 265.768 588.2 266.208C588.14 266.794 588.045 267.376 587.915 267.95C587.773 268.649 587.577 269.335 587.329 270.004C587.2 270.361 587.09 270.746 586.916 271.122L586.375 272.268C585.503 273.948 584.392 275.492 583.075 276.852C581.719 278.173 580.174 279.285 578.491 280.152L577.345 280.693C576.978 280.867 576.593 280.977 576.236 281.115C575.564 281.359 574.874 281.552 574.173 281.692C573.6 281.827 573.018 281.922 572.431 281.977C571.994 282.041 571.553 282.069 571.111 282.059C570.737 282.105 570.358 282.105 569.983 282.059C569.983 281.949 571.597 282.004 574.1 281.408C574.78 281.244 575.448 281.033 576.098 280.776C576.466 280.65 576.827 280.507 577.18 280.345L578.289 279.804C581.561 278.084 584.234 275.412 585.954 272.14C586.146 271.755 586.32 271.388 586.504 271.03C586.687 270.673 586.788 270.288 586.935 269.939C587.186 269.288 587.394 268.62 587.558 267.941C588.227 265.374 588.172 263.751 588.282 263.751Z" fill="#263238"/>
<path d="M420.164 348.214H419.751H418.514L413.774 348.26L396.355 348.333L338.809 348.406H314.607C312.049 348.406 309.574 348.48 307.107 348.296C304.722 348.076 302.381 347.511 300.158 346.619C299.599 346.435 299.104 346.133 298.581 345.904C298.063 345.667 297.561 345.398 297.078 345.097L295.648 344.18L294.328 343.19C293.891 342.872 293.477 342.522 293.09 342.145C292.705 341.778 292.283 341.439 291.926 341.054C291.211 340.31 290.544 339.524 289.927 338.698C288.754 337.148 287.769 335.465 286.993 333.683C285.706 330.624 285.046 327.339 285.05 324.02C285.05 321.105 285.05 318.584 285.05 316.521C285.05 314.458 285.05 312.854 285.096 311.781C285.096 311.249 285.096 310.864 285.096 310.544C285.096 310.223 285.096 310.122 285.096 310.122C285.096 310.122 285.096 310.269 285.096 310.544C285.096 310.819 285.096 311.249 285.096 311.781C285.096 312.881 285.096 314.476 285.142 316.521C285.187 318.565 285.142 321.105 285.142 324.02C285.147 327.323 285.821 330.592 287.122 333.628C287.893 335.379 288.872 337.032 290.037 338.551C290.648 339.364 291.31 340.139 292.017 340.87C292.366 341.246 292.778 341.576 293.163 341.934C293.547 342.306 293.958 342.649 294.392 342.961L295.694 343.932L297.096 344.794C297.573 345.088 298.069 345.349 298.581 345.573C299.095 345.803 299.59 346.096 300.131 346.279C302.318 347.144 304.618 347.69 306.961 347.902C309.363 348.076 311.875 347.975 314.423 348.003H338.626L396.172 348.076L413.591 348.15H418.33H419.568L420.164 348.214Z" fill="#263238"/>
<path d="M470.238 133.139C470.238 133.139 470.238 133.423 470.238 133.973C470.238 134.523 470.238 135.366 470.238 136.439V145.9C470.238 154.151 470.183 166.069 470.147 180.738C470.147 188.072 470.092 196.139 470.055 204.775C470.055 206.939 470.055 209.136 470.055 211.367C470.055 212.485 470.055 213.613 470.055 214.741C470.055 215.868 470.156 217.005 470.22 218.142C470.728 222.83 472.296 227.341 474.804 231.334C477.447 235.534 481.075 239.024 485.374 241.501C485.649 241.666 485.915 241.841 486.19 241.987L487.052 242.4L488.766 243.225L490.6 243.894C491.196 244.131 491.809 244.324 492.434 244.472L494.267 244.958C494.89 245.113 495.541 245.168 496.183 245.278C497.473 245.479 498.774 245.592 500.079 245.618C510.65 245.682 521.605 245.618 532.808 245.618H573.421C577.313 245.621 581.054 247.126 583.863 249.82C586.673 252.513 588.335 256.187 588.502 260.075C588.502 279.52 588.502 297.021 588.502 311.726C588.502 315.393 588.502 318.905 588.502 322.214C588.502 323.864 588.502 325.478 588.502 327.036C588.548 328.568 588.474 330.1 588.282 331.62C587.555 336.648 584.89 341.192 580.856 344.281C578.34 346.232 575.373 347.518 572.229 348.021C571.689 348.095 571.221 348.177 570.809 348.214L569.782 348.26H568.938C568.938 348.26 569.222 348.26 569.773 348.186L570.809 348.122C571.212 348.122 571.679 347.994 572.211 347.911C575.323 347.37 578.252 346.066 580.737 344.116C584.707 341.042 587.319 336.538 588.016 331.565C588.196 330.072 588.263 328.567 588.218 327.064C588.218 325.505 588.218 323.892 588.218 322.242C588.218 318.932 588.218 315.43 588.218 311.754C588.218 297.085 588.163 279.557 588.126 260.13C587.955 256.378 586.351 252.834 583.644 250.229C580.937 247.624 577.334 246.158 573.577 246.131H532.964C521.752 246.131 510.815 246.131 500.226 246.131C498.902 246.108 497.582 245.991 496.275 245.783C495.624 245.673 494.964 245.609 494.322 245.453L492.424 244.967C491.799 244.814 491.186 244.615 490.591 244.371L488.757 243.702L487.015 242.858L486.144 242.436L485.319 241.941C480.961 239.426 477.285 235.882 474.611 231.619C472.062 227.569 470.469 222.991 469.954 218.234C469.899 217.079 469.826 215.923 469.798 214.787C469.771 213.65 469.798 212.531 469.798 211.413C469.798 209.185 469.798 206.985 469.798 204.821C469.853 196.185 469.899 188.127 469.945 180.783C470.046 166.115 470.128 154.197 470.193 145.946C470.193 141.848 470.257 138.658 470.284 136.485C470.284 135.403 470.284 134.587 470.284 134.019C470.284 133.45 470.238 133.139 470.238 133.139Z" fill="#263238"/>
<path d="M437.52 138.841C435.485 138.374 435.036 135.981 434.852 134.633C434.764 133.957 434.827 133.269 435.038 132.621C435.249 131.972 435.602 131.378 436.072 130.884C437.905 128.995 440.94 129.05 443.406 129.82C445.342 130.564 447.339 131.141 449.374 131.544C451.373 131.883 454.059 131.067 456.882 132.46C459.046 133.506 458.716 135.44 459.825 136.128C460.934 136.815 461.512 137.448 462.576 138.163C463.96 139.08 464.061 141.069 463.776 142.747C463.492 144.424 462.97 146.12 463.621 147.651C464.07 148.724 465.042 149.485 465.454 150.594C465.727 151.344 465.726 152.166 465.453 152.915C465.18 153.665 464.651 154.294 463.96 154.692C463.444 154.891 462.96 155.163 462.521 155.499C462.071 156.143 461.779 156.884 461.668 157.663C461.424 158.383 460.973 159.015 460.371 159.48C459.769 159.945 459.044 160.222 458.285 160.275C457.525 160.294 456.78 160.063 456.164 159.617C455.548 159.172 455.095 158.537 454.875 157.809C454.69 156.54 454.838 155.245 455.305 154.05C456.198 150.717 456.357 147.23 455.773 143.828" fill="#263238"/>
<path d="M455.654 170.763L442.324 169.7C442.241 168.141 442.324 162.127 442.324 162.127C442.324 162.127 436.777 161.265 436.713 155.71C436.649 150.154 437.63 137.438 437.63 137.438C440.781 136.081 444.237 135.591 447.642 136.018C451.046 136.445 454.274 137.774 456.992 139.868L457.817 140.5L455.654 170.763Z" fill="#FFBE9D"/>
<path d="M439.068 147.441C439.224 147.296 439.316 147.096 439.327 146.883C439.337 146.671 439.264 146.463 439.123 146.304C439.016 146.185 438.876 146.101 438.721 146.062C438.567 146.023 438.404 146.031 438.253 146.085C438.103 146.139 437.972 146.236 437.877 146.364C437.781 146.492 437.726 146.646 437.719 146.806C437.711 146.965 437.751 147.123 437.833 147.26C437.915 147.397 438.037 147.507 438.181 147.575C438.326 147.643 438.487 147.666 438.645 147.642C438.803 147.618 438.95 147.548 439.068 147.441V147.441Z" fill="#263238"/>
<path d="M437.566 145.708C437.648 145.8 438.189 145.387 438.959 145.378C439.729 145.369 440.279 145.772 440.362 145.671C440.444 145.57 440.362 145.46 440.069 145.277C439.745 145.038 439.352 144.913 438.95 144.919C438.55 144.925 438.162 145.056 437.841 145.295C437.602 145.488 437.52 145.662 437.566 145.708Z" fill="#263238"/>
<path d="M446.403 146.295C446.268 146.379 446.16 146.502 446.094 146.647C446.028 146.793 446.007 146.954 446.033 147.112C446.059 147.269 446.132 147.416 446.241 147.532C446.35 147.649 446.492 147.73 446.647 147.766C446.803 147.802 446.966 147.791 447.115 147.734C447.264 147.678 447.394 147.578 447.486 147.448C447.579 147.318 447.631 147.163 447.636 147.004C447.64 146.844 447.598 146.687 447.513 146.551C447.457 146.461 447.385 146.382 447.299 146.32C447.213 146.258 447.115 146.214 447.012 146.19C446.909 146.166 446.802 146.163 446.697 146.181C446.593 146.199 446.493 146.238 446.403 146.295Z" fill="#263238"/>
<path d="M445.872 146.038C445.963 146.13 446.504 145.717 447.274 145.708C448.044 145.699 448.585 146.102 448.677 146.001C448.769 145.9 448.631 145.781 448.384 145.598C448.06 145.363 447.67 145.237 447.27 145.237C446.87 145.237 446.48 145.363 446.156 145.598C445.917 145.818 445.835 145.992 445.872 146.038Z" fill="#263238"/>
<path d="M442.791 152.675C442.399 152.521 441.984 152.434 441.563 152.419C441.361 152.419 441.205 152.354 441.187 152.244C441.183 152.042 441.233 151.843 441.334 151.667C441.526 151.163 441.728 150.658 441.939 150.117C442.51 148.805 442.946 147.438 443.24 146.038C442.54 147.288 441.965 148.606 441.526 149.971L440.958 151.529C440.83 151.788 440.791 152.081 440.848 152.364C440.876 152.44 440.922 152.509 440.983 152.563C441.044 152.618 441.117 152.656 441.196 152.675C441.308 152.696 441.423 152.696 441.535 152.675C441.951 152.751 442.376 152.751 442.791 152.675Z" fill="#263238"/>
<path d="M442.342 162.045C444.901 162.092 447.416 161.377 449.566 159.991C449.566 159.991 447.861 163.979 442.333 163.484L442.342 162.045Z" fill="#EB996E"/>
<path d="M437.52 138.841C438.739 139.408 440.067 139.702 441.411 139.702C442.756 139.702 444.084 139.408 445.303 138.841C448.282 137.613 451.72 137.164 452.371 137.796C453.022 138.429 453.004 141.399 455.791 142.472C455.791 142.472 455.177 148.11 457.441 148.073C459.705 148.036 458.954 139.19 458.954 139.19L453.636 136.091L447.714 134.505L441.984 134.89L437.52 135.761V138.841Z" fill="#263238"/>
<path d="M457.129 146.258C457.221 146.212 460.943 145.13 460.796 148.917C460.65 152.703 456.9 151.804 456.891 151.667C456.882 151.529 457.129 146.258 457.129 146.258Z" fill="#FFBE9D"/>
<path d="M458.119 150.292C458.119 150.292 458.184 150.347 458.294 150.402C458.452 150.465 458.63 150.465 458.789 150.402C459.038 150.253 459.243 150.04 459.383 149.785C459.523 149.531 459.593 149.244 459.586 148.953C459.603 148.64 459.55 148.327 459.43 148.037C459.402 147.916 459.344 147.805 459.26 147.713C459.177 147.622 459.071 147.553 458.954 147.514C458.879 147.488 458.798 147.491 458.725 147.521C458.652 147.552 458.593 147.608 458.559 147.679C458.504 147.78 458.559 147.862 458.504 147.862C458.449 147.862 458.422 147.798 458.459 147.642C458.481 147.55 458.536 147.468 458.614 147.413C458.723 147.335 458.858 147.302 458.99 147.321C459.143 147.362 459.284 147.439 459.401 147.546C459.518 147.653 459.606 147.787 459.66 147.936C459.81 148.269 459.876 148.634 459.852 148.999C459.862 149.338 459.77 149.671 459.589 149.957C459.408 150.243 459.145 150.468 458.834 150.604C458.733 150.631 458.626 150.634 458.523 150.613C458.419 150.593 458.322 150.549 458.239 150.484C458.119 150.393 458.101 150.301 458.119 150.292Z" fill="#EB996E"/>
<path d="M440.792 144.69C440.673 144.91 439.948 144.69 439.077 144.69C438.207 144.69 437.473 144.754 437.363 144.525C437.253 144.296 438.014 143.746 439.114 143.801C440.214 143.856 440.902 144.452 440.792 144.69Z" fill="#263238"/>
<path d="M449.64 144.809C449.521 145.029 448.787 144.855 447.926 144.809C447.064 144.763 446.312 144.883 446.211 144.644C446.11 144.406 446.862 143.874 447.962 143.92C449.062 143.966 449.768 144.608 449.64 144.809Z" fill="#263238"/>
<path d="M449.4 136.962C449.458 138.009 449.721 139.035 450.175 139.98C450.629 140.925 451.266 141.772 452.047 142.471C452.829 143.17 453.741 143.708 454.731 144.054C455.721 144.4 456.769 144.548 457.816 144.489C457.492 142.334 456.697 140.278 455.488 138.465C454.158 136.742 451.821 135.614 449.776 136.32" fill="#263238"/>
<path d="M445.817 152.52C445.817 152.52 445.909 152.758 445.817 153.115C445.7 153.59 445.437 154.017 445.065 154.335C444.691 154.655 444.227 154.854 443.736 154.903C443.369 154.903 443.149 154.848 443.149 154.802C443.746 154.652 444.311 154.398 444.818 154.051C445.579 153.391 445.707 152.501 445.817 152.52Z" fill="#263238"/>
<path d="M446.294 152.941C446.294 152.941 446.037 152.758 445.68 152.712C445.457 152.71 445.236 152.735 445.02 152.785C445.02 152.785 445.258 152.464 445.698 152.529C446.138 152.593 446.349 152.941 446.294 152.941Z" fill="#263238"/>
<path d="M459.614 151.419C459.713 151.548 459.78 151.699 459.807 151.858C459.834 152.018 459.821 152.182 459.77 152.336C459.737 152.506 459.668 152.668 459.569 152.81C459.469 152.952 459.341 153.071 459.193 153.161C459.007 153.271 458.798 153.335 458.583 153.348C458.368 153.36 458.152 153.322 457.955 153.235C457.755 153.149 457.58 153.013 457.448 152.839C457.316 152.665 457.232 152.461 457.203 152.245C457.15 151.9 457.232 151.549 457.433 151.264C457.808 150.759 458.285 150.86 458.248 150.888C458.104 150.901 457.964 150.949 457.841 151.027C457.718 151.105 457.616 151.211 457.543 151.337C457.371 151.61 457.312 151.938 457.377 152.254C457.407 152.437 457.482 152.611 457.596 152.758C457.71 152.905 457.858 153.022 458.028 153.097C458.199 153.17 458.384 153.203 458.57 153.196C458.755 153.188 458.937 153.138 459.101 153.051C459.368 152.892 459.562 152.636 459.642 152.336C459.715 152.034 459.706 151.717 459.614 151.419V151.419Z" fill="#455A64"/>
<path d="M435.759 131.26C435.782 131.787 435.933 132.301 436.198 132.757C436.463 133.214 436.834 133.6 437.281 133.881C438.259 134.482 439.371 134.829 440.517 134.89C441.921 135.017 443.336 134.861 444.679 134.432C446.109 134.01 447.274 133.075 448.621 132.855C449.205 132.764 449.803 132.807 450.368 132.98C450.933 133.153 451.452 133.452 451.885 133.854C452.459 134.407 452.846 135.125 452.994 135.908C453.045 136.193 453.045 136.484 452.994 136.769C452.978 136.486 452.941 136.204 452.884 135.926C452.714 135.171 452.321 134.485 451.757 133.955C451.335 133.575 450.834 133.296 450.289 133.137C449.745 132.978 449.171 132.944 448.612 133.038C447.338 133.249 446.164 134.184 444.698 134.624C443.334 135.06 441.896 135.213 440.471 135.073C439.297 135.008 438.159 134.638 437.171 134.001C436.509 133.552 436.023 132.888 435.796 132.121C435.724 131.84 435.711 131.546 435.759 131.26V131.26Z" fill="#455A64"/>
<path d="M452.939 136.65C453.12 136.363 453.365 136.121 453.655 135.944C454.042 135.687 454.486 135.526 454.948 135.475C455.411 135.424 455.879 135.484 456.313 135.651C456.913 135.889 457.423 136.309 457.771 136.852C458.139 137.494 458.308 138.231 458.257 138.97C458.211 139.76 458.211 140.553 458.257 141.344C458.302 141.756 458.444 142.151 458.672 142.497C458.9 142.843 459.207 143.129 459.568 143.333C460.345 143.715 461.062 144.209 461.695 144.8C462.206 145.444 462.524 146.22 462.611 147.037C462.767 148.577 462.529 149.943 462.758 151.071C462.886 151.965 463.348 152.777 464.051 153.345C464.331 153.534 464.641 153.673 464.968 153.757C464.635 153.724 464.318 153.6 464.051 153.4C463.3 152.843 462.799 152.013 462.657 151.089C462.419 149.943 462.657 148.55 462.474 147.065C462.403 146.284 462.11 145.54 461.63 144.919C461.01 144.347 460.309 143.868 459.549 143.498C459.179 143.265 458.866 142.952 458.633 142.582C458.4 142.213 458.252 141.796 458.202 141.362C458.151 140.562 458.151 139.76 458.202 138.96C458.254 138.256 458.098 137.551 457.753 136.934C457.428 136.409 456.947 135.999 456.377 135.761C455.96 135.598 455.511 135.535 455.066 135.577C454.62 135.618 454.19 135.763 453.81 135.999C453.49 136.173 453.197 136.392 452.939 136.65V136.65Z" fill="#455A64"/>
<path d="M463.657 139.987C463.698 139.816 463.672 139.636 463.584 139.483C463.442 139.294 463.245 139.154 463.019 139.084C462.794 139.013 462.552 139.015 462.328 139.089C461.991 139.167 461.647 139.213 461.301 139.226C461.095 139.215 460.893 139.163 460.708 139.073C460.522 138.984 460.356 138.858 460.219 138.704C459.596 138.08 459.458 137.099 458.917 136.357C458.389 135.651 457.624 135.16 456.763 134.972C456.061 134.823 455.329 134.9 454.673 135.193C454.065 135.467 453.531 135.882 453.114 136.403C453.201 136.242 453.305 136.091 453.426 135.953C453.757 135.571 454.163 135.259 454.618 135.037C455.298 134.716 456.063 134.623 456.8 134.771C457.708 134.956 458.515 135.472 459.064 136.219C459.651 137.026 459.779 137.98 460.348 138.557C460.581 138.829 460.908 139.002 461.264 139.043C461.6 139.035 461.934 138.998 462.264 138.933C462.548 138.88 462.841 138.899 463.116 138.988C463.33 139.068 463.507 139.225 463.611 139.428C463.822 139.804 463.657 140.006 463.657 139.987Z" fill="#455A64"/>
<path d="M451.52 131.635C451.599 131.596 451.687 131.577 451.776 131.58C452.012 131.574 452.246 131.618 452.464 131.709C452.826 131.872 453.14 132.127 453.373 132.448C453.606 132.77 453.751 133.147 453.793 133.542C453.883 134.311 453.779 135.089 453.491 135.807C453.397 136.111 453.267 136.403 453.106 136.678C453.162 136.365 453.248 136.058 453.362 135.761C453.604 135.054 453.685 134.303 453.601 133.561C453.562 133.197 453.432 132.848 453.224 132.547C453.016 132.246 452.736 132.002 452.409 131.837C452.128 131.714 451.826 131.646 451.52 131.635V131.635Z" fill="#455A64"/>
<path d="M438.61 139.19C439.336 139.428 440.087 139.581 440.847 139.648C442.697 139.785 444.537 139.276 446.055 138.209C446.971 137.585 447.595 136.769 448.392 136.228C448.737 135.973 449.131 135.794 449.55 135.702C449.969 135.611 450.402 135.609 450.822 135.697C451.38 135.82 451.913 136.037 452.399 136.338L452.784 136.577L452.912 136.678C452.721 136.603 452.537 136.511 452.362 136.403C451.876 136.13 451.35 135.936 450.803 135.825C450.401 135.749 449.988 135.759 449.59 135.854C449.192 135.949 448.818 136.126 448.493 136.375C447.723 136.898 447.063 137.714 446.165 138.365C444.616 139.461 442.726 139.965 440.838 139.786C440.064 139.73 439.308 139.528 438.61 139.19V139.19Z" fill="#455A64"/>
<path d="M408.027 330.144L409.247 343.493L423.062 344.978V328.586L408.027 330.144Z" fill="#E0E0E0"/>
<path d="M408.559 335.984H423.062V337.579L408.742 337.937L408.559 335.984Z" fill="#455A64"/>
<path d="M408.844 339.101L409.009 340.871L423.063 340.797V339.01L408.844 339.101Z" fill="#455A64"/>
<path d="M409.247 343.493L409.155 342.457L423.063 342.218L423.044 343.218L409.247 343.493Z" fill="#455A64"/>
<path d="M409.265 344.923V343.428L423.292 342.906L423.502 347.82L422.641 347.911C418.799 348.278 403.068 349.497 400.464 348.828C397.512 348.067 409.265 344.923 409.265 344.923Z" fill="#B8060D"/>
<g opacity="0.3">
<path opacity="0.3" d="M418.396 347.912C418.552 346.723 419.143 345.635 420.056 344.859C420.952 344.089 422.102 343.68 423.283 343.713L423.439 347.618L418.396 347.912Z" fill="white"/>
</g>
<g opacity="0.3">
<path opacity="0.3" d="M403.526 346.665C403.526 346.665 399.419 348.031 399.969 348.691C400.519 349.351 416.471 348.691 423.456 347.82V347.508L404.873 348.425C404.873 348.425 404.342 346.665 403.526 346.665Z" fill="white"/>
</g>
<path d="M423.64 347.49C423.56 347.499 423.48 347.499 423.401 347.49L422.714 347.554L420.183 347.765C418.038 347.93 415.086 348.122 411.813 348.251C408.54 348.379 405.57 348.443 403.425 348.452H400.885H400.189H399.95C400.029 348.439 400.11 348.439 400.189 348.452H400.885L403.425 348.397C405.57 348.397 408.531 348.278 411.804 348.15C415.077 348.021 418.029 347.847 420.174 347.71L422.714 347.554H423.401L423.64 347.49Z" fill="#263238"/>
<path d="M404.846 348.626C404.723 348.208 404.547 347.808 404.323 347.435C404.054 347.095 403.746 346.787 403.406 346.518C403.846 346.662 404.217 346.962 404.451 347.361C404.736 347.719 404.877 348.17 404.846 348.626V348.626Z" fill="#263238"/>
<path d="M408.88 346.38C408.88 346.38 408.642 346.179 408.422 345.867C408.202 345.555 408.064 345.28 408.101 345.253C408.137 345.225 408.348 345.454 408.559 345.766C408.77 346.078 408.926 346.38 408.88 346.38Z" fill="#263238"/>
<path d="M409.989 345.73C409.989 345.73 409.732 345.629 409.485 345.418C409.237 345.207 409.054 345.015 409.091 344.987C409.127 344.96 409.347 345.088 409.595 345.29C409.842 345.491 410.017 345.693 409.989 345.73Z" fill="#263238"/>
<path d="M410.648 344.382C410.419 344.478 410.172 344.521 409.924 344.51C409.903 344.598 409.85 344.674 409.777 344.725C409.703 344.776 409.613 344.798 409.524 344.787C409.435 344.777 409.353 344.734 409.293 344.667C409.234 344.6 409.201 344.513 409.201 344.423C409.201 344.334 409.234 344.247 409.293 344.18C409.353 344.113 409.435 344.07 409.524 344.059C409.613 344.049 409.703 344.071 409.777 344.122C409.85 344.173 409.903 344.249 409.924 344.336C410.166 344.299 410.413 344.315 410.648 344.382V344.382Z" fill="#263238"/>
<path d="M410.86 343.447C410.623 343.613 410.343 343.705 410.053 343.713C409.771 343.767 409.479 343.742 409.21 343.639C409.481 343.58 409.758 343.55 410.035 343.548C410.306 343.486 410.582 343.452 410.86 343.447V343.447Z" fill="#263238"/>
<path d="M408.357 345.17C408.055 345.235 407.743 345.235 407.44 345.17C407.13 345.139 406.824 345.081 406.524 344.996C406.33 344.952 406.142 344.884 405.965 344.794C405.854 344.735 405.769 344.637 405.726 344.519C405.711 344.454 405.714 344.385 405.737 344.321C405.76 344.258 405.801 344.202 405.854 344.162C406.189 343.978 406.577 343.917 406.952 343.989C407.327 344.061 407.665 344.262 407.908 344.556C408.054 344.726 408.16 344.927 408.22 345.143C408.24 345.224 408.24 345.309 408.22 345.39C408.118 345.116 407.969 344.862 407.78 344.638C407.567 344.41 407.293 344.248 406.991 344.171C406.815 344.117 406.63 344.1 406.447 344.12C406.264 344.141 406.088 344.199 405.928 344.29C405.79 344.4 405.854 344.565 406.01 344.648C406.174 344.732 406.346 344.799 406.524 344.849C406.824 344.938 407.131 345.005 407.44 345.051C408.018 345.161 408.357 345.143 408.357 345.17Z" fill="#263238"/>
<path d="M408.128 345.225C408.014 345.042 407.969 344.825 408 344.611C408.022 344.375 408.097 344.146 408.22 343.942C408.291 343.806 408.396 343.69 408.524 343.605C408.652 343.52 408.8 343.469 408.953 343.456C409.045 343.472 409.127 343.523 409.182 343.598C409.237 343.673 409.26 343.767 409.246 343.859C409.229 344.002 409.182 344.139 409.109 344.263C408.998 344.468 408.862 344.658 408.706 344.831C408.431 345.115 408.22 345.225 408.211 345.207C408.201 345.189 408.376 345.042 408.614 344.749C408.753 344.579 408.873 344.394 408.971 344.199C409.081 343.997 409.155 343.658 408.971 343.621C408.788 343.584 408.531 343.841 408.394 344.034C408.277 344.211 408.199 344.411 408.165 344.62C408.138 344.821 408.125 345.023 408.128 345.225V345.225Z" fill="#263238"/>
<path d="M423.2 343.676C423.2 343.676 422.805 343.676 422.173 343.758C421.354 343.882 420.587 344.235 419.961 344.777C419.334 345.319 418.874 346.028 418.634 346.82C418.541 347.152 418.467 347.489 418.414 347.829C418.414 347.829 418.414 347.728 418.414 347.545C418.432 347.287 418.475 347.033 418.542 346.784C418.761 345.949 419.23 345.201 419.885 344.639C420.54 344.077 421.351 343.728 422.21 343.639C422.466 343.612 422.724 343.612 422.98 343.639C423.054 343.642 423.128 343.654 423.2 343.676V343.676Z" fill="#263238"/>
<path d="M416.581 346.619C415.921 346.802 415.239 346.897 414.555 346.903C413.869 346.964 413.179 346.936 412.501 346.82C412.501 346.775 413.418 346.82 414.545 346.729C415.673 346.637 416.571 346.573 416.581 346.619Z" fill="#263238"/>
<path d="M419.312 346.5C419.312 346.5 419.248 346.701 419.166 346.912C419.083 347.123 419.037 347.315 418.991 347.315C418.946 347.315 418.909 347.095 418.991 346.848C419.074 346.6 419.285 346.472 419.312 346.5Z" fill="#263238"/>
<path d="M420.293 345.18C420.293 345.18 420.293 345.363 420.11 345.51C419.927 345.656 419.826 345.757 419.798 345.73C419.771 345.702 419.798 345.546 419.982 345.4C420.165 345.253 420.257 345.143 420.293 345.18Z" fill="#263238"/>
<path d="M421.751 344.547C421.751 344.602 421.559 344.602 421.348 344.684C421.137 344.767 421.009 344.877 420.972 344.849C420.935 344.822 421.036 344.62 421.293 344.529C421.55 344.437 421.761 344.492 421.751 344.547Z" fill="#263238"/>
<path d="M422.787 344.217C422.787 344.217 422.732 344.336 422.613 344.382C422.494 344.428 422.393 344.437 422.375 344.382C422.357 344.327 422.43 344.263 422.549 344.217C422.668 344.171 422.769 344.171 422.787 344.217Z" fill="#263238"/>
<path d="M408.366 333.876L408.449 334.692L423.062 334.49V333.518L408.366 333.876Z" fill="#455A64"/>
<path d="M373.062 297.947L368.093 310.406L379.727 317.997L387.162 303.384L373.062 297.947Z" fill="#E0E0E0"/>
<path d="M370.889 303.402L383.806 309.975L383.082 311.406L370.155 305.226L370.889 303.402Z" fill="#455A64"/>
<path d="M369.725 306.308L369.064 307.959L381.624 314.275L382.44 312.671L369.725 306.308Z" fill="#455A64"/>
<path d="M368.093 310.406L368.478 309.444L380.983 315.531L380.515 316.42L368.093 310.406Z" fill="#455A64"/>
<path d="M367.46 311.68L368.093 310.333L380.827 316.228L378.791 320.711L377.985 320.399C374.391 318.978 359.814 312.936 357.816 311.158C355.551 309.15 367.46 311.68 367.46 311.68Z" fill="#B8060D"/>
<g opacity="0.3">
<path opacity="0.3" d="M374.235 318.483C374.92 317.501 375.941 316.803 377.105 316.521C378.252 316.24 379.463 316.4 380.497 316.971L378.865 320.518L374.235 318.483Z" fill="white"/>
</g>
<g opacity="0.3">
<path opacity="0.3" d="M361.556 310.626C361.556 310.626 357.275 309.975 357.458 310.819C357.641 311.662 372.126 318.318 378.791 320.692L378.901 320.399L361.923 312.781C361.923 312.781 362.28 311.002 361.556 310.626Z" fill="white"/>
</g>
<path d="M379.102 320.491L378.873 320.417L378.231 320.17L375.875 319.207C373.895 318.382 371.172 317.2 368.202 315.843C365.231 314.486 362.554 313.175 360.629 312.176L358.392 311.057L357.787 310.736C357.712 310.703 357.641 310.66 357.576 310.608L357.805 310.709L358.429 311.002L360.712 312.111C362.646 313.028 365.295 314.321 368.293 315.687C371.291 317.053 373.986 318.245 375.948 319.097L378.286 320.106L378.919 320.381L379.102 320.491Z" fill="#263238"/>
<path d="M361.84 312.982C361.916 312.553 361.94 312.116 361.913 311.681C361.832 311.256 361.706 310.841 361.537 310.443C361.864 310.767 362.057 311.202 362.078 311.662C362.168 312.117 362.083 312.588 361.84 312.982V312.982Z" fill="#263238"/>
<path d="M366.46 312.808C366.348 312.6 366.288 312.367 366.286 312.13C366.229 311.904 366.229 311.668 366.286 311.442C366.286 311.442 366.405 311.736 366.46 312.112C366.512 312.341 366.512 312.579 366.46 312.808V312.808Z" fill="#263238"/>
<path d="M367.736 312.735C367.736 312.735 367.552 312.524 367.424 312.231C367.296 311.937 367.231 311.681 367.268 311.653C367.305 311.626 367.451 311.864 367.58 312.157C367.708 312.451 367.781 312.716 367.736 312.735Z" fill="#263238"/>
<path d="M368.936 311.836C368.69 311.814 368.453 311.739 368.239 311.616C368.004 311.537 367.789 311.409 367.606 311.241C367.606 311.195 367.936 311.296 368.303 311.461C368.67 311.626 368.954 311.791 368.936 311.836Z" fill="#263238"/>
<path d="M369.55 311.094C369.264 311.11 368.978 311.067 368.71 310.967C368.442 310.868 368.197 310.715 367.991 310.516C368.261 310.586 368.522 310.685 368.77 310.81C369.192 310.966 369.559 311.039 369.55 311.094Z" fill="#263238"/>
<path d="M366.534 311.543C366.245 311.466 365.972 311.339 365.727 311.167C365.447 310.992 365.183 310.793 364.939 310.571C364.791 310.443 364.659 310.298 364.544 310.14C364.506 310.092 364.478 310.036 364.462 309.976C364.446 309.916 364.443 309.853 364.453 309.792C364.47 309.727 364.504 309.667 364.553 309.62C364.601 309.573 364.662 309.541 364.728 309.526C365.109 309.517 365.481 309.639 365.782 309.873C366.083 310.107 366.293 310.438 366.378 310.81C366.423 311.03 366.423 311.258 366.378 311.479C366.378 311.635 366.305 311.717 366.295 311.708C366.325 311.42 366.307 311.128 366.24 310.846C366.158 310.545 365.989 310.274 365.754 310.067C365.482 309.817 365.124 309.683 364.755 309.691C364.581 309.691 364.554 309.902 364.664 310.058C364.771 310.205 364.894 310.34 365.03 310.461C365.26 310.684 365.509 310.886 365.773 311.066C366.24 311.332 366.552 311.47 366.534 311.543Z" fill="#263238"/>
<path d="M366.305 311.442C366.287 311.227 366.345 311.013 366.47 310.837C366.597 310.635 366.77 310.465 366.974 310.342C367.099 310.252 367.243 310.195 367.396 310.176C367.548 310.157 367.702 310.176 367.845 310.232C367.918 310.29 367.966 310.373 367.979 310.465C367.993 310.557 367.971 310.651 367.918 310.727C367.839 310.847 367.736 310.95 367.616 311.03C367.425 311.159 367.219 311.263 367.002 311.341C366.807 311.433 366.593 311.474 366.378 311.46C366.378 311.46 366.617 311.387 366.956 311.231C367.157 311.143 367.348 311.032 367.524 310.901C367.717 310.782 367.937 310.507 367.744 310.379C367.552 310.25 367.249 310.379 367.047 310.47C366.859 310.577 366.696 310.724 366.571 310.901C366.472 311.076 366.383 311.257 366.305 311.442V311.442Z" fill="#263238"/>
<path d="M380.441 316.897C380.441 316.897 380.093 316.695 379.524 316.503C378.739 316.245 377.898 316.21 377.095 316.402C376.295 316.611 375.566 317.032 374.986 317.621C374.537 318.08 374.354 318.437 374.326 318.419C374.352 318.328 374.393 318.241 374.445 318.162C374.572 317.941 374.723 317.735 374.895 317.548C375.461 316.902 376.212 316.445 377.047 316.238C377.881 316.032 378.758 316.086 379.561 316.393C379.806 316.478 380.04 316.592 380.258 316.732C380.395 316.824 380.45 316.888 380.441 316.897Z" fill="#263238"/>
<path d="M373.208 316.512C372.533 316.378 371.879 316.152 371.264 315.843C370.612 315.592 369.995 315.256 369.431 314.843C369.431 314.798 370.265 315.228 371.264 315.687C372.263 316.145 373.226 316.466 373.208 316.512Z" fill="#263238"/>
<path d="M375.702 317.649C375.702 317.649 375.546 317.796 375.381 317.951C375.216 318.107 375.078 318.245 375.042 318.226C375.005 318.208 375.042 317.997 375.262 317.823C375.482 317.649 375.683 317.612 375.702 317.649Z" fill="#263238"/>
<path d="M377.168 316.915C377.168 316.961 377.049 317.053 376.856 317.126C376.664 317.199 376.49 317.227 376.471 317.181C376.453 317.135 376.6 317.044 376.792 316.97C376.985 316.897 377.15 316.869 377.168 316.915Z" fill="#263238"/>
<path d="M378.755 317.044C378.755 317.044 378.563 317.044 378.343 316.989C378.123 316.934 377.948 316.989 377.93 316.989C377.912 316.989 378.095 316.815 378.361 316.842C378.627 316.87 378.792 316.97 378.755 317.044Z" fill="#263238"/>
<path d="M379.827 317.19C379.827 317.19 379.726 317.264 379.598 317.254C379.47 317.245 379.378 317.209 379.378 317.163C379.378 317.117 379.488 317.08 379.607 317.089C379.726 317.098 379.836 317.135 379.827 317.19Z" fill="#263238"/>
<path d="M371.668 301.44L371.365 302.192L384.484 308.646L384.924 307.775L371.668 301.44Z" fill="#455A64"/>
<path d="M469.377 239.778C469.377 239.778 408.155 222.515 402.215 224.917C396.274 227.319 364.7 298.342 364.7 298.342L385.713 308.307L414.637 247.672C414.637 247.672 455.571 270.288 463.648 263.55C473.411 255.4 469.515 237.01 469.377 239.778Z" fill="#263238"/>
<path d="M462.465 240.686C461.548 240.942 411.96 240.686 403.663 250.495C400.317 254.437 402.526 334.022 402.526 334.022L424.244 333.491L424.849 264.733H460.191C460.645 264.731 461.094 264.637 461.511 264.456C461.928 264.276 462.303 264.012 462.615 263.682C462.927 263.352 463.169 262.962 463.326 262.536C463.483 262.11 463.552 261.656 463.528 261.203L462.465 240.686Z" fill="#263238"/>
<path d="M462.319 261.212C462.142 261.21 461.966 261.182 461.796 261.13L460.339 260.79L454.985 259.479C450.474 258.343 444.24 256.729 437.456 254.63C434.073 253.548 430.883 252.42 428.013 251.293C421.596 248.744 427.793 251.577 420.505 248.029C418.415 247.011 416.737 246.131 415.618 245.48L414.317 244.719C414.159 244.645 414.013 244.546 413.886 244.426C414.051 244.482 414.21 244.553 414.362 244.637L415.701 245.315C416.847 245.92 418.543 246.755 420.651 247.726C422.76 248.698 425.3 249.789 428.169 250.898C431.039 252.008 434.22 253.108 437.603 254.18C444.368 256.307 450.584 257.939 455.076 259.159L460.384 260.616L461.824 261.038C461.994 261.082 462.159 261.14 462.319 261.212Z" fill="#455A64"/>
<path d="M420.238 262.395C421.08 262.55 421.885 262.861 422.613 263.312C423.405 263.638 424.134 264.1 424.767 264.678C423.927 264.518 423.123 264.207 422.393 263.761C421.6 263.435 420.871 262.973 420.238 262.395V262.395Z" fill="#455A64"/>
<path d="M422.09 260.424C422.612 261.163 423.093 261.932 423.529 262.725C424.092 263.434 424.619 264.171 425.106 264.934C424.279 264.484 423.599 263.806 423.144 262.982C422.56 262.245 422.194 261.358 422.09 260.424V260.424Z" fill="#455A64"/>
<path d="M413.702 244.243C413.219 244.302 412.731 244.32 412.245 244.298C410.935 244.291 409.628 244.429 408.348 244.71C407.412 244.898 406.526 245.283 405.75 245.839C404.974 246.395 404.325 247.111 403.847 247.937C402.811 249.844 402.738 252.328 402.719 254.859C402.646 259.965 402.554 264.595 402.463 267.941C402.408 269.545 402.362 270.884 402.334 271.902C402.338 272.387 402.299 272.872 402.215 273.35C402.154 272.87 402.129 272.386 402.142 271.902C402.142 270.875 402.142 269.545 402.142 267.932C402.142 264.586 402.188 259.965 402.261 254.85C402.261 252.328 402.353 249.762 403.471 247.726C403.993 246.768 404.762 245.967 405.699 245.407C406.499 244.926 407.372 244.58 408.284 244.38C409.597 244.121 410.937 244.031 412.272 244.114C412.752 244.116 413.23 244.159 413.702 244.243Z" fill="#455A64"/>
<path d="M407.248 153.051C407.505 153.418 416.911 179.794 416.911 179.794L401.665 182.837L393.23 161.366L407.248 153.051Z" fill="#455A64"/>
<path d="M416.91 179.793L418.248 178.968L408.521 152.263L407.082 153.152L416.91 179.793Z" fill="#263238"/>
<path d="M401.243 160.578C401.278 160.702 401.276 160.833 401.236 160.955C401.196 161.078 401.121 161.185 401.02 161.265C400.919 161.345 400.797 161.393 400.669 161.403C400.541 161.413 400.412 161.385 400.3 161.323C400.188 161.26 400.096 161.166 400.038 161.052C399.979 160.937 399.955 160.808 399.97 160.68C399.985 160.553 400.037 160.432 400.12 160.334C400.203 160.236 400.313 160.164 400.437 160.129C400.519 160.105 400.605 160.098 400.691 160.107C400.776 160.117 400.858 160.144 400.933 160.185C401.008 160.227 401.074 160.283 401.128 160.351C401.181 160.418 401.22 160.495 401.243 160.578V160.578Z" fill="#263238"/>
<path d="M424.64 184.689L410.072 198.981L401.106 177.125L400.895 175.952L406.625 171.368L403.205 167.169C402.819 166.704 402.34 166.325 401.798 166.056C401.257 165.786 400.665 165.633 400.061 165.605C399.457 165.578 398.854 165.676 398.291 165.895C397.727 166.114 397.215 166.448 396.788 166.876L395.064 168.618C394.448 169.227 393.967 169.959 393.651 170.766C393.335 171.573 393.192 172.437 393.231 173.303C393.387 176.319 393.689 179.537 393.671 179.252L398.805 209.442C398.913 211.51 399.612 213.505 400.817 215.189C402.022 216.874 403.685 218.178 405.607 218.949C410.778 221.085 416.389 214.301 419.359 211.724L438.529 194.306L424.64 184.689Z" fill="#FFBE9D"/>
<path d="M483.789 200.137L465.343 203.006L464.903 201.906L470.752 241.465L425.665 228.474L426.976 205.289L411.62 194.196L423.373 176.181C425.015 173.95 427.088 172.07 429.469 170.653C431.85 169.236 434.49 168.31 437.235 167.931C438.867 167.71 440.104 167.61 440.902 167.509C445.526 168.966 450.487 168.966 455.112 167.509V167.509C457.118 167.594 459.102 167.974 460.998 168.636C462.391 169.104 463.748 169.48 465.013 169.847C467.393 170.551 469.58 171.789 471.408 173.467C473.237 175.145 474.659 177.218 475.565 179.528L483.789 200.137Z" fill="#B8060D"/>
<path d="M428.774 244.893C428.618 243.06 436.245 242.033 436.878 241.905C437.511 241.776 437.346 240.841 436.777 240.988C435.961 241.199 427.289 243.28 427.123 241.483C427.032 240.484 428.838 240.475 428.838 240.475C428.838 240.475 437.089 239.127 436.979 238.284C436.869 237.44 432.001 238.045 430.369 238.375C428.737 238.705 427.958 238.064 428.407 237.238C428.71 236.67 433.669 235.542 435.283 235.258C436.896 234.974 441.352 234.259 438.877 232.829C436.401 231.399 435.035 229.354 435.054 228.547C435.087 228.37 435.172 228.207 435.298 228.078C435.423 227.949 435.584 227.86 435.76 227.822C435.936 227.784 436.12 227.798 436.287 227.864C436.455 227.929 436.6 228.043 436.704 228.19C437.339 228.921 438.073 229.56 438.886 230.088C439.518 230.536 440.221 230.874 440.967 231.087C441.884 231.334 442.589 231.509 443.231 231.637C447.558 230.28 459.614 225.999 468.149 218.344C469.689 216.959 465.637 202.759 465.637 202.759L482.075 200.613L484.422 214.603C487.621 233.635 445.001 243.207 445.001 243.207V243.161C442.223 244.484 439.377 245.659 436.475 246.681C432.395 247.919 432.276 247.552 432.221 247.048C432.047 245.709 439.307 244.6 437.611 243.931C435.915 243.262 428.893 246.305 428.774 244.893Z" fill="#FFBE9D"/>
<path d="M473.64 176.511C473.526 176.645 473.393 176.763 473.246 176.86C472.852 177.181 472.431 177.469 471.99 177.722C470.381 178.68 468.605 179.324 466.755 179.619C463.997 180.079 461.166 179.761 458.578 178.703C457.12 178.134 455.672 177.382 454.113 176.786C452.52 176.149 450.814 175.837 449.098 175.87C445.55 175.934 442.296 177.071 439.298 177.841C436.632 178.674 433.831 178.985 431.047 178.758C429.176 178.568 427.388 177.885 425.867 176.777C425.304 176.38 424.821 175.879 424.446 175.301C424.922 175.78 425.434 176.221 425.977 176.621C427.493 177.663 429.252 178.294 431.084 178.455C433.809 178.625 436.543 178.283 439.142 177.447C442.113 176.658 445.395 175.494 449.043 175.42C450.817 175.374 452.582 175.686 454.232 176.337C455.827 176.942 457.267 177.703 458.697 178.281C461.214 179.326 463.968 179.665 466.664 179.262C468.483 178.997 470.24 178.411 471.853 177.529C473.045 176.933 473.613 176.475 473.64 176.511Z" fill="#FAFAFA"/>
<path d="M481.021 193.802L480.911 193.948C480.828 194.031 480.709 194.169 480.544 194.324C480.042 194.785 479.488 195.185 478.894 195.516C476.656 196.671 474.123 197.125 471.624 196.818C469.914 196.63 468.225 196.28 466.581 195.773C464.812 195.269 462.914 194.609 460.971 194.049C458.917 193.422 456.783 193.095 454.636 193.078C452.332 193.196 450.058 193.641 447.879 194.398C445.615 195.113 443.414 195.938 441.196 196.442C439.062 196.991 436.843 197.122 434.659 196.827C432.698 196.447 430.845 195.64 429.232 194.462C427.701 193.408 426.39 192.289 425.152 191.345C423.272 189.754 421.046 188.624 418.652 188.044C417.762 187.899 416.857 187.862 415.957 187.934L416.131 187.889C416.25 187.889 416.425 187.824 416.654 187.806C417.328 187.731 418.01 187.75 418.68 187.861C421.12 188.381 423.398 189.485 425.317 191.079C426.582 191.996 427.903 193.105 429.415 194.132C430.989 195.261 432.792 196.03 434.696 196.387C436.82 196.665 438.977 196.528 441.049 195.984C443.231 195.479 445.413 194.664 447.705 193.939C449.925 193.17 452.243 192.722 454.59 192.61C456.767 192.638 458.928 192.981 461.007 193.628C463.006 194.205 464.858 194.874 466.618 195.397C468.234 195.91 469.895 196.272 471.578 196.479C474.02 196.809 476.506 196.417 478.729 195.351C479.551 194.926 480.32 194.406 481.021 193.802Z" fill="#FAFAFA"/>
<path d="M465.592 207.764C463.626 207.566 461.649 208.034 459.981 209.094C459.086 209.529 458.168 209.915 457.231 210.249C456.123 210.599 454.973 210.8 453.811 210.845C451.163 210.881 448.525 210.491 446.001 209.69C443.314 208.91 440.812 208.039 438.465 207.553C436.399 207.067 434.265 206.943 432.157 207.187C430.742 207.363 429.372 207.798 428.114 208.47C427.197 208.956 426.794 209.332 426.767 209.295C426.852 209.186 426.95 209.087 427.06 209.002C427.347 208.746 427.654 208.513 427.977 208.305C429.234 207.556 430.626 207.064 432.075 206.857C434.212 206.555 436.387 206.645 438.492 207.123C440.876 207.599 443.406 208.461 446.074 209.231C448.548 210.022 451.131 210.418 453.729 210.405C454.854 210.372 455.969 210.193 457.048 209.873C457.983 209.56 458.901 209.199 459.798 208.791C461.1 208.135 462.51 207.719 463.96 207.563C464.356 207.543 464.753 207.571 465.143 207.645C465.298 207.661 465.45 207.701 465.592 207.764Z" fill="#FAFAFA"/>
<path d="M465.078 220.856C464.562 220.826 464.044 220.826 463.528 220.856C462.14 221.128 460.811 221.646 459.605 222.387C458.727 222.857 457.806 223.241 456.854 223.533C455.751 223.852 454.61 224.021 453.462 224.037C450.845 224.025 448.244 223.61 445.752 222.809C443.103 222.038 440.627 221.186 438.299 220.709C436.256 220.238 434.146 220.126 432.065 220.379C430.663 220.571 429.308 221.019 428.068 221.699C427.151 222.185 426.766 222.552 426.738 222.515C426.821 222.409 426.916 222.313 427.022 222.231C427.308 221.976 427.615 221.746 427.939 221.543C429.176 220.791 430.55 220.296 431.982 220.086C434.117 219.77 436.292 219.848 438.4 220.315C440.765 220.773 443.259 221.617 445.899 222.387C448.345 223.173 450.893 223.593 453.462 223.634C454.574 223.63 455.68 223.482 456.753 223.194C457.702 222.924 458.623 222.564 459.504 222.121C460.751 221.395 462.127 220.915 463.556 220.709C463.949 220.683 464.343 220.708 464.729 220.782C464.848 220.794 464.965 220.818 465.078 220.856Z" fill="#FAFAFA"/>
<path d="M454.536 199.128C454.536 199.128 454.701 199.027 455.04 199.046C455.342 199.071 455.636 199.158 455.903 199.303C456.17 199.447 456.404 199.645 456.59 199.885C456.776 200.125 456.911 200.4 456.985 200.694C457.059 200.989 457.071 201.295 457.02 201.594C456.933 202.048 456.712 202.466 456.385 202.793C456.058 203.119 455.641 203.341 455.187 203.428C454.729 203.481 454.265 203.392 453.86 203.172C453.455 202.952 453.127 202.613 452.922 202.199C452.755 201.867 452.685 201.494 452.723 201.123C452.76 200.753 452.903 200.401 453.133 200.109C453.426 199.72 453.849 199.45 454.325 199.348C454.655 199.284 454.838 199.348 454.838 199.348C454.838 199.348 454.664 199.348 454.38 199.504C453.98 199.656 453.639 199.932 453.408 200.292C453.236 200.536 453.136 200.824 453.118 201.122C453.1 201.42 453.166 201.717 453.307 201.979C453.487 202.297 453.757 202.555 454.084 202.718C454.411 202.881 454.779 202.943 455.141 202.896C455.498 202.825 455.827 202.653 456.09 202.402C456.353 202.15 456.539 201.829 456.626 201.475C456.694 201.18 456.685 200.873 456.6 200.582C456.515 200.292 456.356 200.028 456.14 199.816C455.692 199.422 455.13 199.182 454.536 199.128Z" fill="#FAFAFA"/>
<path d="M435.328 211.615C435.328 211.615 435.503 211.514 435.833 211.532C436.317 211.567 436.776 211.764 437.135 212.091C437.416 212.332 437.627 212.643 437.746 212.993C437.865 213.343 437.889 213.719 437.813 214.081C437.725 214.534 437.503 214.951 437.176 215.278C436.85 215.604 436.433 215.826 435.979 215.914C435.522 215.963 435.061 215.871 434.656 215.652C434.252 215.432 433.924 215.096 433.715 214.686C433.548 214.351 433.48 213.976 433.519 213.604C433.557 213.232 433.702 212.879 433.935 212.586C434.224 212.198 434.644 211.927 435.118 211.825C435.457 211.761 435.64 211.825 435.64 211.825C435.64 211.825 435.457 211.88 435.173 211.981C434.796 212.148 434.477 212.422 434.256 212.77C434.084 213.014 433.983 213.301 433.965 213.599C433.947 213.897 434.013 214.194 434.155 214.457C434.335 214.775 434.605 215.032 434.932 215.195C435.258 215.358 435.626 215.42 435.989 215.373C436.346 215.305 436.675 215.134 436.937 214.882C437.199 214.629 437.382 214.307 437.465 213.952C437.532 213.659 437.523 213.353 437.438 213.063C437.353 212.774 437.195 212.512 436.979 212.302C436.52 211.896 435.94 211.654 435.328 211.615Z" fill="#FAFAFA"/>
<path d="M435.915 186.495C435.915 186.495 436.08 186.394 436.42 186.413C436.9 186.452 437.354 186.649 437.712 186.972C437.993 187.214 438.205 187.527 438.326 187.878C438.447 188.229 438.472 188.606 438.4 188.97C438.313 189.424 438.091 189.842 437.764 190.169C437.438 190.496 437.02 190.717 436.566 190.804C436.109 190.854 435.647 190.763 435.242 190.543C434.838 190.324 434.51 189.986 434.302 189.575C434.132 189.243 434.062 188.869 434.101 188.498C434.14 188.127 434.287 187.775 434.522 187.485C434.806 187.09 435.228 186.815 435.704 186.715C436.035 186.651 436.218 186.715 436.218 186.715C436.218 186.715 436.044 186.77 435.759 186.871C435.381 187.035 435.061 187.31 434.843 187.659C434.668 187.904 434.566 188.192 434.546 188.492C434.527 188.791 434.591 189.091 434.733 189.355C434.912 189.674 435.183 189.931 435.509 190.094C435.836 190.257 436.204 190.319 436.566 190.272C436.924 190.202 437.253 190.031 437.517 189.779C437.78 189.527 437.965 189.205 438.051 188.851C438.119 188.558 438.11 188.251 438.025 187.962C437.94 187.673 437.782 187.411 437.565 187.201C437.11 186.788 436.529 186.539 435.915 186.495Z" fill="#FAFAFA"/>
<path d="M467.699 185.111C467.699 185.111 467.873 185.01 468.213 185.028C468.694 185.064 469.15 185.261 469.505 185.587C469.786 185.828 469.998 186.139 470.117 186.489C470.236 186.839 470.259 187.215 470.184 187.577C470.097 188.031 469.875 188.448 469.548 188.775C469.222 189.102 468.804 189.323 468.35 189.41C467.893 189.457 467.432 189.365 467.028 189.146C466.624 188.927 466.296 188.591 466.086 188.182C465.921 187.847 465.854 187.472 465.893 187.1C465.932 186.729 466.075 186.376 466.306 186.082C466.598 185.693 467.021 185.423 467.498 185.321C467.828 185.257 468.011 185.321 468.011 185.321C468.011 185.321 467.828 185.367 467.543 185.477C467.164 185.64 466.844 185.915 466.627 186.266C466.455 186.51 466.354 186.797 466.336 187.095C466.318 187.393 466.384 187.69 466.526 187.953C466.699 188.279 466.966 188.546 467.294 188.718C467.621 188.889 467.992 188.958 468.359 188.915C468.716 188.844 469.046 188.672 469.309 188.421C469.572 188.169 469.757 187.848 469.844 187.494C469.911 187.201 469.901 186.895 469.816 186.606C469.731 186.317 469.573 186.055 469.359 185.844C468.904 185.419 468.319 185.16 467.699 185.111V185.111Z" fill="#FAFAFA"/>
<path d="M455.259 169.736C455.259 169.736 455.424 169.636 455.764 169.654C456.246 169.685 456.703 169.883 457.056 170.213C457.339 170.452 457.552 170.763 457.673 171.113C457.794 171.464 457.818 171.84 457.744 172.202C457.658 172.657 457.437 173.075 457.11 173.402C456.783 173.729 456.365 173.95 455.91 174.036C455.452 174.088 454.989 173.998 454.584 173.779C454.179 173.559 453.852 173.22 453.646 172.808C453.477 172.475 453.408 172.101 453.447 171.73C453.486 171.359 453.632 171.007 453.866 170.717C454.156 170.328 454.575 170.055 455.048 169.947C455.388 169.892 455.571 169.947 455.562 169.947C455.553 169.947 455.388 169.993 455.103 170.103C454.707 170.252 454.369 170.525 454.141 170.882C453.967 171.127 453.865 171.415 453.846 171.715C453.827 172.014 453.891 172.313 454.031 172.578C454.204 172.905 454.472 173.172 454.799 173.343C455.126 173.515 455.497 173.584 455.864 173.541C456.223 173.473 456.554 173.302 456.817 173.05C457.081 172.798 457.266 172.475 457.35 172.12C457.417 171.825 457.408 171.517 457.323 171.227C457.238 170.936 457.08 170.673 456.864 170.461C456.423 170.05 455.859 169.796 455.259 169.736V169.736Z" fill="#FAFAFA"/>
<path d="M426.739 206.866C426.604 205.906 426.555 204.937 426.592 203.969C426.592 202.135 426.592 199.715 426.693 196.992C426.794 194.269 426.858 191.941 426.922 190.016C426.911 189.049 426.979 188.083 427.124 187.128C427.258 188.087 427.304 189.057 427.262 190.025C427.262 191.812 427.262 194.279 427.17 197.001C427.078 199.724 426.996 202.044 426.931 203.978C426.937 204.944 426.872 205.909 426.739 206.866Z" fill="#263238"/>
<path d="M483.79 200.137C483.651 200.189 483.506 200.223 483.359 200.238L482.121 200.458L477.473 201.191L470.442 202.245C469.103 202.438 467.691 202.667 466.206 202.86L461.576 203.41H461.347V203.171C461.109 201.118 460.925 198.954 460.614 196.754C460.109 192.784 459.633 189.007 459.193 185.56C458.647 182.525 458.682 179.414 459.294 176.392C459.972 173.853 460.925 171.854 462.044 170.837C462.45 170.433 462.938 170.121 463.474 169.92C463.658 169.843 463.853 169.793 464.052 169.773C463.36 170.034 462.734 170.444 462.218 170.974C460.919 172.564 460.042 174.456 459.669 176.475C459.103 179.477 459.103 182.558 459.669 185.56C460.119 188.998 460.586 192.766 461.127 196.726C461.43 198.945 461.613 201.136 461.851 203.199L461.595 202.988L466.179 202.465L470.414 201.897L477.464 200.98L482.121 200.384L483.377 200.238C483.511 200.189 483.649 200.156 483.79 200.137Z" fill="#263238"/>
<path opacity="0.3" d="M458.981 180.738C458.981 180.738 456.918 205.637 458.981 206.132C461.044 206.627 462.905 206.866 462.905 206.866C462.905 206.866 466.866 219.151 466.829 218.784C466.792 218.417 465.344 202.988 465.344 202.988L461.548 203.162L458.981 180.738Z" fill="black"/>
<path opacity="0.3" d="M426.738 189.466L423.117 202.502L426.977 205.289L426.738 189.466Z" fill="black"/>
<path d="M570.708 125.383C577.364 109.798 573.321 93.5982 562.384 80.69C556.805 74.2938 549.595 69.5322 541.522 66.9133C533.449 64.2945 524.816 63.9165 516.545 65.8199C514.331 53.408 507.621 42.2472 497.697 34.4706C487.773 26.694 475.332 22.8471 462.75 23.6649C450.169 24.4828 438.33 29.9082 429.497 38.9042C420.663 47.9001 415.454 59.8357 414.866 72.4299C409.211 73.3723 403.839 75.5697 399.145 78.8606C394.45 82.1516 390.553 86.4525 387.739 91.4473C384.925 96.4422 383.266 102.004 382.883 107.724C382.501 113.444 383.405 119.178 385.529 124.503L570.708 125.383Z" fill="#B8060D"/>
<path d="M493.479 85.6222C493.14 85.6222 493.323 82.5235 491.444 78.123C489.593 73.6942 486.277 70.0351 482.052 67.7574C477.827 65.4796 472.948 64.7212 468.231 65.609C465.502 66.1277 462.899 67.1707 460.567 68.6802C456.579 71.3113 454.938 73.97 454.69 73.7683C454.608 73.7133 454.901 72.9982 455.717 71.8614C456.879 70.2606 458.283 68.8503 459.879 67.6809C462.273 65.9215 465.014 64.6904 467.919 64.0688C471.5 63.2984 475.219 63.4566 478.722 64.5285C482.225 65.6004 485.396 67.5503 487.932 70.1929C489.981 72.3376 491.561 74.8852 492.571 77.6738C493.245 79.5385 493.629 81.4957 493.708 83.4769C493.681 84.8704 493.598 85.6314 493.479 85.6222Z" fill="white"/>
<path d="M483.358 78.1046C483.652 77.7287 488.336 80.8549 493.846 84.9987L494.149 85.2371L492.829 85.6313C495.056 79.2781 497.192 74.3091 497.632 74.465C498.072 74.6208 496.652 79.8281 494.442 86.1997L494.057 87.309L493.14 86.5939L492.838 86.3647C487.3 82.1751 483.074 78.4805 483.358 78.1046Z" fill="white"/>
<path d="M453.526 82.1109C453.875 82.1109 453.325 85.1179 454.581 89.5918C455.31 92.1847 456.516 94.619 458.138 96.7701C460.103 99.4023 462.672 101.524 465.628 102.958C466.396 103.34 467.186 103.677 467.993 103.967C468.809 104.196 469.597 104.471 470.404 104.627C474.606 105.547 478.988 105.16 482.964 103.518C484.659 102.821 486.271 101.935 487.768 100.877C488.85 100.135 489.418 99.658 489.519 99.7588C489.62 99.8597 489.18 100.465 488.189 101.391C486.785 102.704 485.186 103.792 483.45 104.618C480.856 105.88 478.026 106.583 475.144 106.68C473.44 106.744 471.736 106.605 470.065 106.268C469.194 106.103 468.332 105.819 467.443 105.58C466.568 105.268 465.711 104.907 464.876 104.499C461.984 103.088 459.45 101.04 457.463 98.5089C455.477 95.9778 454.09 93.0294 453.407 89.8852C453.177 88.8107 453.036 87.7191 452.985 86.6215C452.985 85.7047 452.985 84.7879 453.05 84.1553C453.251 82.8168 453.416 82.0926 453.526 82.1109Z" fill="white"/>
<path d="M462.657 90.8112C462.327 91.1504 458.073 87.5108 453.095 82.6886L452.82 82.4136L454.186 82.1844C451.189 88.2259 448.466 92.8923 448.044 92.6814C447.622 92.4706 449.685 87.4741 452.628 81.4234L453.141 80.3691L453.985 81.1942L454.269 81.4601C459.238 86.2915 462.987 90.472 462.657 90.8112Z" fill="white"/>
</svg>
