<svg width="183" height="195" viewBox="0 0 183 195" fill="none" xmlns="http://www.w3.org/2000/svg">
<path d="M0 81.3968L0 189.678C0 192.617 2.54858 195 5.69243 195H176.86C180.004 195 182.552 192.617 182.552 189.678V81.3968C182.552 78.4576 180.004 76.0749 176.86 76.0749L5.69243 76.0749C2.54858 76.0749 0 78.4576 0 81.3968Z" fill="#263238"/>
<path d="M12.4883 79.8251L12.4883 191.253H164.942V79.8251L12.4883 79.8251Z" fill="white"/>
<path d="M178.144 136.598C178.761 134.145 177.135 131.69 174.511 131.113C171.888 130.536 169.262 132.057 168.645 134.51C168.028 136.962 169.655 139.418 172.278 139.994C174.901 140.571 177.528 139.05 178.144 136.598Z" fill="#455A64"/>
<path d="M5.25391 118.189L5.25391 152.885C5.25391 153.196 5.52311 153.447 5.85519 153.447H6.66839C7.00047 153.447 7.26967 153.196 7.26967 152.885L7.26967 118.189C7.26967 117.879 7.00047 117.627 6.66839 117.627H5.85519C5.52311 117.627 5.25391 117.879 5.25391 118.189Z" fill="#455A64"/>
<path d="M55.735 145.205C59.4745 139.892 57.8998 132.752 52.2178 129.256C46.5358 125.76 38.8981 127.232 35.1586 132.544C31.4191 137.856 32.9939 144.997 38.6759 148.493C44.3579 151.989 51.9956 150.517 55.735 145.205Z" fill="#728089"/>
<path opacity="0.3" d="M55.735 145.205C59.4745 139.892 57.8998 132.752 52.2178 129.256C46.5358 125.76 38.8981 127.232 35.1586 132.544C31.4191 137.856 32.9939 144.997 38.6759 148.493C44.3579 151.989 51.9956 150.517 55.735 145.205Z" fill="white"/>
<path d="M41.1775 135.984C41.6408 135.947 42.0646 136.445 42.1238 137.063C42.1829 137.68 41.8428 138.228 41.3746 138.265C40.9064 138.302 40.4875 137.804 40.4333 137.192C40.3791 136.579 40.729 136.021 41.1775 135.984Z" fill="#263238"/>
<path d="M49.0237 135.833C48.5604 135.833 48.1563 136.293 48.1267 136.948C48.0971 137.602 48.4569 138.104 48.9251 138.123C49.3933 138.141 49.7975 137.662 49.8221 137.012C49.8468 136.362 49.4919 135.851 49.0237 135.833Z" fill="#263238"/>
<path d="M50.3695 141.173C50.3695 141.306 48.0728 141.417 45.2439 141.417C42.4149 141.417 40.1133 141.306 40.1133 141.173C40.1133 141.039 42.41 140.924 45.2439 140.924C48.0778 140.924 50.3695 141.03 50.3695 141.173Z" fill="#263238"/>
<path d="M42.1641 134.662C42.1345 134.8 41.548 134.796 40.863 134.897C40.1779 134.998 39.621 135.164 39.547 135.044C39.4731 134.925 39.9906 134.528 40.7841 134.413C41.5776 134.298 42.1641 134.533 42.1641 134.662Z" fill="#263238"/>
<path d="M51.247 135.219C51.1583 135.33 50.626 135.072 49.9409 134.879C49.2559 134.685 48.6644 134.616 48.6497 134.473C48.6349 134.33 49.3051 134.178 50.0937 134.409C50.8823 134.639 51.3406 135.123 51.247 135.219Z" fill="#263238"/>
<path d="M147.222 139.815C148.331 133.306 143.586 127.189 136.624 126.152C129.662 125.115 123.119 129.551 122.01 136.06C120.901 142.569 125.646 148.686 132.608 149.723C139.57 150.76 146.113 146.324 147.222 139.815Z" fill="#728089"/>
<path opacity="0.3" d="M147.222 139.815C148.331 133.306 143.586 127.189 136.624 126.152C129.662 125.115 123.119 129.551 122.01 136.06C120.901 142.569 125.646 148.686 132.608 149.723C139.57 150.76 146.113 146.324 147.222 139.815Z" fill="black"/>
<path d="M130.201 134.925C130.694 134.888 131.128 135.386 131.187 136.04C131.246 136.694 130.901 137.252 130.418 137.289C129.935 137.325 129.492 136.828 129.432 136.173C129.373 135.519 129.718 134.962 130.201 134.925Z" fill="#263238"/>
<path d="M138.319 134.768C137.826 134.768 137.417 135.266 137.387 135.92C137.358 136.574 137.732 137.118 138.215 137.136C138.698 137.155 139.117 136.639 139.147 135.984C139.176 135.33 138.807 134.786 138.319 134.768Z" fill="#263238"/>
<path d="M139.714 140.297C139.659 140.362 139.127 140.007 138.235 139.569C137.062 138.997 135.758 138.696 134.435 138.694C133.11 138.748 131.812 139.062 130.625 139.615C129.699 140.039 129.147 140.362 129.102 140.297C129.058 140.233 129.541 139.836 130.453 139.311C131.655 138.632 133.022 138.25 134.425 138.201C135.837 138.197 137.22 138.566 138.417 139.265C139.3 139.79 139.748 140.251 139.714 140.297Z" fill="#263238"/>
<path d="M131.178 133.552C131.222 133.602 131.138 133.754 130.927 133.925C130.649 134.159 130.308 134.318 129.941 134.385C129.567 134.452 129.181 134.412 128.832 134.27C128.571 134.16 128.452 134.031 128.482 133.971C128.512 133.911 129.147 134.031 129.847 133.902C130.547 133.773 131.084 133.441 131.178 133.552Z" fill="#263238"/>
<path d="M140.626 134.132C140.626 134.192 140.508 134.307 140.222 134.39C139.846 134.49 139.446 134.477 139.079 134.353C138.718 134.235 138.394 134.033 138.137 133.768C137.95 133.565 137.881 133.404 137.93 133.358C137.98 133.312 138.556 133.662 139.246 133.888C139.936 134.114 140.577 133.994 140.626 134.132Z" fill="#263238"/>
<path d="M110.142 171.058L113.1 169.69L115.988 171.192L115.505 168.137L117.925 166.036L114.667 165.52L113.277 162.718L111.749 165.455L108.472 165.824L110.778 168.031L110.142 171.058Z" fill="#E0E0E0"/>
<path d="M98.078 171.058L101.035 169.69L103.923 171.192L103.44 168.137L105.86 166.036L102.602 165.52L101.213 162.718L99.6847 165.455L96.4072 165.824L98.7138 168.031L98.078 171.058Z" fill="#728089"/>
<path d="M86.0126 171.058L88.9697 169.69L91.8529 171.192L91.3748 168.137L93.7947 166.036L90.5369 165.52L89.1471 162.718L87.6193 165.455L84.3418 165.824L86.6484 168.031L86.0126 171.058Z" fill="#728089"/>
<path d="M73.9481 171.058L76.9052 169.69L79.7884 171.192L79.3103 168.137L81.7302 166.036L78.4725 165.52L77.0826 162.718L75.5548 165.455L72.2773 165.824L74.5839 168.031L73.9481 171.058Z" fill="#728089"/>
<path d="M61.8817 171.058L64.8388 169.69L67.722 171.192L67.2439 168.137L69.6638 166.036L66.4061 165.52L65.0162 162.718L63.4884 165.455L60.2109 165.824L62.5175 168.031L61.8817 171.058Z" fill="#728089"/>
<path d="M118.062 103.164C118.062 103.233 104.824 103.288 88.491 103.288C72.1579 103.288 58.9199 103.233 58.9199 103.164C58.9199 103.095 72.153 103.044 88.491 103.044C104.829 103.044 118.062 103.099 118.062 103.164Z" fill="#263238"/>
<path d="M103.524 99.8461C103.524 99.9152 96.9885 99.9705 88.9255 99.9705C80.8624 99.9705 74.3223 99.9152 74.3223 99.8461C74.3223 99.777 80.8575 99.7217 88.9255 99.7217C96.9934 99.7217 103.524 99.777 103.524 99.8461Z" fill="#263238"/>
<path d="M107.038 140.018C109.886 131.754 105.029 122.895 96.1896 120.232C87.3499 117.569 77.8748 122.11 75.0265 130.375C72.1782 138.639 77.0351 147.497 85.8748 150.16C94.7146 152.823 104.19 148.282 107.038 140.018Z" fill="#B8060D"/>
<path d="M85.2185 131.22C85.8543 131.174 86.4309 131.828 86.5098 132.69C86.5886 133.552 86.1303 134.284 85.4945 134.335C84.8587 134.386 84.2771 133.727 84.2032 132.87C84.1293 132.013 84.5827 131.271 85.2185 131.22Z" fill="black"/>
<path d="M95.9086 131.035C95.2728 131.008 94.7208 131.69 94.6863 132.551C94.6518 133.413 95.1348 134.132 95.7706 134.155C96.4064 134.178 96.9584 133.501 96.9978 132.639C97.0372 131.777 96.5493 131.035 95.9086 131.035Z" fill="black"/>
<path d="M97.7425 136.174C97.7721 136.201 97.6341 136.362 97.363 136.634C96.977 137.023 96.5548 137.38 96.1013 137.699C95.4217 138.174 94.6733 138.558 93.8786 138.837C92.8936 139.182 91.8444 139.339 90.7933 139.298C89.75 139.246 88.7243 139.024 87.7623 138.643C86.9818 138.348 86.2341 137.982 85.5297 137.551C84.337 136.805 83.7061 136.224 83.7406 136.169C83.7751 136.114 84.5094 136.584 85.712 137.238C86.4214 137.616 87.1613 137.941 87.9249 138.21C88.8472 138.546 89.8201 138.743 90.8081 138.795C91.7917 138.834 92.7745 138.701 93.7061 138.404C94.4708 138.155 95.2007 137.821 95.8795 137.408C96.4512 137.04 96.9145 136.731 97.2152 136.487C97.5158 136.243 97.7179 136.151 97.7425 136.174Z" fill="black"/>
<path d="M85.9778 127.686C85.9482 127.824 85.1449 127.773 84.1888 127.916C83.2326 128.059 82.4835 128.331 82.4096 128.206C82.3356 128.082 83.0453 127.584 84.1099 127.432C85.1745 127.28 86.0271 127.557 85.9778 127.686Z" fill="black"/>
<path d="M99.5163 128.418C99.4226 128.529 98.7129 128.133 97.7568 127.866C96.8007 127.598 95.9776 127.543 95.9727 127.405C95.9677 127.267 96.8549 127.091 97.9145 127.405C98.9741 127.718 99.6099 128.322 99.5163 128.418Z" fill="black"/>
<path d="M84.0166 135.044C84.0806 135.044 84.189 135.196 84.2038 135.505C84.2117 135.895 84.0837 136.277 83.8391 136.593C83.6001 136.915 83.2535 137.155 82.8534 137.275C82.5479 137.358 82.3606 137.316 82.3359 137.275C82.3359 137.136 82.9569 136.934 83.4005 136.325C83.8441 135.717 83.8687 135.067 84.0166 135.044Z" fill="black"/>
<path d="M99.1668 136.492C99.1668 136.552 99.0386 136.648 98.7774 136.667C98.434 136.681 98.0959 136.584 97.8213 136.39C97.5407 136.201 97.3401 135.925 97.2545 135.612C97.2003 135.372 97.2545 135.22 97.3235 135.215C97.4714 135.215 97.6389 135.676 98.1318 135.994C98.6246 136.312 99.1323 136.353 99.1668 136.492Z" fill="black"/>
<path d="M111.582 135.045C111.582 135.045 111.582 134.939 111.552 134.727L111.488 133.805C111.488 133.603 111.464 133.372 111.449 133.123C111.434 132.874 111.36 132.603 111.316 132.308C111.272 132.013 111.212 131.695 111.153 131.359C111.082 130.998 110.992 130.641 110.882 130.29C110.394 128.464 109.613 126.718 108.566 125.11C107.199 122.967 105.404 121.09 103.277 119.581L102.376 118.959C102.06 118.766 101.73 118.586 101.39 118.397C101.05 118.208 100.734 118.001 100.375 117.849L99.2952 117.365L98.7482 117.121L98.1715 116.927L96.9986 116.526C96.6043 116.402 96.1853 116.324 95.7763 116.222C95.3642 116.107 94.9443 116.018 94.5195 115.955C93.6519 115.803 92.7742 115.708 91.8926 115.669C91.4441 115.669 90.9907 115.614 90.5373 115.623L89.1622 115.688C88.9306 115.688 88.6989 115.688 88.4673 115.729L87.7724 115.831C87.314 115.9 86.8409 115.95 86.3776 116.043C85.4368 116.237 84.5114 116.491 83.6078 116.803C82.6784 117.115 81.7728 117.486 80.8971 117.913C80.4584 118.139 80.0395 118.397 79.6058 118.637C79.3939 118.766 79.1672 118.872 78.9651 119.014L78.354 119.443C77.5261 120.018 76.7391 120.643 75.9981 121.314L74.9434 122.401L74.6773 122.678L74.4358 122.973L73.943 123.567L73.4501 124.161L73.0312 124.802L72.6123 125.447L72.4052 125.769L72.2278 126.106L71.5231 127.488L70.9612 128.926C69.5319 132.9 69.5319 137.203 70.9612 141.178C71.1534 141.638 71.3407 142.136 71.528 142.615C71.7153 143.094 71.9962 143.537 72.2328 143.998L72.4102 144.338L72.6172 144.661L73.0361 145.301L73.455 145.942L73.9479 146.541L74.4407 147.135L74.6773 147.43L74.9434 147.702L75.9981 148.79C76.7389 149.462 77.5258 150.088 78.354 150.665L78.97 151.089C79.1721 151.236 79.3988 151.342 79.6108 151.471C80.0445 151.711 80.4634 151.969 80.902 152.195C82.6363 153.034 84.478 153.662 86.3825 154.065C86.8458 154.158 87.3189 154.208 87.7822 154.277L88.4722 154.379C88.7039 154.406 88.9355 154.406 89.1671 154.42L90.5422 154.485C90.9956 154.485 91.449 154.452 91.8975 154.439C92.7792 154.4 93.6569 154.305 94.5244 154.153C94.9488 154.088 95.3685 153.999 95.7812 153.886C96.1952 153.784 96.6092 153.701 97.0084 153.582L98.1765 153.181L98.7531 152.987L99.3002 152.743L100.38 152.259C100.728 152.093 101.067 151.91 101.395 151.711C101.725 151.522 102.06 151.342 102.38 151.149L103.277 150.522C105.405 149.014 107.203 147.137 108.571 144.993C109.617 143.378 110.397 141.624 110.882 139.791C110.992 139.44 111.082 139.085 111.153 138.726C111.212 138.39 111.267 138.072 111.316 137.777C111.365 137.482 111.419 137.21 111.449 136.962C111.479 136.713 111.479 136.501 111.488 136.28C111.518 135.879 111.538 135.57 111.552 135.358C111.567 135.146 111.582 135.04 111.582 135.04C111.582 135.04 111.582 135.146 111.582 135.358C111.582 135.57 111.557 135.883 111.543 136.28C111.543 136.487 111.543 136.74 111.513 136.966C111.483 137.192 111.434 137.491 111.395 137.786C111.355 138.081 111.296 138.404 111.242 138.745C111.174 139.105 111.087 139.462 110.981 139.814C110.512 141.659 109.742 143.426 108.699 145.053C107.333 147.217 105.532 149.113 103.396 150.637L102.489 151.273C102.173 151.471 101.838 151.651 101.503 151.844C101.168 152.038 100.843 152.245 100.478 152.397L99.3938 152.89L98.8418 153.153L98.2603 153.351L97.0823 153.757C96.6782 153.886 96.2593 153.964 95.8453 154.07C95.4278 154.186 95.0031 154.278 94.5737 154.346C93.6964 154.5 92.8088 154.597 91.9173 154.637C91.4688 154.637 91.0104 154.697 90.552 154.692L89.1622 154.628C88.9256 154.628 88.6694 154.627 88.4574 154.586L87.7576 154.485C87.2894 154.416 86.8113 154.365 86.3431 154.273C85.3917 154.074 84.455 153.819 83.5388 153.508C82.5996 153.192 81.6841 152.818 80.7985 152.388C80.35 152.162 79.9262 151.9 79.4875 151.656C79.2632 151.54 79.046 151.412 78.837 151.273L78.216 150.84C77.3769 150.26 76.58 149.629 75.8306 148.951L74.7611 147.85L74.49 147.573L74.2485 147.274L73.7557 146.675L73.2628 146.066L72.839 145.421L72.4151 144.772L72.2032 144.444L72.0258 144.099L71.3111 142.717C71.1189 142.233 70.9316 141.744 70.7394 141.261C69.2939 137.236 69.2939 132.881 70.7394 128.857L71.3111 127.401L72.0258 126.018L72.2081 125.673L72.42 125.345L72.8439 124.696L73.2677 124.051L73.7606 123.447L74.2534 122.843L74.4949 122.544L74.7611 122.268C75.1209 121.904 75.4757 121.535 75.8306 121.171C76.5812 120.492 77.378 119.86 78.216 119.277L78.837 118.844C79.044 118.701 79.2707 118.591 79.4875 118.462C79.9262 118.222 80.355 117.959 80.7985 117.734C81.6841 117.303 82.5996 116.929 83.5388 116.614C84.455 116.303 85.3917 116.047 86.3431 115.849C86.8113 115.757 87.2894 115.706 87.7576 115.637L88.4574 115.536C88.6891 115.508 88.9256 115.508 89.1573 115.494L90.5471 115.43C91.0104 115.43 91.4638 115.467 91.9173 115.485C92.8088 115.525 93.6964 115.622 94.5737 115.775C95.0025 115.845 95.4269 115.935 95.8453 116.047C96.2593 116.158 96.6782 116.236 97.0774 116.36L98.2603 116.766L98.8418 116.969L99.3938 117.217L100.483 117.706C100.848 117.863 101.168 118.084 101.503 118.263C101.838 118.443 102.173 118.637 102.489 118.835L103.396 119.471C105.531 120.992 107.332 122.885 108.699 125.046C109.742 126.668 110.513 128.43 110.986 130.271C111.074 130.654 111.207 131.004 111.247 131.345C111.286 131.686 111.35 132.004 111.4 132.303C111.449 132.603 111.493 132.87 111.518 133.123C111.543 133.377 111.518 133.584 111.548 133.805C111.548 134.211 111.577 134.519 111.587 134.727C111.597 134.934 111.582 135.045 111.582 135.045Z" fill="#728089"/>
<path d="M164.942 79.8257H12.4883V86.9354H164.942V79.8257Z" fill="#E0E0E0"/>
<path d="M17.4078 83.1847C17.4078 83.3752 17.3474 83.5613 17.2342 83.7197C17.121 83.8781 16.9601 84.0015 16.7719 84.0744C16.5837 84.1473 16.3766 84.1664 16.1768 84.1292C15.977 84.092 15.7934 84.0003 15.6494 83.8656C15.5053 83.731 15.4072 83.5594 15.3674 83.3726C15.3277 83.1858 15.3481 82.9921 15.4261 82.8162C15.504 82.6402 15.6361 82.4898 15.8054 82.384C15.9748 82.2782 16.174 82.2217 16.3777 82.2217C16.6509 82.2217 16.9129 82.3231 17.1061 82.5037C17.2993 82.6843 17.4078 82.9293 17.4078 83.1847Z" fill="white"/>
<path d="M20.8277 83.1847C20.8277 83.3752 20.7673 83.5613 20.6541 83.7197C20.5409 83.8781 20.38 84.0015 20.1918 84.0744C20.0036 84.1473 19.7965 84.1664 19.5967 84.1292C19.3969 84.092 19.2133 84.0003 19.0693 83.8656C18.9252 83.731 18.8271 83.5594 18.7874 83.3726C18.7476 83.1858 18.768 82.9921 18.846 82.8162C18.9239 82.6402 19.056 82.4898 19.2254 82.384C19.3948 82.2782 19.5939 82.2217 19.7976 82.2217C20.0708 82.2217 20.3328 82.3231 20.526 82.5037C20.7192 82.6843 20.8277 82.9293 20.8277 83.1847Z" fill="white"/>
<path d="M24.2535 83.1847C24.2535 83.3752 24.1931 83.5613 24.0799 83.7197C23.9667 83.8781 23.8058 84.0015 23.6176 84.0744C23.4294 84.1473 23.2223 84.1664 23.0225 84.1292C22.8227 84.092 22.6391 84.0003 22.4951 83.8656C22.351 83.731 22.2529 83.5594 22.2132 83.3726C22.1734 83.1858 22.1938 82.9921 22.2718 82.8162C22.3497 82.6402 22.4818 82.4898 22.6511 82.384C22.8205 82.2782 23.0197 82.2217 23.2234 82.2217C23.4962 82.2229 23.7575 82.3247 23.9504 82.5051C24.1432 82.6854 24.2522 82.9297 24.2535 83.1847Z" fill="white"/>
<path d="M148.127 108.771C148.127 108.84 121.676 108.896 89.0489 108.896C56.4221 108.896 29.9658 108.84 29.9658 108.771C29.9658 108.702 56.4172 108.651 89.0489 108.651C121.681 108.651 148.127 108.707 148.127 108.771Z" fill="#E0E0E0"/>
<path d="M148.127 111.513C148.127 111.577 121.676 111.632 89.0489 111.632C56.4221 111.632 29.9658 111.577 29.9658 111.513C29.9658 111.448 56.4172 111.388 89.0489 111.388C121.681 111.388 148.127 111.443 148.127 111.513Z" fill="#E0E0E0"/>
<path d="M70.6004 76.8261C70.6004 76.8261 69.5605 74.619 69.3633 74.1352C68.836 72.8128 65.4205 63.9522 66.2436 62.6159C70.0237 56.4093 72.9562 52.0182 80.413 52.0182L93.587 51.9353C93.587 51.9353 106.066 49.5577 114.863 76.0981L70.6004 76.8261Z" fill="#455A64"/>
<path d="M42.8138 79.0465L60.0637 75.5723L80.3396 65.6058L80.4135 51.9993C77.3726 51.216 71.5422 53.1881 61.0691 58.1782L45.4999 65.6934C44.2532 66.2941 43.1696 67.1529 42.3316 68.2044C41.4937 69.2559 40.9235 70.4723 40.6644 71.761C40.4054 73.0496 40.4643 74.3766 40.8368 75.6407C41.2093 76.9049 41.8855 78.0729 42.8138 79.0558V79.0465Z" fill="#455A64"/>
<path d="M81.6312 105.384C81.3798 104.62 81.5523 104.127 82.745 104.504C85.3768 105.329 87.7277 105.057 88.2994 104.583C88.8711 104.108 88.3487 103.2 87.4912 103.269C86.5548 103.267 85.6231 103.146 84.7213 102.91C83.9893 102.747 83.2914 102.472 82.6563 102.095C82.1043 101.767 81.6312 101.459 81.2122 101.173C81.2122 101.173 78.7825 99.5326 78.0235 98.2148L69.6992 101.546L71.0398 105.444C71.199 106.128 71.5405 106.762 72.0325 107.289C72.5245 107.816 73.1511 108.218 73.854 108.458C76.2344 109.181 80.0195 108.919 80.0195 108.919C80.7145 108.495 83.3906 112.116 84.2038 113.393C85.017 114.669 85.9781 114.83 86.2935 114.052C86.5055 113.517 84.125 109.55 83.297 108.301C82.6287 107.386 82.07 106.405 81.6312 105.375" fill="#B77153"/>
<path d="M75.9924 108.919C75.9924 108.946 75.7854 108.919 75.4995 108.808C75.1298 108.632 74.8257 108.356 74.6271 108.016C74.4233 107.678 74.3291 107.292 74.3561 106.905C74.3857 106.61 74.4842 106.444 74.5138 106.444C74.4768 106.945 74.597 107.444 74.8597 107.881C75.1224 108.318 75.5161 108.674 75.9924 108.905V108.919Z" fill="#995037"/>
<path d="M78.634 109.034C78.634 109.061 78.4369 109.034 78.1707 108.909C77.8254 108.728 77.5431 108.458 77.3575 108.13C77.167 107.805 77.0782 107.436 77.1012 107.066C77.1308 106.785 77.2146 106.605 77.2491 106.638C77.2643 107.115 77.3798 107.584 77.5892 108.02C77.8657 108.416 78.2202 108.76 78.634 109.034Z" fill="#995037"/>
<path d="M42.3213 78.5077C42.3213 78.5077 68.748 106.9 68.7135 106.43C68.679 105.96 80.5419 97.6758 80.5419 97.6758L54.6524 68.8315L42.3213 78.5077Z" fill="#455A64"/>
<path d="M58.3486 72.9419C58.3486 72.9419 58.4176 72.9926 58.5359 73.1078L59.0288 73.6238L60.803 75.5406C62.2816 77.1626 64.3368 79.4203 66.5842 81.9223C68.8316 84.4243 70.8572 86.7005 72.3111 88.3731L74.0213 90.3406L74.4797 90.8843C74.5782 91.0087 74.6324 91.0779 74.6226 91.0825C74.5546 91.0346 74.4933 90.9788 74.4402 90.9166L73.9474 90.4005C73.4989 89.9397 72.9025 89.2716 72.1731 88.4837C70.6946 86.8618 68.6344 84.604 66.387 82.102C64.1396 79.6 62.1189 77.3238 60.6601 75.6512L58.9499 73.6837C58.7676 73.4672 58.6148 73.2875 58.4965 73.14C58.439 73.0797 58.3894 73.0132 58.3486 72.9419Z" fill="#263238"/>
<path d="M105.096 76.2043C105.274 75.6029 105.38 74.9846 105.411 74.3612C105.427 73.6229 105.283 72.8892 104.986 72.2048C104.69 71.5204 104.247 70.8995 103.686 70.3801C103.045 69.7488 102.355 69.2051 101.798 68.6338C101.288 68.1364 100.887 67.5511 100.616 66.9105C100.43 66.4717 100.355 65.9984 100.399 65.5282C100.409 65.3568 100.456 65.1891 100.537 65.0352C100.448 65.6444 100.535 66.2646 100.788 66.8322C101.076 67.4393 101.479 67.9933 101.976 68.4679C102.528 69.0162 103.218 69.5507 103.873 70.1958C104.513 70.7964 105 71.524 105.298 72.3246C105.534 72.9766 105.636 73.6645 105.598 74.352C105.576 74.8139 105.481 75.2702 105.317 75.7066C105.273 75.8829 105.199 76.051 105.096 76.2043Z" fill="#263238"/>
<path d="M69.4529 54.3632C69.4529 54.3632 69.586 54.2987 69.8374 54.1927C70.0887 54.0867 70.4781 53.9531 70.9808 53.8057C71.5975 53.6282 72.2314 53.5079 72.8733 53.4463C73.7316 53.3592 74.5998 53.4344 75.4263 53.6674C76.4281 53.9651 77.3277 54.5057 78.0335 55.2341C78.8355 56.086 79.3829 57.1207 79.6205 58.2337C79.9184 59.4414 80.0033 60.6865 79.8718 61.9198C79.7147 63.2445 79.2065 64.5115 78.3933 65.606C77.5342 66.6651 76.4608 67.556 75.2341 68.2278C74.0759 68.9097 72.9127 69.4627 71.8088 70.0064L65.9389 72.8908L61.9961 74.8122L60.9118 75.3237C60.7882 75.3896 60.6577 75.4436 60.5225 75.485C60.639 75.4084 60.7608 75.3391 60.8872 75.2776L61.9468 74.7247L65.8896 72.7341L71.725 69.8082C72.824 69.2599 73.9921 68.6978 75.1306 68.0205C76.3265 67.3629 77.3743 66.4944 78.2158 65.4632C79.0023 64.3964 79.4903 63.1623 79.6352 61.8738C79.7636 60.6719 79.6854 59.4585 79.4036 58.2798C79.1879 57.2101 78.6784 56.2114 77.9251 55.3815C77.2515 54.6697 76.3873 54.1385 75.4214 53.8425C74.6254 53.6089 73.7883 53.5228 72.9571 53.5891C72.3219 53.6398 71.6932 53.7462 71.0793 53.907C70.5865 54.0407 70.1873 54.1605 69.9261 54.248C69.7739 54.3042 69.6151 54.3429 69.4529 54.3632Z" fill="#263238"/>
<path d="M61.2564 75.5448C61.1677 75.5679 60.9509 73.9137 59.7779 72.2503C58.6049 70.5869 57.1066 69.7115 57.1658 69.647C57.5263 69.7802 57.8597 69.9704 58.1515 70.2091C59.614 71.2911 60.6535 72.7942 61.1086 74.4851C61.2228 74.8277 61.2728 75.1863 61.2564 75.5448Z" fill="#263238"/>
<path d="M100.094 72.4579C99.9114 72.5214 99.7233 72.5692 99.5318 72.6007C98.9831 72.6997 98.4218 72.723 97.8659 72.6699C96.982 72.5844 96.1281 72.3219 95.3623 71.9004C94.3427 71.3328 93.5354 70.4847 93.0508 69.4721C92.4523 68.2414 92.3389 66.8524 92.7304 65.5509C92.9511 64.8131 93.4456 64.1728 94.1252 63.7447C94.4964 63.5145 94.9484 63.427 95.3869 63.5005C95.8281 63.5959 96.2171 63.8384 96.481 64.1824C96.9681 64.9079 97.2741 65.7265 97.3765 66.5776C97.4789 67.4287 97.375 68.2904 97.0725 69.0989C96.7781 69.9639 96.2718 70.7528 95.5939 71.4027C94.8832 72.067 93.9974 72.5439 93.0261 72.785C92.0694 73.0319 91.0613 73.0481 90.0961 72.8322C89.1308 72.6162 88.2398 72.1752 87.5062 71.5502C86.8523 70.949 86.3614 70.2106 86.0743 69.3964C85.7871 68.5822 85.712 67.7156 85.8551 66.8687C85.9805 66.08 86.3198 65.3344 86.8409 64.7031C87.1011 64.3946 87.44 64.1522 87.8266 63.9981C88.2148 63.8481 88.6508 63.8481 89.039 63.9981C89.389 64.1513 89.6912 64.386 89.9164 64.6797C90.1416 64.9734 90.2824 65.3162 90.3253 65.6753C90.3798 66.3244 90.2416 66.9749 89.9261 67.5553C89.403 68.5402 88.6914 69.4272 87.8266 70.1725C87.1794 70.7343 86.4551 71.2131 85.6728 71.5963C85.1806 71.8401 84.666 72.0422 84.1351 72.1999C83.9577 72.2552 83.8147 72.2828 83.7211 72.3058C83.6733 72.321 83.6236 72.3303 83.5732 72.3335C83.6162 72.3102 83.6628 72.2931 83.7112 72.2828C83.8049 72.2506 83.9429 72.2137 84.1203 72.1492C84.6387 71.975 85.1413 71.7623 85.6235 71.5133C86.3882 71.1189 87.0955 70.6342 87.728 70.0711C88.566 69.331 89.2539 68.4552 89.7585 67.4862C90.0511 66.9321 90.1772 66.3142 90.1232 65.6984C90.0813 65.3746 89.9522 65.0661 89.7479 64.8018C89.5436 64.5374 89.2708 64.3259 88.9552 64.1871C88.6206 64.058 88.245 64.058 87.9103 64.1871C87.5613 64.3289 87.2562 64.5508 87.0232 64.8321C86.5215 65.4335 86.1955 66.1464 86.0769 66.901C85.9428 67.7103 86.0168 68.5378 86.2927 69.315C86.5687 70.0923 87.0387 70.7969 87.6639 71.3705C88.3671 71.9604 89.2182 72.3748 90.1383 72.5754C91.0584 72.7759 92.0178 72.7561 92.9276 72.5178C93.8572 72.3005 94.7079 71.8551 95.3918 71.2276C96.0453 70.6122 96.5364 69.8628 96.826 69.039C97.1072 68.2423 97.2063 67.3994 97.1168 66.5646C97.0793 66.1609 96.9882 65.7631 96.8457 65.3804C96.7273 65.0048 96.5405 64.651 96.2937 64.3345C96.0634 64.0321 95.7238 63.8177 95.3376 63.7309C94.9589 63.6663 94.5681 63.7423 94.2484 63.9428C93.6102 64.3325 93.1418 64.9223 92.9276 65.6062C92.5404 66.8614 92.6381 68.2039 93.2036 69.3984C93.6642 70.3876 94.4405 71.2196 95.4263 71.7806C96.1695 72.205 97.0014 72.4752 97.8659 72.5731C98.6102 72.6507 99.3631 72.6118 100.094 72.4579Z" fill="#FAFAFA"/>
<path d="M102.085 44.8118C101.524 44.1728 101.121 43.4252 100.907 42.6232C100.818 42.3651 100.808 42.0892 100.877 41.826C100.913 41.6937 100.995 41.5763 101.11 41.4928C101.225 41.4092 101.367 41.3643 101.513 41.3652C101.809 41.3652 102.006 41.6463 102.169 41.8813C102.651 42.5594 103.057 43.282 103.381 44.0377C103.476 44.2443 103.525 44.467 103.524 44.692C103.523 44.8043 103.491 44.9145 103.431 45.0121C103.372 45.1097 103.287 45.1914 103.184 45.2496C103.063 45.2987 102.929 45.3161 102.798 45.2999C102.667 45.2836 102.543 45.2344 102.44 45.1574C102.241 45.0002 102.075 44.8114 101.947 44.5999" fill="#995037"/>
<path d="M103.351 44.2998L102.05 41.7472C101.903 41.5031 101.81 41.2333 101.779 40.9546C101.766 40.8146 101.8 40.6744 101.875 40.5525C101.949 40.4307 102.062 40.3331 102.198 40.2727C102.324 40.2389 102.457 40.2373 102.583 40.2681C102.71 40.2989 102.825 40.3609 102.917 40.4478C103.103 40.6196 103.252 40.8229 103.356 41.0468L103.972 42.1665C104.155 42.4632 104.291 42.7828 104.376 43.1156C104.418 43.2833 104.422 43.4574 104.387 43.6265C104.352 43.7956 104.28 43.956 104.174 44.0971C104.061 44.2335 103.902 44.3294 103.722 44.3688C103.543 44.4083 103.354 44.3888 103.189 44.3136" fill="#995037"/>
<path d="M97.5607 52.1931C97.5607 52.1931 95.747 49.9952 95.5893 48.8387C95.4316 47.6822 96.9446 45.6133 100.202 45.1525C101.391 45.0358 102.537 44.6705 103.554 44.0835C103.754 43.9565 103.901 43.7689 103.97 43.5523C104.039 43.3357 104.026 43.1035 103.933 42.8947C103.504 41.9225 102.736 40.1301 102.795 39.8767C102.948 39.2547 103.381 39.2685 104.505 40.7982C105.629 42.328 106.935 43.9038 106.683 44.6134C106.432 45.323 102.46 47.5209 102.46 47.5209L103.544 49.1566L97.5607 52.1931Z" fill="#B77153"/>
<path d="M108.334 74.7894L95.8301 51.8845L103.883 47.6685L120.798 72.7344C120.798 72.7344 121.69 74.3379 122.937 76.2132H108.758" fill="#455A64"/>
<path d="M103.77 47.6685C103.77 47.6685 103.726 47.7053 103.632 47.7606L103.208 48.0002L101.592 48.8803L95.7762 51.9767L95.8206 51.8384C97.0379 54.1423 98.62 56.8378 100.212 59.7545C102.583 64.0627 104.648 68.0115 106.077 70.8867C106.796 72.3243 107.368 73.4947 107.757 74.301C107.94 74.6927 108.088 75.0014 108.196 75.2226C108.255 75.3283 108.301 75.4395 108.334 75.5543C108.26 75.4562 108.198 75.3512 108.147 75.241C108.029 75.0106 107.866 74.7065 107.654 74.3195L105.899 70.9374C104.421 68.0852 102.341 64.1502 99.9852 59.842C98.3933 56.93 96.8211 54.2437 95.6235 51.9122L95.5791 51.82L95.6727 51.7693L101.533 48.7513L103.184 47.9173L103.622 47.7053C103.67 47.6869 103.719 47.6745 103.77 47.6685Z" fill="#263238"/>
<path d="M70.6004 76.8261C69.5208 75.1836 68.8114 73.3523 68.5156 71.4443C68.5945 71.4443 68.9345 72.67 69.5013 74.1491C70.0681 75.6281 70.6694 76.7939 70.6004 76.8261Z" fill="#263238"/>
<path d="M98.1416 43.0609C99.1351 43.4376 100.233 43.5012 101.268 43.2419C102.304 42.9827 103.221 42.4149 103.88 41.6245C104.54 40.8341 104.905 39.8643 104.922 38.8621C104.938 37.86 104.605 36.8801 103.972 36.071C106.796 35.4029 108.556 32.3572 107.984 29.6847C107.412 27.0123 104.864 24.9296 102.015 24.3536C100.926 24.1094 99.7877 24.1365 98.7133 24.4319C98.1792 24.5852 97.6847 24.8399 97.2607 25.18C96.8366 25.5201 96.4922 25.9384 96.249 26.4086" fill="#263238"/>
<path d="M97.7418 37.089C97.7418 37.1167 97.3771 37.1812 96.7808 37.4715C95.942 37.8888 95.2773 38.5573 94.8932 39.3698C94.6109 39.9645 94.4919 40.6156 94.547 41.2642C94.602 41.9127 94.8295 42.5381 95.2086 43.0837C95.4249 43.3987 95.6907 43.6814 95.9972 43.9223C96.3116 44.1777 96.6676 44.3846 97.0518 44.5351C97.8602 44.8625 98.7592 44.9403 99.6181 44.7571C100.477 44.574 101.251 44.1395 101.828 43.5168C102.102 43.2239 102.327 42.8928 102.493 42.5353C102.655 42.194 102.763 41.8323 102.813 41.4617C102.885 40.9202 102.835 40.3707 102.668 39.848C102.5 39.3253 102.219 38.8408 101.841 38.425C101.463 38.0093 100.996 37.6714 100.472 37.4327C99.9469 37.194 99.3748 37.0597 98.7916 37.0383C98.1164 37.0153 97.7468 37.1167 97.7418 37.0844C97.8268 37.0503 97.9164 37.0271 98.008 37.0153C98.2655 36.9638 98.5283 36.9391 98.7916 36.9416C99.6272 36.9433 100.444 37.1714 101.144 37.5983C101.844 38.0252 102.396 38.6325 102.734 39.3468C103.052 40.0176 103.17 40.7565 103.074 41.4848C103.031 41.8784 102.92 42.2628 102.744 42.6229C102.574 43.0049 102.337 43.3583 102.044 43.6688C101.434 44.3328 100.612 44.7962 99.6995 44.9911C98.7866 45.186 97.831 45.1021 96.973 44.7516C96.5668 44.5883 96.1909 44.3659 95.8592 44.0927C95.5355 43.8383 95.2561 43.5383 95.0312 43.2035C94.6116 42.5841 94.3753 41.8718 94.3461 41.1392C94.3187 40.3628 94.5315 39.5955 94.959 38.9294C95.3865 38.2633 96.0105 37.7267 96.7561 37.3839C96.9927 37.2723 97.2425 37.1872 97.5003 37.1305C97.5789 37.1082 97.6599 37.0942 97.7418 37.089Z" fill="#728089"/>
<path d="M99.8809 29.8272C100.909 29.7725 101.892 29.4129 102.687 28.8004C103.482 28.1879 104.048 27.3545 104.301 26.4212C104.555 25.4879 104.484 24.5032 104.099 23.6102C103.713 22.7171 103.033 21.9622 102.158 21.4549C102.582 20.3432 102.621 19.1349 102.27 18.001C101.92 16.8672 101.196 15.8653 100.202 15.1371C99.2087 14.4089 97.9953 13.9913 96.7338 13.9435C95.4723 13.8956 94.2267 14.22 93.1732 14.8705C92.3722 13.5426 91.1555 12.4759 89.6867 11.8137C88.2179 11.1515 86.5674 10.9257 84.9573 11.1665C83.3471 11.4074 81.8544 12.1034 80.6799 13.161C79.5055 14.2185 78.7055 15.587 78.3876 17.0822C76.944 16.5243 75.3532 16.389 73.8256 16.6943C72.298 16.9996 70.9054 17.7311 69.8319 18.7921C68.7584 19.8531 68.0546 21.1937 67.8135 22.6367C67.5723 24.0796 67.8052 25.557 68.4813 26.8736C66.901 26.9995 65.4389 27.7071 64.4167 28.8408C63.3944 29.9746 62.8958 31.4415 63.0304 32.9189C63.165 34.3964 63.9219 35.7633 65.1346 36.719C66.3472 37.6747 67.9163 38.1409 69.4966 38.0151C69.1773 38.99 69.1891 40.0334 69.5304 41.0018C69.8718 41.9702 70.5258 42.8158 71.4025 43.4222C72.2793 44.0286 73.3355 44.3659 74.4258 44.3878C75.5162 44.4097 76.5869 44.115 77.4907 43.5443C78.068 44.4143 78.8979 45.1129 79.8837 45.5587C80.8695 46.0045 81.9705 46.1792 83.0584 46.0623C84.1463 45.9454 85.1763 45.5419 86.0282 44.8986C86.8801 44.2554 87.5189 43.399 87.8701 42.4293" fill="#263238"/>
<path d="M93.9474 51.4467C94.0509 49.2028 94.179 47.1708 94.179 47.1708C94.179 47.1708 99.5462 46.5395 99.7778 41.4203C100.009 36.3012 99.4624 24.5147 99.4624 24.5147L89.6054 20.082L78.9795 28.081L80.6453 51.5804C80.7621 53.2085 81.5565 54.7291 82.8584 55.8161C84.1602 56.9032 85.8657 57.4701 87.6093 57.3953C89.2688 57.321 90.8388 56.6697 92.0113 55.5693C93.1838 54.4688 93.8743 52.9985 93.9474 51.4467Z" fill="#B77153"/>
<path d="M99.2016 33.2785C99.1129 33.3661 98.6003 32.9652 97.866 32.9376C97.1316 32.9099 96.5846 33.2601 96.5106 33.168C96.4367 33.0758 96.5599 32.9698 96.7965 32.804C97.1146 32.596 97.4981 32.4938 97.8857 32.5137C98.2743 32.5285 98.6469 32.6629 98.9453 32.8961C99.1671 33.0804 99.241 33.2417 99.2016 33.2785Z" fill="#263238"/>
<path d="M91.059 33.2785C90.9702 33.3661 90.4626 32.9652 89.7233 32.9376C88.9841 32.9099 88.4468 33.2601 88.368 33.168C88.2891 33.0758 88.4173 32.9698 88.6538 32.804C88.9719 32.596 89.3555 32.4938 89.7431 32.5137C90.1317 32.5285 90.5042 32.6629 90.8027 32.8961C91.0245 33.0804 91.0984 33.2417 91.059 33.2785Z" fill="#263238"/>
<path d="M93.8185 38.4434C94.2074 38.3351 94.6104 38.2777 95.0161 38.2729C95.2034 38.2729 95.3808 38.2269 95.4153 38.1024C95.4352 37.9088 95.3959 37.7139 95.302 37.5403C95.1311 37.0795 94.9537 36.5957 94.7697 36.0889C94.0304 34.02 93.5031 32.3244 93.5869 32.2967C93.6707 32.2691 94.3311 33.9233 95.0654 35.9829L95.5583 37.4435C95.6693 37.6764 95.6986 37.936 95.6421 38.1854C95.6136 38.2483 95.5705 38.3045 95.516 38.3499C95.4614 38.3953 95.3967 38.4288 95.3266 38.448C95.2238 38.4732 95.1175 38.4841 95.0112 38.4803C94.6137 38.5177 94.2126 38.5053 93.8185 38.4434Z" fill="#263238"/>
<path d="M94.1782 47.1753C91.6347 47.1131 89.1661 46.3572 87.0762 45.0005C87.0762 45.0005 88.7469 48.7281 94.0845 48.4332L94.1782 47.1753Z" fill="#995037"/>
<path d="M86.56 20.3678C85.7051 21.5216 85.2553 22.8955 85.273 24.299C85.2906 25.7025 85.7749 27.0662 86.6586 28.2009C87.457 29.1777 88.6596 29.9748 89.9755 29.9288C91.2914 29.8827 92.5629 28.7215 92.282 27.5189C92.154 27.8964 92.122 28.2966 92.1886 28.6877C92.2552 29.0788 92.4185 29.4499 92.6656 29.7716C92.9127 30.0932 93.2368 30.3565 93.6119 30.5404C93.987 30.7243 94.4029 30.8237 94.8264 30.8309C95.2499 30.838 95.6694 30.7525 96.0513 30.5813C96.4333 30.4101 96.7672 30.1579 97.0265 29.8448C97.2858 29.5317 97.4633 29.1662 97.5449 28.7776C97.6265 28.389 97.6099 27.988 97.4964 27.6065C97.5989 28.1592 97.8076 28.69 98.1124 29.1731C98.2685 29.4141 98.4917 29.611 98.7583 29.7425C99.0248 29.874 99.3246 29.9352 99.6255 29.9195C100.449 29.8182 100.927 28.998 101.104 28.2285C101.359 27.0838 101.301 25.8975 100.935 24.7794C100.569 23.6614 99.9063 22.6479 99.0094 21.833C98.0986 21.035 97.0199 20.4233 95.842 20.0369C94.6642 19.6506 93.4131 19.498 92.1687 19.5891C89.6653 19.7951 87.3043 20.7667 85.4511 22.3537" fill="#263238"/>
<path d="M87.2547 22.1738C87.949 23.6251 88.3245 25.192 88.3587 26.7815C88.3882 28.3799 87.7519 29.9264 86.5844 31.0944C85.9935 31.6629 85.2422 32.063 84.4177 32.2481C83.5933 32.4333 82.7296 32.3959 81.9269 32.1403C82.1431 32.8263 82.1942 33.5485 82.0766 34.2551C81.959 34.9617 81.6756 35.6352 81.2468 36.2274C80.3301 37.3655 78.5263 37.9092 77.1906 37.2226C75.9782 36.6052 75.4558 35.2321 75.2882 33.9511C75.087 32.3964 75.261 30.8192 75.7976 29.3357C76.3343 27.8521 77.2198 26.4998 78.389 25.3784C79.5583 24.2569 80.9816 23.3948 82.5542 22.8554C84.1269 22.316 85.8089 22.113 87.4765 22.2614" fill="#263238"/>
<path d="M80.4831 34.3705C79.7537 33.9466 78.7581 34.2922 78.1765 34.8866C77.7187 35.3565 77.4358 35.9524 77.3702 36.5851C77.3046 37.2178 77.4597 37.8534 77.8125 38.3968C78.1652 38.9403 78.6966 39.3624 79.3272 39.6C79.9578 39.8377 80.6538 39.8782 81.3111 39.7155" fill="#B77153"/>
<path d="M80.3144 38.181C80.3144 38.2086 80.0729 38.2409 79.6934 38.1441C79.4421 38.0833 79.2095 37.9683 79.0144 37.8082C78.8192 37.6482 78.6669 37.4476 78.5697 37.2226C78.4701 36.9553 78.4806 36.6629 78.5993 36.4024C78.6989 36.1997 78.8556 36.026 79.0527 35.9002C79.3927 35.6928 79.649 35.6974 79.654 35.7251C79.6589 35.7527 79.4322 35.8218 79.1611 36.0384C78.9889 36.1672 78.8631 36.3423 78.8005 36.54C78.738 36.7377 78.7417 36.9486 78.8112 37.1443C78.8973 37.339 79.0253 37.5152 79.1872 37.6618C79.3491 37.8085 79.5415 37.9224 79.7525 37.9967C80.1123 38.1119 80.3193 38.1441 80.3144 38.181Z" fill="#995037"/>
<path d="M91.5127 31.1449C91.4437 31.3431 90.6404 31.2693 89.6892 31.3108C88.738 31.3523 87.9445 31.4629 87.8607 31.2693C87.7769 31.0758 88.5507 30.6104 89.6596 30.5736C90.7685 30.5367 91.5867 30.956 91.5127 31.1449Z" fill="#263238"/>
<path d="M99.1813 31.0022C99.0975 31.0713 98.9348 31.0022 98.7426 30.9792C98.5233 30.9298 98.2964 30.9173 98.0724 30.9423C97.7865 30.9423 97.4711 31.016 97.2296 31.0114C96.9881 31.0068 96.8205 30.9607 96.7909 30.8594C96.7614 30.758 96.8698 30.6382 97.0719 30.5092C97.3529 30.3415 97.6718 30.2374 98.0034 30.2051C98.197 30.1815 98.3939 30.2009 98.578 30.2617C98.7621 30.3225 98.9283 30.4231 99.063 30.5553C99.2454 30.7626 99.2601 30.9377 99.1813 31.0022Z" fill="#263238"/>
<path d="M92.5432 39.7521C92.746 39.6294 92.9749 39.5493 93.214 39.5175C93.4531 39.4857 93.6968 39.5028 93.9281 39.5678C94.1568 39.6418 94.3506 39.7883 94.4757 39.9819C94.6009 40.1755 94.6495 40.404 94.6132 40.6276C94.546 40.8677 94.3885 41.077 94.1696 41.2174C94.01 41.3329 93.826 41.4156 93.6299 41.46C93.4337 41.5045 93.2297 41.5098 93.0312 41.4754C92.8322 41.4384 92.6478 41.3516 92.4977 41.2241C92.3475 41.0967 92.2372 40.9335 92.1785 40.752C92.1296 40.5684 92.1471 40.3748 92.2282 40.2014C92.3094 40.028 92.4496 39.8847 92.627 39.7936" fill="#995037"/>
<path d="M95.2337 40.3007C95.2337 40.3007 95.0563 40.4436 94.7064 40.5127C94.2403 40.6032 93.7558 40.5598 93.3166 40.3883C92.8784 40.2153 92.5046 39.9251 92.2421 39.5543C92.045 39.2732 92.0056 39.0659 92.0351 39.052C92.0647 39.0382 92.1731 39.2133 92.39 39.4529C92.6699 39.7588 93.0204 40.0014 93.4151 40.1625C93.8153 40.3123 94.2471 40.3737 94.6768 40.3422C95.012 40.3192 95.219 40.2639 95.2337 40.3007Z" fill="#263238"/>
<path d="M84.12 42.7427C84.0855 42.7427 84.12 42.3833 83.9327 41.7751C83.6847 40.9193 83.1362 40.1664 82.3753 39.6371C81.857 39.2722 81.2544 39.026 80.6158 38.9183C79.8842 38.7967 79.1313 38.8571 78.4325 39.0934C78.0556 39.2207 77.7016 39.4009 77.3827 39.6279C77.0457 39.8564 76.751 40.135 76.5104 40.4527C75.9888 41.1158 75.7074 41.9173 75.7074 42.7404C75.7074 43.5635 75.9888 44.3651 76.5104 45.0281C76.751 45.3458 77.0457 45.6245 77.3827 45.8529C77.7016 46.0799 78.0556 46.2602 78.4325 46.3874C78.9809 46.5733 79.5645 46.6505 80.1465 46.6143C80.7285 46.5781 81.2961 46.4292 81.8132 46.1771C82.3304 45.9249 82.7859 45.575 83.1507 45.1496C83.5156 44.7242 83.7819 44.2325 83.9327 43.7057C84.1052 43.0975 84.0855 42.7381 84.12 42.7427C84.1275 42.8271 84.1275 42.9118 84.12 42.9961C84.1195 43.2429 84.0881 43.4888 84.0264 43.7288C83.8054 44.6248 83.2584 45.4213 82.4788 45.9819C81.942 46.374 81.3139 46.6424 80.6454 46.7653C79.8745 46.9037 79.078 46.8464 78.3389 46.5994C77.9392 46.468 77.5635 46.28 77.225 46.0418C76.8661 45.8007 76.5515 45.5066 76.2935 45.171C75.7339 44.4686 75.4316 43.6162 75.4316 42.7404C75.4316 41.8646 75.7339 41.0122 76.2935 40.3099C76.5515 39.9743 76.8661 39.6801 77.225 39.439C77.5635 39.2008 77.9392 39.0128 78.3389 38.8815C79.0284 38.648 79.77 38.5822 80.4942 38.6902C81.2183 38.7982 81.9013 39.0765 82.4788 39.4989C83.2584 40.0596 83.8054 40.856 84.0264 41.7521C84.0881 41.992 84.1195 42.2379 84.12 42.4847C84.1276 42.5706 84.1276 42.6569 84.12 42.7427Z" fill="#728089"/>
<path d="M99.1759 19.833C99.2236 19.836 99.2703 19.847 99.3139 19.8653C99.4423 19.9126 99.5596 19.9831 99.6589 20.0726C99.845 20.2457 99.9825 20.4591 100.059 20.6938C100.136 20.9286 100.149 21.1774 100.098 21.4181C99.993 21.7837 99.7755 22.1125 99.4722 22.3632C99.1689 22.614 98.7933 22.7757 98.3923 22.828C97.3781 22.9419 96.3538 22.7131 95.5042 22.1829L94.4889 21.6346L95.6028 21.9756C95.7943 22.039 95.9656 22.1465 96.1009 22.2883C96.2362 22.4301 96.331 22.6014 96.3765 22.7866C96.43 22.9707 96.4436 23.1629 96.4165 23.352C96.3894 23.5411 96.3222 23.7233 96.2188 23.8878C95.9931 24.2187 95.6404 24.4561 95.2331 24.5513C94.8225 24.6481 94.3914 24.6386 93.9862 24.5237C93.0789 24.1931 92.3204 23.5816 91.8374 22.7912L91.0882 21.8328L91.9951 22.6575C92.2298 22.8842 92.3984 23.1633 92.4847 23.4683C92.571 23.7732 92.5721 24.0938 92.4879 24.3992C92.4222 24.6784 92.2896 24.9399 92.1001 25.1642C91.9106 25.3885 91.6691 25.5696 91.3938 25.694C90.9421 25.8946 90.4388 25.9712 89.9424 25.9149C89.446 25.8587 88.9768 25.6718 88.5895 25.3761C88.0783 24.9876 87.7011 24.4666 87.5052 23.8786C87.4535 23.728 87.414 23.5739 87.3869 23.4178C87.3814 23.3626 87.3814 23.3071 87.3869 23.2519C87.4116 23.2519 87.4411 23.4731 87.5989 23.8555C87.817 24.3998 88.1902 24.8778 88.6782 25.2379C89.0448 25.5022 89.4828 25.6659 89.9433 25.7106C90.4038 25.7554 90.8685 25.6794 91.2854 25.4913C91.5286 25.3777 91.7413 25.2143 91.9077 25.0133C92.0741 24.8123 92.1899 24.5788 92.2464 24.3301C92.3183 24.0635 92.3166 23.7841 92.2417 23.5182C92.1667 23.2523 92.0208 23.0085 91.8177 22.8096L92.0099 22.6575C92.4626 23.3972 93.1695 23.972 94.0158 24.2887C94.3615 24.4083 94.7389 24.4218 95.0934 24.3274C95.4478 24.2329 95.7609 24.0354 95.9872 23.7634C96.342 23.2197 96.1301 22.3811 95.5288 22.1922L95.6274 21.9848C96.4235 22.4961 97.3865 22.7293 98.348 22.6437C98.7197 22.6025 99.0703 22.46 99.356 22.2339C99.6417 22.0077 99.8499 21.708 99.9547 21.372C100.006 21.1499 100.001 20.9196 99.9405 20.6996C99.8798 20.4796 99.7648 20.2759 99.6047 20.1049C99.476 19.9961 99.3316 19.9046 99.1759 19.833Z" fill="#455A64"/>
<path d="M86.0277 28.0669C86.0277 28.0669 86.0277 28.0991 85.9636 28.1544C85.8926 28.2365 85.8152 28.3135 85.732 28.3848C85.4132 28.6559 85.0395 28.8643 84.6329 28.9976C83.9961 29.2048 83.3047 29.2145 82.6615 29.0253C82.2354 28.9006 81.841 28.6962 81.5021 28.4245C81.1632 28.1528 80.8869 27.8195 80.6901 27.4448L80.8971 27.4172C80.8172 27.8838 80.6198 28.3259 80.3212 28.7072C80.0225 29.0884 79.6313 29.3978 79.1796 29.6099C78.728 29.822 78.2288 29.9307 77.7234 29.9269C77.218 29.9232 76.7208 29.8073 76.2727 29.5886C75.8247 29.3699 75.4386 29.0548 75.1465 28.6692C74.8543 28.2836 74.6643 27.8386 74.5923 27.3709C74.5202 26.9032 74.5681 26.4262 74.732 25.9792C74.8959 25.5322 75.171 25.128 75.5349 24.8L75.7074 24.9705C75.1254 25.4224 74.3938 25.6716 73.6374 25.6755C72.9508 25.6879 72.2749 25.5152 71.6906 25.1778C71.1683 24.8747 70.76 24.427 70.5226 23.8969C70.3292 23.4452 70.2466 22.9586 70.281 22.4731C70.3225 21.7833 70.6067 21.1256 71.0893 20.6024C71.258 20.4157 71.4618 20.2596 71.6906 20.1416C71.6906 20.1416 71.4688 20.2983 71.1583 20.6623C70.7175 21.1908 70.4658 21.8356 70.4388 22.5054C70.4183 22.9664 70.5075 23.4259 70.7 23.8508C70.9302 24.3392 71.3157 24.7494 71.804 25.0258C72.3533 25.3408 72.9882 25.5008 73.6324 25.4865C74.3308 25.4774 75.0051 25.2467 75.5447 24.8323L75.7123 25.0027C75.2931 25.4047 75.0101 25.9133 74.8988 26.4649C74.7875 27.0166 74.8527 27.5866 75.0864 28.1037C75.3725 28.6683 75.8511 29.128 76.447 29.4107C77.0429 29.6934 77.7223 29.7831 78.3786 29.6657C78.9534 29.5392 79.4769 29.26 79.886 28.862C80.2952 28.4639 80.5727 27.9638 80.6852 27.4218L80.7394 27.0992L80.8921 27.3941C81.0717 27.7462 81.3246 28.0613 81.636 28.3208C81.9474 28.5803 82.3112 28.7791 82.7058 28.9055C83.3218 29.097 83.9874 29.097 84.6033 28.9055C85.0016 28.7908 85.373 28.6063 85.6974 28.3618C85.934 28.1682 86.0277 28.0577 86.0277 28.0669Z" fill="#455A64"/>
<path d="M76.2738 36.2596C76.1499 36.366 76.004 36.4475 75.8451 36.4992C75.4137 36.667 74.9454 36.735 74.4799 36.6973C73.7595 36.6475 73.0872 36.3407 72.6021 35.8403C72.2963 35.5237 72.0707 35.1469 71.9419 34.7377C71.813 34.3285 71.7843 33.8975 71.8579 33.4765L72.0846 33.5687C71.5979 34.1712 70.9643 34.6562 70.2364 34.9833C69.6751 35.2324 69.0587 35.354 68.4375 35.338C67.8587 35.3228 67.2924 35.1774 66.7865 34.9141C66.3495 34.7037 65.9764 34.3937 65.7016 34.0128C65.4268 33.6318 65.2592 33.1923 65.2143 32.7347C65.1556 32.1224 65.3301 31.5105 65.7071 31.0068C65.8135 30.8755 65.9378 30.7578 66.0767 30.6566C66.1226 30.6168 66.1761 30.5855 66.2345 30.5645C66.2345 30.5645 66.0423 30.7211 65.7909 31.0621C65.4609 31.557 65.3186 32.1412 65.3868 32.7209C65.438 33.1488 65.604 33.5578 65.8693 33.9098C66.1347 34.2618 66.4908 34.5454 66.9047 34.7344C67.3994 34.9791 67.949 35.1104 68.5086 35.1176C69.0681 35.1248 69.6214 35.0077 70.1231 34.7759C70.8137 34.468 71.4166 34.0117 71.8825 33.4443L72.2029 33.0572L72.1093 33.518C72.0395 33.9047 72.062 34.3011 72.1753 34.6787C72.2887 35.0563 72.4899 35.4057 72.7647 35.7021C73.2096 36.1772 73.8284 36.4796 74.4996 36.5499C74.9427 36.5984 75.3918 36.556 75.8155 36.4255C76.1112 36.3287 76.264 36.2458 76.2738 36.2596Z" fill="#455A64"/>
<path d="M104.185 26.2793C104.304 26.5488 104.341 26.8437 104.293 27.1317C104.235 27.8403 103.916 28.508 103.39 29.0213C102.864 29.5346 102.164 29.8618 101.41 29.947C101.106 30.0072 100.789 29.9849 100.498 29.8825C100.498 29.8411 100.848 29.8825 101.38 29.7765C102.076 29.654 102.713 29.3307 103.202 28.8522C103.691 28.3736 104.007 27.7639 104.106 27.1087C104.194 26.6064 104.14 26.2839 104.185 26.2793Z" fill="#455A64"/>
<path d="M107.22 31.1035C107.287 31.2108 107.329 31.3301 107.343 31.4537C107.402 31.7928 107.366 32.1404 107.239 32.4628C107.149 32.714 106.992 32.9399 106.784 33.1195C106.575 33.2991 106.322 33.4266 106.047 33.4903C105.717 33.5535 105.374 33.5247 105.061 33.4074C104.886 33.3453 104.725 33.2504 104.591 33.1283C104.456 33.0063 104.349 32.8598 104.277 32.6978L104.524 32.6195C104.569 32.7694 104.59 32.9246 104.588 33.0802C104.573 33.4362 104.449 33.7805 104.229 34.0716C104.01 34.3627 103.704 34.5881 103.351 34.7206C103.035 34.8289 102.69 34.8434 102.365 34.762C102.091 34.6886 101.838 34.5578 101.626 34.3796C101.313 34.1314 101.102 33.7894 101.029 33.412C100.985 33.1493 101.029 33.0019 101.029 33.0065C101.029 33.0111 101.029 33.1493 101.113 33.3935C101.221 33.7297 101.436 34.0271 101.729 34.246C101.935 34.411 102.184 34.5222 102.451 34.5683C102.717 34.6144 102.992 34.5938 103.247 34.5086C103.551 34.3883 103.812 34.1897 104 33.9359C104.187 33.6822 104.294 33.3838 104.307 33.0756C104.31 32.9478 104.291 32.8204 104.253 32.6978L104.504 32.6195C104.637 32.868 104.854 33.0682 105.122 33.1884C105.389 33.3085 105.692 33.3418 105.983 33.283C106.224 33.2308 106.448 33.1242 106.636 32.9724C106.823 32.8206 106.968 32.6282 107.057 32.4121C107.188 32.1209 107.247 31.8059 107.23 31.4906C107.22 31.2325 107.175 31.1081 107.22 31.1035Z" fill="#455A64"/>
<path d="M92.1681 37.96C92.2026 37.96 92.2223 38.0659 92.1681 38.2226C92.1008 38.4249 91.9716 38.6043 91.7964 38.7386C91.6212 38.8729 91.4077 38.9563 91.1824 38.9783C91.0099 38.9783 90.9064 38.9506 90.9113 38.9184C90.9162 38.8861 91.2908 38.817 91.6259 38.5451C91.9611 38.2733 92.0941 37.96 92.1681 37.96Z" fill="#263238"/>
<path d="M36.4464 0.00151906C36.3323 0.0210416 36.2171 0.0348843 36.1014 0.0429885L35.1157 0.121321C34.5719 0.155707 34.0315 0.228096 33.4992 0.337882C33.1788 0.40239 32.8289 0.430037 32.474 0.531407C32.1192 0.632776 31.7348 0.734145 31.3356 0.840123C29.3915 1.42353 27.5608 2.29639 25.9142 3.42505C23.7501 4.93599 21.9486 6.85407 20.6259 9.05567C18.598 12.4716 17.7235 16.3814 18.1173 20.2708C18.1469 20.6948 18.2454 21.1141 18.3095 21.5426C18.3706 21.9734 18.4628 22.3998 18.5855 22.8189C19.0202 24.5766 19.7345 26.2634 20.7048 27.8229C22.7696 31.1975 25.96 33.8469 29.788 35.3657C31.8049 36.153 33.9608 36.5827 36.1458 36.6328C38.3961 36.7162 40.6419 36.3842 42.7549 35.656L43.4006 35.4256L43.4844 35.398L43.5632 35.4302L52.9274 39.7523L52.6563 39.978L49.6696 31.6427L49.6351 31.5367L49.714 31.4584C51.9499 29.3084 53.5954 26.6839 54.5094 23.8096C55.3315 21.1831 55.5399 18.4222 55.1206 15.7138C54.4517 11.1997 52.0353 7.07168 48.3291 4.1116C46.925 3.03571 45.3757 2.13718 43.7209 1.43913C42.4711 0.951724 41.1715 0.584292 39.8422 0.342491L38.3932 0.130536L37.3237 0.0706355L36.6682 0.029166C36.5936 0.028541 36.5193 0.020822 36.4464 0.00612776C36.5201 -0.00204259 36.5946 -0.00204259 36.6682 0.00612776H37.3237L38.4031 0.0337729L39.8816 0.222689C41.2318 0.444345 42.5533 0.798008 43.8244 1.27786C45.5083 1.9636 47.085 2.8595 48.5114 3.94111C50.2423 5.29965 51.7139 6.92315 52.8633 8.74235C54.2055 10.8655 55.0911 13.2133 55.4705 15.6539C55.9089 18.4064 55.7072 21.2149 54.8791 23.8879C53.9588 26.8201 52.2893 29.499 50.0146 31.6934L50.0491 31.5091C51.0348 34.1815 52.0205 36.9692 53.0457 39.8398L53.1985 40.2591L52.7746 40.0656L43.4104 35.7482H43.5731L42.9126 35.9831C40.7518 36.7244 38.4552 37.0579 36.1557 36.9646C33.9231 36.9141 31.7203 36.475 29.6599 35.6698C25.7572 34.1135 22.5077 31.4041 20.409 27.9565C19.4249 26.3769 18.6989 24.6685 18.2553 22.888C18.1309 22.4617 18.0403 22.0274 17.9842 21.5887C17.9201 21.1555 17.8166 20.7316 17.792 20.2985C17.7078 19.4531 17.6847 18.6033 17.723 17.755C17.7741 16.1474 18.0373 14.5518 18.5066 13.0045C18.9574 11.5841 19.5826 10.2172 20.3696 8.93127C21.729 6.70451 23.5765 4.77156 25.791 3.25917C27.4607 2.13247 29.3173 1.27008 31.2863 0.7065L32.4445 0.411605C32.7844 0.336837 33.1282 0.278397 33.4745 0.236513C34.012 0.133546 34.5576 0.0719033 35.1059 0.0522042L36.1162 0.00612776L36.4464 0.00151906Z" fill="#263238"/>
<path d="M40.853 16.073H39.4878L36.4617 12.2256L36.4321 9.67754C36.4321 9.67754 34.3227 9.58078 34.6086 12.9029C34.8944 16.2251 34.6086 15.3865 34.6086 15.3865C34.6086 15.3865 30.1335 15.451 29.7638 15.8196C29.4977 16.0869 29.4238 20.2476 29.409 22.5008C29.3819 23.0534 29.5564 23.5983 29.9038 24.0461C30.2512 24.494 30.751 24.8183 31.3212 24.9659C31.4825 25.0029 31.648 25.0215 31.8141 25.0212C32.9329 25.0212 38.6253 24.0997 38.6253 24.0997L40.9861 24.072L40.853 16.073Z" fill="#728089"/>
<path d="M44.7511 15.3311L44.0168 24.0627L41.6806 24.0903L41.5771 15.543L44.7511 15.3311Z" fill="#728089"/>
</svg>
