<svg width="400" height="365" viewBox="0 0 400 365" fill="none" xmlns="http://www.w3.org/2000/svg">
<path d="M400 364.639C400 364.751 310.448 364.847 200.009 364.847C89.5691 364.847 0 364.751 0 364.639C0 364.526 89.5344 364.406 200 364.406C310.466 364.406 400 364.526 400 364.639Z" fill="#263238"/>
<path fill-rule="evenodd" clip-rule="evenodd" d="M57.9638 27.2532C61.1651 25.4787 64.6093 24.1111 68.2039 23.1872L70.3283 13.858L87.2796 13.6331L89.7335 22.898C93.3379 23.7321 96.8053 25.0104 100.043 26.6987L108.67 21.4998L120.879 32.5405L115.512 40.6724C117.426 43.6262 118.904 46.8044 119.908 50.1221L129.975 52.0989L130.217 67.8725L120.229 70.0822C119.325 73.424 117.946 76.6395 116.127 79.6445L121.737 87.6317L109.824 98.9537L101.049 93.9797C97.861 95.7509 94.4316 97.1184 90.852 98.0457L88.719 107.375L71.6896 107.6L69.2704 98.3269C65.666 97.4928 62.1986 96.2145 58.9609 94.5261L50.2901 99.7251L38.151 88.7245L43.5182 80.5926C41.6042 77.6284 40.1285 74.4392 39.1308 71.1108L29.0554 69.1341L28.8213 53.4327L38.8274 51.1908C39.7247 47.8484 41.1012 44.6324 42.92 41.6286L37.31 33.6414L49.1803 22.2792L57.9638 27.2532V27.2532Z" fill="#B8060D"/>
<path d="M89.5601 55.9719C89.4791 54.8454 89.2964 53.7273 89.0139 52.6291C88.6676 51.3591 88.115 50.1453 87.3751 49.0292C86.3046 47.3891 84.8721 45.9772 83.1716 44.886C81.4711 43.7948 79.541 43.0489 77.5078 42.6973C74.9519 42.2627 72.3171 42.4708 69.8775 43.2999C68.5593 43.7353 67.3198 44.353 66.2011 45.132C65.0167 45.9243 63.9799 46.8906 63.1316 47.9926C61.3013 50.2966 60.314 53.0827 60.314 55.9437C60.314 58.8048 61.3013 61.5908 63.1316 63.8948C63.5689 64.4576 64.0438 64.9943 64.5536 65.5019C65.0699 65.9679 65.6204 66.4002 66.2011 66.7956C67.3175 67.5801 68.5574 68.2008 69.8775 68.6358C72.3187 69.4587 74.9525 69.664 77.5078 69.2304C79.541 68.8787 81.4711 68.1329 83.1716 67.0417C84.8721 65.9504 86.3046 64.5385 87.3751 62.8984C88.1152 61.7815 88.6705 60.568 89.0226 59.2985C89.2984 58.2104 89.4782 57.1032 89.5601 55.9879C89.5734 56.0597 89.5734 56.1331 89.5601 56.2049C89.5601 56.3817 89.5601 56.5906 89.5601 56.8558C89.5617 57.2112 89.5298 57.5661 89.4648 57.9164C89.4131 58.3966 89.3203 58.8722 89.1873 59.3387C88.863 60.6342 88.3249 61.8756 87.5919 63.019C86.522 64.7093 85.0752 66.1685 83.3482 67.2992C81.6212 68.43 79.6537 69.2061 77.5771 69.5759C74.9665 70.027 72.2735 69.8273 69.7734 68.9974C68.3979 68.5489 67.1052 67.9065 65.941 67.093C64.7198 66.2826 63.6506 65.2917 62.7761 64.16C60.8836 61.7872 59.8623 58.9144 59.8623 55.9638C59.8623 53.0132 60.8836 50.1404 62.7761 47.7676C63.2246 47.2017 63.7142 46.6647 64.2415 46.1605C64.7881 45.682 65.3674 45.2364 65.9757 44.8267C67.1178 44.0383 68.3841 43.4177 69.7301 42.9865C72.0704 42.1987 74.5872 41.9698 77.0482 42.3209C79.5092 42.672 81.8351 43.5918 83.8114 44.9954C85.3261 46.0703 86.6011 47.4075 87.5659 48.9328C88.3082 50.0803 88.8551 51.3271 89.1873 52.6291C89.3196 53.0985 89.4124 53.5767 89.4648 54.0594C89.5301 54.407 89.562 54.7593 89.5601 55.1121C89.5601 55.3772 89.5601 55.5942 89.5601 55.7629C89.5711 55.8322 89.5711 55.9026 89.5601 55.9719Z" fill="white"/>
<path d="M84.9207 65.9199C85.0075 65.8395 88.2156 68.6841 92.0915 72.2759C95.9673 75.8678 99.0281 78.8409 98.9501 78.9213C98.872 79.0016 95.6465 76.1571 91.7707 72.5732C87.8948 68.9894 84.834 66.0002 84.9207 65.9199Z" fill="white"/>
<path fill-rule="evenodd" clip-rule="evenodd" d="M174.361 86.9647C178.45 84.6885 182.851 82.9317 187.445 81.7416L190.185 69.7607L212.035 69.4795L215.139 81.38C219.768 82.45 224.221 84.0905 228.38 86.2576L239.452 79.5801L255.12 93.6984L248.236 104.145C250.687 107.937 252.582 112.014 253.872 116.27L266.791 118.809L267.103 139.059L254.262 141.935C253.103 146.224 251.334 150.35 248.999 154.206L256.196 164.467L240.961 178.987L229.689 172.607C225.594 174.879 221.191 176.635 216.596 177.83L213.873 189.803L192.014 190.092L188.91 178.191C184.282 177.119 179.83 175.478 175.67 173.314L164.606 179.983L148.929 165.865L155.814 155.419C153.362 151.625 151.469 147.545 150.187 143.285L137.259 140.754L136.955 120.497L149.797 117.628C150.951 113.338 152.721 109.211 155.06 105.358L147.854 95.0966L163.089 80.5684L174.361 86.9566V86.9647Z" fill="#B8060D"/>
<path d="M194.634 150.887H194.894H195.639H198.509L209.235 150.823L209.105 150.943C209.062 149.24 209.01 147.319 208.958 145.262V145.166L209.053 145.125C212.442 143.662 215.538 141.676 218.209 139.251C219.709 137.898 221.004 136.363 222.059 134.687C223.167 132.897 223.886 130.924 224.175 128.878C224.71 124.41 223.548 119.909 220.889 116.15C218 112.116 213.818 109.024 208.932 107.31C205.259 106.057 201.276 105.801 197.452 106.571C193.795 107.211 190.367 108.68 187.471 110.846C184.786 112.894 182.714 115.548 181.454 118.552C181.185 119.283 180.847 119.982 180.648 120.714C180.448 121.445 180.266 122.176 180.075 122.891C179.796 124.307 179.66 125.743 179.668 127.182C179.702 128.535 179.885 129.881 180.214 131.2C180.55 132.442 181.023 133.648 181.627 134.8C182.73 136.861 184.195 138.738 185.963 140.352C188.544 142.735 191.578 144.655 194.911 146.017H194.963V146.066C194.859 147.619 194.781 148.8 194.729 149.609C194.729 150.003 194.729 150.3 194.668 150.525C194.677 150.63 194.677 150.734 194.668 150.839C194.656 150.743 194.656 150.645 194.668 150.549C194.668 150.332 194.668 150.035 194.668 149.649C194.668 148.846 194.746 147.632 194.807 146.058L194.859 146.138C191.48 144.805 188.401 142.897 185.781 140.513C183.974 138.883 182.479 136.981 181.359 134.888C180.738 133.719 180.25 132.494 179.902 131.232C179.56 129.882 179.366 128.504 179.321 127.118C179.31 125.655 179.443 124.195 179.72 122.755C179.911 122.023 180.101 121.292 180.292 120.545C180.483 119.798 180.838 119.082 181.107 118.343C182.385 115.273 184.493 112.559 187.229 110.46C190.186 108.276 193.68 106.802 197.4 106.169C201.304 105.378 205.371 105.638 209.122 106.917C214.087 108.666 218.334 111.817 221.261 115.925C222.645 117.872 223.636 120.037 224.184 122.313C224.337 122.859 224.447 123.415 224.513 123.976C224.618 124.525 224.676 125.082 224.686 125.639C224.686 126.194 224.738 126.748 224.747 127.295L224.582 128.902C224.286 130.996 223.543 133.014 222.397 134.84C221.32 136.543 219.999 138.102 218.469 139.476C215.745 141.897 212.596 143.869 209.157 145.31L209.252 145.174C209.252 147.231 209.322 149.191 209.348 150.863V150.991H209.209L198.405 150.927H195.57H194.842L194.634 150.887Z" fill="white"/>
<path d="M209.442 154.68C206.949 154.892 204.444 154.964 201.942 154.897C199.439 154.964 196.935 154.895 194.441 154.688C196.935 154.481 199.439 154.411 201.942 154.479C204.444 154.406 206.948 154.473 209.442 154.68V154.68Z" fill="white"/>
<path d="M204.587 159.903C203.739 160.19 202.83 160.289 201.933 160.192C201.041 160.231 200.151 160.08 199.332 159.75C200.211 159.667 201.097 159.667 201.977 159.75C202.85 159.718 203.724 159.769 204.587 159.903V159.903Z" fill="white"/>
<path d="M197.694 150.887C197.681 150.812 197.681 150.736 197.694 150.662V149.987C197.694 149.36 197.694 148.5 197.737 147.399C197.798 145.125 197.876 141.887 197.98 137.893C198.032 135.885 198.101 133.691 198.162 131.329C198.201 130.753 198.116 130.177 197.911 129.633C197.832 129.375 197.655 129.151 197.413 129.004C197.171 128.856 196.88 128.794 196.593 128.829C196.299 128.919 196.037 129.079 195.832 129.294C195.628 129.508 195.489 129.77 195.431 130.051C195.274 130.648 195.36 131.277 195.673 131.819C196.01 132.388 196.49 132.873 197.073 133.233C197.656 133.592 198.324 133.816 199.02 133.884C199.749 133.959 200.486 133.866 201.167 133.614C201.847 133.361 202.45 132.957 202.922 132.437C203.939 131.357 204.519 129.982 204.561 128.548C204.628 127.836 204.468 127.121 204.101 126.491C203.925 126.2 203.65 125.972 203.319 125.841C202.989 125.71 202.62 125.685 202.272 125.768C201.951 125.919 201.693 126.164 201.536 126.464C201.38 126.765 201.333 127.104 201.405 127.431C201.572 128.133 201.93 128.783 202.445 129.32C203.364 130.48 204.617 131.377 206.061 131.907C206.756 132.145 207.502 132.228 208.237 132.148C208.954 132.049 209.633 131.786 210.214 131.385C210.785 131.004 211.218 130.472 211.454 129.858C211.566 129.565 211.613 129.254 211.594 128.944C211.574 128.633 211.489 128.329 211.342 128.05C211.214 127.781 211.008 127.551 210.745 127.386C210.483 127.221 210.176 127.128 209.859 127.118C209.547 127.142 209.244 127.232 208.975 127.381C208.706 127.53 208.478 127.734 208.307 127.978C207.587 128.966 207.578 130.26 207.396 131.409C207.119 133.747 206.937 135.941 206.772 137.942C206.486 141.959 206.252 145.174 206.087 147.424C206 148.524 205.94 149.384 205.896 150.003C205.896 150.284 205.853 150.501 205.836 150.678C205.845 150.753 205.845 150.828 205.836 150.903C205.826 150.828 205.826 150.753 205.836 150.678C205.836 150.501 205.836 150.276 205.836 150.003C205.836 149.384 205.896 148.516 205.94 147.416C206.044 145.174 206.208 141.927 206.495 137.926C206.633 135.917 206.798 133.723 207.058 131.369C207.136 130.782 207.197 130.187 207.31 129.577C207.397 128.933 207.637 128.316 208.012 127.769C208.218 127.475 208.494 127.23 208.819 127.052C209.143 126.873 209.508 126.767 209.885 126.74C210.278 126.749 210.66 126.86 210.988 127.06C211.316 127.261 211.577 127.542 211.74 127.873C211.916 128.198 212.02 128.553 212.046 128.916C212.071 129.279 212.017 129.643 211.888 129.987C211.628 130.677 211.147 131.277 210.509 131.706C209.87 132.15 209.123 132.44 208.333 132.55C207.527 132.642 206.709 132.554 205.948 132.293C204.424 131.741 203.101 130.799 202.133 129.577C201.562 128.989 201.17 128.27 200.997 127.496C200.911 127.072 200.979 126.633 201.191 126.249C201.403 125.865 201.747 125.557 202.168 125.374C202.615 125.255 203.093 125.279 203.524 125.442C203.955 125.606 204.314 125.899 204.544 126.274C204.958 126.973 205.14 127.77 205.064 128.564C205.022 130.091 204.409 131.557 203.33 132.711C202.815 133.286 202.154 133.734 201.407 134.015C200.659 134.295 199.848 134.399 199.046 134.318C198.28 134.24 197.546 133.991 196.907 133.592C196.269 133.193 195.744 132.656 195.379 132.028C195.026 131.399 194.934 130.674 195.119 129.987C195.2 129.64 195.381 129.32 195.642 129.06C195.903 128.8 196.234 128.609 196.601 128.508C196.792 128.477 196.988 128.482 197.177 128.522C197.366 128.562 197.545 128.636 197.702 128.741C197.998 128.946 198.223 129.225 198.353 129.545C198.574 130.138 198.663 130.767 198.613 131.393C198.526 133.747 198.448 135.941 198.37 137.95C198.214 141.967 198.084 145.182 197.989 147.456C197.937 148.549 197.893 149.416 197.858 150.035C197.858 150.308 197.858 150.533 197.858 150.71C197.813 150.776 197.758 150.836 197.694 150.887Z" fill="white"/>
<path d="M208.124 157.275C206.11 157.486 204.081 157.556 202.055 157.484C200.029 157.556 198 157.486 195.985 157.275C198 157.069 200.029 156.999 202.055 157.066C204.081 156.999 206.109 157.069 208.124 157.275V157.275Z" fill="white"/>
<path fill-rule="evenodd" clip-rule="evenodd" d="M317.87 119.324C320.499 117.806 323.337 116.625 326.307 115.812L327.945 108.018L342.122 107.624L344.264 115.314C347.288 115.962 350.204 116.984 352.935 118.351L360.045 113.924L370.363 122.932L366.028 129.77C367.656 132.21 368.93 134.839 369.817 137.588L378.227 139.115L378.643 152.245L370.346 154.23C369.646 157.032 368.544 159.735 367.068 162.265L371.854 168.854L362.126 178.417L354.747 174.399C352.116 175.913 349.279 177.094 346.31 177.91L344.671 185.705L330.495 186.098L328.327 178.344C325.304 177.69 322.388 176.666 319.656 175.299L312.555 179.734L302.237 170.751L306.572 163.913C304.942 161.476 303.667 158.849 302.783 156.102L294.372 154.575L293.956 141.437L302.315 139.412C303.013 136.61 304.116 133.907 305.592 131.377L300.806 124.788L310.491 115.306L317.87 119.324Z" fill="#B8060D"/>
<path d="M355.285 160.955C355.059 160.986 354.83 161 354.6 160.996H352.632L345.375 161.06L321.452 161.124H319.519V160.915C319.519 152.631 319.571 145.206 319.588 139.798C319.588 137.146 319.649 134.977 319.666 133.45C319.666 132.735 319.666 132.164 319.666 131.73C319.667 131.532 319.682 131.333 319.709 131.136C319.734 131.333 319.734 131.533 319.709 131.73C319.709 132.164 319.709 132.735 319.753 133.45C319.753 134.993 319.796 137.146 319.822 139.798C319.822 145.206 319.865 152.655 319.891 160.915L319.666 160.706H321.4L345.323 160.763L352.58 160.835H354.548C354.798 160.85 355.045 160.891 355.285 160.955V160.955Z" fill="white"/>
<path d="M351.34 138.4C351.015 138.739 350.661 139.053 350.282 139.34L347.282 141.751C344.733 143.8 341.212 146.612 337.267 149.69L336.677 150.156L336.521 150.276L336.374 150.148L331.926 146.315H332.203L325.666 151.313L323.767 152.719C323.548 152.897 323.31 153.053 323.056 153.185C323.239 152.975 323.448 152.786 323.68 152.623L325.501 151.128L331.935 146.018L332.073 145.905L332.212 146.018L336.677 149.834H336.383L336.981 149.368C340.9 146.291 344.472 143.518 347.074 141.526L350.169 139.187C350.535 138.896 350.927 138.632 351.34 138.4V138.4Z" fill="white"/>
<path d="M351.339 145.302C351.215 144.623 351.163 143.934 351.183 143.245C351.139 141.967 351.113 140.208 351.113 138.239L351.339 138.448H350.957C348.746 138.448 346.743 138.448 345.295 138.384C344.509 138.402 343.722 138.353 342.945 138.239C343.722 138.119 344.508 138.068 345.295 138.086C346.743 138.086 348.763 138.03 350.957 138.03H351.564V138.239C351.564 140.208 351.564 141.967 351.495 143.245C351.515 143.934 351.462 144.623 351.339 145.302V145.302Z" fill="white"/>
<path d="M121.963 162.105C121.497 161.417 121.157 160.662 120.957 159.871C120.623 159.119 120.429 158.32 120.385 157.508C120.855 158.194 121.195 158.95 121.391 159.742C121.727 160.493 121.921 161.292 121.963 162.105V162.105Z" fill="#263238"/>
<path d="M131.188 179.3C129.018 176.774 127.265 173.963 125.985 170.959C126.945 172.295 127.828 173.676 128.63 175.098C129.567 176.453 130.421 177.856 131.188 179.3Z" fill="#263238"/>
<path d="M144.714 193.82C141.93 191.891 139.48 189.58 137.448 186.966C138.738 188.035 139.966 189.167 141.125 190.357C142.388 191.451 143.586 192.607 144.714 193.82Z" fill="#263238"/>
<path d="M161.848 204.58C160.201 204.054 158.627 203.35 157.157 202.482C155.616 201.732 154.181 200.809 152.883 199.734C154.426 200.466 155.928 201.271 157.383 202.145C158.918 202.882 160.408 203.694 161.848 204.58V204.58Z" fill="#263238"/>
<path d="M181.548 210.462C178.08 210.214 174.678 209.449 171.473 208.196C173.185 208.433 174.874 208.804 176.519 209.305C178.227 209.559 179.91 209.946 181.548 210.462V210.462Z" fill="#263238"/>
<path d="M202.246 210.88C200.542 211.262 198.796 211.453 197.043 211.45C195.309 211.592 193.563 211.543 191.841 211.306C193.568 211.123 195.305 211.032 197.043 211.032C198.773 210.896 200.51 210.845 202.246 210.88V210.88Z" fill="#263238"/>
<path d="M222.474 206.741C220.915 207.447 219.274 207.986 217.584 208.349C215.93 208.852 214.219 209.175 212.485 209.313C214.114 208.769 215.776 208.312 217.462 207.947C219.105 207.451 220.779 207.048 222.474 206.741Z" fill="#263238"/>
<path d="M241.247 198.594C238.446 200.516 235.359 202.05 232.082 203.15C233.543 202.289 235.057 201.508 236.617 200.811C238.113 199.99 239.659 199.25 241.247 198.594V198.594Z" fill="#263238"/>
<path d="M257.331 186.516C256.325 187.834 255.142 189.028 253.81 190.068C252.583 191.212 251.212 192.215 249.727 193.057C250.923 191.898 252.185 190.798 253.507 189.763C255.605 187.963 257.227 186.436 257.331 186.516Z" fill="#263238"/>
<path d="M268.785 170.566C268.273 172.11 267.557 173.589 266.652 174.969C265.884 176.418 264.916 177.768 263.774 178.987C263.67 178.915 264.892 177.091 266.254 174.768C267.019 173.328 267.864 171.925 268.785 170.566V170.566Z" fill="#263238"/>
<path d="M275.895 152.51C275.572 154.088 275.102 155.636 274.491 157.138C274.021 158.688 273.405 160.196 272.652 161.646C272.973 160.066 273.443 158.514 274.057 157.01C274.523 155.462 275.139 153.956 275.895 152.51V152.51Z" fill="#263238"/>
<path d="M282.528 134.278C282.667 134.334 281.869 136.351 280.933 138.858C280.437 140.399 279.796 141.897 279.017 143.334C279.364 141.758 279.863 140.214 280.508 138.721C280.968 137.46 281.462 136.311 281.835 135.547C282.005 135.098 282.238 134.671 282.528 134.278V134.278Z" fill="#263238"/>
<path d="M291.728 117.066C291.002 118.522 290.183 119.936 289.274 121.3C288.496 122.736 287.627 124.129 286.673 125.471C287.222 123.941 287.958 122.474 288.867 121.099C289.649 119.657 290.61 118.304 291.728 117.066V117.066Z" fill="#263238"/>
<path d="M305.575 102.867C305.653 102.963 303.841 104.297 301.742 106.081C299.644 107.865 298.057 109.448 297.962 109.36C298.936 108.024 300.103 106.818 301.43 105.776C302.658 104.631 304.053 103.652 305.575 102.867V102.867Z" fill="#263238"/>
<path d="M324.269 94.751C322.675 95.363 321.049 95.8994 319.396 96.3581C316.708 97.25 314.567 98.0857 314.515 97.9652C315.995 97.1137 317.586 96.4387 319.249 95.9563C320.863 95.3653 322.549 94.9605 324.269 94.751V94.751Z" fill="#263238"/>
<path d="M344.802 92.6298C344.802 92.7503 342.47 92.6941 339.6 92.7905C336.73 92.8869 334.397 93.0557 334.397 92.9352C336.1 92.5486 337.847 92.3597 339.6 92.3727C341.339 92.2472 343.088 92.3336 344.802 92.6298V92.6298Z" fill="#263238"/>
<path d="M364.832 97.3627C363.167 96.9226 361.528 96.3996 359.924 95.7958C357.236 94.9039 355.016 94.2691 355.051 94.1887C356.776 94.4106 358.466 94.8289 360.08 95.4342C361.741 95.9011 363.336 96.5485 364.832 97.3627V97.3627Z" fill="#263238"/>
<path d="M382.485 107.375C382.398 107.463 380.577 106.137 378.245 104.603C375.912 103.068 373.979 101.887 374.039 101.782C375.628 102.441 377.127 103.272 378.505 104.257C379.967 105.138 381.304 106.185 382.485 107.375Z" fill="#263238"/>
<path d="M392.899 118.038C391.714 116.861 390.678 115.561 389.812 114.165C391.153 115.215 392.21 116.542 392.899 118.038V118.038Z" fill="#263238"/>
<path d="M11.4199 49.1418C11.4199 49.1418 11.4633 48.8927 11.576 48.4186L12.0962 46.2892C12.8376 43.5755 13.8029 40.9187 14.9836 38.3421C16.911 34.2995 19.3159 30.4673 22.1543 26.9156C25.94 22.191 30.3899 17.9564 35.3859 14.3241C41.4649 9.9522 48.2786 6.53705 55.5541 4.21544C59.6095 2.95331 63.7756 2.02036 68.0054 1.42713C72.4981 0.827713 77.0377 0.583091 81.5751 0.695904C86.3433 0.807569 91.0871 1.36484 95.7345 2.35925C100.589 3.3844 105.3 4.92676 109.772 6.95554C114.386 9.09354 118.699 11.7491 122.614 14.8624C126.656 18.0553 130.227 21.7269 133.236 25.7826C136.266 29.8544 138.681 34.2909 140.415 38.9689C142.064 43.4832 143.146 48.1585 143.641 52.9024C143.736 54.0755 143.875 55.2407 143.935 56.3978C143.996 57.5549 143.987 58.72 144.022 59.8691C144.057 61.0182 143.953 62.1753 143.927 63.3163C143.901 64.4574 143.727 65.5904 143.571 66.7073C142.938 71.0991 141.684 75.3947 139.843 79.4837C138.051 83.351 135.994 87.1085 133.686 90.7334C131.455 94.2529 129.299 97.6653 127.218 100.971C123.444 107.147 120.882 113.894 119.648 120.899C119.065 123.941 118.654 127.009 118.417 130.091C118.183 133.008 118.079 135.772 118.062 138.36C117.941 142.775 118.167 147.193 118.738 151.578C119.165 154.34 119.826 157.068 120.715 159.734C121.036 160.65 121.305 161.341 121.504 161.783C121.599 162.016 121.686 162.185 121.738 162.297C121.766 162.355 121.789 162.414 121.808 162.474C121.341 161.599 120.949 160.691 120.637 159.758C119.698 157.099 119.005 154.37 118.565 151.602C117.964 147.208 117.712 142.78 117.81 138.352C117.81 135.764 117.906 133 118.131 130.075C118.361 126.968 118.772 123.876 119.362 120.81C120.579 113.766 123.137 106.978 126.915 100.762L133.366 90.5244C135.661 86.9176 137.705 83.1789 139.487 79.331C141.302 75.2727 142.541 71.0131 143.172 66.6591C143.328 65.5422 143.406 64.4172 143.519 63.2922C143.632 62.1673 143.623 61.0182 143.606 59.8771C143.588 58.7361 143.545 57.579 143.519 56.4219C143.493 55.2648 143.32 54.1077 143.224 52.9425C142.731 48.2162 141.645 43.5592 139.99 39.0653C138.279 34.4385 135.893 30.0506 132.897 26.0237C129.901 21.9976 126.344 18.3556 122.319 15.1919C118.437 12.0964 114.159 9.45435 109.582 7.32517C105.142 5.30461 100.462 3.77022 95.6391 2.75298C91.0185 1.75561 86.3005 1.19561 81.5578 1.08161C77.0471 0.964939 72.5338 1.20149 68.0661 1.78873C63.8578 2.37423 59.7121 3.2964 55.6755 4.54489C48.4328 6.84104 41.6458 10.2234 35.5854 14.5571C30.6011 18.1468 26.1544 22.3352 22.3624 27.0121C19.5124 30.5539 17.0903 34.3749 15.1397 38.4064C13.9471 40.9716 12.9589 43.6143 12.183 46.3133L11.6194 48.4266L11.4199 49.1418Z" fill="#263238"/>
<path d="M222.457 344.63L235.463 348.857L235.324 360.452C229.099 362.059 228.223 365 228.223 365L241.229 364.727L252.553 343.377L243.596 337.945L226.879 331.147" fill="#B8060D"/>
<g opacity="0.6">
<path opacity="0.6" d="M252.571 343.377L241.247 364.727L228.224 365L229.646 363.16L240.224 362.397L250.672 342.22L252.571 343.377Z" fill="white"/>
</g>
<path d="M235.282 355.141C235.378 355.261 236.149 354.851 237.129 354.859C238.109 354.867 238.863 355.237 238.985 355.117C239.106 354.996 238.352 354.313 237.129 354.313C235.907 354.313 235.161 355.052 235.282 355.141Z" fill="#263238"/>
<path d="M235.421 352.264C235.559 352.344 236.114 351.621 237.155 351.412C238.195 351.203 239.028 351.629 239.106 351.501C239.184 351.372 238.993 351.243 238.629 351.067C238.131 350.841 237.565 350.782 237.025 350.898C236.484 351.01 236.002 351.295 235.664 351.701C235.403 351.991 235.36 352.232 235.421 352.264Z" fill="#263238"/>
<path d="M235.248 348.576C235.395 348.64 235.82 347.933 236.722 347.619C237.623 347.306 238.456 347.571 238.508 347.435C238.56 347.298 238.369 347.21 238.005 347.089C237.522 346.952 237.004 346.969 236.533 347.136C236.061 347.304 235.664 347.612 235.404 348.013C235.187 348.335 235.178 348.552 235.248 348.576Z" fill="#263238"/>
<path d="M234.293 348.568C234.449 348.568 234.354 347.764 234.744 346.961C235.134 346.157 235.767 345.675 235.689 345.546C235.611 345.418 234.675 345.747 234.215 346.752C233.756 347.756 234.154 348.632 234.293 348.568Z" fill="#263238"/>
<path d="M232.75 347.21C232.942 346.692 233.044 346.15 233.053 345.603C233.114 345.024 233.175 344.437 233.227 343.835C233.292 343.462 233.292 343.082 233.227 342.71C233.163 342.464 232.998 342.25 232.767 342.115C232.637 342.04 232.487 342 232.334 342C232.18 342 232.03 342.04 231.9 342.115C231.547 342.399 231.289 342.769 231.155 343.184C231.024 343.537 230.945 343.904 230.92 344.277C230.881 344.902 231 345.526 231.267 346.101C231.735 347.089 232.386 347.435 232.412 347.395C232.127 346.935 231.872 346.46 231.649 345.972C231.461 345.436 231.393 344.87 231.449 344.309C231.488 343.986 231.566 343.667 231.683 343.361C231.787 343.055 231.972 342.779 232.221 342.557C232.261 342.533 232.308 342.52 232.355 342.52C232.403 342.52 232.45 342.533 232.49 342.557C232.597 342.623 232.674 342.723 232.707 342.838C232.746 343.159 232.746 343.482 232.707 343.803C232.707 344.405 232.707 344.992 232.655 345.57C232.591 346.118 232.623 346.672 232.75 347.21V347.21Z" fill="#263238"/>
<path d="M232.542 347.732C232.594 347.732 232.203 347.177 231.206 346.872C230.531 346.675 229.805 346.688 229.138 346.909C228.472 347.129 227.901 347.545 227.513 348.094C227.485 348.17 227.475 348.251 227.484 348.332C227.493 348.412 227.52 348.49 227.565 348.56C227.648 348.679 227.769 348.772 227.911 348.825C228.107 348.889 228.311 348.926 228.518 348.937C228.87 348.969 229.224 348.969 229.576 348.937C230.173 348.889 230.759 348.753 231.31 348.535C232.238 348.158 232.672 347.732 232.628 347.668C232.585 347.603 232.073 347.917 231.172 348.182C230.645 348.333 230.101 348.425 229.55 348.455C229.227 348.479 228.902 348.479 228.579 348.455C228.431 348.45 228.284 348.423 228.145 348.375C228.033 348.319 228.059 348.335 228.067 348.294C228.129 348.185 228.215 348.089 228.319 348.013C228.438 347.908 228.565 347.811 228.7 347.724C228.967 347.56 229.26 347.435 229.568 347.354C230.075 347.206 230.615 347.179 231.137 347.274C231.614 347.403 232.082 347.556 232.542 347.732Z" fill="#263238"/>
<g opacity="0.6">
<path opacity="0.6" d="M242.183 343.224C242.192 343.603 242.364 343.964 242.66 344.226C242.956 344.488 243.352 344.631 243.761 344.622C244.17 344.614 244.559 344.455 244.842 344.181C245.125 343.906 245.279 343.539 245.27 343.16C245.261 342.78 245.089 342.42 244.793 342.158C244.497 341.896 244.101 341.753 243.692 341.762C243.282 341.77 242.893 341.929 242.611 342.203C242.328 342.478 242.174 342.845 242.183 343.224V343.224Z" fill="white"/>
</g>
<path d="M155.684 339.777L155.866 355.567C155.866 355.567 138.594 361.039 138.316 363.964L171.387 364.767L172.202 340.146L155.684 339.777Z" fill="#B8060D"/>
<g opacity="0.6">
<path opacity="0.6" d="M166.124 354.49C166.435 354.592 166.695 354.797 166.855 355.065C167.015 355.333 167.063 355.645 166.991 355.944C166.893 356.235 166.678 356.48 166.391 356.629C166.104 356.779 165.767 356.821 165.448 356.748C165.115 356.644 164.835 356.43 164.662 356.147C164.489 355.864 164.435 355.531 164.511 355.213C164.641 354.907 164.896 354.661 165.221 354.528C165.546 354.396 165.914 354.388 166.245 354.506" fill="white"/>
</g>
<g opacity="0.6">
<path opacity="0.6" d="M171.386 364.751V362.268L139.686 362.445C139.686 362.445 138.195 363.007 138.333 363.972L171.386 364.751Z" fill="white"/>
</g>
<path d="M155.329 355.406C155.329 355.559 156.135 355.647 156.924 356.145C157.713 356.643 158.103 357.286 158.259 357.23C158.415 357.174 158.19 356.306 157.236 355.711C156.282 355.117 155.303 355.269 155.329 355.406Z" fill="#263238"/>
<path d="M151.826 356.659C151.783 356.796 152.476 357.069 153.014 357.72C153.552 358.371 153.682 359.038 153.881 359.03C154.081 359.022 154.167 358.186 153.491 357.423C152.815 356.659 151.835 356.515 151.826 356.659Z" fill="#263238"/>
<path d="M149.753 360.452C149.901 360.492 150.143 359.745 149.753 358.917C149.363 358.09 148.609 357.744 148.539 357.873C148.47 358.001 148.921 358.443 149.233 359.126C149.545 359.809 149.589 360.436 149.753 360.452Z" fill="#263238"/>
<path d="M155.727 351.806C155.788 351.942 156.533 351.75 157.461 351.806C158.389 351.862 159.074 352.167 159.195 352.047C159.317 351.926 158.614 351.364 157.539 351.292C156.464 351.219 155.649 351.685 155.727 351.806Z" fill="#263238"/>
<g opacity="0.3">
<path opacity="0.3" d="M155.728 342.911L155.754 345.723L172.011 345.972L172.098 343.433L155.728 342.911Z" fill="black"/>
</g>
<path d="M155.78 348.616C156.322 348.756 156.895 348.756 157.436 348.616C158.032 348.53 158.614 348.379 159.171 348.166C159.501 348.035 159.823 347.885 160.133 347.716C160.32 347.624 160.493 347.507 160.645 347.37C160.755 347.265 160.824 347.129 160.841 346.984C160.858 346.838 160.823 346.692 160.74 346.567C160.664 346.46 160.561 346.371 160.441 346.308C160.32 346.245 160.185 346.21 160.046 346.205C159.836 346.203 159.627 346.225 159.422 346.269C159.067 346.346 158.719 346.448 158.382 346.575C157.817 346.794 157.293 347.095 156.829 347.467C156.04 348.11 155.763 348.664 155.824 348.688C155.884 348.712 156.275 348.278 157.072 347.756C157.536 347.453 158.04 347.207 158.572 347.025C158.884 346.915 159.207 346.832 159.535 346.776C159.882 346.695 160.185 346.703 160.272 346.848C160.358 346.993 160.272 346.92 160.272 347.017C160.16 347.118 160.035 347.204 159.899 347.274C159.618 347.434 159.329 347.582 159.032 347.716C158.513 347.938 157.973 348.115 157.419 348.246C156.864 348.334 156.317 348.458 155.78 348.616V348.616Z" fill="#263238"/>
<path d="M155.953 348.833C156.014 348.833 156.343 348.335 156.43 347.362C156.477 346.795 156.419 346.224 156.256 345.675C156.156 345.35 156.023 345.036 155.858 344.735C155.776 344.529 155.638 344.346 155.457 344.205C155.276 344.064 155.058 343.97 154.826 343.931C154.677 343.93 154.532 343.968 154.406 344.04C154.28 344.113 154.179 344.217 154.115 344.341C154.026 344.517 153.965 344.704 153.933 344.895C153.877 345.239 153.877 345.588 153.933 345.932C154.006 346.51 154.232 347.062 154.592 347.539C155.216 348.343 155.884 348.544 155.901 348.495C155.918 348.447 155.407 348.118 154.93 347.346C154.658 346.899 154.493 346.403 154.444 345.892C154.418 345.596 154.436 345.299 154.496 345.008C154.557 344.678 154.696 344.421 154.834 344.454C154.973 344.486 155.268 344.711 155.398 344.976C155.549 345.233 155.676 345.502 155.779 345.779C155.953 346.279 156.049 346.798 156.066 347.322C156.057 348.254 155.866 348.809 155.953 348.833Z" fill="#263238"/>
<path d="M232.559 331.725L194.477 318.603L234.509 313.396L236.521 295.324L161.666 301.375L151.097 315.485L153.88 333.18L226.81 350.359L232.559 331.725Z" fill="#263238"/>
<path d="M151.817 344.373L148.175 279.792C148.273 276.698 149.221 273.678 150.932 271.019C152.642 268.359 155.056 266.149 157.947 264.597V264.597C160.352 263.306 163.026 262.504 165.792 262.244C168.557 261.983 171.351 262.27 173.988 263.086L222.544 278.097L249.198 284.445C249.198 284.445 253.741 294.827 251.071 302.886C248.47 310.785 239.123 316.032 230.911 313.774C220.706 310.978 173.866 292.311 173.866 292.311V344.896L151.817 344.373Z" fill="#263238"/>
<path d="M230.192 313.951C230.094 313.929 229.998 313.9 229.906 313.862L229.039 313.565L225.848 312.384L214.168 307.972L175.722 293.251L173.763 292.504L174.075 292.311C174.075 306.92 174.023 320.058 174.005 329.572C174.005 334.297 173.953 338.121 173.936 340.821C173.936 342.123 173.936 343.144 173.936 343.867C173.936 344.196 173.936 344.453 173.936 344.67C173.947 344.758 173.947 344.847 173.936 344.935C173.923 344.848 173.923 344.758 173.936 344.67C173.936 344.469 173.936 344.212 173.936 343.867C173.936 343.144 173.936 342.123 173.893 340.821C173.893 338.145 173.893 334.321 173.823 329.572C173.823 320.058 173.823 306.92 173.754 292.311V291.998L174.066 292.118L176.026 292.866L214.446 307.691L226.073 312.231L229.229 313.485L230.045 313.822C230.097 313.861 230.147 313.904 230.192 313.951Z" fill="#455A64"/>
<path d="M185.338 314.023C188.861 314.595 192.076 316.244 194.469 318.708C194.373 318.804 192.639 317.309 190.133 316.024C187.627 314.738 185.304 314.152 185.338 314.023Z" fill="#455A64"/>
<path d="M169.653 283.569C170.702 284.926 171.575 286.394 172.255 287.94C173.06 289.428 173.668 291.001 174.067 292.625C173.245 291.155 172.505 289.648 171.847 288.109C171.034 286.631 170.301 285.115 169.653 283.569Z" fill="#455A64"/>
<path d="M169.74 255.115L161.156 253.628L152.13 262.154L153.795 267.586L164.312 264.002L169.74 255.115Z" fill="#FFBE9D"/>
<path d="M137.986 160.433L135.662 160.61C135.662 160.61 131.474 161.245 131.474 161.333C131.474 161.421 129.636 163.8 129.636 163.808L127.945 166.219C128.343 166.344 128.768 166.373 129.181 166.303C129.594 166.233 129.981 166.065 130.304 165.817L129.714 167.03C130.313 167.239 130.975 167.235 131.572 167.02C132.168 166.805 132.658 166.394 132.948 165.865C133.508 165.032 134.116 164.227 134.769 163.454L135.532 163.39C135.593 163.535 138.532 167.408 138.602 167.287C138.671 167.167 141.099 165.013 141.099 165.013L137.986 160.433Z" fill="#EB996E"/>
<path d="M144.222 177.179L144.907 165.254L138.387 158.408L131.216 158.81L128.285 160.706C128.433 161.365 130.47 161.815 132.664 161.229C134.143 160.895 135.682 160.848 137.181 161.092L139.939 165.552L138.118 167.416L140.45 178.85L144.222 177.179Z" fill="#FFBE9D"/>
<path d="M125.19 161.454H148.497C148.779 161.454 149.051 161.558 149.251 161.743C149.451 161.928 149.563 162.18 149.563 162.442V162.442C149.563 162.704 149.451 162.956 149.251 163.141C149.051 163.326 148.779 163.43 148.497 163.43H125.19L122.909 162.442L125.19 161.454Z" fill="#263238"/>
<path d="M136.989 180.393L134.614 174.985C134.314 174.297 134.178 173.557 134.215 172.816C134.319 170.871 134.475 166.966 134.154 166.074C133.721 164.861 131.978 160.731 132.958 160.128C133.937 159.525 135.29 159.324 136.244 161.735C137.198 164.146 140.128 169.385 140.128 169.385L142.348 177.983L136.989 180.393Z" fill="#FFBE9D"/>
<path d="M139.835 168.838C139.314 168.104 138.862 167.33 138.483 166.524C137.702 165.094 136.645 163.013 135.517 160.859C135.376 160.631 135.176 160.438 134.936 160.298C134.696 160.158 134.422 160.075 134.139 160.056C133.879 160.062 133.628 160.143 133.42 160.286C133.212 160.43 133.057 160.63 132.977 160.859C132.874 161.327 132.889 161.811 133.02 162.273C133.115 162.739 133.228 163.165 133.332 163.551C133.792 165.102 134.269 166.01 134.199 166.034C134.13 166.058 134.026 165.841 133.8 165.431C133.496 164.852 133.239 164.253 133.029 163.639C132.899 163.246 132.769 162.836 132.656 162.346C132.487 161.824 132.46 161.272 132.578 160.739C132.68 160.429 132.884 160.157 133.16 159.96C133.437 159.763 133.773 159.65 134.121 159.638C134.48 159.659 134.827 159.763 135.13 159.942C135.433 160.12 135.682 160.367 135.855 160.658C137.061 162.94 138.014 164.933 138.734 166.428C139.17 167.203 139.538 168.009 139.835 168.838V168.838Z" fill="#EB996E"/>
<path d="M248.453 284.3L246.068 280.435L220.654 274.537L223.646 279.326L248.453 284.3Z" fill="#FFBE9D"/>
<path d="M134.779 180.393L150.777 215.516C152.288 218.835 155.152 221.465 158.745 222.837L193.264 235.975L201.301 215.364L167.685 204.339L145.852 175.484L134.779 180.393Z" fill="#B8060D"/>
<path d="M186.752 215.685C186.752 216.489 183.023 242.073 183.023 247.297C183.023 252.52 193.81 258.185 193.81 258.185L205.628 281.431H247.69L233.305 256.401L226.802 236.312C224.345 228.703 219.853 221.793 213.744 216.223L206.712 211.86L186.752 215.685Z" fill="#B8060D"/>
<path d="M198.968 235.838L206.069 263.36L170.415 254.046L164.346 263.994L210.726 283.577C213.494 284.751 216.619 284.988 219.557 284.246C222.494 283.505 225.058 281.832 226.801 279.519V279.519C227.879 278.091 228.61 276.464 228.944 274.749C229.278 273.035 229.206 271.274 228.735 269.587L218.33 231.981C217.991 230.757 217.383 229.61 216.545 228.613C215.706 227.616 214.654 226.79 213.456 226.187C212.257 225.584 210.937 225.216 209.578 225.107C208.219 224.998 206.851 225.149 205.558 225.553V225.553C203.317 226.258 201.421 227.682 200.213 229.567C199.005 231.453 198.563 233.677 198.968 235.838V235.838Z" fill="#B8060D"/>
<path d="M193.809 258.185C193.665 258.152 193.527 258.098 193.402 258.024C193.142 257.903 192.76 257.719 192.275 257.469C190.912 256.752 189.605 255.947 188.364 255.059C186.471 253.782 184.902 252.136 183.769 250.238C182.624 247.947 182.702 245.135 183.118 242.379C183.535 239.623 184.168 237.011 184.532 234.617C184.896 232.222 185.199 230.068 185.347 228.244C185.494 226.42 185.52 224.95 185.512 223.929C185.479 223.394 185.479 222.858 185.512 222.322C185.553 222.456 185.577 222.593 185.581 222.732C185.581 222.997 185.65 223.391 185.685 223.905C185.767 225.353 185.767 226.804 185.685 228.252C185.581 230.085 185.338 232.27 184.957 234.681C184.575 237.091 184.012 239.695 183.587 242.443C183.162 245.191 183.101 247.907 184.159 250.077C185.248 251.944 186.756 253.575 188.581 254.858C189.796 255.757 191.067 256.588 192.387 257.349C193.298 257.871 193.827 258.16 193.809 258.185Z" fill="#263238"/>
<path d="M213.467 228.606C211.916 228.077 210.304 227.719 208.663 227.537C207.01 227.508 205.359 227.664 203.747 228.004C205.262 227.25 206.989 226.942 208.698 227.12C210.412 227.163 212.073 227.68 213.467 228.606Z" fill="#263238"/>
<path d="M208.671 213.756C208.671 213.756 208.463 214.013 208.03 214.423C207.596 214.833 206.955 215.412 206.14 216.111C204.518 217.509 202.22 219.389 199.584 221.35C196.949 223.311 194.469 224.974 192.648 226.171C191.781 226.75 190.983 227.208 190.463 227.505C190.193 227.683 189.902 227.832 189.596 227.947C189.815 227.729 190.062 227.537 190.333 227.376L192.44 225.93C194.174 224.709 196.654 223.005 199.29 221.053C201.926 219.1 204.241 217.268 205.914 215.926L207.891 214.319C208.125 214.102 208.387 213.913 208.671 213.756Z" fill="#263238"/>
<path d="M167.676 204.387C167.719 204.508 166.427 205.014 164.996 205.89C163.566 206.766 162.534 207.65 162.438 207.561C163.705 205.958 165.552 204.832 167.641 204.387H167.676Z" fill="#263238"/>
<path d="M202.384 248.325C202.14 248.441 201.876 248.52 201.604 248.558C200.886 248.726 200.156 248.845 199.419 248.912C198.325 249.023 197.223 249.05 196.124 248.992C193.421 248.861 190.771 248.247 188.32 247.184C187.32 246.753 186.36 246.245 185.45 245.665C184.841 245.284 184.261 244.862 183.716 244.404C183.326 244.074 183.127 243.881 183.153 243.857C183.179 243.833 184.072 244.508 185.641 245.424C187.687 246.599 189.916 247.477 192.248 248.028C194.585 248.568 196.999 248.766 199.402 248.614C201.24 248.494 202.367 248.253 202.384 248.325Z" fill="#FAFAFA"/>
<path d="M204.795 260.411C204.285 260.587 203.745 260.677 203.2 260.676C201.891 260.766 200.574 260.685 199.289 260.435C197.999 260.196 196.75 259.793 195.578 259.237C195.076 259.053 194.617 258.78 194.226 258.434C195.889 259.106 197.613 259.643 199.376 260.041C201.169 260.298 202.981 260.422 204.795 260.411V260.411Z" fill="#FAFAFA"/>
<path d="M223.23 252.905C223.031 253.055 222.809 253.177 222.571 253.267C221.947 253.565 221.308 253.833 220.655 254.07C216.328 255.646 211.658 256.244 207.033 255.814C206.337 255.753 205.645 255.656 204.961 255.525C204.703 255.502 204.451 255.44 204.215 255.34C204.215 255.268 205.307 255.42 207.059 255.517C211.632 255.777 216.216 255.189 220.542 253.789C222.198 253.259 223.195 252.841 223.23 252.905Z" fill="#FAFAFA"/>
<path d="M219.944 239.446C219.944 239.51 218.834 239.318 217.065 239.125C214.764 238.87 212.445 238.778 210.128 238.851C207.8 238.934 205.481 239.179 203.192 239.583C201.458 239.896 200.374 240.161 200.348 240.097C200.574 239.972 200.82 239.88 201.076 239.824C201.553 239.671 202.255 239.494 203.122 239.293C205.4 238.804 207.723 238.516 210.059 238.434C212.4 238.355 214.743 238.487 217.056 238.827C217.923 238.964 218.66 239.101 219.146 239.221C219.424 239.252 219.694 239.328 219.944 239.446V239.446Z" fill="#FAFAFA"/>
<path d="M227.288 277.044C226.942 277.026 226.601 276.964 226.273 276.859C225.361 276.641 224.463 276.373 223.586 276.056C217.725 274.079 212.533 270.702 208.533 266.268C207.927 265.602 207.362 264.905 206.842 264.179C206.626 263.934 206.446 263.664 206.305 263.376C206.374 263.335 207.215 264.452 208.776 266.084C212.86 270.361 217.972 273.688 223.698 275.798C225.892 276.618 227.305 276.972 227.288 277.044Z" fill="#FAFAFA"/>
<path d="M195.318 276.626C195.182 275.872 195.147 275.106 195.214 274.344C195.29 272.499 195.581 270.667 196.081 268.88C196.587 267.091 197.302 265.358 198.214 263.713C198.56 263.018 198.997 262.365 199.515 261.768C199.218 262.476 198.88 263.168 198.5 263.841C197.687 265.501 197.026 267.222 196.523 268.984C196.032 270.748 195.698 272.546 195.526 274.36C195.508 275.119 195.439 275.875 195.318 276.626V276.626Z" fill="#FAFAFA"/>
<path d="M173.858 267.586C173.754 266.95 173.754 266.302 173.858 265.666C174.023 264.102 174.549 262.589 175.401 261.23C176.307 259.915 177.437 258.745 178.748 257.767C179.254 257.328 179.82 256.953 180.431 256.65C179.986 257.137 179.496 257.586 178.965 257.992C177.747 259.008 176.68 260.17 175.792 261.447C174.975 262.762 174.428 264.206 174.179 265.706C174.126 266.34 174.019 266.968 173.858 267.586V267.586Z" fill="#FAFAFA"/>
<path d="M244.914 276.425C244.117 276.842 243.278 277.186 242.409 277.454C240.343 278.182 238.225 278.775 236.07 279.23C233.914 279.701 231.704 279.922 229.489 279.889C229.107 279.886 228.725 279.864 228.345 279.824C228.053 279.802 227.764 279.765 227.478 279.712C227.229 279.689 226.986 279.629 226.758 279.535C226.758 279.463 227.807 279.623 229.48 279.599C231.663 279.53 233.832 279.261 235.958 278.796C238.463 278.281 240.683 277.647 242.287 277.189C243.144 276.882 244.022 276.627 244.914 276.425V276.425Z" fill="#FAFAFA"/>
<path d="M235.395 260.539C235.438 260.539 235.17 261.053 234.441 261.543C233.497 262.166 232.468 262.668 231.38 263.038C230.308 263.431 229.2 263.732 228.068 263.938C227.723 264.004 227.372 264.039 227.019 264.042C226.768 264.042 226.612 263.954 226.638 263.946C226.664 263.938 227.149 263.882 227.999 263.649C228.849 263.416 229.976 263.086 231.216 262.644C232.27 262.279 233.288 261.83 234.259 261.302C234.996 260.893 235.326 260.507 235.395 260.539Z" fill="#FAFAFA"/>
<path d="M229.429 244.404C229.429 244.404 229.429 244.548 229.299 244.693C229.1 244.901 228.866 245.077 228.606 245.215C227.784 245.677 226.912 246.057 226.004 246.348C225.101 246.667 224.166 246.901 223.213 247.048C222.475 247.168 221.99 247.048 222.007 247.048C222.025 247.048 222.45 246.975 223.152 246.79C223.854 246.606 224.808 246.34 225.848 245.987C226.734 245.698 227.602 245.365 228.45 244.99C228.704 244.886 228.948 244.759 229.178 244.613C229.343 244.484 229.395 244.396 229.429 244.404Z" fill="#FAFAFA"/>
<path d="M198.518 235.878C197.846 235.997 197.16 236.024 196.48 235.959C194.835 235.887 193.201 235.674 191.599 235.324C189.997 234.974 188.435 234.484 186.934 233.861C186.295 233.634 185.694 233.326 185.147 232.945C185.208 232.825 187.991 234.119 191.703 234.922C195.414 235.726 198.518 235.75 198.518 235.878Z" fill="#FAFAFA"/>
<path d="M223.482 228.606C223.568 228.719 222.32 229.506 220.638 230.125C218.955 230.744 217.481 231.025 217.455 230.88C217.429 230.735 218.808 230.374 220.464 229.739C222.12 229.104 223.412 228.542 223.482 228.606Z" fill="#FAFAFA"/>
<path d="M204.042 218.16C204.507 218.373 204.917 218.674 205.247 219.044C206.999 220.721 208.074 222.906 208.291 225.231C208.372 225.705 208.348 226.189 208.221 226.654C207.937 223.458 206.459 220.455 204.042 218.16V218.16Z" fill="#FAFAFA"/>
<path d="M176.72 229.594C176.549 229.361 176.415 229.107 176.321 228.839C176.023 228.122 175.794 227.383 175.636 226.629C175.134 224.134 175.155 221.572 175.696 219.084C176.234 216.61 177.024 214.188 178.055 211.852C178.436 210.952 178.766 210.245 179 209.739C179.103 209.474 179.243 209.223 179.416 208.991C179.368 209.268 179.284 209.538 179.165 209.795C178.939 210.39 178.671 211.105 178.35 211.94C177.417 214.296 176.677 216.713 176.139 219.172C175.615 221.619 175.551 224.13 175.948 226.597C176.286 228.469 176.798 229.57 176.72 229.594Z" fill="#FAFAFA"/>
<path d="M156.334 221.864C156.338 221.591 156.388 221.32 156.481 221.061C156.664 220.331 156.893 219.612 157.166 218.907C158.949 214.227 162.065 210.082 166.184 206.91C166.804 206.429 167.452 205.981 168.126 205.568C168.359 205.4 168.616 205.262 168.889 205.158C168.933 205.223 167.909 205.89 166.392 207.135C162.44 210.386 159.376 214.459 157.453 219.02C156.724 220.755 156.403 221.888 156.334 221.864Z" fill="#FAFAFA"/>
<path d="M159.612 193.644C159.612 193.716 158.623 193.756 157.097 194.158C155.113 194.698 153.213 195.473 151.444 196.464C149.674 197.455 148.034 198.63 146.553 199.968C145.426 201.004 144.819 201.751 144.819 201.711C144.819 201.671 144.915 201.494 145.157 201.149C145.306 200.934 145.468 200.727 145.643 200.53C145.863 200.265 146.097 200.01 146.345 199.767C147.785 198.344 149.431 197.113 151.236 196.111C153.028 195.083 154.982 194.322 157.028 193.853C157.382 193.77 157.741 193.708 158.103 193.668C158.372 193.623 158.645 193.599 158.918 193.595C159.15 193.571 159.386 193.587 159.612 193.644V193.644Z" fill="#FAFAFA"/>
<path d="M151.523 182.683C149.023 182.541 146.514 182.72 144.066 183.214C141.66 183.852 139.363 184.802 137.242 186.034C137.745 185.53 138.33 185.101 138.976 184.765C140.513 183.879 142.19 183.221 143.945 182.812C145.693 182.397 147.502 182.24 149.303 182.346C150.057 182.355 150.806 182.468 151.523 182.683Z" fill="#FAFAFA"/>
<path d="M198.969 235.838C199.05 236.008 199.111 236.186 199.151 236.368C199.255 236.746 199.402 237.26 199.576 237.895L201.119 243.633C202.411 248.558 204.197 255.413 206.252 263.279L206.339 263.617L205.983 263.52L196.896 261.15L170.346 254.159L170.537 254.095L166.028 261.327L164.78 263.287L164.442 263.794C164.407 263.851 164.367 263.905 164.32 263.954C164.32 263.954 164.32 263.89 164.407 263.769L164.693 263.247L165.872 261.246C166.922 259.487 168.413 256.996 170.251 253.934L170.312 253.83H170.442L197.018 260.748L206.07 263.159L205.801 263.4C203.807 255.525 202.073 248.655 200.824 243.721C200.226 241.31 199.749 239.35 199.402 237.968L199.047 236.417C199.006 236.226 198.98 236.032 198.969 235.838V235.838Z" fill="#263238"/>
<path d="M218.504 234.167C218.586 234.313 218.644 234.47 218.677 234.633C218.79 234.994 218.92 235.436 219.094 236.007C219.449 237.252 219.961 238.972 220.524 241.069C221.712 245.408 223.316 251.306 225.102 257.823C225.969 261.094 226.837 264.203 227.548 267.064C228.275 269.59 228.504 272.217 228.224 274.818C228.002 276.577 227.321 278.26 226.238 279.72C225.852 280.259 225.371 280.734 224.816 281.126C225.272 280.651 225.698 280.152 226.091 279.631C227.089 278.175 227.712 276.525 227.912 274.81C228.142 272.243 227.881 269.659 227.14 267.176C226.377 264.34 225.545 261.222 224.66 257.952C222.926 251.427 221.365 245.513 220.221 241.174L218.92 236.079C218.79 235.509 218.677 235.051 218.591 234.689C218.546 234.517 218.517 234.343 218.504 234.167V234.167Z" fill="#263238"/>
<g opacity="0.3">
<path opacity="0.3" d="M224.973 281.431C230.175 281.881 233.219 279.117 233.782 275.348C234.086 273.267 233.349 271.194 232.62 269.201C229.421 260.515 226.178 251.748 221.105 243.857C223.022 251.748 225.441 259.326 227.383 267.225C227.991 269.418 228.265 271.679 228.198 273.942C228.083 276.708 226.944 279.352 224.973 281.431" fill="black"/>
</g>
<path d="M205.766 210.245C207.182 210.643 208.672 210.762 210.141 210.594C211.61 210.427 213.025 209.977 214.295 209.274C215.565 208.57 216.663 207.628 217.517 206.509C218.372 205.389 218.965 204.116 219.257 202.772C219.982 203.365 220.846 203.794 221.781 204.024C222.715 204.254 223.695 204.28 224.642 204.098C226.534 203.716 228.271 202.847 229.654 201.591C230.986 200.498 232.05 199.154 232.777 197.649C233.504 196.144 233.876 194.513 233.868 192.864C233.821 191.215 233.257 189.613 232.246 188.255C231.234 186.897 229.819 185.84 228.171 185.214C224.833 184.106 220.61 185.552 219.231 188.581C218.607 186.862 220.202 184.564 219.821 182.756C219.058 179.18 216.752 177.091 214.801 177.018" fill="#263238"/>
<path d="M209.963 209.321C213.787 203.15 214.879 194.937 215.842 187.826C216.301 184.475 217.099 179.71 214.636 177.621C212.035 175.379 211.749 171.924 208.714 170.188C205.679 168.452 201.578 168.316 198.717 170.301" fill="#263238"/>
<path d="M190.116 221.599V211.957C190.116 211.957 179.234 210.124 178.592 202.089C177.951 194.053 178.176 175.347 178.176 175.347C182.833 173.079 188.074 172.042 193.325 172.351C198.575 172.66 203.633 174.303 207.943 177.099L207.509 205.544V214.809L198.604 221.511L190.098 227.714L190.116 221.599Z" fill="#FFBE9D"/>
<path d="M186.995 192.165C188.452 190.437 190.819 189.754 192.77 190.944C193.73 191.599 194.419 192.539 194.721 193.609C195.022 194.678 194.918 195.811 194.426 196.818C193.998 197.558 193.408 198.207 192.695 198.724C191.981 199.242 191.159 199.616 190.281 199.823C190.281 199.823 194.2 206.444 196.698 208.204C199.663 210.293 201.033 211.322 204.718 211.723C208.403 212.125 207.891 212.157 209.972 209.313C211.381 207.378 212.094 205.08 212.01 202.748C212.126 196.785 212.236 190.826 212.34 184.869C212.477 182.717 212.328 180.558 211.897 178.44C211.466 176.326 210.198 174.438 208.342 173.145C206.279 171.859 203.677 171.755 201.336 171.032C198.406 170.14 195.908 168.292 193.169 166.958C190.429 165.624 187.099 164.836 184.316 166.154C182.347 167.102 181.029 168.991 179.113 170.043C176.391 171.538 172.662 171.209 171.31 175.058C170.863 176.398 170.881 177.834 171.362 179.164C173.234 184.387 180.032 186.476 184.888 184.202C184.983 185.086 184.073 187.063 185.061 189.827C185.374 190.719 185.486 192.085 186.952 192.101" fill="#263238"/>
<path d="M188.512 197.211C188.512 197.211 188.512 197.364 188.633 197.557C188.745 197.692 188.888 197.803 189.051 197.881C189.215 197.958 189.395 198.002 189.578 198.007C190.182 197.962 190.743 197.704 191.148 197.288C191.553 196.871 191.77 196.326 191.755 195.765C191.778 195.457 191.734 195.148 191.627 194.855C191.52 194.563 191.351 194.293 191.13 194.062C190.783 193.693 190.319 193.437 189.804 193.33C188.937 193.162 188.434 193.467 188.468 193.523C188.503 193.579 188.989 193.523 189.691 193.724C190.137 193.869 190.521 194.144 190.785 194.507C191.049 194.871 191.179 195.303 191.156 195.741C191.163 196.172 191.009 196.593 190.72 196.931C190.431 197.269 190.024 197.505 189.57 197.597C188.867 197.637 188.573 197.155 188.512 197.211Z" fill="#EB996E"/>
<path d="M232.733 192.961C232.686 193.225 232.602 193.481 232.481 193.724C232.182 194.394 231.792 195.026 231.319 195.604C229.759 197.561 227.44 198.881 224.851 199.285C222.245 199.622 219.602 198.989 217.498 197.525C216.871 197.092 216.306 196.587 215.816 196.022C215.625 195.823 215.467 195.598 215.348 195.355C216.063 196.059 216.844 196.705 217.68 197.284C219.747 198.624 222.281 199.198 224.781 198.891C227.263 198.497 229.501 197.27 231.068 195.444C231.697 194.661 232.254 193.83 232.733 192.961Z" fill="#455A64"/>
<path d="M231.527 191.643C231.458 191.862 231.355 192.07 231.223 192.262C230.886 192.799 230.491 193.302 230.044 193.764C228.557 195.317 226.589 196.406 224.408 196.882C222.221 197.333 219.936 197.134 217.879 196.312C217.267 196.065 216.686 195.758 216.145 195.396C215.934 195.278 215.747 195.129 215.59 194.954C215.642 194.881 216.457 195.484 218.009 196.038C220.01 196.738 222.188 196.886 224.278 196.464C226.373 195.997 228.282 194.988 229.784 193.556C230.963 192.447 231.449 191.643 231.527 191.643Z" fill="#455A64"/>
<path d="M216.936 202.041C216.936 202.041 216.815 202.121 216.572 202.226C216.208 202.372 215.822 202.467 215.427 202.507C213.951 202.623 212.478 202.247 211.274 201.446C209.535 200.233 208.183 198.606 207.363 196.737C206.306 194.729 205.464 192.366 203.817 190.309C203.047 189.312 202.026 188.504 200.843 187.955C199.72 187.471 198.513 187.177 197.279 187.087C194.912 186.862 192.727 187.006 190.898 186.773C189.442 186.653 188.032 186.245 186.762 185.576C186.425 185.384 186.109 185.163 185.817 184.917C185.712 184.834 185.619 184.74 185.539 184.636C185.539 184.636 185.973 184.982 186.848 185.44C188.122 186.032 189.51 186.385 190.932 186.476C192.727 186.669 194.895 186.476 197.323 186.701C198.607 186.786 199.864 187.085 201.034 187.585C202.28 188.163 203.36 189.009 204.181 190.052C205.915 192.165 206.713 194.552 207.736 196.545C208.515 198.366 209.798 199.965 211.456 201.181C212.595 201.968 213.99 202.371 215.41 202.322C215.928 202.281 216.44 202.187 216.936 202.041Z" fill="#455A64"/>
<path d="M216.084 199.124C215.958 199.16 215.826 199.173 215.694 199.164C215.317 199.166 214.941 199.122 214.576 199.036C213.248 198.648 212.072 197.907 211.194 196.906C210.568 196.242 210.022 195.518 209.564 194.745C209.061 193.941 208.61 193.001 208.107 192.053C207.604 191.066 207.01 190.123 206.33 189.232C205.966 188.77 205.55 188.344 205.09 187.963C204.856 187.773 204.607 187.601 204.344 187.448C204.093 187.264 203.819 187.108 203.529 186.982C202.41 186.458 201.196 186.128 199.948 186.01C198.774 185.883 197.592 185.827 196.41 185.841C194.386 185.907 192.359 185.856 190.341 185.689C188.969 185.563 187.636 185.194 186.413 184.604C186.089 184.432 185.779 184.239 185.485 184.025C185.375 183.961 185.276 183.883 185.19 183.792C185.19 183.792 185.65 184.049 186.491 184.459C187.717 184.979 189.032 185.297 190.376 185.399C192.396 185.523 194.422 185.542 196.445 185.456C197.647 185.434 198.848 185.482 200.043 185.6C201.346 185.722 202.613 186.065 203.781 186.613C204.089 186.745 204.38 186.91 204.648 187.103C204.931 187.265 205.198 187.45 205.445 187.657C205.925 188.056 206.359 188.5 206.737 188.983C207.429 189.898 208.03 190.869 208.532 191.884C209.026 192.84 209.469 193.756 209.945 194.576C210.377 195.337 210.895 196.053 211.489 196.713C212.309 197.701 213.416 198.451 214.68 198.875C215.14 198.993 215.61 199.077 216.084 199.124V199.124Z" fill="#455A64"/>
<path d="M218.21 203.254C218.21 203.254 218.01 203.15 217.724 202.877C217.333 202.495 216.982 202.081 216.675 201.639C215.653 200.153 215.073 198.442 214.993 196.681C214.917 194.92 215.351 193.172 216.25 191.619C216.512 191.148 216.826 190.704 217.186 190.293C217.447 190.012 217.611 189.867 217.637 189.891C217.663 189.915 217.134 190.566 216.527 191.747C215.743 193.28 215.371 194.966 215.444 196.66C215.516 198.355 216.031 200.008 216.944 201.478C217.629 202.611 218.253 203.206 218.21 203.254Z" fill="#B8060D"/>
<path d="M338.853 314.505C344.835 316.442 352.639 314.706 357.755 311.243C362.871 307.779 366.556 302.822 369.816 297.791C371.212 295.638 372.573 293.404 373.007 290.929C373.44 288.454 372.799 285.674 370.735 284.059C367.518 281.552 362.593 282.829 358.943 284.758C353.243 287.832 348.436 292.145 344.936 297.325C341.436 302.504 339.348 308.395 338.853 314.489" fill="#B8060D"/>
<path d="M345.278 327.772C348.868 332.167 355.041 334.12 360.981 334.377C366.92 334.634 372.79 333.107 378.322 331.163C380.343 330.448 382.545 329.467 383.239 327.571C383.456 326.839 383.473 326.069 383.289 325.329C383.104 324.59 382.723 323.905 382.181 323.336C381.087 322.204 379.712 321.335 378.175 320.805C372.609 318.747 366.468 318.439 360.695 319.929C354.946 321.303 349.926 324.397 345.261 327.804" fill="#B8060D"/>
<path d="M338.732 290.752C343.683 290.849 347.402 286.823 349.674 282.717C352.787 276.994 353.821 270.491 352.622 264.179C352.171 261.833 351.209 259.309 348.946 258.176C346.683 257.043 343.648 257.791 341.723 259.422C339.798 261.053 338.732 263.383 337.969 265.698C335.307 273.669 335.879 282.821 338.732 290.736" fill="#B8060D"/>
<path d="M322.5 316.136C330.946 302.821 332.35 286.526 327.365 271.788C326.55 269.378 325.024 266.662 322.327 266.509C319.344 266.332 317.471 269.418 316.648 272.086C313.752 281.439 314.367 291.371 315 301.102C315.399 307.088 317.601 312.199 322.5 316.136Z" fill="#B8060D"/>
<path d="M313.716 321.617C312.146 317.054 309.491 312.876 305.946 309.39C302.402 305.905 298.058 303.202 293.236 301.48C290.99 300.676 288.137 300.25 286.464 301.841C284.79 303.432 285.328 306.004 286.386 307.956C288.12 311.098 290.843 313.629 293.591 316.048C296.097 318.258 298.69 320.468 301.855 321.753C305.019 323.039 310.829 323.36 313.716 321.617Z" fill="#B8060D"/>
<path d="M366.062 287.401C366.062 287.401 366.062 287.45 365.915 287.522L365.464 287.851L363.73 289.081L362.446 289.957C361.978 290.286 361.501 290.672 360.972 291.066C359.923 291.869 358.692 292.745 357.452 293.846L355.458 295.517C354.773 296.104 354.105 296.763 353.385 297.422C351.937 298.715 350.533 300.226 349.05 301.785C342.617 308.694 337.408 316.505 333.616 324.927C332.792 326.88 331.96 328.72 331.362 330.504C331.05 331.388 330.703 332.239 330.443 333.067C330.182 333.895 329.948 334.674 329.714 335.478C329.22 336.996 328.925 338.411 328.613 339.64C328.466 340.251 328.31 340.821 328.197 341.351C328.084 341.882 328.006 342.372 327.928 342.814C327.763 343.666 327.633 344.341 327.538 344.823C327.486 345.04 327.451 345.209 327.425 345.353L327.373 345.53C327.36 345.469 327.36 345.406 327.373 345.345C327.373 345.2 327.416 345.032 327.442 344.815C327.521 344.325 327.633 343.642 327.763 342.79C327.841 342.348 327.919 341.858 328.006 341.319C328.093 340.781 328.249 340.218 328.388 339.592C328.682 338.362 328.951 336.94 329.437 335.413C329.662 334.61 329.896 333.806 330.148 333.003C330.399 332.199 330.729 331.315 331.015 330.423C331.604 328.631 332.419 326.775 333.243 324.798C337.013 316.329 342.247 308.486 348.738 301.576C350.264 300.017 351.686 298.506 353.16 297.213C353.88 296.562 354.547 295.903 355.25 295.316L357.261 293.653C358.519 292.568 359.776 291.708 360.834 290.913C361.371 290.519 361.857 290.149 362.325 289.82L363.634 288.968C364.406 288.47 365.013 288.084 365.446 287.795L365.932 287.498C366.001 287.425 366.062 287.393 366.062 287.401Z" fill="#263238"/>
<path d="M377.247 324.316C377.051 324.303 376.856 324.273 376.666 324.228C376.284 324.164 375.738 324.027 375.018 323.915C372.999 323.562 370.957 323.331 368.906 323.224C362.115 322.837 355.319 323.894 349.038 326.315C342.756 328.735 337.154 332.455 332.662 337.189C331.298 338.613 330.038 340.119 328.89 341.697C328.465 342.244 328.188 342.702 327.962 342.991C327.867 343.151 327.753 343.302 327.624 343.441C327.701 343.274 327.791 343.113 327.893 342.959C328.092 342.653 328.352 342.155 328.76 341.617C329.864 340.001 331.099 338.464 332.454 337.021C336.919 332.206 342.538 328.427 348.862 325.987C355.186 323.546 362.038 322.512 368.871 322.967C370.933 323.091 372.982 323.36 375.001 323.77C375.712 323.899 376.258 324.059 376.631 324.148C376.843 324.18 377.05 324.236 377.247 324.316V324.316Z" fill="#263238"/>
<path d="M346.067 263.512C346.067 263.512 346.067 263.584 346.067 263.721C346.067 263.857 345.989 264.066 345.929 264.316C345.799 264.862 345.617 265.633 345.374 266.606C344.888 268.598 344.151 271.427 343.215 275.011C341.359 282.098 338.654 291.885 335.836 302.677C334.44 308.093 333.174 313.26 332.081 317.944C330.989 322.629 330.096 326.92 329.42 330.512C329.047 332.304 328.778 333.927 328.552 335.333C328.327 336.739 328.084 337.993 327.92 339.005L327.529 341.327L327.425 341.922L327.373 342.131C327.36 342.062 327.36 341.991 327.373 341.922C327.373 341.761 327.417 341.561 327.443 341.311C327.521 340.757 327.625 339.977 327.763 338.981C327.902 337.985 328.076 336.731 328.327 335.301C328.579 333.871 328.821 332.239 329.194 330.439C329.836 326.84 330.72 322.573 331.795 317.848C332.871 313.123 334.128 307.948 335.524 302.54C338.342 291.716 341.09 281.961 343.024 274.89C343.978 271.379 344.758 268.526 345.304 266.517C345.573 265.553 345.781 264.79 345.929 264.243C346.007 264.002 346.059 263.809 346.102 263.657C346.085 263.61 346.074 263.561 346.067 263.512Z" fill="#263238"/>
<path d="M326.679 341.103C326.65 341.049 326.63 340.992 326.618 340.934C326.618 340.805 326.549 340.653 326.505 340.46L326.089 338.604C325.734 336.996 325.222 334.658 324.719 331.757C323.635 325.964 322.352 317.92 321.563 308.969C321.182 304.493 320.965 300.218 320.869 296.329C320.774 292.44 320.869 288.936 320.973 285.995C320.973 284.533 321.112 283.199 321.182 282.034C321.251 280.869 321.338 279.864 321.416 279.045C321.494 278.225 321.554 277.622 321.606 277.164C321.606 276.963 321.65 276.803 321.667 276.674C321.662 276.618 321.662 276.562 321.667 276.505C321.677 276.561 321.677 276.618 321.667 276.674C321.667 276.811 321.667 276.971 321.667 277.164C321.667 277.63 321.598 278.257 321.554 279.061C321.511 279.864 321.433 280.877 321.39 282.05C321.346 283.223 321.251 284.541 321.234 286.003C321.138 288.944 321.13 292.432 321.234 296.321C321.338 300.21 321.563 304.469 321.945 308.937C322.734 317.872 323.974 325.916 324.988 331.717C325.491 334.618 325.924 336.956 326.237 338.579C326.375 339.383 326.488 339.986 326.575 340.444C326.575 340.636 326.635 340.797 326.653 340.934C326.666 340.989 326.675 341.046 326.679 341.103V341.103Z" fill="#263238"/>
<path d="M327.304 342.806C327.209 342.663 327.133 342.509 327.079 342.348C326.94 342.003 326.758 341.545 326.524 341.006L326.125 340.042L325.587 338.909L324.972 337.615C324.746 337.157 324.469 336.699 324.2 336.201L323.333 334.65L322.31 333.043C321.633 331.894 320.758 330.753 319.908 329.515C317.944 326.894 315.822 324.378 313.552 321.978C311.246 319.608 308.809 317.349 306.252 315.212C305.038 314.264 303.928 313.316 302.783 312.52L301.179 311.339L299.714 310.271C298.76 309.596 297.858 309.033 297.069 308.543C296.28 308.053 295.595 307.619 295.014 307.297L293.714 306.494C293.553 306.412 293.402 306.315 293.263 306.205C293.43 306.269 293.592 306.344 293.748 306.43L295.101 307.145C295.691 307.442 296.393 307.852 297.191 308.334C297.988 308.816 298.925 309.363 299.878 310.029L301.422 311.05L303.035 312.215C304.171 313.019 305.298 313.951 306.503 314.891C309.087 317.024 311.541 319.289 313.856 321.673C316.141 324.079 318.267 326.613 320.22 329.258C321.087 330.512 321.954 331.669 322.605 332.826L323.619 334.481C323.905 335.028 324.191 335.55 324.486 336.089C324.781 336.627 325.024 337.053 325.232 337.519C325.44 337.985 325.639 338.419 325.83 338.829C326.021 339.238 326.177 339.632 326.342 339.978L326.706 340.958L327.191 342.324C327.24 342.482 327.278 342.643 327.304 342.806Z" fill="#263238"/>
<path d="M362.932 302.846C362.932 302.902 361.909 302.91 360.261 302.99C355.979 303.201 351.747 303.947 347.68 305.208C346.119 305.682 345.166 306.011 345.14 306.011C345.333 305.878 345.547 305.769 345.773 305.69C346.197 305.505 346.813 305.264 347.585 304.991C349.61 304.294 351.696 303.756 353.819 303.384C355.941 303.011 358.093 302.807 360.253 302.773C361.12 302.773 361.753 302.773 362.212 302.773C362.455 302.769 362.696 302.793 362.932 302.846V302.846Z" fill="#263238"/>
<path d="M369.305 331.677C367.564 328.085 364.596 325.123 360.859 323.248C361.474 323.393 362.06 323.629 362.594 323.947C365.234 325.363 367.35 327.486 368.663 330.038C368.969 330.549 369.185 331.103 369.305 331.677V331.677Z" fill="#263238"/>
<path d="M347.585 274.32C347.663 274.4 346.111 275.83 344.411 277.767C342.712 279.704 341.507 281.391 341.411 281.335C342.921 278.624 345.023 276.235 347.585 274.32Z" fill="#263238"/>
<path d="M342.477 266.156C342.867 267.154 343.126 268.193 343.248 269.249C343.505 270.282 343.633 271.339 343.63 272.399C343.239 271.401 342.98 270.362 342.858 269.306C342.602 268.273 342.474 267.216 342.477 266.156V266.156Z" fill="#263238"/>
<path d="M326.688 291.773C325.987 293.431 325.161 295.042 324.217 296.594C323.391 298.203 322.447 299.757 321.391 301.247C322.094 299.589 322.92 297.978 323.862 296.425C324.693 294.819 325.637 293.264 326.688 291.773V291.773Z" fill="#263238"/>
<path d="M317.288 283.078C318.097 284.18 318.796 285.347 319.378 286.566C320.071 287.732 320.652 288.953 321.112 290.214C320.292 289.117 319.59 287.949 319.014 286.726C318.314 285.564 317.737 284.343 317.288 283.078Z" fill="#263238"/>
<path d="M303.469 312.826C303.469 312.93 301.734 312.625 299.68 312.496C297.625 312.368 295.882 312.432 295.873 312.327C298.409 311.891 301.024 312.062 303.469 312.826V312.826Z" fill="#263238"/>
<path d="M312.91 339.118L317.61 361.995C317.761 362.728 318.183 363.39 318.803 363.867C319.423 364.343 320.203 364.605 321.009 364.606H334.882C335.702 364.605 336.495 364.335 337.12 363.844C337.746 363.353 338.163 362.672 338.298 361.923L342.382 339.086L312.91 339.118Z" fill="#263238"/>
<path d="M314.436 346.567H340.986L342.399 339.118H312.901L314.436 346.567Z" fill="#455A64"/>
<path d="M314.436 346.567L314.99 349.283H340.578L340.985 346.567H314.436Z" fill="#FAFAFA"/>
</svg>
