<svg width="43" height="43" viewBox="0 0 43 43" fill="none" xmlns="http://www.w3.org/2000/svg">
<path d="M0.45 21.5001C0.45 9.89355 9.89343 0.45 21.5 0.45C33.1066 0.45 42.55 9.89355 42.55 21.5001C42.55 33.1067 33.1066 42.55 21.5 42.55C9.89342 42.55 0.45 33.1067 0.45 21.5001ZM3.45909 21.5001C3.45909 31.4483 11.5517 39.5409 21.5 39.5409C31.4482 39.5409 39.5409 31.4483 39.5409 21.5001C39.5409 11.552 31.4483 3.45909 21.5 3.45909C11.5517 3.45909 3.45909 11.552 3.45909 21.5001Z" fill="white" stroke="#333333" stroke-width="0.9"/>
<path d="M19.3443 11.7286C19.3443 10.5392 20.3119 9.57134 21.4998 9.57134C22.6877 9.57134 23.6554 10.5392 23.6554 11.7286C23.6554 12.9163 22.6881 13.8835 21.4998 13.8835C20.3115 13.8835 19.3443 12.9163 19.3443 11.7286Z" fill="white" stroke="#333333" stroke-width="0.9"/>
<path d="M19.9952 20.197C19.9952 19.3661 20.6688 18.6924 21.4997 18.6924C22.3306 18.6924 23.0043 19.3661 23.0043 20.197V31.9243C23.0043 32.7552 22.3306 33.4288 21.4997 33.4288C20.6688 33.4288 19.9952 32.7552 19.9952 31.9243V20.197Z" fill="white" stroke="#333333" stroke-width="0.9"/>
</svg>
