<svg width="43" height="43" viewBox="0 0 43 43" fill="none" xmlns="http://www.w3.org/2000/svg">
<path d="M42.4209 39.6262L36.0352 33.2404C35.6619 32.8671 35.1656 32.6615 34.6377 32.6615C34.3273 32.6615 34.028 32.7331 33.7581 32.8675L32.1236 31.233C33.4465 29.7053 34.2478 27.7142 34.2478 25.5394C34.2478 20.7374 30.3411 16.8308 25.5391 16.8308C20.7372 16.8308 16.8306 20.7374 16.8306 25.5394C16.8306 30.3414 20.7373 34.2481 25.5391 34.2481C27.7139 34.2481 29.705 33.4467 31.2328 32.1238L32.8673 33.7583C32.7328 34.0283 32.6613 34.3275 32.6613 34.6379C32.6613 35.1658 32.8669 35.6621 33.2402 36.0354L39.6259 42.4211C39.9992 42.7945 40.4955 43.0001 41.0234 43.0001C41.5513 43.0001 42.0476 42.7945 42.4209 42.4212C42.7942 42.0479 42.9998 41.5517 42.9998 41.0237C42.9998 40.4958 42.7942 39.9994 42.4209 39.6262V39.6262ZM18.0903 25.5394C18.0903 21.4321 21.4319 18.0906 25.5391 18.0906C29.6464 18.0906 32.988 21.4321 32.988 25.5394C32.988 29.6466 29.6465 32.9883 25.5391 32.9883C21.4318 32.9883 18.0903 29.6466 18.0903 25.5394ZM33.9211 34.6379C33.9211 34.4465 33.9956 34.2666 34.1311 34.1312C34.2664 33.9958 34.4463 33.9214 34.6378 33.9214C34.8292 33.9214 35.009 33.9958 35.1444 34.1312L35.699 34.6858L34.6856 35.6991L34.1311 35.1446C33.9957 35.0092 33.9211 34.8292 33.9211 34.6379V34.6379ZM41.5302 41.5302C41.5302 41.5303 41.5302 41.5303 41.5302 41.5302C41.3948 41.6656 41.2149 41.7402 41.0235 41.7402C40.8321 41.7402 40.6522 41.6657 40.5168 41.5303L35.5764 36.5899L36.5897 35.5765L41.5302 40.517C41.6656 40.6523 41.74 40.8323 41.74 41.0237C41.74 41.2151 41.6656 41.3949 41.5302 41.5302V41.5302Z" fill="white"/>
<path d="M25.5389 19.5237C24.4699 19.5237 23.4146 19.8133 22.4869 20.3612C22.1874 20.538 22.088 20.9244 22.2648 21.2239C22.4418 21.5234 22.828 21.6229 23.1275 21.4459C23.8613 21.0126 24.6952 20.7834 25.5389 20.7834C28.1613 20.7834 30.2948 22.917 30.2948 25.5394C30.2948 26.3832 30.0658 27.2171 29.6324 27.9507C29.4556 28.2502 29.555 28.6366 29.8545 28.8134C29.955 28.8728 30.0653 28.901 30.1742 28.901C30.3896 28.901 30.5996 28.7903 30.7172 28.5914C31.265 27.6638 31.5546 26.6084 31.5546 25.5394C31.5546 22.2223 28.8559 19.5237 25.5389 19.5237V19.5237Z" fill="white"/>
<path d="M27.9505 29.6329C27.2168 30.0663 26.3829 30.2953 25.5391 30.2953C22.9167 30.2953 20.7832 28.1617 20.7832 25.5393C20.7832 24.6955 21.0123 23.8617 21.4457 23.128C21.6225 22.8285 21.5231 22.4422 21.2236 22.2653C20.9241 22.0885 20.5378 22.1879 20.3609 22.4873C19.8131 23.415 19.5234 24.4704 19.5234 25.5393C19.5234 28.8564 22.2221 31.555 25.5391 31.555C26.6082 31.555 27.6635 31.2655 28.5911 30.7176C28.8906 30.5408 28.9901 30.1544 28.8132 29.855C28.6363 29.5555 28.2502 29.4559 27.9505 29.6329Z" fill="white"/>
<path d="M9.3818 20.1102H16.4086C16.7565 20.1102 17.0385 19.8282 17.0385 19.4803C17.0385 19.1325 16.7565 18.8504 16.4086 18.8504H9.3818C6.38809 18.8504 3.95263 16.4149 3.95263 13.4213V5.29916H33.6614V13.4213C33.6614 14.6784 33.2444 15.8583 32.4554 16.8334C32.2366 17.1038 32.2784 17.5004 32.5489 17.7193C32.6654 17.8137 32.8055 17.8595 32.9447 17.8595C33.1283 17.8595 33.3103 17.7796 33.4347 17.6258C34.3932 16.4411 34.9212 14.9479 34.9212 13.4213V5.29916H34.9645C35.7308 5.29916 36.3543 5.92257 36.3543 6.68893V28.2322C36.3543 28.8204 35.982 29.3472 35.4278 29.5431C35.0999 29.659 34.928 30.0189 35.0439 30.3469C35.1599 30.6748 35.5199 30.8468 35.8478 30.7308C36.9042 30.3573 37.614 29.3532 37.614 28.2322V6.68893C37.614 5.22794 36.4255 4.03939 34.9645 4.03939H25.3201L24.4241 1.35139C24.1547 0.543042 23.4012 0 22.5492 0H15.0649C14.2129 0 13.4594 0.543042 13.19 1.35139L12.294 4.03939H2.64954C1.18855 4.03939 0 5.22794 0 6.68893V28.2322C0 29.6932 1.18855 30.8818 2.64954 30.8818H15.4408C15.7887 30.8818 16.0707 30.5998 16.0707 30.2519C16.0707 29.904 15.7887 29.622 15.4408 29.622H2.64954C1.88318 29.622 1.25976 28.9986 1.25976 28.2322V6.68893C1.25976 5.92257 1.88318 5.29916 2.64954 5.29916H2.69287V13.4213C2.69287 17.1095 5.69354 20.1102 9.3818 20.1102V20.1102ZM14.3852 1.74973C14.4828 1.45671 14.756 1.25976 15.0649 1.25976H22.5492C22.8581 1.25976 23.1313 1.45671 23.229 1.74973L23.9921 4.03939H13.6219L14.3852 1.74973Z" fill="white"/>
<path d="M16.1136 12.1182C15.3951 12.1182 14.8105 12.7027 14.8105 13.4213V14.7677C14.8105 15.4863 15.3951 16.0708 16.1136 16.0708H21.4995C22.218 16.0708 22.8026 15.4863 22.8026 14.7677V13.4213C22.8026 12.7027 22.218 12.1182 21.4995 12.1182H16.1136ZM21.5428 13.4213V14.7677C21.5428 14.7916 21.5234 14.811 21.4995 14.811H16.1136C16.0897 14.811 16.0703 14.7916 16.0703 14.7677V13.4213C16.0703 13.3973 16.0897 13.3779 16.1136 13.3779H21.4995C21.5234 13.3779 21.5428 13.3973 21.5428 13.4213Z" fill="white"/>
</svg>
