<svg width="43" height="43" viewBox="0 0 43 43" fill="none" xmlns="http://www.w3.org/2000/svg">
<path d="M5.61084 13.8711H8.38503V15.2582H5.61084V13.8711Z" fill="white"/>
<path d="M40.9194 11.0968C42.0664 11.0968 43 10.1631 43 9.01613V2.08065C43 0.933649 42.0664 0 40.9194 0H31.2097C30.0627 0 29.129 0.933649 29.129 2.08065V9.01613C29.129 10.1631 30.0627 11.0968 31.2097 11.0968H33.2903V12.4839H31.9032V13.871H35.371V20.8065H32.5087C31.9554 20.2663 31.274 19.8528 30.5114 19.6253C30.5148 19.5552 30.5161 19.4874 30.5161 19.4194C30.5161 16.36 28.0271 13.871 24.9677 13.871C23.0696 13.871 21.3053 14.8585 20.2948 16.4379C19.5829 16.1182 18.8132 15.9516 18.0323 15.9516C15.7305 15.9516 13.658 17.4024 12.8472 19.5304C12.3203 19.6435 11.8293 19.846 11.3833 20.1129H6.24194V18.0323H9.01613C10.1631 18.0323 11.0968 17.0986 11.0968 15.9516V2.08065C11.0968 0.933649 10.1631 0 9.01613 0H2.08065C0.933649 0 0 0.933649 0 2.08065V15.9516C0 17.0986 0.933649 18.0323 2.08065 18.0323H4.85484V21.5H9.90812C9.61316 21.9209 9.38424 22.3856 9.23388 22.8871H6.24194V30.5161H3.46774C2.32075 30.5161 1.3871 31.4498 1.3871 32.5968V38.8387H0V40.9194C0 42.0664 0.933649 43 2.08065 43H13.1774C14.3244 43 15.2581 42.0664 15.2581 40.9194V38.8387H13.871V32.5968C13.871 31.4498 12.9373 30.5161 11.7903 30.5161H7.62903V24.2742H9.01613C9.01613 26.9505 11.1946 29.129 13.871 29.129H29.129C31.5697 29.129 33.59 27.3163 33.9283 24.9677H36.7581V30.5161H31.9032V43H43V30.5161H38.1452V23.5806H33.9256C33.8535 23.0923 33.7038 22.6277 33.4942 22.1935H36.7581V13.871H40.2258V12.4839H38.8387V11.0968H40.9194ZM9.70968 11.0968H1.3871V4.16129H9.70968V11.0968ZM2.08065 1.3871H9.01613C9.3988 1.3871 9.70968 1.69797 9.70968 2.08065V2.77419H1.3871V2.08065C1.3871 1.69797 1.69797 1.3871 2.08065 1.3871ZM1.3871 15.9516V12.4839H9.70968V15.9516C9.70968 16.3343 9.3988 16.6452 9.01613 16.6452H2.08065C1.69797 16.6452 1.3871 16.3343 1.3871 15.9516ZM13.871 40.9194C13.871 41.302 13.5601 41.6129 13.1774 41.6129H2.08065C1.69797 41.6129 1.3871 41.302 1.3871 40.9194V40.2258H13.871V40.9194ZM12.4839 32.5968V38.8387H2.77419V32.5968C2.77419 32.2141 3.08507 31.9032 3.46774 31.9032H11.7903C12.173 31.9032 12.4839 32.2141 12.4839 32.5968ZM33.2903 41.6129V37.4516H41.6129V41.6129H33.2903ZM41.6129 36.0645H33.2903V31.9032H41.6129V36.0645ZM29.129 27.7419H13.871C11.959 27.7419 10.4032 26.1862 10.4032 24.2742C10.4032 22.521 11.7155 21.0421 13.4548 20.8342L13.9099 20.7794L14.0383 20.3391C14.5513 18.5724 16.1944 17.3387 18.0323 17.3387C18.7979 17.3387 19.5497 17.5538 20.2087 17.9594L20.8708 18.3679L21.201 17.6625C21.8837 16.2012 23.3622 15.2581 24.9677 15.2581C27.2628 15.2581 29.129 17.1243 29.129 19.4194C29.129 19.6107 29.1118 19.8146 29.0742 20.0608L28.9695 20.7468L29.6553 20.8508C31.3323 21.1068 32.5968 22.5786 32.5968 24.2742C32.5968 26.1862 31.041 27.7419 29.129 27.7419V27.7419ZM31.2097 1.3871H40.9194C41.302 1.3871 41.6129 1.69797 41.6129 2.08065V6.93548H30.5161V2.08065C30.5161 1.69797 30.827 1.3871 31.2097 1.3871ZM30.5161 9.01613V8.32258H41.6129V9.01613C41.6129 9.3988 41.302 9.70968 40.9194 9.70968H31.2097C30.827 9.70968 30.5161 9.3988 30.5161 9.01613ZM37.4516 12.4839H34.6774V11.0968H37.4516V12.4839Z" fill="white"/>
<path d="M36.127 33.2905H37.514V34.6776H36.127V33.2905Z" fill="white"/>
<path d="M40.2881 38.8389H41.6752V40.226H40.2881V38.8389Z" fill="white"/>
<path d="M38.9009 33.2905H41.6751V34.6776H38.9009V33.2905Z" fill="white"/>
<path d="M36.127 38.8389H38.9011V40.226H36.127V38.8389Z" fill="white"/>
</svg>
