<svg width="43" height="43" viewBox="0 0 43 43" fill="none" xmlns="http://www.w3.org/2000/svg">
<path d="M43 22.1935C43 17.5544 39.7278 13.6698 35.371 12.7141V3.46774C35.371 1.55563 33.8153 0 31.9032 0H13.871C11.9589 0 10.4032 1.55563 10.4032 3.46774V11.0968H6.39382L5.97561 12.7724L4.49558 11.884L0.786484 15.591L1.67492 17.0724L0 17.4906V22.7352L1.67561 23.1534L0.786484 24.6348L4.49489 28.3425L5.97492 27.4541L6.39382 29.129H10.4032V39.5323C10.4032 41.4444 11.9589 43 13.871 43H31.9032C33.8153 43 35.371 41.4444 35.371 39.5323V31.673C39.7278 30.7173 43 26.8327 43 22.1935ZM41.6129 22.1935C41.6129 23.5453 41.2821 24.8186 40.7078 25.9484C40.3229 24.8894 39.4372 24.0564 38.2929 23.77L35.371 23.039V22.8732C36.2351 22.222 36.7581 21.1976 36.7581 20.1136V18.7265C36.7581 17.7576 36.3482 16.8255 35.6331 16.1694C34.9188 15.5154 33.9506 15.1866 32.9824 15.2719C31.2104 15.4252 29.8226 17.0065 29.8226 18.8694V20.1129C29.8226 21.1969 30.3455 22.2213 31.2097 22.8725V23.0383L28.2878 23.7693C27.1434 24.0557 26.2577 24.8887 25.8728 25.9477C25.2986 24.8186 24.9677 23.5453 24.9677 22.1935C24.9677 17.6043 28.7011 13.871 33.2903 13.871C37.8795 13.871 41.6129 17.6043 41.6129 22.1935ZM31.2097 12.7141C30.7325 12.8189 30.2706 12.9631 29.8226 13.1351V11.0968H15.9516V20.8065H23.6916C23.6257 21.2607 23.5806 21.7212 23.5806 22.1935C23.5806 26.8327 26.8528 30.7173 31.2097 31.673V33.2903H14.5645V9.70968H31.2097V12.7141ZM23.9898 19.4194H17.3387V12.4839H28.4355V13.7975C26.3174 15.0271 24.7042 17.0287 23.9898 19.4194ZM13.871 1.3871H31.9032C33.0504 1.3871 33.9839 2.32061 33.9839 3.46774V5.54839H11.7903V3.46774C11.7903 2.32061 12.7238 1.3871 13.871 1.3871V1.3871ZM10.4032 23.2838C9.9656 23.4766 9.49329 23.5806 9.01613 23.5806C7.10402 23.5806 5.54839 22.025 5.54839 20.1129C5.54839 18.2008 7.10402 16.6452 9.01613 16.6452C9.49329 16.6452 9.9656 16.7492 10.4032 16.942V23.2838ZM7.47715 27.7419L7.13939 26.3902L6.9986 26.0192L6.20656 25.6974L4.70989 26.5962L2.53353 24.4191L3.43237 22.9218L3.0856 22.0756L1.3871 21.6519V18.5739L3.08352 18.1502L3.43237 17.304L2.53353 15.8067L4.70989 13.6296L6.20656 14.5285L7.05269 14.1845L7.47715 12.4839H10.4032V15.4696C9.95311 15.3344 9.48705 15.2581 9.01613 15.2581C6.33903 15.2581 4.16129 17.4365 4.16129 20.1129C4.16129 22.7893 6.33903 24.9677 9.01613 24.9677C9.48705 24.9677 9.95311 24.8915 10.4032 24.7562V27.7419H7.47715ZM31.9032 41.6129H13.871C12.7238 41.6129 11.7903 40.6794 11.7903 39.5323V37.4516H33.9839V39.5323C33.9839 40.6794 33.0504 41.6129 31.9032 41.6129ZM33.9839 36.0645H11.7903V6.93548H33.9839V12.5192C33.7536 12.5026 33.5247 12.4839 33.2903 12.4839C33.0559 12.4839 32.827 12.5026 32.5968 12.5192V8.32258H13.1774V34.6774H32.5968V31.8679C32.827 31.8845 33.0559 31.9032 33.2903 31.9032C33.5247 31.9032 33.7536 31.8845 33.9839 31.8679V36.0645ZM33.2903 30.5161C30.804 30.5161 28.5749 29.4141 27.0484 27.6802V27.1337C27.0484 26.1773 27.6969 25.3471 28.6241 25.1148L32.5968 24.1223V22.1034L32.2521 21.903C31.5995 21.5229 31.2097 20.8536 31.2097 20.1129V18.8694C31.2097 17.7188 32.0412 16.7457 33.1024 16.6535C33.6974 16.6056 34.2613 16.7929 34.6961 17.1917C35.1248 17.5849 35.371 18.1439 35.371 18.7258V20.1129C35.371 20.8536 34.9812 21.5229 34.3286 21.903L33.9839 22.1034V24.1223L37.9565 25.1148C38.8838 25.3471 39.5323 26.1773 39.5323 27.1337V27.6802C38.0058 29.4141 35.7767 30.5161 33.2903 30.5161Z" fill="white"/>
<path d="M25.6611 2.77441H27.0482V4.16151H25.6611V2.77441Z" fill="white"/>
<path d="M18.7261 2.77441H24.2745V4.16151H18.7261V2.77441Z" fill="white"/>
<path d="M20.1128 38.8389H25.6612V40.226H20.1128V38.8389Z" fill="white"/>
<path d="M29.8228 38.8389H31.2099V40.226H29.8228V38.8389Z" fill="white"/>
<path d="M14.5645 38.8389H15.9515V40.226H14.5645V38.8389Z" fill="white"/>
<path d="M15.9517 22.1934H22.1936V23.5805H15.9517V22.1934Z" fill="white"/>
<path d="M15.9517 24.9678H22.1936V26.3549H15.9517V24.9678Z" fill="white"/>
<path d="M15.9517 27.7417H22.1936V29.1288H15.9517V27.7417Z" fill="white"/>
<path d="M15.9517 30.5161H22.1936V31.9032H15.9517V30.5161Z" fill="white"/>
<path d="M38.8385 12.4841C39.9856 12.4841 40.9191 11.5506 40.9191 10.4034C40.9191 9.50045 40.3372 8.73754 39.532 8.45041V2.77441H38.1449V8.45041C37.3397 8.73754 36.7578 9.50045 36.7578 10.4034C36.7578 11.5506 37.6913 12.4841 38.8385 12.4841ZM38.8385 9.7099C39.2206 9.7099 39.532 10.0206 39.532 10.4034C39.532 10.7863 39.2206 11.097 38.8385 11.097C38.4563 11.097 38.1449 10.7863 38.1449 10.4034C38.1449 10.0206 38.4563 9.7099 38.8385 9.7099Z" fill="white"/>
<path d="M38.145 0H39.5321V1.3871H38.145V0Z" fill="white"/>
<path d="M6.93563 30.5161C5.7885 30.5161 4.85498 31.4496 4.85498 32.5968C4.85498 33.4998 5.43687 34.2627 6.24208 34.5498V40.2258H7.62917V34.5498C8.43438 34.2627 9.01627 33.4998 9.01627 32.5968C9.01627 31.4496 8.08275 30.5161 6.93563 30.5161ZM6.93563 33.2903C6.55348 33.2903 6.24208 32.9796 6.24208 32.5968C6.24208 32.2139 6.55348 31.9032 6.93563 31.9032C7.31777 31.9032 7.62917 32.2139 7.62917 32.5968C7.62917 32.9796 7.31777 33.2903 6.93563 33.2903Z" fill="white"/>
<path d="M6.24219 41.6133H7.62928V43.0004H6.24219V41.6133Z" fill="white"/>
</svg>
