<svg width="56" height="43" viewBox="0 0 56 43" fill="none" xmlns="http://www.w3.org/2000/svg">
<path d="M49.7361 9.01874L49.7361 9.01869C49.5803 8.86295 49.4917 8.648 49.4917 8.42913C49.4917 8.20905 49.5804 7.99414 49.7361 7.8385C49.8905 7.68406 50.1054 7.59521 50.3256 7.59521C50.5443 7.59521 50.7593 7.68373 50.9152 7.8385C51.0703 7.99472 51.1595 8.20985 51.1595 8.42913C51.1595 8.64714 51.0703 8.86234 50.9151 9.01871C50.7588 9.17392 50.5437 9.26305 50.3256 9.26305C50.1059 9.26305 49.8909 9.17364 49.7361 9.01874Z" fill="white" stroke="#333333" stroke-width="0.5"/>
<mask id="path-2-inside-1" fill="white">
<path d="M55.1484 14.6146L53.7029 12.1107C53.4036 11.5924 52.7411 11.4147 52.2223 11.714C51.7039 12.0132 51.5262 12.6761 51.8256 13.1946L53.2712 15.6984C53.3475 15.8305 53.3304 15.9562 53.3135 16.0194C53.2966 16.0826 53.2484 16.2001 53.1164 16.2763L49.2937 18.4833C49.0915 18.5997 48.8324 18.5302 48.7158 18.3284L41.0256 5.00894C40.909 4.80691 40.9785 4.54764 41.1805 4.43091L45.0031 2.22401C45.2051 2.1076 45.4646 2.17675 45.5811 2.37879L46.9481 4.74654C47.2475 5.26507 47.9104 5.44271 48.4287 5.14324C48.9471 4.84398 49.1247 4.18107 48.8254 3.66265L47.4584 1.2949C46.7442 0.0578637 45.1568 -0.367778 43.9193 0.346611L40.0966 2.55362C39.5159 2.88897 39.1141 3.41672 38.925 4.01025H28.0883C26.5668 4.01025 25.1364 4.6027 24.0604 5.67857L22.9501 6.7889C21.9766 6.55684 20.9792 6.43751 19.9761 6.43751H16.6113C16.4432 5.78815 16.0256 5.20372 15.4002 4.84257L11.5775 2.63556C10.9782 2.28948 10.2797 2.19767 9.61148 2.37673C8.94305 2.55579 8.38431 2.98457 8.03833 3.58385L0.348273 16.9034C0.00229641 17.5027 -0.0897255 18.2009 0.0893324 18.8695C0.26839 19.538 0.697175 20.0966 1.29656 20.4426L5.11921 22.6496C5.52621 22.8846 5.97093 22.9962 6.41023 22.9962C6.57032 22.9962 6.72954 22.9807 6.88605 22.9517L10.0148 26.0805C9.96689 26.3265 9.94207 26.5787 9.94207 26.8349C9.94207 27.8764 10.3477 28.8557 11.0842 29.5921C11.7893 30.2972 12.6996 30.6747 13.6247 30.7258C13.6105 30.8617 13.6028 30.9989 13.6028 31.1374C13.6028 32.179 14.0084 33.1582 14.7449 33.8946C15.4814 34.6311 16.4606 35.0367 17.5021 35.0367C17.5304 35.0367 17.5583 35.0353 17.5865 35.0346C17.5858 35.0628 17.5844 35.0908 17.5844 35.1191C17.5844 36.1607 17.99 37.1399 18.7265 37.8763C19.463 38.6128 20.4422 39.0183 21.4837 39.0183C21.512 39.0183 21.54 39.0169 21.5682 39.0163C21.5675 39.0445 21.5661 39.0724 21.5661 39.1007C21.5661 40.1422 21.9717 41.1215 22.7082 41.8579C23.4447 42.5943 24.4239 43 25.4654 43C26.5069 43 27.4862 42.5944 28.2226 41.8579L29.7645 40.3161C30.2166 39.864 30.5331 39.3273 30.7164 38.7567C31.4014 39.2622 32.2154 39.5151 33.0297 39.515C34.0281 39.5149 35.0269 39.1349 35.7869 38.3747C36.2417 37.9199 36.5698 37.3725 36.7547 36.7751C37.3822 37.1854 38.1151 37.4061 38.8822 37.4061C39.9238 37.4061 40.903 37.0005 41.6394 36.264C42.1867 35.7166 42.5509 35.0353 42.7021 34.2939C43.0936 34.4235 43.5072 34.4919 43.9315 34.4919C44.973 34.4919 45.9524 34.0863 46.6888 33.3497C48.2091 31.8294 48.2091 29.3556 46.6888 27.8352L44.159 25.3055L48.7767 20.6878C48.8792 20.7 48.9825 20.707 49.0863 20.707C49.5256 20.707 49.9704 20.5953 50.3773 20.3604L54.1999 18.1535C54.7992 17.8075 55.228 17.2488 55.4072 16.5803C55.5863 15.9117 55.4944 15.2138 55.1484 14.6146V14.6146ZM2.38034 18.5653C2.24832 18.4891 2.2002 18.3717 2.18329 18.3084C2.16638 18.2452 2.14937 18.1195 2.22567 17.9874L9.91573 4.66774C9.99193 4.53572 10.1094 4.48759 10.1726 4.47069C10.1996 4.46353 10.238 4.45627 10.2833 4.45627C10.3443 4.45627 10.4179 4.46939 10.4936 4.51296L14.3162 6.71997C14.5181 6.83659 14.5877 7.09586 14.4711 7.29789L6.78103 20.6174C6.66429 20.8194 6.40524 20.889 6.2031 20.7723L2.38034 18.5653ZM12.1098 26.8348C12.1098 26.3722 12.29 25.9375 12.6171 25.6104L13.5525 24.675C13.89 24.3373 14.3334 24.1686 14.777 24.1686C15.2203 24.1686 15.6638 24.3374 16.0013 24.675C16.3284 25.0021 16.5086 25.4368 16.5086 25.8993C16.5086 26.3618 16.3284 26.7967 16.0013 27.1237L15.0659 28.0591C14.3908 28.7343 13.2923 28.7342 12.6171 28.0591C12.29 27.7322 12.1098 27.2973 12.1098 26.8348V26.8348ZM17.5022 32.8689C17.0396 32.8689 16.6048 32.6888 16.2778 32.3618C15.9507 32.0348 15.7706 31.5999 15.7706 31.1374C15.7706 30.6749 15.9507 30.2401 16.2778 29.9131L17.8196 28.3712C18.1572 28.0337 18.6006 27.8649 19.044 27.8649C19.4875 27.8649 19.9309 28.0337 20.2685 28.3712C20.5956 28.6982 20.7757 29.1331 20.7757 29.5956C20.7757 30.0581 20.5956 30.4929 20.2685 30.8199L18.7266 32.3618C18.3995 32.6889 17.9647 32.8689 17.5022 32.8689ZM21.4838 36.8507C21.0212 36.8507 20.5865 36.6705 20.2595 36.3435C19.9323 36.0165 19.7522 35.5817 19.7522 35.1192C19.7522 34.6567 19.9323 34.2218 20.2595 33.8947L21.8013 32.3529C22.1388 32.0154 22.5822 31.8466 23.0257 31.8466C23.4691 31.8466 23.9126 32.0154 24.2501 32.353C24.5772 32.68 24.7574 33.1149 24.7574 33.5773C24.7574 34.0398 24.5772 34.4747 24.2501 34.8017L22.7083 36.3435C22.3813 36.6705 21.9464 36.8507 21.4838 36.8507ZM28.2318 38.7834L26.6898 40.3253C26.3628 40.6523 25.9281 40.8324 25.4655 40.8324C25.0029 40.8324 24.5681 40.6523 24.2411 40.3253C23.914 39.9982 23.7339 39.5634 23.7339 39.1009C23.7339 38.6383 23.914 38.2036 24.2411 37.8765L25.7829 36.3346C26.1205 35.997 26.5639 35.8283 27.0074 35.8283C27.4507 35.8283 27.8942 35.9971 28.2318 36.3345C28.9069 37.0096 28.9069 38.1082 28.2318 38.7834V38.7834ZM45.1562 31.8171C44.8291 32.1442 44.3943 32.3244 43.9317 32.3244C43.4692 32.3244 43.0345 32.1442 42.7074 31.8171L32.3617 21.4714C31.9384 21.0483 31.2523 21.0482 30.8288 21.4714C30.4055 21.8947 30.4055 22.581 30.8288 23.0043L40.1068 32.2824C40.4339 32.6094 40.6141 33.0443 40.6141 33.5068C40.6141 33.9693 40.4339 34.4041 40.1068 34.7313C39.7798 35.0583 39.3451 35.2384 38.8825 35.2384C38.4199 35.2384 37.9851 35.0583 37.6581 34.7313L26.5092 23.5823C26.0859 23.1591 25.3996 23.1591 24.9762 23.5823C24.553 24.0056 24.553 24.6919 24.9762 25.1151L34.2543 34.3933C34.5814 34.7203 34.7615 35.1552 34.7615 35.6177C34.7615 36.0801 34.5814 36.515 34.2543 36.842C33.5792 37.5172 32.4807 37.5174 31.8054 36.842L29.7649 34.8015C29.7621 34.7987 29.759 34.7963 29.7561 34.7936C28.9755 34.0176 27.9458 33.6416 26.9231 33.6636C26.9237 33.6349 26.9251 33.6063 26.9251 33.5773C26.9251 32.5358 26.5196 31.5566 25.7831 30.8201C25.0015 30.0385 23.9679 29.6599 22.9413 29.6819C22.942 29.6531 22.9434 29.6245 22.9434 29.5957C22.9434 28.5541 22.5378 27.5749 21.8013 26.8384C20.9465 25.9836 19.7904 25.6096 18.6718 25.7159C18.627 24.7434 18.2272 23.8353 17.5341 23.1422C16.0138 21.6219 13.5399 21.6222 12.0196 23.1422L11.0842 24.0776C11.0831 24.0787 11.082 24.0799 11.0809 24.081L8.67403 21.6741L16.2193 8.60528H19.976C20.3441 8.60528 20.7112 8.62479 21.0763 8.66272L19.8373 9.90171C19.1008 10.6382 18.6952 11.6175 18.6952 12.659C18.6952 13.7006 19.1008 14.6798 19.8373 15.4163C20.5975 16.1764 21.5961 16.5566 22.5945 16.5566C23.5931 16.5566 24.5916 16.1765 25.3518 15.4163L28.2778 12.4902L45.1561 29.3684C45.8313 30.0434 45.8313 31.1421 45.1562 31.8171V31.8171ZM34.7425 15.8889C36.3197 14.7473 37.2866 12.9052 37.2866 10.9038C37.2866 10.3051 36.8012 9.81988 36.2027 9.81988C35.6041 9.81988 35.1188 10.3051 35.1188 10.9038C35.1188 12.3196 34.3709 13.6111 33.1776 14.3242L29.0493 10.1959C28.626 9.77262 27.9409 9.76157 27.5175 10.1848L23.8189 13.8834C23.1438 14.5585 22.0453 14.5584 21.3701 13.8834C21.043 13.5564 20.8629 13.1215 20.8629 12.659C20.8629 12.1965 21.043 11.7617 21.3701 11.4345L25.5933 7.2114C26.2596 6.54503 27.1457 6.17802 28.0883 6.17802H39.1976L46.8384 19.4125C46.8565 19.4438 46.8762 19.4736 46.8954 19.5039L42.6264 23.7728L34.7425 15.8889Z"/>
</mask>
<path d="M55.1484 14.6146L53.7029 12.1107C53.4036 11.5924 52.7411 11.4147 52.2223 11.714C51.7039 12.0132 51.5262 12.6761 51.8256 13.1946L53.2712 15.6984C53.3475 15.8305 53.3304 15.9562 53.3135 16.0194C53.2966 16.0826 53.2484 16.2001 53.1164 16.2763L49.2937 18.4833C49.0915 18.5997 48.8324 18.5302 48.7158 18.3284L41.0256 5.00894C40.909 4.80691 40.9785 4.54764 41.1805 4.43091L45.0031 2.22401C45.2051 2.1076 45.4646 2.17675 45.5811 2.37879L46.9481 4.74654C47.2475 5.26507 47.9104 5.44271 48.4287 5.14324C48.9471 4.84398 49.1247 4.18107 48.8254 3.66265L47.4584 1.2949C46.7442 0.0578637 45.1568 -0.367778 43.9193 0.346611L40.0966 2.55362C39.5159 2.88897 39.1141 3.41672 38.925 4.01025H28.0883C26.5668 4.01025 25.1364 4.6027 24.0604 5.67857L22.9501 6.7889C21.9766 6.55684 20.9792 6.43751 19.9761 6.43751H16.6113C16.4432 5.78815 16.0256 5.20372 15.4002 4.84257L11.5775 2.63556C10.9782 2.28948 10.2797 2.19767 9.61148 2.37673C8.94305 2.55579 8.38431 2.98457 8.03833 3.58385L0.348273 16.9034C0.00229641 17.5027 -0.0897255 18.2009 0.0893324 18.8695C0.26839 19.538 0.697175 20.0966 1.29656 20.4426L5.11921 22.6496C5.52621 22.8846 5.97093 22.9962 6.41023 22.9962C6.57032 22.9962 6.72954 22.9807 6.88605 22.9517L10.0148 26.0805C9.96689 26.3265 9.94207 26.5787 9.94207 26.8349C9.94207 27.8764 10.3477 28.8557 11.0842 29.5921C11.7893 30.2972 12.6996 30.6747 13.6247 30.7258C13.6105 30.8617 13.6028 30.9989 13.6028 31.1374C13.6028 32.179 14.0084 33.1582 14.7449 33.8946C15.4814 34.6311 16.4606 35.0367 17.5021 35.0367C17.5304 35.0367 17.5583 35.0353 17.5865 35.0346C17.5858 35.0628 17.5844 35.0908 17.5844 35.1191C17.5844 36.1607 17.99 37.1399 18.7265 37.8763C19.463 38.6128 20.4422 39.0183 21.4837 39.0183C21.512 39.0183 21.54 39.0169 21.5682 39.0163C21.5675 39.0445 21.5661 39.0724 21.5661 39.1007C21.5661 40.1422 21.9717 41.1215 22.7082 41.8579C23.4447 42.5943 24.4239 43 25.4654 43C26.5069 43 27.4862 42.5944 28.2226 41.8579L29.7645 40.3161C30.2166 39.864 30.5331 39.3273 30.7164 38.7567C31.4014 39.2622 32.2154 39.5151 33.0297 39.515C34.0281 39.5149 35.0269 39.1349 35.7869 38.3747C36.2417 37.9199 36.5698 37.3725 36.7547 36.7751C37.3822 37.1854 38.1151 37.4061 38.8822 37.4061C39.9238 37.4061 40.903 37.0005 41.6394 36.264C42.1867 35.7166 42.5509 35.0353 42.7021 34.2939C43.0936 34.4235 43.5072 34.4919 43.9315 34.4919C44.973 34.4919 45.9524 34.0863 46.6888 33.3497C48.2091 31.8294 48.2091 29.3556 46.6888 27.8352L44.159 25.3055L48.7767 20.6878C48.8792 20.7 48.9825 20.707 49.0863 20.707C49.5256 20.707 49.9704 20.5953 50.3773 20.3604L54.1999 18.1535C54.7992 17.8075 55.228 17.2488 55.4072 16.5803C55.5863 15.9117 55.4944 15.2138 55.1484 14.6146V14.6146ZM2.38034 18.5653C2.24832 18.4891 2.2002 18.3717 2.18329 18.3084C2.16638 18.2452 2.14937 18.1195 2.22567 17.9874L9.91573 4.66774C9.99193 4.53572 10.1094 4.48759 10.1726 4.47069C10.1996 4.46353 10.238 4.45627 10.2833 4.45627C10.3443 4.45627 10.4179 4.46939 10.4936 4.51296L14.3162 6.71997C14.5181 6.83659 14.5877 7.09586 14.4711 7.29789L6.78103 20.6174C6.66429 20.8194 6.40524 20.889 6.2031 20.7723L2.38034 18.5653ZM12.1098 26.8348C12.1098 26.3722 12.29 25.9375 12.6171 25.6104L13.5525 24.675C13.89 24.3373 14.3334 24.1686 14.777 24.1686C15.2203 24.1686 15.6638 24.3374 16.0013 24.675C16.3284 25.0021 16.5086 25.4368 16.5086 25.8993C16.5086 26.3618 16.3284 26.7967 16.0013 27.1237L15.0659 28.0591C14.3908 28.7343 13.2923 28.7342 12.6171 28.0591C12.29 27.7322 12.1098 27.2973 12.1098 26.8348V26.8348ZM17.5022 32.8689C17.0396 32.8689 16.6048 32.6888 16.2778 32.3618C15.9507 32.0348 15.7706 31.5999 15.7706 31.1374C15.7706 30.6749 15.9507 30.2401 16.2778 29.9131L17.8196 28.3712C18.1572 28.0337 18.6006 27.8649 19.044 27.8649C19.4875 27.8649 19.9309 28.0337 20.2685 28.3712C20.5956 28.6982 20.7757 29.1331 20.7757 29.5956C20.7757 30.0581 20.5956 30.4929 20.2685 30.8199L18.7266 32.3618C18.3995 32.6889 17.9647 32.8689 17.5022 32.8689ZM21.4838 36.8507C21.0212 36.8507 20.5865 36.6705 20.2595 36.3435C19.9323 36.0165 19.7522 35.5817 19.7522 35.1192C19.7522 34.6567 19.9323 34.2218 20.2595 33.8947L21.8013 32.3529C22.1388 32.0154 22.5822 31.8466 23.0257 31.8466C23.4691 31.8466 23.9126 32.0154 24.2501 32.353C24.5772 32.68 24.7574 33.1149 24.7574 33.5773C24.7574 34.0398 24.5772 34.4747 24.2501 34.8017L22.7083 36.3435C22.3813 36.6705 21.9464 36.8507 21.4838 36.8507ZM28.2318 38.7834L26.6898 40.3253C26.3628 40.6523 25.9281 40.8324 25.4655 40.8324C25.0029 40.8324 24.5681 40.6523 24.2411 40.3253C23.914 39.9982 23.7339 39.5634 23.7339 39.1009C23.7339 38.6383 23.914 38.2036 24.2411 37.8765L25.7829 36.3346C26.1205 35.997 26.5639 35.8283 27.0074 35.8283C27.4507 35.8283 27.8942 35.9971 28.2318 36.3345C28.9069 37.0096 28.9069 38.1082 28.2318 38.7834V38.7834ZM45.1562 31.8171C44.8291 32.1442 44.3943 32.3244 43.9317 32.3244C43.4692 32.3244 43.0345 32.1442 42.7074 31.8171L32.3617 21.4714C31.9384 21.0483 31.2523 21.0482 30.8288 21.4714C30.4055 21.8947 30.4055 22.581 30.8288 23.0043L40.1068 32.2824C40.4339 32.6094 40.6141 33.0443 40.6141 33.5068C40.6141 33.9693 40.4339 34.4041 40.1068 34.7313C39.7798 35.0583 39.3451 35.2384 38.8825 35.2384C38.4199 35.2384 37.9851 35.0583 37.6581 34.7313L26.5092 23.5823C26.0859 23.1591 25.3996 23.1591 24.9762 23.5823C24.553 24.0056 24.553 24.6919 24.9762 25.1151L34.2543 34.3933C34.5814 34.7203 34.7615 35.1552 34.7615 35.6177C34.7615 36.0801 34.5814 36.515 34.2543 36.842C33.5792 37.5172 32.4807 37.5174 31.8054 36.842L29.7649 34.8015C29.7621 34.7987 29.759 34.7963 29.7561 34.7936C28.9755 34.0176 27.9458 33.6416 26.9231 33.6636C26.9237 33.6349 26.9251 33.6063 26.9251 33.5773C26.9251 32.5358 26.5196 31.5566 25.7831 30.8201C25.0015 30.0385 23.9679 29.6599 22.9413 29.6819C22.942 29.6531 22.9434 29.6245 22.9434 29.5957C22.9434 28.5541 22.5378 27.5749 21.8013 26.8384C20.9465 25.9836 19.7904 25.6096 18.6718 25.7159C18.627 24.7434 18.2272 23.8353 17.5341 23.1422C16.0138 21.6219 13.5399 21.6222 12.0196 23.1422L11.0842 24.0776C11.0831 24.0787 11.082 24.0799 11.0809 24.081L8.67403 21.6741L16.2193 8.60528H19.976C20.3441 8.60528 20.7112 8.62479 21.0763 8.66272L19.8373 9.90171C19.1008 10.6382 18.6952 11.6175 18.6952 12.659C18.6952 13.7006 19.1008 14.6798 19.8373 15.4163C20.5975 16.1764 21.5961 16.5566 22.5945 16.5566C23.5931 16.5566 24.5916 16.1765 25.3518 15.4163L28.2778 12.4902L45.1561 29.3684C45.8313 30.0434 45.8313 31.1421 45.1562 31.8171V31.8171ZM34.7425 15.8889C36.3197 14.7473 37.2866 12.9052 37.2866 10.9038C37.2866 10.3051 36.8012 9.81988 36.2027 9.81988C35.6041 9.81988 35.1188 10.3051 35.1188 10.9038C35.1188 12.3196 34.3709 13.6111 33.1776 14.3242L29.0493 10.1959C28.626 9.77262 27.9409 9.76157 27.5175 10.1848L23.8189 13.8834C23.1438 14.5585 22.0453 14.5584 21.3701 13.8834C21.043 13.5564 20.8629 13.1215 20.8629 12.659C20.8629 12.1965 21.043 11.7617 21.3701 11.4345L25.5933 7.2114C26.2596 6.54503 27.1457 6.17802 28.0883 6.17802H39.1976L46.8384 19.4125C46.8565 19.4438 46.8762 19.4736 46.8954 19.5039L42.6264 23.7728L34.7425 15.8889Z" fill="white" stroke="#333333" mask="url(#path-2-inside-1)"/>
</svg>
