<svg width="43" height="43" viewBox="0 0 43 43" fill="none" xmlns="http://www.w3.org/2000/svg">
<path d="M40.4805 6.71875H38.4648V2.51953C38.4648 1.13026 37.3346 0 35.9453 0H7.05469C5.66542 0 4.53516 1.13026 4.53516 2.51953V6.71875H2.51953C1.13026 6.71875 0 7.84901 0 9.23828V33.4256C0 34.8149 1.13026 35.9451 2.51953 35.9451H17.3008V37.9606H15.7031C14.3138 37.9606 13.1835 39.0909 13.1835 40.4801V42.1602C13.1835 42.624 13.5595 43 14.0234 43H28.9767C29.4406 43 29.8166 42.624 29.8166 42.1602V40.4801C29.8166 39.0909 28.6863 37.9606 27.297 37.9606H25.6992V35.9451H40.4805C41.8697 35.9451 43 34.8149 43 33.4256V9.23828C43 7.84901 41.8697 6.71875 40.4805 6.71875ZM40.4805 8.39844C40.9436 8.39844 41.3203 8.77519 41.3203 9.23828V28.5545H38.4648V8.39844H40.4805ZM7.05469 1.67969H35.9453C36.4084 1.67969 36.7852 2.05644 36.7852 2.51953V6.71875H6.21484V2.51953C6.21484 2.05644 6.5916 1.67969 7.05469 1.67969ZM2.51953 8.39844H4.53516V14.6964C4.53516 15.1603 4.91115 15.5363 5.375 15.5363C5.83885 15.5363 6.21484 15.1603 6.21484 14.6964V8.39844H36.7852V28.5545H32.502V25.7869C32.502 25.3231 32.126 24.9471 31.6621 24.9471H30.5694C30.3773 24.2858 30.1138 23.65 29.7814 23.0459L30.5544 22.2729C30.8824 21.9449 30.8824 21.4132 30.5544 21.0851L28.0047 18.5354C27.6767 18.2075 27.1449 18.2075 26.8169 18.5354L26.0439 19.3084C25.4399 18.976 24.804 18.7125 24.1427 18.5205V17.4278C24.1427 16.9639 23.7667 16.5879 23.3029 16.5879H19.6969C19.2331 16.5879 18.8571 16.9639 18.8571 17.4278V18.5205C18.1958 18.7126 17.56 18.976 16.9559 19.3084L16.1829 18.5354C15.855 18.2075 15.3232 18.2075 14.9952 18.5354L12.4454 21.0851C12.1174 21.4131 12.1174 21.9449 12.4454 22.2729L13.2185 23.0459C12.8861 23.6499 12.6225 24.2858 12.4304 24.9471H11.3379C10.874 24.9471 10.498 25.3231 10.498 25.7869V28.5545H6.21484V22.255C6.21484 21.7912 5.83885 21.4152 5.375 21.4152C4.91115 21.4152 4.53516 21.7912 4.53516 22.255V28.5545H1.67969V9.23828C1.67969 8.77519 2.05644 8.39844 2.51953 8.39844V8.39844ZM14.869 22.3209L14.2271 21.679L15.5892 20.3169L16.2311 20.9588C16.5113 21.2389 16.9493 21.2852 17.2819 21.0696C18.0766 20.5543 18.9481 20.193 19.8722 19.996C20.2599 19.9134 20.537 19.571 20.537 19.1746V18.2674H22.4632V19.1746C22.4632 19.571 22.7403 19.9134 23.128 19.996C24.0519 20.193 24.9235 20.5542 25.7183 21.0696C26.0509 21.2852 26.4888 21.239 26.7691 20.9588L27.411 20.3169L28.773 21.679L28.1312 22.3209C27.851 22.6011 27.8047 23.0391 28.0204 23.3717C28.5357 24.1665 28.8969 25.038 29.094 25.962C29.1766 26.3496 29.519 26.6267 29.9153 26.6267H30.8223V28.5545H25.5864C25.6612 28.2396 25.6997 27.9159 25.6997 27.5899C25.6997 25.2741 23.8157 23.3902 21.5 23.3902C19.1843 23.3902 17.3003 25.2742 17.3003 27.5899C17.3003 27.9159 17.3388 28.2396 17.4136 28.5545H12.1777V26.6267H13.0848C13.4812 26.6267 13.8236 26.3497 13.9062 25.962C14.1032 25.0379 14.4645 24.1664 14.9798 23.3717C15.1955 23.0392 15.1493 22.6011 14.869 22.3209V22.3209ZM18.98 27.5899C18.98 26.2004 20.1104 25.0698 21.5 25.0698C22.8896 25.0698 24.02 26.2004 24.02 27.5899C24.02 27.9215 23.9529 28.2492 23.8255 28.5545H19.1745C19.0471 28.2492 18.98 27.9215 18.98 27.5899V27.5899ZM28.1368 40.4801V41.3203H14.8632V40.4801C14.8632 40.017 15.24 39.6403 15.7031 39.6403H27.297C27.7601 39.6403 28.1368 40.017 28.1368 40.4801ZM24.0195 37.9606H18.9805V35.9451H24.0195V37.9606ZM40.4805 34.2655H2.51953C2.05644 34.2655 1.67969 33.8887 1.67969 33.4256V30.2342H41.3203V33.4256C41.3203 33.8887 40.9436 34.2655 40.4805 34.2655Z" fill="white"/>
<path d="M24.0195 5.03906H33.0898C33.5537 5.03906 33.9297 4.66306 33.9297 4.19922C33.9297 3.73537 33.5537 3.35938 33.0898 3.35938H24.0195C23.5557 3.35938 23.1797 3.73537 23.1797 4.19922C23.1797 4.66306 23.5557 5.03906 24.0195 5.03906Z" fill="white"/>
<path d="M13.6055 5.03906C13.8263 5.03906 14.043 4.9492 14.1992 4.79299C14.3554 4.63678 14.4453 4.4201 14.4453 4.19922C14.4453 3.97834 14.3554 3.76166 14.1992 3.60545C14.043 3.44924 13.8263 3.35938 13.6055 3.35938C13.3846 3.35938 13.1679 3.44924 13.0117 3.60545C12.8555 3.76166 12.7656 3.97834 12.7656 4.19922C12.7656 4.4201 12.8555 4.63678 13.0117 4.79299C13.1679 4.9492 13.3846 5.03906 13.6055 5.03906Z" fill="white"/>
<path d="M9.91016 5.03906C10.131 5.03906 10.3477 4.9492 10.5039 4.79299C10.6601 4.63678 10.75 4.4201 10.75 4.19922C10.75 3.97834 10.6601 3.76166 10.5039 3.60545C10.3477 3.44924 10.131 3.35938 9.91016 3.35938C9.68928 3.35938 9.4726 3.44924 9.31639 3.60545C9.16018 3.76166 9.07031 3.97834 9.07031 4.19922C9.07031 4.4201 9.16018 4.63678 9.31639 4.79299C9.4726 4.9492 9.68928 5.03906 9.91016 5.03906Z" fill="white"/>
<path d="M17.3008 5.03906C17.5217 5.03906 17.7383 4.9492 17.8946 4.79299C18.0508 4.63678 18.1406 4.4201 18.1406 4.19922C18.1406 3.97834 18.0508 3.76166 17.8946 3.60545C17.7383 3.44924 17.5217 3.35938 17.3008 3.35938C17.0799 3.35938 16.8632 3.44924 16.707 3.60545C16.5508 3.76166 16.4609 3.97834 16.4609 4.19922C16.4609 4.4201 16.5508 4.63678 16.707 4.79299C16.8632 4.9492 17.0799 5.03906 17.3008 5.03906Z" fill="white"/>
<path d="M9.40625 12.4292H11.4049C11.8688 12.4292 12.2448 12.0532 12.2448 11.5894C12.2448 11.1255 11.8688 10.7495 11.4049 10.7495H9.40625C8.9424 10.7495 8.56641 11.1255 8.56641 11.5894C8.56641 12.0532 8.9424 12.4292 9.40625 12.4292Z" fill="white"/>
<path d="M15.1001 12.4292H22.8047C23.2685 12.4292 23.6445 12.0532 23.6445 11.5894C23.6445 11.1255 23.2685 10.7495 22.8047 10.7495H15.1001C14.6363 10.7495 14.2603 11.1255 14.2603 11.5894C14.2603 12.0532 14.6363 12.4292 15.1001 12.4292Z" fill="white"/>
<path d="M9.40625 16.4604H14.2773C14.7412 16.4604 15.1172 16.0845 15.1172 15.6206C15.1172 15.1568 14.7412 14.7808 14.2773 14.7808H9.40625C8.9424 14.7808 8.56641 15.1568 8.56641 15.6206C8.56641 16.0845 8.9424 16.4604 9.40625 16.4604Z" fill="white"/>
<path d="M26.5002 12.4292H33.5939C34.0577 12.4292 34.4337 12.0532 34.4337 11.5894C34.4337 11.1255 34.0577 10.7495 33.5939 10.7495H26.5002C26.0364 10.7495 25.6604 11.1255 25.6604 11.5894C25.6604 12.0532 26.0364 12.4292 26.5002 12.4292Z" fill="white"/>
<path d="M33.594 14.7808H27.8462C27.3823 14.7808 27.0063 15.1568 27.0063 15.6206C27.0063 16.0845 27.3823 16.4604 27.8462 16.4604H33.594C34.0578 16.4604 34.4338 16.0845 34.4338 15.6206C34.4338 15.1568 34.0578 14.7808 33.594 14.7808Z" fill="white"/>
<path d="M5.375 19.3154C5.59588 19.3154 5.81256 19.2256 5.96877 19.0694C6.12498 18.9131 6.21484 18.6965 6.21484 18.4756C6.21484 18.2547 6.12498 18.038 5.96877 17.8818C5.81256 17.7256 5.59588 17.6357 5.375 17.6357C5.15412 17.6357 4.93744 17.7256 4.78123 17.8818C4.62502 18.038 4.53516 18.2547 4.53516 18.4756C4.53516 18.6965 4.62502 18.9131 4.78123 19.0694C4.93744 19.2256 5.15412 19.3154 5.375 19.3154V19.3154Z" fill="white"/>
</svg>
