<svg width="43" height="43" viewBox="0 0 43 43" fill="none" xmlns="http://www.w3.org/2000/svg">
<path d="M22.2166 35.8334H20.7833V37.2667H22.2166V35.8334Z" fill="white"/>
<path d="M42.2833 37.2667H41.5667V11.4667C41.5667 9.88346 40.2832 8.6 38.7 8.6H34.4V2.86667C34.4 1.28346 33.1165 0 31.5333 0H11.4667C9.88346 0 8.6 1.28346 8.6 2.86667V8.6H4.3C2.71679 8.6 1.43333 9.88346 1.43333 11.4667V37.2667H0.716667C0.320887 37.2667 0 37.5876 0 37.9833V40.1333C0 41.7165 1.28346 43 2.86667 43H40.1333C41.7165 43 43 41.7165 43 40.1333V37.9833C43 37.5876 42.6791 37.2667 42.2833 37.2667ZM10.0333 2.86667C10.0333 2.07502 10.675 1.43333 11.4667 1.43333H31.5333C32.325 1.43333 32.9667 2.07502 32.9667 2.86667V5.73333H10.0333V2.86667ZM10.0333 7.16667H32.9667V27.95C32.9667 28.7416 32.325 29.3833 31.5333 29.3833H11.4667C10.675 29.3833 10.0333 28.7416 10.0333 27.95V7.16667ZM11.4667 30.8167H31.5333C33.1165 30.8167 34.4 29.5332 34.4 27.95V12.9H37.2667V32.9667H5.73333V12.9H8.6V27.95C8.6 29.5332 9.88346 30.8167 11.4667 30.8167ZM2.86667 11.4667C2.86667 10.675 3.50835 10.0333 4.3 10.0333H8.6V11.4667H5.01667C4.62089 11.4667 4.3 11.7876 4.3 12.1833V33.6833C4.3 34.0791 4.62089 34.4 5.01667 34.4H37.9833C38.3791 34.4 38.7 34.0791 38.7 33.6833V12.1833C38.7 11.7876 38.3791 11.4667 37.9833 11.4667H34.4V10.0333H38.7C39.4916 10.0333 40.1333 10.675 40.1333 11.4667V37.2667H27.95C27.7601 37.2665 27.5778 37.3418 27.4433 37.4759L26.22 38.7H16.78L15.5567 37.4759C15.4222 37.3418 15.2399 37.2665 15.05 37.2667H2.86667V11.4667ZM41.5667 40.1333C41.5667 40.925 40.925 41.5667 40.1333 41.5667H2.86667C2.07502 41.5667 1.43333 40.925 1.43333 40.1333V38.7H14.7533L15.9766 39.9233C16.111 40.0577 16.2932 40.1333 16.4833 40.1333H26.5167C26.7068 40.1333 26.889 40.0577 27.0233 39.9233L28.2467 38.7H41.5667V40.1333Z" fill="white"/>
<path d="M30.8167 22.9333H12.1833V24.3667H30.8167V22.9333Z" fill="white"/>
<path d="M29.3833 25.8001H12.1833V27.2334H29.3833V25.8001Z" fill="white"/>
<path d="M30.8168 20.0666H16.4835V21.4999H30.8168V20.0666Z" fill="white"/>
<path d="M12.9 2.86675H11.4667V4.30009H12.9V2.86675Z" fill="white"/>
<path d="M15.7667 2.86675H14.3334V4.30009H15.7667V2.86675Z" fill="white"/>
<path d="M18.6335 2.86675H17.2002V4.30009H18.6335V2.86675Z" fill="white"/>
<path d="M15.0501 20.0666H13.6167V21.4999H15.0501V20.0666Z" fill="white"/>
<path d="M19.0635 12.0398L18.2035 10.8932L15.3368 13.0432C15.0201 13.2807 14.956 13.7298 15.1935 14.0465C15.2342 14.1008 15.2825 14.1491 15.3368 14.1898L18.2035 16.3398L19.0635 15.1932L16.9615 13.6165L19.0635 12.0398Z" fill="white"/>
<path d="M27.8068 13.1865C27.766 13.1322 27.7177 13.0839 27.6634 13.0432L24.7968 10.8932L23.9368 12.0398L26.0387 13.6165L23.9368 15.1932L24.7968 16.3398L27.6634 14.1898C27.9801 13.9523 28.0442 13.5032 27.8068 13.1865Z" fill="white"/>
<path d="M22.2689 9.76854L19.4014 16.9344L20.7321 17.4669L23.5996 10.301L22.2689 9.76854Z" fill="white"/>
</svg>
