<svg width="48" height="42" viewBox="0 0 48 42" fill="none" xmlns="http://www.w3.org/2000/svg">
<path d="M15.4932 28.0001H40.7867C41.413 28.0001 41.9625 27.586 42.132 26.9844L47.7323 7.38421C47.8526 6.96166 47.7702 6.50776 47.5052 6.15667C47.2398 5.80667 46.8271 5.59995 46.3867 5.59995H12.2612L11.2604 1.09666C11.1182 0.455361 10.5495 0 9.89325 0H1.39999C0.626349 0 0 0.626349 0 1.39999C0 2.17399 0.626349 2.79998 1.39999 2.79998H8.76962L13.8253 25.5498C12.3378 26.1966 11.2932 27.6771 11.2932 29.4001C11.2932 31.7159 13.1774 33.6001 15.4932 33.6001H40.7867C41.5607 33.6001 42.1867 32.9741 42.1867 32.2001C42.1867 31.4265 41.5607 30.8001 40.7867 30.8001H15.4932C14.7221 30.8001 14.0932 30.1727 14.0932 29.4001C14.0932 28.6276 14.7221 28.0001 15.4932 28.0001V28.0001Z" fill="white"/>
<path d="M14.0928 37.8001C14.0928 40.1162 15.9769 42 18.2931 42C20.6089 42 22.4931 40.1162 22.4931 37.8001C22.4931 35.4842 20.6089 33.6001 18.2931 33.6001C15.9769 33.6001 14.0928 35.4842 14.0928 37.8001Z" fill="white"/>
<path d="M33.7871 37.8001C33.7871 40.1162 35.6713 42 37.9871 42C40.3033 42 42.187 40.1162 42.187 37.8001C42.187 35.4842 40.3033 33.6001 37.9871 33.6001C35.6713 33.6001 33.7871 35.4842 33.7871 37.8001Z" fill="white"/>
</svg>
