<svg width="45" height="45" viewBox="0 0 45 45" fill="none" xmlns="http://www.w3.org/2000/svg">
<path d="M29.6246 42.2824L24.4219 37.0797V29.9148C25.1101 29.7364 25.7694 29.4613 26.3804 29.098L32.1096 34.8272V41.7193H35.9535V35.9535H41.7193V32.1096H34.8272L29.098 26.3804C29.4613 25.7694 29.7364 25.1101 29.9148 24.4219H37.0797L42.2824 29.6246L45 26.907L40.593 22.5L45 18.093L42.2824 15.3754L37.0797 20.5781H29.9148C29.8449 20.2978 29.759 20.0219 29.6573 19.7516L34.8003 14.8123H41.7193V10.9684H35.9535V5.20266H32.1096V12.0716L27.3798 16.6093C26.5179 15.8899 25.5079 15.3695 24.4219 15.0852V7.92026L29.6246 2.7176L26.907 0L22.5 4.40698L18.093 0L15.3754 2.7176L20.5781 7.92026V15.0852C19.8821 15.2673 19.2151 15.5461 18.5966 15.9136L12.8904 10.3919V3.28073H9.04651V9.21948L3.33839 9.04651L3.22307 12.8904L10.1651 13.0999L15.8886 18.6446C15.5327 19.2488 15.2623 19.8995 15.0852 20.5781H7.92026L2.7176 15.3754L0 18.093L4.40698 22.5L0 26.907L2.7176 29.6246L7.92026 24.4219H15.0852C15.2636 25.1101 15.5387 25.7694 15.902 26.3804L10.1728 32.1096H3.28073V35.9535H9.04651V41.7193H12.8904V34.8272L18.6196 29.098C19.2306 29.4613 19.8899 29.7364 20.5781 29.9148V37.0797L15.3754 42.2824L18.093 45L22.5 40.593L26.907 45L29.6246 42.2824ZM18.6561 22.5C18.6561 20.3771 20.3771 18.6561 22.5 18.6561C24.6229 18.6561 26.3439 20.3771 26.3439 22.5C26.3439 24.6229 24.6229 26.3439 22.5 26.3439C20.3771 26.3439 18.6561 24.6229 18.6561 22.5Z" fill="white"/>
</svg>
