<svg width="56" height="42" viewBox="0 0 56 42" fill="none" xmlns="http://www.w3.org/2000/svg">
<path d="M29.8707 24.3308C29.7659 24.2667 29.6611 24.2057 29.5522 24.1509V18.4977C29.5522 15.977 27.5352 13.9265 25.0532 13.9265H10.0512C7.56919 13.9265 5.55122 15.9759 5.55122 18.4977V24.1509C5.44131 24.2068 5.33548 24.2677 5.23269 24.3308L4.95081 21.6209H0V24.2099L4.97727 24.4992C4.04816 25.1679 3.45081 26.1869 3.45081 27.3341V32.513C3.45081 33.8018 4.20386 34.9324 5.34158 35.5835V39.0654C5.34158 40.2415 6.68893 41.1965 8.34972 41.1965C10.0125 41.1965 11.3599 40.2405 11.3599 39.0654V36.1695H23.2256V39.0654C23.2256 40.2415 24.5719 41.1965 26.2347 41.1965C27.8965 41.1965 29.2439 40.2405 29.2439 39.0654V35.8337C30.6645 35.2559 31.6516 33.9878 31.6516 32.513V27.3341C31.6516 26.1869 31.0542 25.1679 30.1221 24.4992L35.1014 24.2099V21.6209H30.1526L29.8707 24.3308ZM7.35142 18.4977C7.35142 16.9846 8.56241 15.7558 10.0512 15.7558H25.0522C26.542 15.7558 27.752 16.9846 27.752 18.4977V23.6869C27.6777 23.6838 27.6034 23.6766 27.5251 23.6766H7.57733C7.50203 23.6766 7.42774 23.6828 7.35142 23.6869V18.4977V18.4977ZM22.502 30.3799V31.5994H13.2018V30.3799H22.502ZM6.45081 32.1161V28.1113H11.8819V32.1161H6.45081ZM12.6024 35.103C12.1862 35.103 11.8514 34.7619 11.8514 34.3423C11.8514 33.9217 12.1872 33.5806 12.6024 33.5806C13.0156 33.5806 13.3514 33.9206 13.3514 34.3423C13.3514 34.7619 13.0156 35.103 12.6024 35.103ZM23.252 35.103C22.8358 35.103 22.502 34.7619 22.502 34.3423C22.502 33.9217 22.8368 33.5806 23.252 33.5806C23.6662 33.5806 24.001 33.9206 24.001 34.3423C24.001 34.7619 23.6662 35.103 23.252 35.103ZM29.4016 32.1161H23.9705V28.1113H29.4016V32.1161Z" fill="white"/>
<path d="M44.2071 11.414C45.8921 11.414 47.258 10.0268 47.258 8.3156C47.258 6.60438 45.8921 5.21716 44.2071 5.21716C42.5222 5.21716 41.1562 6.60438 41.1562 8.3156C41.1562 10.0268 42.5222 11.414 44.2071 11.414Z" fill="white"/>
<path d="M38.3434 0V7.94453H39.5473V1.22263H54.7895V20.9305H48.0751V15.8705C48.0751 14.3285 46.8427 13.0759 45.3203 13.0759C45.2806 13.0759 45.243 13.081 45.2033 13.0831C44.9764 13.0852 44.7494 13.1224 44.5174 13.1989C44.5083 13.2009 44.4991 13.204 44.491 13.2061C44.4441 13.2237 44.3984 13.2309 44.3526 13.2495L34.3166 17.3649C33.3163 17.7752 32.7708 18.7849 33.1016 19.6179C33.4333 20.452 34.5151 20.7941 35.5164 20.3817L42.5707 17.491V20.9305H39.5483V20.1667H38.3444V40.2849H55.9933V0.00103343L38.3434 0ZM46.9282 27.0426C47.0625 27.0426 47.8217 27.0457 47.953 27.055C50.146 27.208 51.6714 28.6187 52.4906 30.5813L41.9448 30.6092C42.8393 28.598 44.6131 27.0426 46.9282 27.0426ZM41.8237 30.9286H52.6911V31.7419H41.8237V30.9286ZM50.7342 31.9962L50.6009 32.0768L50.3678 31.9962H50.7342ZM48.1809 31.9962C48.0629 32.0675 47.9123 32.1553 47.5591 32.2391C47.4085 32.2763 47.3108 32.2959 47.2477 32.3062C47.2203 32.2701 47.1592 32.2339 47.0758 32.237C47.0635 32.2287 47.0412 32.1822 47.0218 32.1491C46.9994 32.1068 46.9648 32.051 46.9262 31.9962H48.1809V31.9962ZM46.2057 31.9962C46.1243 32.053 46.0368 32.0985 45.9391 32.0913C45.8047 32.0882 45.7762 32.0613 45.706 31.9962H46.2057ZM52.2281 35.3034C51.7935 35.3034 42.8465 35.3034 42.3142 35.3034C41.783 35.3034 41.9886 33.1692 41.9886 33.1692H52.5578C52.5557 33.1692 52.6626 35.3034 52.2281 35.3034ZM53.0188 32.8096H43.0368C43.0205 32.8106 43.0072 32.8127 42.993 32.8127C42.9798 32.8127 42.9716 32.8096 42.9574 32.8096H41.494V31.9962H42.0924L42.2399 31.9228C42.244 31.929 42.2572 31.9569 42.2796 31.9962H44.1205C44.0788 32.0179 44.0361 32.0437 43.9933 32.0685C43.7532 32.207 43.5008 32.3486 43.2138 32.4427C42.7111 32.606 42.3875 32.1739 42.2796 31.9941H42.0924L41.9438 32.0654C42.0792 32.3455 42.4394 32.7868 42.9564 32.8075H43.0357C43.1253 32.8044 43.2169 32.7879 43.3115 32.7589C43.629 32.6535 43.9058 32.4974 44.149 32.3548C44.4971 32.1574 44.7973 31.9859 45.0832 32.0427C45.3325 32.0923 45.4058 32.1657 45.4811 32.2349C45.5686 32.3197 45.6694 32.4137 45.9268 32.422C46.1813 32.4323 46.3665 32.2907 46.4988 32.1864C46.5384 32.1564 46.6005 32.1099 46.6005 32.1026C46.6636 32.175 46.7003 32.2453 46.7348 32.3062C46.7786 32.39 46.8366 32.5005 46.9557 32.545L46.9781 32.5739C47.0615 32.6814 47.1826 32.6659 47.6324 32.5594C48.0527 32.4602 48.2328 32.3476 48.3641 32.267C48.4832 32.1957 48.5412 32.1595 48.7406 32.1595H49.8295L50.6375 32.4375L51.2766 32.0561L52.1772 32.547L52.3308 32.2535L51.8536 31.9952H53.0177L53.0188 32.8096Z" fill="white"/>
</svg>
