<svg width="45" height="45" viewBox="0 0 45 45" fill="none" xmlns="http://www.w3.org/2000/svg">
<path d="M40.166 0H4.83398C2.16853 0 0 2.16853 0 4.83398V40.166C0 42.8315 2.16853 45 4.83398 45H40.166C42.8315 45 45 42.8315 45 40.166V4.83398C45 2.16853 42.8315 0 40.166 0ZM42.3633 40.166C42.3633 41.3776 41.3776 42.3633 40.166 42.3633H4.83398C3.62241 42.3633 2.63672 41.3776 2.63672 40.166V4.83398C2.63672 3.62241 3.62241 2.63672 4.83398 2.63672H40.166C41.3776 2.63672 42.3633 3.62241 42.3633 4.83398V40.166Z" fill="white"/>
<path d="M38.3203 5.36133H6.67969C5.9516 5.36133 5.36133 5.9516 5.36133 6.67969V27.7734C5.36133 28.5015 5.9516 29.0918 6.67969 29.0918H38.3203C39.0484 29.0918 39.6387 28.5015 39.6387 27.7734V6.67969C39.6387 5.9516 39.0484 5.36133 38.3203 5.36133ZM18.7717 26.4551C19.3159 24.9206 20.7813 23.8184 22.5 23.8184C24.2187 23.8184 25.6841 24.9206 26.2283 26.4551H18.7717ZM37.002 26.4551H28.9592C28.3467 23.4499 25.6833 21.1816 22.5 21.1816C22.1704 21.1816 21.8466 21.2067 21.53 21.2536L20.1316 17.4117C19.8826 16.7275 19.126 16.3747 18.4418 16.6238C17.7576 16.8728 17.4049 17.6294 17.6539 18.3136L19.053 22.1576C17.5266 23.0979 16.4103 24.6422 16.0408 26.4552H7.99805V7.99805H37.002V26.4551Z" fill="white"/>
<path d="M35.6836 31.7285C33.5028 31.7285 31.7285 33.5028 31.7285 35.6836C31.7285 37.8644 33.5028 39.6387 35.6836 39.6387C37.8644 39.6387 39.6387 37.8644 39.6387 35.6836C39.6387 33.5028 37.8644 31.7285 35.6836 31.7285ZM35.6836 37.002C34.9567 37.002 34.3652 36.4105 34.3652 35.6836C34.3652 34.9567 34.9567 34.3652 35.6836 34.3652C36.4105 34.3652 37.002 34.9567 37.002 35.6836C37.002 36.4105 36.4105 37.002 35.6836 37.002Z" fill="white"/>
<path d="M9.31641 31.7285C7.13558 31.7285 5.36133 33.5028 5.36133 35.6836C5.36133 37.8644 7.13558 39.6387 9.31641 39.6387C11.4972 39.6387 13.2715 37.8644 13.2715 35.6836C13.2715 33.5028 11.4972 31.7285 9.31641 31.7285ZM9.31641 37.002C8.58946 37.002 7.99805 36.4105 7.99805 35.6836C7.99805 34.9567 8.58946 34.3652 9.31641 34.3652C10.0433 34.3652 10.6348 34.9567 10.6348 35.6836C10.6348 36.4105 10.0433 37.002 9.31641 37.002Z" fill="white"/>
<path d="M10.9717 16.8856C11.4578 17.4277 12.2913 17.473 12.8334 16.9868C15.5047 14.5909 18.9377 13.2715 22.5 13.2715C26.0623 13.2715 29.4953 14.5909 32.1667 16.9868C32.7087 17.4729 33.5421 17.4277 34.0284 16.8856C34.5145 16.3436 34.4692 15.5101 33.9271 15.0239C30.7713 12.1935 26.7131 10.6348 22.5 10.6348C18.2869 10.6348 14.2287 12.1935 11.0729 15.0238C10.5309 15.5101 10.4855 16.3435 10.9717 16.8856V16.8856Z" fill="white"/>
<path d="M27.7734 31.7285H17.2266C16.4985 31.7285 15.9082 32.3188 15.9082 33.0469V38.3203C15.9082 39.0484 16.4985 39.6387 17.2266 39.6387H27.7734C28.5015 39.6387 29.0918 39.0484 29.0918 38.3203V33.0469C29.0918 32.3188 28.5015 31.7285 27.7734 31.7285ZM26.4551 37.002H18.5449V34.3652H26.4551V37.002Z" fill="white"/>
</svg>
