<svg width="45" height="45" viewBox="0 0 45 45" fill="none" xmlns="http://www.w3.org/2000/svg">
<path d="M44.6299 12.8532L22.8797 0.103103C22.6509 -0.0304037 22.3697 -0.0348862 22.138 0.0933473L0.387776 12.0935C0.148536 12.2247 0 12.4767 0 12.7497V44.2499C0 44.6647 0.336008 44.9999 0.749976 44.9999H4.50003C4.914 44.9999 5.25001 44.6647 5.25001 44.2499V17.9998H39.7502V44.25C39.7502 44.6648 40.0855 45 40.5002 45H44.2503C44.665 45 45.0003 44.6648 45.0003 44.25V13.4998C45.0003 13.2334 44.8594 12.9874 44.6299 12.8532ZM43.5003 43.5H41.2503V17.2497C41.2503 16.8358 40.9151 16.4998 40.5003 16.4998H4.50003C4.08607 16.4998 3.75006 16.8358 3.75006 17.2497V43.5H1.50004V13.1922L22.4889 1.61211L43.5003 13.9295V43.5Z" fill="white"/>
<path d="M37.5 34.4999H28.5C28.0852 34.4999 27.75 34.8351 27.75 35.2499V44.2499C27.75 44.6647 28.0852 44.9999 28.5 44.9999H37.5C37.9148 44.9999 38.25 44.6647 38.25 44.2499V35.2499C38.25 34.8351 37.9148 34.4999 37.5 34.4999ZM36.75 43.4999H29.25V35.9999H36.75V43.4999V43.4999Z" fill="white"/>
<path d="M33.7501 35.2499V37.4999H32.25V35.2499H30.75V38.2499C30.75 38.6646 31.0852 38.9998 31.5 38.9998H34.5C34.9147 38.9998 35.2499 38.6646 35.2499 38.2499V35.2499H33.7501Z" fill="white"/>
<path d="M28.5 34.4999H19.5C19.086 34.4999 18.75 34.8351 18.75 35.2499V44.2499C18.75 44.6647 19.086 44.9999 19.5 44.9999H28.5C28.9148 44.9999 29.25 44.6647 29.25 44.2499V35.2499C29.25 34.8351 28.9148 34.4999 28.5 34.4999ZM27.75 43.4999H20.25V35.9999H27.75V43.4999Z" fill="white"/>
<path d="M24.7501 35.2499V37.4999H23.25V35.2499H21.75V38.2499C21.75 38.6646 22.086 38.9998 22.5 38.9998H25.5C25.9147 38.9998 26.2499 38.6646 26.2499 38.2499V35.2499H24.7501Z" fill="white"/>
<path d="M37.5 25.4998H28.5C28.0852 25.4998 27.75 25.835 27.75 26.2497V35.2498C27.75 35.6646 28.0852 35.9998 28.5 35.9998H37.5C37.9148 35.9998 38.25 35.6646 38.25 35.2498V26.2497C38.25 25.835 37.9148 25.4998 37.5 25.4998ZM36.75 34.4998H29.25V26.9998H36.75V34.4998V34.4998Z" fill="white"/>
<path d="M33.7501 26.2498V28.4998H32.25V26.2498H30.75V29.2497C30.75 29.6645 31.0852 29.9997 31.5 29.9997H34.5C34.9147 29.9997 35.2499 29.6645 35.2499 29.2497V26.2498H33.7501Z" fill="white"/>
<path d="M40.5003 22.4999H4.5V23.9999H40.5003V22.4999Z" fill="white"/>
<path d="M40.5003 19.4998H4.5V20.9998H40.5003V19.4998Z" fill="white"/>
<path d="M26.25 10.4996H18.75C18.336 10.4996 18 10.8356 18 11.2496V14.2496C18 14.6636 18.336 14.9996 18.75 14.9996H26.25C26.6648 14.9996 27 14.6636 27 14.2496V11.2496C27 10.8356 26.6648 10.4996 26.25 10.4996ZM25.4999 13.4997H19.4999V11.9997H25.4999V13.4997Z" fill="white"/>
</svg>
