<svg width="154" height="135" viewBox="0 0 154 135" fill="none" xmlns="http://www.w3.org/2000/svg">
<path d="M26.25 9V9.75H27H140.1C147.13 9.75 152.85 15.4703 152.85 22.5C152.85 29.5297 147.13 35.25 140.1 35.25H27H26.25V36V44.25H0.75V0.75H26.25V9ZM18 36.75H18.75V36V9V8.25H18H9H8.25V9V36V36.75H9H18ZM26.25 27V27.75H27H140.1C142.996 27.75 145.35 25.3955 145.35 22.5C145.35 19.6045 142.996 17.25 140.1 17.25H27H26.25V18V27Z" fill="#1B2544" stroke="white" stroke-width="1.5"/>
<path d="M126.6 99.75H127.35V99V90.75H152.85V134.25H127.35V126V125.25H126.6H13.5C6.47031 125.25 0.75 119.53 0.75 112.5C0.75 105.47 6.47031 99.75 13.5 99.75H126.6ZM127.35 108V107.25H126.6H13.5C10.6045 107.25 8.25 109.604 8.25 112.5C8.25 115.396 10.6045 117.75 13.5 117.75H126.6H127.35V117V108ZM135.6 98.25H134.85V99V126V126.75H135.6H144.6H145.35V126V99V98.25H144.6H135.6Z" fill="#1B2544" stroke="white" stroke-width="1.5"/>
<path d="M89.55 54V54.75H90.3H140.1C147.13 54.75 152.85 60.4703 152.85 67.5C152.85 74.5297 147.13 80.25 140.1 80.25H90.3H89.55V81V89.25H64.05V81V80.25H63.3H13.5C6.47031 80.25 0.75 74.5297 0.75 67.5C0.75 60.4703 6.47031 54.75 13.5 54.75H63.3H64.05V54V45.75H89.55V54ZM64.05 63V62.25H63.3H13.5C10.6045 62.25 8.25 64.6045 8.25 67.5C8.25 70.3955 10.6045 72.75 13.5 72.75H63.3H64.05V72V63ZM81.3 81.75H82.05V81V54V53.25H81.3H72.3H71.55V54V81V81.75H72.3H81.3ZM89.55 72V72.75H90.3H140.1C142.996 72.75 145.35 70.3955 145.35 67.5C145.35 64.6045 142.996 62.25 140.1 62.25H90.3H89.55V63V72Z" fill="#1B2544" stroke="white" stroke-width="1.5"/>
</svg>
