<svg width="110" height="110" viewBox="0 0 110 110" fill="none" xmlns="http://www.w3.org/2000/svg">
<path d="M57.591 95.6313C57.9689 95.65 58.3434 95.5515 58.6634 95.3494C58.9833 95.1473 59.233 94.8514 59.3785 94.502L62.194 87.7047C62.3389 87.3549 62.372 86.9689 62.2887 86.5996C62.2054 86.2303 62.0098 85.8959 61.7288 85.6422L56.496 80.9179V76.7501L61.7288 72.0258C62.0098 71.7721 62.2054 71.4377 62.2887 71.0684C62.372 70.6991 62.3389 70.313 62.194 69.9633L59.3785 63.166C59.2338 62.8161 58.9842 62.5197 58.6641 62.3174C58.344 62.1152 57.9691 62.0171 57.591 62.0367L50.5503 62.3962L47.6039 59.4498L47.9635 52.4091C47.9828 52.0311 47.8846 51.6562 47.6824 51.3362C47.4802 51.0161 47.1839 50.7665 46.8341 50.6216L40.0368 47.8061C39.6871 47.6612 39.301 47.6281 38.9317 47.7114C38.5625 47.7947 38.228 47.9903 37.9743 48.2713L33.25 53.5041H29.0833L24.3591 48.2713C24.1054 47.9903 23.7709 47.7947 23.4016 47.7114C23.0323 47.6281 22.6463 47.6612 22.2966 47.8061L15.4993 50.623C15.1495 50.7679 14.8532 51.0175 14.651 51.3376C14.4487 51.6576 14.3506 52.0324 14.3699 52.4105L14.7295 59.4512L11.7831 62.3962L4.74241 62.0367C4.36426 62.017 3.98932 62.115 3.66921 62.3173C3.34909 62.5195 3.09954 62.816 2.95491 63.166L0.139595 69.9633C-0.00529842 70.313 -0.0383672 70.6991 0.0449293 71.0684C0.128226 71.4377 0.323803 71.7721 0.604803 72.0258L5.83759 76.7501V80.9168L0.604803 85.641C0.323803 85.8947 0.128226 86.2292 0.0449293 86.5985C-0.0383672 86.9678 -0.00529842 87.3538 0.139595 87.7035L2.95628 94.5009C3.10116 94.8506 3.35077 95.147 3.67083 95.3492C3.99088 95.5514 4.36569 95.6496 4.74378 95.6302L11.7845 95.2706L14.7309 98.217L14.3713 105.258C14.3519 105.636 14.4501 106.011 14.6523 106.331C14.8545 106.651 15.1509 106.9 15.5006 107.045L22.2979 109.861C22.6477 110.006 23.0337 110.039 23.403 109.955C23.7723 109.872 24.1068 109.677 24.3604 109.396L29.0847 104.163H33.2514L37.9757 109.396C38.2294 109.677 38.5638 109.872 38.9331 109.955C39.3024 110.039 39.6884 110.006 40.0382 109.861L46.8355 107.045C47.1853 106.9 47.4816 106.651 47.6838 106.331C47.886 106.011 47.9842 105.636 47.9648 105.258L47.6053 98.217L50.5517 95.2706L57.591 95.6313ZM48.5336 92.1022L44.4354 96.2004C44.254 96.3817 44.1127 96.5992 44.0206 96.8386C43.9285 97.078 43.8877 97.3341 43.9008 97.5903L44.2361 104.152L39.8292 105.978L35.4258 101.101C35.2539 100.91 35.0439 100.758 34.8095 100.654C34.5751 100.55 34.3215 100.496 34.065 100.496H28.2687C28.0121 100.496 27.7585 100.55 27.5241 100.654C27.2897 100.758 27.0798 100.91 26.9079 101.101L22.5042 105.978L18.0976 104.152L18.4328 97.5903C18.4459 97.3341 18.4051 97.078 18.313 96.8386C18.2209 96.5992 18.0796 96.3817 17.8982 96.2004L13.7998 92.1022C13.6181 91.9211 13.4007 91.78 13.1613 91.6879C12.922 91.5959 12.666 91.5548 12.4099 91.5675L5.84768 91.9028L4.02236 87.4959L8.89949 83.0925C9.08988 82.9206 9.24209 82.7107 9.34626 82.4763C9.45043 82.2419 9.50426 81.9882 9.50426 81.7317V75.9354C9.50426 75.6789 9.45043 75.4252 9.34626 75.1908C9.24209 74.9564 9.08988 74.7465 8.89949 74.5746L4.02236 70.1709L5.84768 65.7643L12.4099 66.0995C12.666 66.1123 12.922 66.0713 13.1613 65.9792C13.4007 65.8871 13.6182 65.746 13.7998 65.5649L17.8979 61.4665C18.0793 61.2851 18.2207 61.0677 18.3127 60.8283C18.4048 60.5889 18.4457 60.3328 18.4326 60.0766L18.0973 53.5144L22.504 51.6891L26.9074 56.5662C27.0793 56.7566 27.2892 56.9088 27.5236 57.013C27.758 57.1172 28.0117 57.171 28.2682 57.171H34.0643C34.3208 57.171 34.5744 57.1172 34.8088 57.013C35.0432 56.9088 35.2532 56.7566 35.4251 56.5662L39.8292 51.6891L44.2358 53.5144L43.9006 60.0766C43.8875 60.3328 43.9283 60.5889 44.0204 60.8283C44.1125 61.0677 44.2538 61.2851 44.4352 61.4665L48.5336 65.5647C48.715 65.7461 48.9324 65.8875 49.1718 65.9796C49.4112 66.0717 49.6673 66.1125 49.9235 66.0993L56.4857 65.7641L58.311 70.1707L53.4339 74.5741C53.2435 74.746 53.0913 74.956 52.9871 75.1904C52.883 75.4248 52.8291 75.6784 52.8291 75.9349V81.731C52.8291 81.9875 52.883 82.2412 52.9871 82.4756C53.0913 82.71 53.2435 82.9199 53.4339 83.0918L58.311 87.4959L56.4857 91.9026L49.9235 91.5673C49.6673 91.5541 49.4112 91.5949 49.1718 91.6871C48.9323 91.7792 48.7149 91.9206 48.5336 92.1022Z" fill="#1B2544"/>
<path d="M31.1667 69.6667C29.3537 69.6667 27.5814 70.2044 26.074 71.2116C24.5665 72.2189 23.3916 73.6505 22.6978 75.3255C22.004 77.0005 21.8225 78.8436 22.1762 80.6217C22.5299 82.3999 23.4029 84.0333 24.6849 85.3152C25.9669 86.5972 27.6002 87.4703 29.3784 87.824C31.1565 88.1777 32.9996 87.9961 34.6746 87.3023C36.3496 86.6085 37.7813 85.4336 38.7885 83.9261C39.7958 82.4187 40.3334 80.6464 40.3334 78.8334C40.3306 76.4031 39.364 74.0731 37.6455 72.3546C35.927 70.6361 33.597 69.6695 31.1667 69.6667V69.6667ZM31.1667 84.3334C30.0789 84.3334 29.0155 84.0108 28.1111 83.4065C27.2066 82.8022 26.5016 81.9432 26.0854 80.9382C25.6691 79.9332 25.5602 78.8273 25.7724 77.7604C25.9846 76.6935 26.5084 75.7135 27.2776 74.9443C28.0468 74.1751 29.0268 73.6513 30.0937 73.4391C31.1606 73.2269 32.2665 73.3358 33.2715 73.7521C34.2765 74.1684 35.1354 74.8733 35.7398 75.7778C36.3441 76.6823 36.6667 77.7456 36.6667 78.8334C36.665 80.2916 36.085 81.6895 35.0539 82.7206C34.0228 83.7517 32.6249 84.3317 31.1667 84.3334Z" fill="#1B2544"/>
<path d="M108.167 0H27.5C27.0138 0 26.5475 0.193154 26.2037 0.536971C25.8598 0.880787 25.6667 1.3471 25.6667 1.83333V45.8333H29.3334V3.66667H106.333V99H51.3333V102.667H108.167C108.653 102.667 109.119 102.473 109.463 102.13C109.807 101.786 110 101.32 110 100.833V1.83333C110 1.3471 109.807 0.880787 109.463 0.536971C109.119 0.193154 108.653 0 108.167 0V0Z" fill="#1B2544"/>
<path d="M34.8333 34.8332V42.1666C34.8333 42.6528 35.0265 43.1191 35.3703 43.4629C35.7141 43.8068 36.1804 43.9999 36.6667 43.9999H45.8333V47.6666H49.5V43.9999H58.6667C59.1529 43.9999 59.6192 43.8068 59.963 43.4629C60.3069 43.1191 60.5 42.6528 60.5 42.1666V40.3332H66V93.4999H69.6667V71.4999H75.1667V73.3332C75.1667 73.8195 75.3598 74.2858 75.7036 74.6296C76.0475 74.9734 76.5138 75.1666 77 75.1666H86.1667V78.8332H77C76.5138 78.8332 76.0475 79.0264 75.7036 79.3702C75.3598 79.714 75.1667 80.1803 75.1667 80.6666V87.9999C75.1667 88.4861 75.3598 88.9524 75.7036 89.2963C76.0475 89.6401 76.5138 89.8332 77 89.8332H86.1667V93.4999H89.8333V89.8332H99C99.4862 89.8332 99.9525 89.6401 100.296 89.2963C100.64 88.9524 100.833 88.4861 100.833 87.9999V80.6666C100.833 80.1803 100.64 79.714 100.296 79.3702C99.9525 79.0264 99.4862 78.8332 99 78.8332H89.8333V75.1666H99C99.4862 75.1666 99.9525 74.9734 100.296 74.6296C100.64 74.2858 100.833 73.8195 100.833 73.3332V65.9999C100.833 65.5137 100.64 65.0474 100.296 64.7035C99.9525 64.3597 99.4862 64.1666 99 64.1666H77C76.5138 64.1666 76.0475 64.3597 75.7036 64.7035C75.3598 65.0474 75.1667 65.5137 75.1667 65.9999V67.8332H69.6667V40.3332H75.1667V42.1666C75.1667 42.6528 75.3598 43.1191 75.7036 43.4629C76.0475 43.8068 76.5138 43.9999 77 43.9999H86.1667V47.6666H77C76.5138 47.6666 76.0475 47.8597 75.7036 48.2035C75.3598 48.5474 75.1667 49.0137 75.1667 49.4999V56.8332C75.1667 57.3195 75.3598 57.7858 75.7036 58.1296C76.0475 58.4734 76.5138 58.6666 77 58.6666H99C99.4862 58.6666 99.9525 58.4734 100.296 58.1296C100.64 57.7858 100.833 57.3195 100.833 56.8332V49.4999C100.833 49.0137 100.64 48.5474 100.296 48.2035C99.9525 47.8597 99.4862 47.6666 99 47.6666H89.8333V43.9999H99C99.4862 43.9999 99.9525 43.8068 100.296 43.4629C100.64 43.1191 100.833 42.6528 100.833 42.1666V34.8332C100.833 34.347 100.64 33.8807 100.296 33.5369C99.9525 33.1931 99.4862 32.9999 99 32.9999H77C76.5138 32.9999 76.0475 33.1931 75.7036 33.5369C75.3598 33.8807 75.1667 34.347 75.1667 34.8332V36.6666H69.6667V31.011C71.5036 30.7022 73.2318 29.9315 74.689 28.7713C76.1463 27.6112 77.2847 26.0996 77.9973 24.3786C78.7099 22.6576 78.9733 20.7838 78.7627 18.933C78.5522 17.0823 77.8747 15.3155 76.7938 13.7985L79.5926 10.9999H99V7.33325H78.8333C78.5926 7.33324 78.3542 7.38066 78.1317 7.47278C77.9093 7.56491 77.7072 7.69995 77.5369 7.87019L74.2014 11.2062C72.8543 10.2482 71.3085 9.60634 69.679 9.32823C68.0496 9.05012 66.3784 9.14295 64.7897 9.59982C63.2011 10.0567 61.7359 10.8658 60.5032 11.9671C59.2704 13.0683 58.3018 14.4333 57.6693 15.9606C57.0369 17.4878 56.7569 19.138 56.8502 20.7884C56.9434 22.4388 57.4076 24.0469 58.2081 25.4931C59.0087 26.9394 60.1249 28.1865 61.474 29.1418C62.823 30.0972 64.37 30.736 66 31.011V36.6666H60.5V34.8332C60.5 34.347 60.3069 33.8807 59.963 33.5369C59.6192 33.1931 59.1529 32.9999 58.6667 32.9999H36.6667C36.1804 32.9999 35.7141 33.1931 35.3703 33.5369C35.0265 33.8807 34.8333 34.347 34.8333 34.8332V34.8332ZM97.1667 86.1666H78.8333V82.4999H97.1667V86.1666ZM78.8333 67.8332H97.1667V71.4999H78.8333V67.8332ZM97.1667 54.9999H78.8333V51.3332H97.1667V54.9999ZM78.8333 36.6666H97.1667V40.3332H78.8333V36.6666ZM60.5 20.1666C60.4992 18.8736 60.8404 17.6034 61.4891 16.4849C62.1378 15.3664 63.0709 14.4395 64.1936 13.7982C65.3164 13.1569 66.5888 12.824 67.8818 12.8334C69.1747 12.8428 70.4422 13.1941 71.5555 13.8517L66.5367 18.8704L69.1295 21.4632L74.1483 16.4445C74.7208 17.4157 75.0616 18.506 75.1442 19.6304C75.2268 20.7549 75.049 21.8832 74.6246 22.9277C74.2001 23.9723 73.5405 24.9049 72.697 25.653C71.8535 26.4011 70.8488 26.9446 69.7611 27.2413C68.6733 27.5379 67.5318 27.5797 66.4253 27.3634C65.3188 27.1471 64.277 26.6785 63.3811 25.9941C62.4851 25.3096 61.7591 24.4278 61.2594 23.4171C60.7597 22.4064 60.4998 21.2941 60.5 20.1666V20.1666ZM38.5 36.6666H56.8333V40.3332H38.5V36.6666Z" fill="#1B2544"/>
<path d="M36.6667 25.6667H40.3334V29.3334H36.6667V25.6667Z" fill="#1B2544"/>
<path d="M44 25.6667H47.6667V29.3334H44V25.6667Z" fill="#1B2544"/>
<path d="M88 25.6667H91.6667V29.3334H88V25.6667Z" fill="#1B2544"/>
<path d="M95.3333 25.6667H99V29.3334H95.3333V25.6667Z" fill="#1B2544"/>
<path d="M31.1667 62.3333C27.9033 62.3333 24.7132 63.301 21.9998 65.114C19.2864 66.927 17.1715 69.504 15.9227 72.519C14.6738 75.534 14.3471 78.8516 14.9837 82.0522C15.6204 85.2529 17.1919 88.1929 19.4994 90.5005C21.807 92.8081 24.747 94.3795 27.9477 95.0162C31.1484 95.6529 34.466 95.3261 37.481 94.0773C40.4959 92.8284 43.0729 90.7136 44.8859 88.0002C46.699 85.2867 47.6667 82.0966 47.6667 78.8332C47.6618 74.4587 45.9218 70.2647 42.8285 67.1714C39.7352 64.0781 35.5413 62.3382 31.1667 62.3333V62.3333ZM31.1667 91.6666C28.6285 91.6666 26.1473 90.9139 24.0369 89.5038C21.9264 88.0936 20.2816 86.0893 19.3102 83.7443C18.3389 81.3994 18.0848 78.819 18.5799 76.3296C19.0751 73.8402 20.2974 71.5535 22.0922 69.7587C23.8869 67.9639 26.1736 66.7417 28.663 66.2465C31.1525 65.7513 33.7328 66.0055 36.0778 66.9768C38.4228 67.9481 40.4271 69.593 41.8372 71.7034C43.2474 73.8139 44 76.2951 44 78.8332C43.9961 82.2357 42.6428 85.4976 40.2369 87.9035C37.8311 90.3094 34.5691 91.6627 31.1667 91.6666Z" fill="#1B2544"/>
</svg>
