<svg width="111" height="111" viewBox="0 0 111 111" fill="none" xmlns="http://www.w3.org/2000/svg">
<path d="M91.3589 99.4797H94.9073V103.028H91.3589V99.4797Z" fill="#1B2544"/>
<path d="M84.2621 99.4797H87.8105V103.028H84.2621V99.4797Z" fill="#1B2544"/>
<path d="M77.1653 99.4797H80.7137V103.028H77.1653V99.4797Z" fill="#1B2544"/>
<path d="M77.1653 92.3831H94.9073V95.9314H77.1653V92.3831Z" fill="#1B2544"/>
<path d="M110.875 19.6411C110.875 16.7066 108.487 14.3185 105.552 14.3185V10.7702C108.487 10.7702 110.875 8.3821 110.875 5.44758C110.875 2.51306 108.487 0.125 105.552 0.125H77.1653C74.2308 0.125 71.8427 2.51306 71.8427 5.44758C71.8427 8.3821 74.2308 10.7702 77.1653 10.7702V14.3185C74.8553 14.3185 72.9037 15.8071 72.1692 17.8669H70.0685C65.1771 17.8669 61.1976 21.8465 61.1976 26.7379V63.996H57.6492V26.7379C57.6492 21.8465 53.6697 17.8669 48.7782 17.8669H47.004V5.44758C47.004 2.51306 44.616 0.125 41.6815 0.125H6.19758C3.26306 0.125 0.875 2.51306 0.875 5.44758V30.2863C0.875 33.2208 3.26306 35.6089 6.19758 35.6089H41.6815C44.616 35.6089 47.004 33.2208 47.004 30.2863V21.4153H48.7782C51.7127 21.4153 54.1008 23.8034 54.1008 26.7379V63.996H50.5524V55.125C50.5524 50.2335 46.5729 46.254 41.6815 46.254H36.1797C35.3547 42.2106 31.7726 39.1573 27.4879 39.1573H13.2944C8.4029 39.1573 4.42339 43.1368 4.42339 48.0282C4.42339 52.9197 8.4029 56.8992 13.2944 56.8992H36.3589V49.8024H41.6815C44.616 49.8024 47.004 52.1905 47.004 55.125V63.996H10.4237L1.55274 81.7379H9.74597V110.125H102.004V81.7379H110.197L101.326 63.996H71.8427V58.6734C71.8427 55.7389 74.2308 53.3508 77.1653 53.3508H79.1187C79.9437 57.3942 83.5258 60.4476 87.8105 60.4476C92.7019 60.4476 96.6815 56.4681 96.6815 51.5766C96.6815 46.6852 92.7019 42.7056 87.8105 42.7056C83.5276 42.7056 79.9437 45.759 79.1187 49.8024H77.1653C72.2739 49.8024 68.2944 53.7819 68.2944 58.6734V63.996H64.746V26.7379C64.746 23.8034 67.134 21.4153 70.0685 21.4153H72.1692C72.9037 23.4752 74.8553 24.9637 77.1653 24.9637V28.5121C74.2308 28.5121 71.8427 30.9002 71.8427 33.8347C71.8427 36.7692 74.2308 39.1573 77.1653 39.1573H105.552C108.487 39.1573 110.875 36.7692 110.875 33.8347C110.875 30.9002 108.487 28.5121 105.552 28.5121V24.9637C108.487 24.9637 110.875 22.5756 110.875 19.6411ZM43.4556 30.2863C43.4556 31.2656 42.6608 32.0605 41.6815 32.0605H6.19758C5.21823 32.0605 4.42339 31.2656 4.42339 30.2863V5.44758C4.42339 4.46823 5.21823 3.67339 6.19758 3.67339H41.6815C42.6608 3.67339 43.4556 4.46823 43.4556 5.44758V30.2863ZM32.8105 53.3508H13.2944C10.3598 53.3508 7.97177 50.9627 7.97177 48.0282C7.97177 45.0937 10.3598 42.7056 13.2944 42.7056H27.4879C30.4224 42.7056 32.8105 45.0937 32.8105 48.0282V53.3508ZM87.8105 46.254C90.745 46.254 93.1331 48.6421 93.1331 51.5766C93.1331 54.5111 90.745 56.8992 87.8105 56.8992C84.876 56.8992 82.4879 54.5111 82.4879 51.5766C82.4879 48.6421 84.876 46.254 87.8105 46.254ZM12.6166 67.5444H38.8108L33.4882 78.1895H7.29403L12.6166 67.5444ZM13.2944 81.7379H35.6811L41.6815 69.7373V106.577H13.2944V81.7379ZM98.4556 106.577H45.2298V69.7373L51.2302 81.7379H98.4556V106.577ZM104.456 78.1895H53.4231L48.1005 67.5444H99.1334L104.456 78.1895ZM75.3911 5.44758C75.3911 4.46823 76.186 3.67339 77.1653 3.67339H105.552C106.532 3.67339 107.327 4.46823 107.327 5.44758C107.327 6.42694 106.532 7.22177 105.552 7.22177H77.1653C76.186 7.22177 75.3911 6.42694 75.3911 5.44758ZM80.7137 10.7702H102.004V14.3185H80.7137V10.7702ZM75.3911 19.6411C75.3911 18.6618 76.186 17.8669 77.1653 17.8669H105.552C106.532 17.8669 107.327 18.6618 107.327 19.6411C107.327 20.6205 106.532 21.4153 105.552 21.4153H77.1653C76.186 21.4153 75.3911 20.6205 75.3911 19.6411ZM107.327 33.8347C107.327 34.814 106.532 35.6089 105.552 35.6089H77.1653C76.186 35.6089 75.3911 34.814 75.3911 33.8347C75.3911 32.8553 76.186 32.0605 77.1653 32.0605H105.552C106.532 32.0605 107.327 32.8553 107.327 33.8347ZM102.004 28.5121H80.7137V24.9637H102.004V28.5121Z" fill="#1B2544"/>
<path d="M29.2621 10.7701H22.1653V14.3185H15.0685V17.8668H7.97178V28.512H39.9073V7.22168H29.2621V10.7701ZM22.1653 17.8668V24.9636H18.6169V17.8668H22.1653ZM11.5202 21.4152H15.0685V24.9636H11.5202V21.4152ZM25.7137 24.9636V14.3185H29.2621V24.9636H25.7137ZM32.8105 10.7701H36.3589V24.9636H32.8105V10.7701Z" fill="#1B2544"/>
<path d="M11.5202 46.2542H15.0685V49.8025H11.5202V46.2542Z" fill="#1B2544"/>
<path d="M18.6169 46.2542H22.1653V49.8025H18.6169V46.2542Z" fill="#1B2544"/>
<path d="M25.7137 46.2542H29.2621V49.8025H25.7137V46.2542Z" fill="#1B2544"/>
<path d="M93.1331 71.0928H96.6815V74.6412H93.1331V71.0928Z" fill="#1B2544"/>
<path d="M86.0363 71.0928H89.5847V74.6412H86.0363V71.0928Z" fill="#1B2544"/>
<path d="M78.9395 71.0928H82.4879V74.6412H78.9395V71.0928Z" fill="#1B2544"/>
<path d="M16.8427 85.2864H20.3911V88.8348H16.8427V85.2864Z" fill="#1B2544"/>
<path d="M16.8427 92.3831H20.3911V95.9314H16.8427V92.3831Z" fill="#1B2544"/>
<path d="M16.8427 99.4797H20.3911V103.028H16.8427V99.4797Z" fill="#1B2544"/>
</svg>
