<svg width="157" height="150" viewBox="0 0 157 150" fill="none" xmlns="http://www.w3.org/2000/svg">
<path d="M153.259 150H3.26083C1.46085 150 0 148.539 0 146.739C0 144.939 1.46085 143.478 3.26083 143.478H153.259C155.059 143.478 156.52 144.939 156.52 146.739C156.52 148.539 155.059 150 153.259 150Z" fill="#1B2544"/>
<path d="M42.3909 150H9.78255C7.98257 150 6.52171 148.539 6.52171 146.739V110.87C6.52171 107.276 9.44342 104.348 13.0434 104.348H39.13C42.73 104.348 45.6517 107.276 45.6517 110.87V146.739C45.6517 148.539 44.1909 150 42.3909 150ZM13.0434 143.478H39.13V110.87H13.0434V143.478Z" fill="#1B2544"/>
<path d="M94.5642 150H61.9558C60.1559 150 58.695 148.539 58.695 146.739V71.7399C58.695 68.1465 61.6167 65.2183 65.2167 65.2183H91.3033C94.9033 65.2183 97.825 68.1465 97.825 71.7399V146.739C97.825 148.539 96.3641 150 94.5642 150ZM65.2167 143.478H91.3033V71.7399H65.2167V143.478Z" fill="#1B2544"/>
<path d="M146.737 150H114.129C112.329 150 110.868 148.539 110.868 146.739V84.7834C110.868 81.1899 113.79 78.2617 117.39 78.2617H143.477C147.077 78.2617 149.998 81.1899 149.998 84.7834V146.739C149.998 148.539 148.537 150 146.737 150ZM117.39 143.478H143.477V84.7834H117.39V143.478Z" fill="#1B2544"/>
<path d="M16.3042 65.2183C15.4694 65.2183 14.6346 64.8987 13.9955 64.2661C12.7238 62.9944 12.7238 60.927 13.9955 59.6553L46.6039 27.047C47.4125 26.2383 48.5799 25.8992 49.7016 26.1861L100.088 38.7795L137.914 0.953794C139.185 -0.317931 141.253 -0.317931 142.525 0.953794C143.796 2.22552 143.796 4.29289 142.525 5.56461L103.395 44.6946C102.592 45.5033 101.418 45.8294 100.297 45.5489L49.9103 32.9621L18.6063 64.2661C17.9737 64.8987 17.139 65.2183 16.3042 65.2183Z" fill="#1B2544"/>
<path d="M140.216 32.6103C138.416 32.6103 136.955 31.1494 136.955 29.3495V6.52362H114.129C112.329 6.52362 110.868 5.06277 110.868 3.26279C110.868 1.46281 112.329 0.00195312 114.129 0.00195312H140.216C142.016 0.00195312 143.477 1.46281 143.477 3.26279V29.3495C143.477 31.1494 142.016 32.6103 140.216 32.6103Z" fill="#1B2544"/>
</svg>
