<svg width="110" height="111" viewBox="0 0 110 111" fill="none" xmlns="http://www.w3.org/2000/svg">
<path d="M9.16667 64.4168C4.11217 64.4168 0 60.3047 0 55.2502C0 50.1957 4.11217 46.0835 9.16667 46.0835C14.2212 46.0835 18.3333 50.1957 18.3333 55.2502C18.3333 60.3047 14.2212 64.4168 9.16667 64.4168V64.4168ZM9.16667 49.7502C6.13433 49.7502 3.66667 52.2178 3.66667 55.2502C3.66667 58.2825 6.13433 60.7502 9.16667 60.7502C12.199 60.7502 14.6667 58.2825 14.6667 55.2502C14.6667 52.2178 12.199 49.7502 9.16667 49.7502V49.7502Z" fill="#1B2544"/>
<path d="M100.833 64.4168C95.7788 64.4168 91.6667 60.3047 91.6667 55.2502C91.6667 50.1957 95.7788 46.0835 100.833 46.0835C105.888 46.0835 110 50.1957 110 55.2502C110 60.3047 105.888 64.4168 100.833 64.4168ZM100.833 49.7502C97.801 49.7502 95.3333 52.2178 95.3333 55.2502C95.3333 58.2825 97.801 60.7502 100.833 60.7502C103.866 60.7502 106.333 58.2825 106.333 55.2502C106.333 52.2178 103.866 49.7502 100.833 49.7502Z" fill="#1B2544"/>
<path d="M55 110.25C49.9455 110.25 45.8333 106.138 45.8333 101.083C45.8333 96.0289 49.9455 91.9167 55 91.9167C60.0545 91.9167 64.1667 96.0289 64.1667 101.083C64.1667 106.138 60.0545 110.25 55 110.25ZM55 95.5834C51.9677 95.5834 49.5 98.0511 49.5 101.083C49.5 104.116 51.9677 106.583 55 106.583C58.0323 106.583 60.5 104.116 60.5 101.083C60.5 98.0511 58.0323 95.5834 55 95.5834Z" fill="#1B2544"/>
<path d="M55 18.5833C49.9455 18.5833 45.8333 14.4712 45.8333 9.41667C45.8333 4.36217 49.9455 0.25 55 0.25C60.0545 0.25 64.1667 4.36217 64.1667 9.41667C64.1667 14.4712 60.0545 18.5833 55 18.5833ZM55 3.91667C51.9677 3.91667 49.5 6.38433 49.5 9.41667C49.5 12.449 51.9677 14.9167 55 14.9167C58.0323 14.9167 60.5 12.449 60.5 9.41667C60.5 6.38433 58.0323 3.91667 55 3.91667Z" fill="#1B2544"/>
<path d="M100.249 49.8087C99.3651 49.8087 98.5841 49.1652 98.4411 48.2632C97.8837 44.7799 96.9084 41.3699 95.5389 38.1322C95.1447 37.199 95.5792 36.1229 96.5124 35.7287C97.4474 35.3327 98.5217 35.769 98.9159 36.7022C100.401 40.213 101.461 43.909 102.062 47.6857C102.221 48.6849 101.541 49.6254 100.54 49.7849C100.443 49.8014 100.346 49.8087 100.249 49.8087V49.8087Z" fill="#1B2544"/>
<path d="M91.2912 29.0939C90.743 29.0939 90.2003 28.8482 89.8392 28.3807C87.5328 25.3942 84.847 22.7084 81.855 20.3984C81.0538 19.7805 80.9053 18.6292 81.525 17.828C82.1447 17.0269 83.296 16.8802 84.0972 17.498C87.3367 19.9987 90.2443 22.9064 92.7413 26.1404C93.3592 26.9434 93.2125 28.0929 92.4113 28.7107C92.0758 28.9692 91.6835 29.0939 91.2912 29.0939V29.0939Z" fill="#1B2544"/>
<path d="M72.8313 14.8566C72.593 14.8566 72.351 14.8107 72.1182 14.7117C68.8805 13.3422 65.4705 12.3651 61.9853 11.8077C60.9862 11.6482 60.3042 10.7077 60.4637 9.70675C60.6232 8.70758 61.5655 8.02375 62.5628 8.18691C66.3413 8.79008 70.0355 9.84975 73.5463 11.3347C74.4795 11.7289 74.9158 12.8051 74.5198 13.7382C74.2247 14.4367 73.5463 14.8566 72.8313 14.8566V14.8566Z" fill="#1B2544"/>
<path d="M62.2728 102.337C61.3873 102.337 60.6081 101.694 60.4651 100.793C60.3056 99.7924 60.9858 98.8519 61.9868 98.6924C65.472 98.1351 68.882 97.1579 72.1196 95.7884C73.0546 95.3961 74.129 95.8269 74.5231 96.7619C74.9173 97.6951 74.4828 98.7713 73.5496 99.1654C70.0388 100.65 66.3446 101.71 62.5661 102.313C62.4653 102.33 62.3681 102.337 62.2728 102.337V102.337Z" fill="#1B2544"/>
<path d="M82.9898 93.3741C82.4417 93.3741 81.899 93.1284 81.5378 92.6609C80.92 91.8579 81.0667 90.7084 81.8678 90.0906C84.8562 87.7824 87.542 85.0948 89.8502 82.1046C90.4662 81.3016 91.6175 81.1568 92.4205 81.7728C93.2235 82.3924 93.3702 83.5438 92.7523 84.3449C90.2535 87.5844 87.3458 90.4939 84.11 92.9909C83.7763 93.2494 83.3822 93.3741 82.9898 93.3741Z" fill="#1B2544"/>
<path d="M97.2256 74.9162C96.9872 74.9162 96.7452 74.8704 96.5124 74.7714C95.5792 74.3772 95.1429 73.3011 95.5389 72.3679C96.9084 69.1284 97.8856 65.7202 98.4411 62.2369C98.5987 61.2359 99.5429 60.5521 100.54 60.7152C101.539 60.8747 102.221 61.8152 102.062 62.8144C101.459 66.5929 100.401 70.2871 98.9159 73.7979C98.6208 74.4964 97.9406 74.9162 97.2256 74.9162Z" fill="#1B2544"/>
<path d="M12.7728 74.9162C12.0578 74.9162 11.3795 74.4964 11.0843 73.7979C9.59935 70.2871 8.53968 66.5911 7.93835 62.8144C7.77885 61.8152 8.45902 60.8747 9.46002 60.7152C10.45 60.5521 11.4015 61.2359 11.5592 62.2369C12.1165 65.7202 13.0918 69.1302 14.4613 72.3679C14.8555 73.3011 14.421 74.3772 13.4878 74.7714C13.2532 74.8686 13.0112 74.9162 12.7728 74.9162V74.9162Z" fill="#1B2544"/>
<path d="M27.0231 93.385C26.6307 93.385 26.2366 93.2603 25.9029 93.0018C22.6634 90.5012 19.7557 87.5935 17.2587 84.3595C16.6409 83.5565 16.7876 82.407 17.5887 81.7892C18.3899 81.1695 19.5394 81.3162 20.1609 82.1192C22.4672 85.1057 25.1531 87.7915 28.1451 90.1015C28.9462 90.7193 29.0947 91.8707 28.4751 92.6718C28.1139 93.1393 27.5712 93.385 27.0231 93.385Z" fill="#1B2544"/>
<path d="M47.7271 102.337C47.6318 102.337 47.5346 102.33 47.4356 102.313C43.6571 101.71 39.963 100.65 36.4521 99.1654C35.519 98.7713 35.0826 97.6951 35.4786 96.7619C35.8728 95.8269 36.9471 95.3961 37.8821 95.7884C41.1198 97.1579 44.5298 98.1351 48.015 98.6924C49.0141 98.8519 49.6961 99.7924 49.5366 100.793C49.3918 101.694 48.6126 102.337 47.7271 102.337V102.337Z" fill="#1B2544"/>
<path d="M37.1693 14.8565C36.4543 14.8565 35.776 14.4367 35.4808 13.7382C35.0866 12.805 35.5211 11.7289 36.4543 11.3347C39.9651 9.8497 43.6593 8.79003 47.4378 8.18687C48.437 8.0237 49.3775 8.70937 49.537 9.7067C49.6965 10.7077 49.0163 11.6482 48.0153 11.8077C44.5301 12.365 41.1201 13.3422 37.8825 14.7117C37.6478 14.8089 37.4076 14.8565 37.1693 14.8565V14.8565Z" fill="#1B2544"/>
<path d="M18.698 29.1086C18.3075 29.1086 17.9133 28.9839 17.5797 28.7273C16.7767 28.1076 16.63 26.9563 17.2478 26.1551C19.7467 22.9156 22.6543 20.0061 25.8902 17.5091C26.6913 16.8913 27.8408 17.0361 28.4623 17.8391C29.0802 18.6421 28.9335 19.7916 28.1323 20.4094C25.144 22.7176 22.4582 25.4053 20.15 28.3954C19.7888 28.8629 19.2462 29.1086 18.698 29.1086V29.1086Z" fill="#1B2544"/>
<path d="M9.74976 49.8087C9.65259 49.8087 9.55726 49.8014 9.45826 49.7849C8.45909 49.6254 7.77709 48.6849 7.93659 47.6857C8.53976 43.9072 9.59759 40.213 11.0826 36.7022C11.4768 35.769 12.5511 35.3327 13.4861 35.7287C14.4193 36.1229 14.8556 37.199 14.4596 38.1322C13.0901 41.3717 12.1129 44.7799 11.5574 48.2632C11.4144 49.167 10.6353 49.8087 9.74976 49.8087Z" fill="#1B2544"/>
<path d="M40.3334 62.5835C40.0529 62.5835 39.7724 62.5193 39.5139 62.391L24.8472 55.0576C24.2257 54.746 23.8334 54.1116 23.8334 53.4168V38.7501C23.8334 38.1139 24.1634 37.5254 24.7024 37.1899C25.2432 36.8526 25.9197 36.8269 26.4862 37.1093L41.1529 44.4426C41.7744 44.7543 42.1667 45.3886 42.1667 46.0834V60.7501C42.1667 61.3863 41.8367 61.9748 41.2977 62.3103C41.0025 62.4918 40.667 62.5835 40.3334 62.5835V62.5835ZM27.5 52.2838L38.5 57.7838V47.2164L27.5 41.7164V52.2838Z" fill="#1B2544"/>
<path d="M40.3333 62.5835C39.9978 62.5835 39.6642 62.4918 39.369 62.3103C38.83 61.9748 38.5 61.3863 38.5 60.7501V46.0834C38.5 45.3886 38.8923 44.7543 39.5138 44.4426L54.1805 37.1093C54.7488 36.8269 55.4235 36.8526 55.9643 37.1899C56.5033 37.5254 56.8333 38.1139 56.8333 38.7501V53.4168C56.8333 54.1116 56.441 54.746 55.8195 55.0576L41.1528 62.391C40.8943 62.5193 40.6138 62.5835 40.3333 62.5835V62.5835ZM42.1667 47.2164V57.7838L53.1667 52.2838V41.7164L42.1667 47.2164Z" fill="#1B2544"/>
<path d="M40.3334 47.9167C40.0529 47.9167 39.7705 47.8526 39.5139 47.7242L24.8472 40.3909C24.2257 40.0792 23.8334 39.4449 23.8334 38.7501C23.8334 38.0552 24.2257 37.4209 24.8472 37.1092L39.5139 29.7759C40.029 29.5174 40.6377 29.5174 41.1547 29.7759L55.8214 37.1092C56.4429 37.4209 56.8352 38.0552 56.8352 38.7501C56.8352 39.4449 56.4429 40.0792 55.8214 40.3909L41.1547 47.7242C40.8944 47.8526 40.6139 47.9167 40.3334 47.9167ZM29.766 38.7501L40.3334 44.0337L50.9007 38.7501L40.3334 33.4664L29.766 38.7501Z" fill="#1B2544"/>
<path d="M69.667 62.5835C69.3865 62.5835 69.106 62.5193 68.8475 62.391L54.1808 55.0576C53.5593 54.746 53.167 54.1116 53.167 53.4168V38.7501C53.167 38.1139 53.497 37.5254 54.036 37.1899C54.5768 36.8526 55.2533 36.8269 55.8198 37.1093L70.4865 44.4426C71.108 44.7543 71.5003 45.3886 71.5003 46.0834V60.7501C71.5003 61.3863 71.1703 61.9748 70.6313 62.3103C70.3362 62.4918 70.0007 62.5835 69.667 62.5835V62.5835ZM56.8337 52.2838L67.8337 57.7838V47.2164L56.8337 41.7164V52.2838Z" fill="#1B2544"/>
<path d="M69.6666 62.5835C69.3311 62.5835 68.9975 62.4918 68.7023 62.3103C68.1633 61.9748 67.8333 61.3863 67.8333 60.7501V46.0834C67.8333 45.3886 68.2256 44.7543 68.8471 44.4426L83.5138 37.1093C84.0821 36.8269 84.7568 36.8526 85.2976 37.1899C85.8366 37.5254 86.1666 38.1139 86.1666 38.7501V53.4168C86.1666 54.1116 85.7743 54.746 85.1528 55.0576L70.4862 62.391C70.2277 62.5193 69.9471 62.5835 69.6666 62.5835V62.5835ZM71.5 47.2164V57.7838L82.5 52.2838V41.7164L71.5 47.2164Z" fill="#1B2544"/>
<path d="M69.667 47.9167C69.3865 47.9167 69.1042 47.8526 68.8475 47.7242L54.1808 40.3909C53.5593 40.0792 53.167 39.4449 53.167 38.7501C53.167 38.0552 53.5593 37.4209 54.1808 37.1092L68.8475 29.7759C69.3627 29.5174 69.9713 29.5174 70.4883 29.7759L85.155 37.1092C85.7765 37.4209 86.1688 38.0552 86.1688 38.7501C86.1688 39.4449 85.7765 40.0792 85.155 40.3909L70.4883 47.7242C70.228 47.8526 69.9475 47.9167 69.667 47.9167ZM59.0997 38.7501L69.667 44.0337L80.2343 38.7501L69.667 33.4664L59.0997 38.7501Z" fill="#1B2544"/>
<path d="M55 84.5834C54.7195 84.5834 54.439 84.5193 54.1805 84.3909L39.5138 77.0576C38.8923 76.7459 38.5 76.1116 38.5 75.4168V60.7501C38.5 60.1139 38.83 59.5254 39.369 59.1899C39.9098 58.8526 40.5845 58.8269 41.1528 59.1093L55.8195 66.4426C56.441 66.7543 56.8333 67.3886 56.8333 68.0834V82.7501C56.8333 83.3863 56.5033 83.9748 55.9643 84.3103C55.6692 84.4918 55.3337 84.5834 55 84.5834V84.5834ZM42.1667 74.2838L53.1667 79.7838V69.2164L42.1667 63.7164V74.2838Z" fill="#1B2544"/>
<path d="M55.0003 84.5834C54.6648 84.5834 54.3312 84.4918 54.036 84.3103C53.497 83.9748 53.167 83.3863 53.167 82.7501V68.0834C53.167 67.3886 53.5593 66.7543 54.1808 66.4426L68.8475 59.1093C69.4158 58.8269 70.0905 58.8526 70.6313 59.1899C71.1703 59.5254 71.5003 60.1139 71.5003 60.7501V75.4168C71.5003 76.1116 71.108 76.7459 70.4865 77.0576L55.8198 84.3909C55.5613 84.5193 55.2808 84.5834 55.0003 84.5834V84.5834ZM56.8337 69.2164V79.7838L67.8337 74.2838V63.7164L56.8337 69.2164Z" fill="#1B2544"/>
<path d="M55 69.9167C54.7195 69.9167 54.4372 69.8526 54.1805 69.7242L39.5138 62.3909C38.8923 62.0792 38.5 61.4449 38.5 60.7501C38.5 60.0552 38.8923 59.4209 39.5138 59.1092L54.1805 51.7759C54.6957 51.5174 55.3043 51.5174 55.8213 51.7759L70.488 59.1092C71.1095 59.4209 71.5018 60.0552 71.5018 60.7501C71.5018 61.4449 71.1095 62.0792 70.488 62.3909L55.8213 69.7242C55.561 69.8526 55.2805 69.9167 55 69.9167ZM44.4327 60.7501L55 66.0337L65.5673 60.7501L55 55.4664L44.4327 60.7501Z" fill="#1B2544"/>
</svg>
