<svg width="150" height="150" viewBox="0 0 150 150" fill="none" xmlns="http://www.w3.org/2000/svg">
<path d="M147.07 61.1569H128.32C126.702 61.1569 125.391 62.4688 125.391 64.0866V78.8815C125.391 80.4993 126.702 81.8112 128.32 81.8112C129.938 81.8112 131.25 80.4993 131.25 78.8815V67.0163H144.141V144.141H137.695H131.25V100.854C131.25 99.2364 129.938 97.9245 128.32 97.9245C126.702 97.9245 125.391 99.2364 125.391 100.854V144.141H119.531V83.4961C119.531 81.8783 118.22 80.5664 116.602 80.5664H97.8516C96.2335 80.5664 94.9219 81.8783 94.9219 83.4961V144.141H89.0625V104.004C89.0625 102.386 87.7509 101.074 86.1328 101.074H67.3828C65.7647 101.074 64.4531 102.386 64.4531 104.004V144.141H58.5938V120.813C58.5938 119.195 57.2821 117.883 55.6641 117.883H36.9141C35.296 117.883 33.9844 119.195 33.9844 120.813V144.141H8.78906C7.17363 144.141 5.85938 142.826 5.85938 141.211V8.78906C5.85938 7.17363 7.17363 5.85938 8.78906 5.85938H84.3677V25.1962C84.3677 30.0425 88.3104 33.9853 93.1567 33.9853H112.493V70.0195C112.493 71.6373 113.804 72.9492 115.422 72.9492C117.04 72.9492 118.352 71.6373 118.352 70.0195V31.0556C118.352 30.2786 118.043 29.5336 117.494 28.984L89.3689 0.858105C88.8193 0.308789 88.0743 0 87.2974 0H8.78906C3.94277 0 0 3.94277 0 8.78906V141.211C0 146.057 3.94277 150 8.78906 150H147.07C148.688 150 150 148.688 150 147.07V64.0866C150 62.4688 148.688 61.1569 147.07 61.1569ZM90.2271 10.0028L108.35 28.1259H93.1567C91.541 28.1259 90.2271 26.8116 90.2271 25.1962V10.0028ZM52.7344 144.141H39.8438V123.743H52.7344V144.141ZM83.2031 144.141H70.3125V106.934H83.2031V144.141ZM113.672 144.141H100.781V86.4258H113.672V144.141Z" fill="#1B2544"/>
<path d="M130.392 87.252C129.847 86.7044 129.091 86.3936 128.32 86.3936C127.55 86.3936 126.794 86.7044 126.249 87.252C125.704 87.7969 125.391 88.5527 125.391 89.3232C125.391 90.0938 125.704 90.8496 126.249 91.3945C126.794 91.9392 127.55 92.2529 128.32 92.2529C129.091 92.2529 129.847 91.9394 130.392 91.3945C130.937 90.8496 131.25 90.0938 131.25 89.3232C131.25 88.5527 130.937 87.7969 130.392 87.252Z" fill="#1B2544"/>
<path d="M42.6494 16.0339C41.0314 16.0339 39.7197 17.3458 39.7197 18.9636V24.2338C26.2341 25.6978 15.7036 37.1529 15.7036 51.0214C15.7036 65.8793 27.7915 77.9672 42.6494 77.9672C56.518 77.9672 67.9731 67.4371 69.437 53.9511H74.707C76.325 53.9511 77.6366 52.6392 77.6366 51.0214C77.6366 31.7291 61.9414 16.0339 42.6494 16.0339ZM42.6494 72.1076C31.0224 72.1076 21.563 62.6482 21.563 51.0211C21.563 40.3884 29.4746 31.5683 39.7197 30.1377V51.0211C39.7197 52.6389 41.0314 53.9508 42.6494 53.9508H63.5328C62.1023 64.1959 53.2822 72.1076 42.6494 72.1076ZM45.5791 48.0917V48.0914V22.0395C59.3053 23.417 70.2535 34.3656 71.6311 48.0917H45.5791Z" fill="#1B2544"/>
<path d="M74.707 86.2061H18.75C17.1319 86.2061 15.8203 87.518 15.8203 89.1357C15.8203 90.7535 17.1319 92.0654 18.75 92.0654H74.707C76.3251 92.0654 77.6367 90.7535 77.6367 89.1357C77.6367 87.518 76.3251 86.2061 74.707 86.2061Z" fill="#1B2544"/>
<path d="M37.5 100.342H18.75C17.1319 100.342 15.8203 101.654 15.8203 103.271C15.8203 104.889 17.1319 106.201 18.75 106.201H37.5C39.1181 106.201 40.4297 104.889 40.4297 103.271C40.4297 101.654 39.1181 100.342 37.5 100.342Z" fill="#1B2544"/>
<path d="M54.2432 101.2C53.6983 100.655 52.9424 100.342 52.1719 100.342C51.3985 100.342 50.6455 100.655 50.1006 101.2C49.5528 101.745 49.2422 102.501 49.2422 103.271C49.2422 104.042 49.5528 104.798 50.1006 105.342C50.6455 105.887 51.3985 106.201 52.1719 106.201C52.9424 106.201 53.6983 105.888 54.2432 105.342C54.7881 104.798 55.1016 104.042 55.1016 103.271C55.1016 102.501 54.7881 101.745 54.2432 101.2Z" fill="#1B2544"/>
</svg>
