<svg width="492" height="428" viewBox="0 0 492 428" fill="none" xmlns="http://www.w3.org/2000/svg">
<path d="M321.226 25.0675C321.226 25.0675 246.065 -1.66573 172.223 40.9022C98.3819 83.4702 61.1667 167.966 29.1823 235.642C-2.80207 303.318 15.6126 372.203 71.9636 403.598C128.315 434.994 166.617 388.708 245.648 386.453C324.68 384.198 345.948 395.503 411.542 350.853C477.136 306.203 488.989 200.743 437.25 122.717C385.51 44.6908 321.226 25.0675 321.226 25.0675Z" fill="white" fill-opacity="0.8"/>
<path opacity="0.8" d="M321.226 25.0675C321.226 25.0675 246.065 -1.66573 172.223 40.9022C98.3819 83.4702 61.1667 167.966 29.1823 235.642C-2.80207 303.318 15.6126 372.203 71.9635 403.598C128.315 434.993 166.617 388.708 245.648 386.453C324.68 384.198 345.948 395.503 411.542 350.853C477.136 306.203 488.989 200.743 437.25 122.717C385.51 44.6908 321.226 25.0675 321.226 25.0675Z" fill="black"/>
<path d="M123.185 219.178C124.908 219.177 126.612 218.816 128.186 218.116C129.761 217.416 131.171 216.394 132.326 215.115L129.594 212.068C128.775 213.052 127.74 213.833 126.569 214.35C125.399 214.867 124.124 215.107 122.846 215.05C121.567 214.993 120.319 214.641 119.199 214.021C118.079 213.402 117.118 212.532 116.39 211.479L113.525 214.424C114.673 215.894 116.138 217.085 117.81 217.908C119.483 218.731 121.32 219.165 123.185 219.178Z" fill="white" fill-opacity="0.8"/>
<path d="M123.185 212.738C124.113 212.737 125.028 212.519 125.857 212.101C126.686 211.683 127.406 211.077 127.959 210.331L125.033 207.091C124.964 207.559 124.719 207.984 124.349 208.279C123.978 208.574 123.509 208.717 123.037 208.68C122.565 208.643 122.125 208.427 121.805 208.078C121.485 207.728 121.311 207.27 121.316 206.796C121.306 206.675 121.306 206.552 121.316 206.431L118.035 209.793C118.559 210.692 119.311 211.438 120.215 211.955C121.119 212.473 122.143 212.742 123.185 212.738V212.738Z" fill="white" fill-opacity="0.8"/>
<path d="M122.95 204.785L122.768 204.978C122.872 204.968 122.978 204.968 123.082 204.978L122.95 204.785Z" fill="white" fill-opacity="0.8"/>
<path d="M138.39 221.869C136.332 223.958 133.866 225.601 131.145 226.694C128.424 227.787 125.507 228.307 122.576 228.222C119.645 228.138 116.763 227.449 114.11 226.201C111.457 224.952 109.09 223.17 107.157 220.965L104.303 223.891C106.609 226.448 109.411 228.51 112.538 229.953C115.665 231.396 119.052 232.188 122.495 232.283C125.937 232.378 129.363 231.773 132.565 230.505C135.767 229.237 138.678 227.332 141.122 224.906L138.39 221.869Z" fill="white" fill-opacity="0.8"/>
<path d="M123.185 226.074C125.75 226.074 128.29 225.559 130.654 224.562C133.017 223.564 135.157 222.103 136.947 220.265L134.215 217.218C132.741 218.782 130.951 220.016 128.964 220.836C126.977 221.656 124.838 222.045 122.69 221.976C120.541 221.906 118.432 221.381 116.501 220.435C114.571 219.488 112.864 218.142 111.494 216.486L108.66 219.391C110.459 221.483 112.688 223.163 115.194 224.316C117.7 225.469 120.426 226.069 123.185 226.074V226.074Z" fill="white" fill-opacity="0.8"/>
<path d="M0 427H491.162" stroke="#A8A8A8" stroke-linejoin="round"/>
<path d="M204.876 287.666C204.876 287.666 205.221 330.539 205.221 341.864C205.221 353.189 204.876 402.39 204.876 402.39" stroke="#A8A8A8" stroke-width="3" stroke-linecap="round" stroke-linejoin="round"/>
<path d="M230.604 298.646L219.97 289.728L249.811 293.161L223.403 284.579L250.502 279.774H219.97L243.636 261.939L216.882 275.315L232.321 248.907L211.743 272.573L218.944 237.928L205.567 270.176L204.196 234.159L201.454 270.857L186.858 238.435L196.995 273.944L175.157 250.136L194.252 279.439L167.224 260.161L192.536 284.579L163.883 268.927L190.128 286.64L166.392 283.543L189.448 290.074L170.983 293.151L190.128 292.471L178.814 300.017L205.567 292.816L230.604 298.646Z" fill="#B8060D"/>
<path d="M194.578 330.884C194.578 330.884 193.562 339.802 194.243 343.235C194.963 347.196 195.303 351.216 195.258 355.241C195.258 359.7 195.604 360.045 195.604 363.133C195.604 366.221 195.258 392.446 195.258 394.843V403.07" stroke="#A8A8A8" stroke-width="3" stroke-linecap="round" stroke-linejoin="round"/>
<path d="M195.593 359.7C195.593 359.7 196.964 352.153 198.335 348.72C199.706 345.287 200.732 346.323 201.078 342.209C201.423 338.096 201.423 336.379 202.093 334.998C202.642 333.777 203.1 332.518 203.464 331.23L204.155 328.487" stroke="#A8A8A8" stroke-width="3" stroke-linecap="round" stroke-linejoin="round"/>
<path d="M219.969 339.802L209.335 330.884L239.176 334.317L212.768 325.745L239.867 320.941H209.335L233.011 303.105L206.257 316.482L221.686 290.074L201.108 313.739L208.309 279.094L194.932 311.332L193.561 275.315L190.819 312.023L180.184 278.749L186.36 315.111L167.498 288.012L183.617 320.595L158.865 304.425L181.901 325.745L156.366 315.293L179.494 327.797L155.533 325.725L178.813 331.23L162.633 334.917L179.494 333.627L168.179 341.173L194.932 333.972L219.969 339.802Z" fill="#B8060D"/>
<path d="M185.191 393.36L177.848 405.548C177.292 406.48 176.928 407.514 176.778 408.588C176.628 409.663 176.695 410.757 176.974 411.805L180.235 423.994C180.469 424.854 180.98 425.614 181.688 426.155C182.397 426.697 183.264 426.99 184.155 426.99H217.592C218.482 426.988 219.347 426.693 220.053 426.152C220.76 425.611 221.269 424.852 221.503 423.994L224.773 411.805C225.051 410.756 225.116 409.662 224.965 408.587C224.813 407.513 224.447 406.479 223.89 405.548L216.556 393.36C216.309 392.948 215.959 392.607 215.541 392.37C215.122 392.133 214.65 392.009 214.169 392.009H187.568C187.089 392.009 186.618 392.133 186.201 392.37C185.784 392.607 185.436 392.948 185.191 393.36V393.36Z" fill="white" stroke="#A8A8A8" stroke-linejoin="round"/>
<path d="M21.3302 93.8404H156.174C156.471 93.8404 156.755 93.9581 156.964 94.1676C157.174 94.3772 157.292 94.6614 157.292 94.9577V425.141C157.292 425.634 157.096 426.107 156.747 426.455C156.399 426.804 155.926 427 155.433 427H22.0716C21.5787 427 21.1059 426.804 20.7573 426.455C20.4087 426.107 20.2129 425.634 20.2129 425.141V94.9577C20.2129 94.6614 20.3306 94.3772 20.5401 94.1676C20.7497 93.9581 21.0338 93.8404 21.3302 93.8404V93.8404Z" stroke="#A8A8A8" stroke-linejoin="round"/>
<path d="M88.7529 261.756V426.655" stroke="#A8A8A8" stroke-linejoin="round"/>
<path d="M88.7529 93.4951V255.875" stroke="#A8A8A8" stroke-linejoin="round"/>
<path d="M29.293 261.654H150.903C151.635 261.654 152.338 261.363 152.856 260.845C153.374 260.327 153.665 259.624 153.665 258.891C153.665 258.529 153.594 258.169 153.455 257.834C153.316 257.499 153.113 257.194 152.856 256.938C152.6 256.681 152.295 256.478 151.96 256.339C151.625 256.2 151.265 256.129 150.903 256.129H29.293C28.9302 256.129 28.5709 256.2 28.2357 256.339C27.9005 256.478 27.596 256.681 27.3394 256.938C27.0829 257.194 26.8794 257.499 26.7406 257.834C26.6017 258.169 26.5303 258.529 26.5303 258.891V258.891C26.5303 259.624 26.8213 260.327 27.3394 260.845C27.8576 261.363 28.5603 261.654 29.293 261.654V261.654Z" stroke="#A8A8A8" stroke-linejoin="round"/>
<path d="M142.93 125.865H103.876V201.657H142.93V125.865Z" stroke="#A8A8A8" stroke-linejoin="round"/>
<path d="M139.872 131.807H106.943V173.227H139.872V131.807Z" stroke="#A8A8A8" stroke-linejoin="round"/>
<path d="M111.88 177.808H107.197V182.643H111.88V177.808Z" stroke="#A8A8A8" stroke-linejoin="round"/>
<path d="M118.919 177.808H114.236V182.643H118.919V177.808Z" stroke="#A8A8A8" stroke-linejoin="round"/>
<path d="M125.948 177.808H121.266V182.643H125.948V177.808Z" stroke="#A8A8A8" stroke-linejoin="round"/>
<path d="M132.976 177.808H128.294V182.643H132.976V177.808Z" stroke="#A8A8A8" stroke-linejoin="round"/>
<path d="M140.004 177.808H135.321V182.643H140.004V177.808Z" stroke="#A8A8A8" stroke-linejoin="round"/>
<path d="M111.88 185.578H107.197V190.413H111.88V185.578Z" stroke="#A8A8A8" stroke-linejoin="round"/>
<path d="M118.919 185.578H114.236V190.413H118.919V185.578Z" stroke="#A8A8A8" stroke-linejoin="round"/>
<path d="M125.948 185.578H121.266V190.413H125.948V185.578Z" stroke="#A8A8A8" stroke-linejoin="round"/>
<path d="M132.976 185.578H128.294V190.413H132.976V185.578Z" stroke="#A8A8A8" stroke-linejoin="round"/>
<path d="M140.004 185.578H135.321V190.413H140.004V185.578Z" stroke="#A8A8A8" stroke-linejoin="round"/>
<path d="M69.8498 182.836H35.0215V233.011H69.8498V182.836Z" stroke="#A8A8A8" stroke-linejoin="round"/>
<path d="M63.5319 182.836H41.3389V233.011H63.5319V182.836Z" stroke="#A8A8A8" stroke-linejoin="round"/>
<path d="M63.5319 182.836H41.3389V198.366H63.5319V182.836Z" stroke="#A8A8A8" stroke-linejoin="round"/>
<path d="M375.778 62.9733H185.69C182.508 53.5116 180.858 43.602 180.804 33.6196L180.713 16.9114C180.716 15.6596 181.214 14.4598 182.099 13.5747C182.984 12.6895 184.184 12.191 185.436 12.1884H376.022C376.645 12.1883 377.261 12.3115 377.836 12.5508C378.411 12.79 378.933 13.1406 379.372 13.5824C379.811 14.0242 380.158 14.5485 380.394 15.1251C380.63 15.7016 380.749 16.319 380.745 16.9418L380.633 33.8939C380.569 43.4385 379.042 52.917 376.103 61.9982L375.778 62.9733Z" stroke="#A8A8A8" stroke-linejoin="round"/>
<path d="M363.498 55.254H197.97V63.014H363.498V55.254Z" stroke="#A8A8A8" stroke-linejoin="round"/>
<path d="M329.331 79.316C331.054 79.3176 332.758 78.9567 334.333 78.2567C335.908 77.5568 337.318 76.5335 338.472 75.2532L335.74 72.2061C334.922 73.1904 333.887 73.9721 332.717 74.4902C331.547 75.0084 330.273 75.2488 328.994 75.1927C327.715 75.1367 326.467 74.7856 325.347 74.1671C324.226 73.5485 323.264 72.6792 322.536 71.6271L319.661 74.5625C320.809 76.0339 322.275 77.226 323.95 78.0493C325.625 78.8726 327.464 79.3056 329.331 79.316Z" fill="#B8060D"/>
<path d="M329.331 72.8866C330.259 72.8842 331.173 72.6643 332 72.2445C332.828 71.8246 333.545 71.2166 334.095 70.4692L331.169 67.2393C331.1 67.7078 330.855 68.1325 330.485 68.4274C330.114 68.7224 329.645 68.8657 329.173 68.8283C328.701 68.7909 328.261 68.5756 327.941 68.2259C327.622 67.8763 327.447 67.4183 327.452 66.9447C327.437 66.8199 327.437 66.6937 327.452 66.5689L324.161 69.9309C324.687 70.8349 325.441 71.5842 326.349 72.1031C327.257 72.6221 328.285 72.8923 329.331 72.8866Z" fill="#B8060D"/>
<path d="M329.087 64.9337L328.904 65.1266C329.007 65.0999 329.113 65.0829 329.219 65.0759L329.087 64.9337Z" fill="#B8060D"/>
<path d="M344.535 82.0075C342.477 84.0982 340.01 85.7419 337.288 86.836C334.566 87.9301 331.648 88.451 328.716 88.3662C325.784 88.2813 322.901 87.5926 320.247 86.3429C317.593 85.0933 315.225 83.3097 313.292 81.1036L310.438 84.0288C312.74 86.5925 315.54 88.6607 318.668 90.1075C321.795 91.5543 325.184 92.3494 328.629 92.4444C332.073 92.5395 335.501 91.9324 338.704 90.6602C341.906 89.388 344.816 87.4773 347.257 85.0445L344.535 82.0075Z" fill="#B8060D"/>
<path d="M329.33 86.2125C331.893 86.2136 334.431 85.7009 336.793 84.7048C339.155 83.7087 341.294 82.2493 343.082 80.4129L340.35 77.3658C338.877 78.9294 337.088 80.1621 335.102 80.9823C333.117 81.8024 330.979 82.1913 328.832 82.1231C326.685 82.0549 324.576 81.5312 322.647 80.5868C320.717 79.6423 319.01 78.2986 317.639 76.6447L314.795 79.5496C316.598 81.6379 318.829 83.3139 321.337 84.4635C323.845 85.6132 326.571 86.2097 329.33 86.2125V86.2125Z" fill="#B8060D"/>
<path d="M435.491 356.663H333.535V369.318H435.491V356.663Z" stroke="#A8A8A8" stroke-linejoin="round"/>
<path d="M479.837 369.298H289.18V427H479.837V369.298Z" stroke="#A8A8A8" stroke-linejoin="round"/>
<path d="M474.759 372.985H294.259V423.313H474.759V372.985Z" stroke="#A8A8A8" stroke-linejoin="round"/>
<path d="M354.529 372.751V423.283" stroke="#A8A8A8" stroke-linejoin="round"/>
<path d="M413.663 372.751V423.283" stroke="#A8A8A8" stroke-linejoin="round"/>
<path d="M328.599 333.271H302.851V369.318H328.599V333.271Z" stroke="#A8A8A8" stroke-linejoin="round"/>
<path d="M465.698 333.271H439.95V369.318H465.698V333.271Z" stroke="#A8A8A8" stroke-linejoin="round"/>
<path d="M386.442 340.412C384.719 340.412 383.015 340.774 381.441 341.474C379.866 342.173 378.456 343.196 377.301 344.474L380.033 347.522C380.851 346.536 381.885 345.753 383.056 345.235C384.227 344.716 385.502 344.476 386.782 344.533C388.061 344.59 389.309 344.943 390.43 345.564C391.55 346.184 392.511 347.056 393.237 348.111L396.112 345.165C394.963 343.694 393.497 342.503 391.822 341.679C390.147 340.856 388.308 340.423 386.442 340.412V340.412Z" fill="#B8060D"/>
<path d="M386.443 346.851C385.514 346.852 384.599 347.071 383.77 347.489C382.941 347.907 382.222 348.513 381.669 349.258L384.594 352.488C384.664 352.02 384.908 351.595 385.279 351.3C385.65 351.005 386.118 350.862 386.59 350.899C387.063 350.937 387.503 351.152 387.822 351.502C388.142 351.851 388.317 352.309 388.312 352.783C388.327 352.908 388.327 353.034 388.312 353.159L391.602 349.797C391.077 348.896 390.323 348.15 389.417 347.633C388.511 347.116 387.486 346.846 386.443 346.851V346.851Z" fill="#B8060D"/>
<path d="M386.677 354.794L386.86 354.611C386.755 354.622 386.65 354.622 386.545 354.611L386.677 354.794Z" fill="#B8060D"/>
<path d="M371.237 337.72C373.295 335.631 375.761 333.989 378.482 332.896C381.203 331.802 384.12 331.282 387.05 331.367C389.981 331.452 392.863 332.14 395.516 333.389C398.169 334.637 400.537 336.419 402.47 338.624L405.324 335.699C403.017 333.142 400.216 331.079 397.089 329.636C393.962 328.194 390.574 327.401 387.132 327.306C383.69 327.211 380.264 327.816 377.062 329.084C373.86 330.352 370.949 332.257 368.505 334.683L371.237 337.72Z" fill="#B8060D"/>
<path d="M386.443 333.515C383.878 333.516 381.338 334.03 378.974 335.028C376.611 336.026 374.471 337.487 372.681 339.325L375.413 342.372C376.886 340.807 378.675 339.574 380.661 338.754C382.648 337.934 384.786 337.545 386.933 337.614C389.081 337.684 391.19 338.209 393.119 339.155C395.048 340.101 396.754 341.447 398.124 343.103L400.968 340.198C399.168 338.108 396.939 336.429 394.433 335.275C391.927 334.122 389.202 333.522 386.443 333.515V333.515Z" fill="#B8060D"/>
<path d="M474.342 34.4221C474.342 35.5872 473.996 36.7262 473.349 37.695C472.702 38.6637 471.781 39.4188 470.705 39.8647C469.629 40.3106 468.444 40.4272 467.301 40.1999C466.159 39.9726 465.109 39.4115 464.285 38.5877C463.461 37.7638 462.9 36.7141 462.673 35.5714C462.445 34.4286 462.562 33.2441 463.008 32.1677C463.454 31.0912 464.209 30.1711 465.178 29.5238C466.147 28.8765 467.286 28.531 468.451 28.531C470.013 28.531 471.511 29.1517 472.616 30.2565C473.721 31.3612 474.342 32.8597 474.342 34.4221V34.4221Z" stroke="#A8A8A8" stroke-linejoin="round"/>
<path d="M483.035 78.026H453.783V54.9392C453.783 53.0185 454.162 51.1165 454.897 49.342C455.632 47.5675 456.709 45.9551 458.067 44.597C459.425 43.2388 461.038 42.1615 462.812 41.4264C464.587 40.6914 466.489 40.3131 468.409 40.3131V40.3131C470.33 40.3131 472.232 40.6914 474.006 41.4264C475.781 42.1615 477.393 43.2388 478.751 44.597C480.11 45.9551 481.187 47.5675 481.922 49.342C482.657 51.1165 483.035 53.0185 483.035 54.9392V78.026Z" stroke="#A8A8A8" stroke-linejoin="round"/>
<path d="M468.451 28.531V0" stroke="#A8A8A8" stroke-width="2" stroke-linejoin="round"/>
<path d="M81.3466 34.4221C81.3466 35.5872 81.0011 36.7262 80.3537 37.695C79.7064 38.6637 78.7864 39.4188 77.7099 39.8647C76.6335 40.3106 75.449 40.4272 74.3062 40.1999C73.1635 39.9726 72.1138 39.4115 71.2899 38.5877C70.466 37.7638 69.905 36.7141 69.6777 35.5714C69.4503 34.4286 69.567 33.2441 70.0129 32.1677C70.4588 31.0912 71.2138 30.1711 72.1826 29.5238C73.1514 28.8765 74.2904 28.531 75.4555 28.531C77.0179 28.531 78.5163 29.1517 79.6211 30.2565C80.7259 31.3612 81.3466 32.8597 81.3466 34.4221V34.4221Z" stroke="#A8A8A8" stroke-linejoin="round"/>
<path d="M90.0822 78.026H60.8301V54.9392C60.8301 53.0185 61.2084 51.1165 61.9434 49.342C62.6785 47.5675 63.7558 45.9551 65.114 44.597C66.4721 43.2388 68.0845 42.1615 69.859 41.4264C71.6335 40.6914 73.5354 40.3131 75.4561 40.3131V40.3131C77.3769 40.3131 79.2788 40.6914 81.0533 41.4264C82.8278 42.1615 84.4402 43.2388 85.7983 44.597C87.1565 45.9551 88.2338 47.5675 88.9689 49.342C89.7039 51.1165 90.0822 53.0185 90.0822 54.9392V78.026Z" stroke="#A8A8A8" stroke-linejoin="round"/>
<path d="M75.4561 28.531V0" stroke="#A8A8A8" stroke-width="2" stroke-linejoin="round"/>
<path d="M110.102 73.4656C110.102 71.7425 109.74 70.0386 109.04 68.464C108.34 66.8894 107.318 65.4792 106.039 64.3243L102.992 67.0565C103.978 67.8733 104.762 68.9075 105.281 70.0779C105.8 71.2484 106.041 72.5232 105.985 73.8025C105.929 75.0817 105.577 76.3306 104.958 77.4511C104.338 78.5716 103.467 79.5332 102.413 80.2606L105.348 83.1249C106.819 81.9785 108.011 80.5139 108.834 78.8409C109.657 77.1679 110.091 75.3301 110.102 73.4656V73.4656Z" fill="#B8060D"/>
<path d="M103.662 73.4656C103.66 72.5364 103.44 71.6207 103.02 70.7917C102.601 69.9627 101.993 69.2436 101.245 68.6918L98.0151 71.617C98.4735 71.7 98.8847 71.9502 99.1689 72.3192C99.4532 72.6882 99.5903 73.1496 99.5536 73.614C99.5169 74.0784 99.3091 74.5126 98.9704 74.8323C98.6317 75.1521 98.1862 75.3347 97.7205 75.3446C97.5955 75.3546 97.4698 75.3546 97.3447 75.3446L100.717 78.6253C101.618 78.1002 102.365 77.3467 102.882 76.4408C103.399 75.5349 103.668 74.5087 103.662 73.4656Z" fill="#B8060D"/>
<path d="M95.709 73.6991L95.902 73.8819C95.8865 73.7776 95.8865 73.6715 95.902 73.5671L95.709 73.6991Z" fill="#B8060D"/>
<path d="M112.792 58.2605C114.88 60.3188 116.522 62.7855 117.614 65.5067C118.707 68.2279 119.226 71.1451 119.14 74.076C119.054 77.007 118.365 79.8888 117.116 82.5415C115.866 85.1941 114.083 87.5606 111.878 89.4932L114.803 92.3575C117.361 90.0501 119.423 87.2476 120.866 84.1197C122.309 80.9918 123.102 77.6037 123.197 74.1604C123.292 70.7171 122.687 67.2903 121.419 64.0877C120.15 60.885 118.245 57.9731 115.819 55.5283L112.792 58.2605Z" fill="#B8060D"/>
<path d="M116.999 73.4655C116.999 70.8998 116.484 68.3602 115.487 65.9965C114.489 63.6328 113.028 61.4928 111.19 59.7028L108.142 62.435C109.707 63.9091 110.941 65.699 111.761 67.6861C112.581 69.6731 112.97 71.8119 112.9 73.9605C112.831 76.1091 112.306 78.2185 111.36 80.1487C110.413 82.0788 109.067 83.7858 107.411 85.1562L110.316 87.99C112.408 86.191 114.088 83.9626 115.241 81.4562C116.394 78.9498 116.994 76.2244 116.999 73.4655V73.4655Z" fill="#B8060D"/>
<path d="M472.219 134.631H302.354V248.531H472.219V134.631Z" stroke="#A8A8A8" stroke-linejoin="round"/>
<path d="M467.608 139.435H306.965V243.717H467.608V139.435Z" stroke="#A8A8A8" stroke-linejoin="round"/>
<path d="M386.444 118.989C384.721 118.989 383.017 119.351 381.442 120.051C379.868 120.751 378.458 121.773 377.303 123.052L380.035 126.099C380.853 125.113 381.887 124.331 383.058 123.812C384.229 123.294 385.504 123.054 386.783 123.111C388.063 123.168 389.311 123.52 390.431 124.141C391.552 124.762 392.513 125.634 393.239 126.688L396.114 123.743C394.965 122.272 393.499 121.08 391.824 120.257C390.149 119.434 388.31 119 386.444 118.989V118.989Z" fill="#B8060D"/>
<path d="M386.444 125.429C385.515 125.43 384.6 125.648 383.771 126.066C382.942 126.484 382.223 127.09 381.67 127.836L384.595 131.066C384.665 130.597 384.909 130.173 385.28 129.878C385.651 129.583 386.119 129.439 386.591 129.477C387.064 129.514 387.504 129.73 387.823 130.079C388.143 130.429 388.318 130.887 388.313 131.36C388.328 131.485 388.328 131.611 388.313 131.736L391.603 128.374C391.078 127.474 390.324 126.727 389.418 126.21C388.512 125.693 387.487 125.424 386.444 125.429V125.429Z" fill="#B8060D"/>
<path d="M386.677 133.371L386.86 133.189H386.545L386.677 133.371Z" fill="#B8060D"/>
<path d="M371.238 116.298C373.296 114.209 375.762 112.566 378.483 111.473C381.204 110.38 384.12 109.86 387.051 109.944C389.982 110.029 392.864 110.717 395.517 111.966C398.17 113.215 400.538 114.997 402.471 117.202L405.325 114.276C403.018 111.719 400.217 109.657 397.09 108.214C393.963 106.771 390.575 105.979 387.133 105.884C383.69 105.789 380.265 106.393 377.063 107.662C373.861 108.93 370.95 110.834 368.506 113.261L371.238 116.298Z" fill="#B8060D"/>
<path d="M386.443 112.093C383.878 112.093 381.338 112.608 378.974 113.605C376.611 114.603 374.471 116.064 372.681 117.902L375.413 120.949C376.886 119.385 378.675 118.152 380.661 117.331C382.648 116.511 384.786 116.123 386.933 116.192C389.081 116.261 391.19 116.786 393.119 117.733C395.048 118.679 396.754 120.025 398.124 121.681L400.968 118.776C399.168 116.685 396.939 115.006 394.433 113.853C391.927 112.7 389.202 112.099 386.443 112.093V112.093Z" fill="#B8060D"/>
<path d="M230.786 110.691L230.512 182.856L187.721 127.166" stroke="#A8A8A8" stroke-miterlimit="10" stroke-dasharray="2 2"/>
<path d="M167.57 199.93L228.512 183.506L167.245 160.277" stroke="#A8A8A8" stroke-miterlimit="10" stroke-dasharray="2 2"/>
<path d="M228.502 183.506L192.841 229.924" stroke="#A8A8A8" stroke-miterlimit="10" stroke-dasharray="2 2"/>
<path d="M232.158 113.352H231.143" stroke="#A8A8A8" stroke-miterlimit="10"/>
<path d="M229.11 113.372C227.678 113.372 226.226 113.494 224.773 113.626C211.234 114.878 198.412 120.284 188.065 129.105C177.717 137.926 170.35 149.73 166.971 162.901C163.593 176.072 164.368 189.965 169.192 202.678C174.016 215.39 182.651 226.301 193.916 233.915" stroke="#A8A8A8" stroke-miterlimit="10" stroke-dasharray="2.01 2.01"/>
<path d="M194.77 234.474L195.623 235.033" stroke="#A8A8A8" stroke-miterlimit="10"/>
<path d="M182.166 161.384C182.168 158.548 181.328 155.774 179.754 153.414C178.179 151.054 175.94 149.214 173.319 148.127C170.699 147.04 167.815 146.755 165.032 147.307C162.25 147.859 159.693 149.224 157.687 151.23C155.68 153.235 154.313 155.79 153.759 158.573C153.205 161.355 153.488 164.239 154.573 166.86C155.658 169.481 157.497 171.722 159.855 173.298C162.214 174.875 164.987 175.716 167.824 175.716C169.707 175.719 171.573 175.35 173.313 174.631C175.054 173.912 176.635 172.856 177.968 171.525C179.3 170.194 180.356 168.613 181.077 166.873C181.797 165.133 182.167 163.268 182.166 161.384V161.384Z" fill="#B8060D"/>
<path d="M167.986 170.475C167.12 170.468 166.274 170.209 165.553 169.729C164.831 169.249 164.265 168.57 163.924 167.773C163.924 167.692 163.853 167.58 163.812 167.469L163.741 167.255C163.253 165.752 162.634 164.208 162.532 163.995C162.028 163.155 161.725 162.209 161.649 161.232C161.573 160.255 161.725 159.274 162.093 158.366C162.462 157.458 163.036 156.648 163.771 156.001C164.507 155.353 165.382 154.885 166.33 154.634C167.277 154.383 168.269 154.356 169.229 154.555C170.188 154.754 171.088 155.173 171.858 155.779C172.628 156.386 173.246 157.163 173.663 158.049C174.081 158.936 174.286 159.907 174.264 160.887C174.245 161.838 174.031 162.775 173.634 163.639V163.639C173.471 164.025 173.288 164.391 173.106 164.767C172.86 165.214 172.649 165.679 172.476 166.158C172.408 166.361 172.347 166.565 172.293 166.768C172.165 167.264 171.981 167.745 171.745 168.2C171.382 168.883 170.841 169.455 170.179 169.856C169.518 170.256 168.76 170.47 167.986 170.475V170.475ZM167.986 155.94C166.684 155.956 165.441 156.484 164.525 157.41C163.608 158.336 163.093 159.585 163.091 160.887C163.095 161.756 163.323 162.609 163.751 163.365V163.436C163.751 163.507 164.472 165.143 165.031 166.859C165.031 166.93 165.031 166.981 165.082 167.032C165.102 167.091 165.125 167.148 165.153 167.204C165.387 167.769 165.783 168.251 166.291 168.591C166.799 168.931 167.396 169.113 168.007 169.114C168.546 169.117 169.075 168.971 169.536 168.691C169.997 168.411 170.371 168.009 170.617 167.53C170.801 167.168 170.941 166.786 171.034 166.392C171.095 166.168 171.166 165.945 171.247 165.711C171.441 165.173 171.675 164.65 171.948 164.147C172.11 163.812 172.283 163.467 172.435 163.132C172.755 162.432 172.931 161.676 172.953 160.907C172.956 160.255 172.83 159.609 172.582 159.006C172.334 158.402 171.969 157.854 171.508 157.393C171.047 156.931 170.5 156.565 169.897 156.316C169.295 156.067 168.649 155.939 167.997 155.94H167.986Z" fill="#263238"/>
<path d="M168.006 154.204C167.825 154.204 167.651 154.132 167.521 154.005C167.392 153.877 167.318 153.704 167.315 153.523V150.324C167.315 150.143 167.387 149.97 167.515 149.842C167.642 149.715 167.815 149.643 167.996 149.643C168.176 149.643 168.35 149.715 168.477 149.842C168.605 149.97 168.676 150.143 168.676 150.324V153.482C168.682 153.574 168.669 153.666 168.638 153.753C168.607 153.84 168.558 153.919 168.496 153.986C168.433 154.054 168.357 154.108 168.273 154.145C168.189 154.182 168.098 154.202 168.006 154.204V154.204Z" fill="#263238"/>
<path d="M160.399 161.547H157.931C157.764 161.527 157.61 161.446 157.498 161.319C157.386 161.193 157.324 161.03 157.324 160.861C157.324 160.693 157.386 160.53 157.498 160.404C157.61 160.277 157.764 160.196 157.931 160.176H160.41C160.507 160.164 160.605 160.173 160.698 160.202C160.792 160.231 160.878 160.279 160.951 160.344C161.024 160.409 161.083 160.489 161.123 160.578C161.163 160.667 161.184 160.764 161.184 160.861C161.184 160.959 161.163 161.056 161.123 161.145C161.083 161.234 161.024 161.314 160.951 161.378C160.878 161.443 160.792 161.492 160.698 161.521C160.605 161.55 160.507 161.559 160.41 161.547H160.399Z" fill="#263238"/>
<path d="M177.899 161.557H175.421C175.24 161.557 175.067 161.485 174.94 161.358C174.812 161.23 174.74 161.057 174.74 160.877C174.74 160.696 174.812 160.523 174.94 160.395C175.067 160.268 175.24 160.196 175.421 160.196H177.899C178.08 160.196 178.253 160.268 178.38 160.395C178.508 160.523 178.58 160.696 178.58 160.877C178.577 161.056 178.504 161.228 178.377 161.355C178.25 161.482 178.079 161.555 177.899 161.557V161.557Z" fill="#263238"/>
<path d="M162.197 155.91C162.108 155.911 162.021 155.894 161.939 155.861C161.857 155.828 161.782 155.779 161.719 155.717L159.749 153.746C159.677 153.683 159.62 153.604 159.581 153.517C159.542 153.429 159.521 153.334 159.521 153.239C159.521 153.143 159.542 153.048 159.581 152.96C159.62 152.873 159.677 152.795 159.749 152.731C159.878 152.605 160.051 152.534 160.231 152.534C160.412 152.534 160.585 152.605 160.714 152.731L162.674 154.701C162.768 154.797 162.832 154.918 162.858 155.05C162.883 155.182 162.869 155.319 162.816 155.443C162.764 155.566 162.677 155.672 162.565 155.746C162.453 155.82 162.321 155.86 162.187 155.859L162.197 155.91Z" fill="#263238"/>
<path d="M173.979 155.92C173.796 155.919 173.621 155.846 173.491 155.717C173.365 155.588 173.295 155.415 173.295 155.234C173.295 155.054 173.365 154.881 173.491 154.752L175.462 152.792C175.59 152.664 175.763 152.592 175.944 152.592C176.125 152.592 176.299 152.664 176.427 152.792C176.555 152.92 176.627 153.093 176.627 153.274C176.627 153.455 176.555 153.629 176.427 153.757L174.456 155.717C174.33 155.845 174.159 155.918 173.979 155.92Z" fill="#263238"/>
<path d="M204.369 129.776C204.393 126.939 203.576 124.159 202.019 121.787C200.463 119.415 198.238 117.558 195.626 116.451C193.015 115.343 190.133 115.035 187.346 115.566C184.559 116.096 181.992 117.442 179.97 119.431C177.948 121.421 176.561 123.965 175.985 126.743C175.409 129.521 175.67 132.407 176.735 135.037C177.799 137.666 179.62 139.921 181.966 141.516C184.313 143.11 187.079 143.974 189.916 143.996C193.718 144.025 197.376 142.544 200.086 139.878C202.797 137.211 204.337 133.578 204.369 129.776V129.776Z" fill="#B8060D"/>
<path d="M190.007 137.749C188.17 137.689 186.408 137.007 185.008 135.816C183.609 134.625 182.654 132.995 182.3 131.191C181.947 129.388 182.215 127.518 183.061 125.886C183.907 124.255 185.282 122.959 186.96 122.209C187.101 122.135 187.256 122.091 187.415 122.081C187.574 122.07 187.734 122.092 187.884 122.147C188.034 122.201 188.171 122.286 188.286 122.396C188.401 122.507 188.492 122.64 188.553 122.787C188.614 122.934 188.643 123.093 188.64 123.252C188.636 123.412 188.599 123.569 188.531 123.713C188.464 123.857 188.367 123.986 188.247 124.091C188.126 124.196 187.986 124.274 187.833 124.322C186.609 124.823 185.592 125.727 184.953 126.885C184.313 128.043 184.089 129.385 184.317 130.689C184.545 131.992 185.211 133.178 186.206 134.05C187.201 134.923 188.464 135.428 189.786 135.484C191.108 135.539 192.409 135.141 193.474 134.356C194.538 133.57 195.302 132.444 195.638 131.164C195.975 129.885 195.864 128.529 195.324 127.321C194.783 126.113 193.846 125.127 192.668 124.525C192.442 124.367 192.28 124.133 192.213 123.866C192.145 123.599 192.175 123.317 192.298 123.07C192.422 122.824 192.629 122.63 192.884 122.524C193.138 122.418 193.422 122.407 193.684 122.493C195.246 123.357 196.481 124.711 197.197 126.346C197.914 127.982 198.071 129.808 197.646 131.542C197.22 133.276 196.236 134.821 194.844 135.939C193.452 137.058 191.731 137.687 189.946 137.729L190.007 137.749Z" fill="#263238"/>
<path d="M190.079 128.303C189.776 128.298 189.488 128.173 189.277 127.956C189.065 127.739 188.948 127.448 188.951 127.145V120.218C188.951 119.914 189.072 119.622 189.287 119.407C189.503 119.191 189.795 119.07 190.099 119.07C190.403 119.07 190.695 119.191 190.911 119.407C191.126 119.622 191.247 119.914 191.247 120.218L191.186 127.155C191.186 127.453 191.071 127.739 190.864 127.953C190.658 128.167 190.376 128.293 190.079 128.303Z" fill="#263238"/>
<path d="M199.27 244.509C206.353 240.965 209.222 232.35 205.678 225.266C202.134 218.183 193.519 215.313 186.435 218.857C179.352 222.401 176.482 231.017 180.027 238.1C183.571 245.184 192.186 248.053 199.27 244.509Z" fill="#B8060D"/>
<path d="M197.564 227.781H192.8V225.038C192.8 224.024 192.399 223.05 191.683 222.331C190.967 221.611 189.996 221.204 188.981 221.199H188.768C188.266 221.196 187.768 221.293 187.303 221.483C186.838 221.673 186.415 221.953 186.058 222.307C185.701 222.661 185.418 223.081 185.224 223.545C185.03 224.008 184.93 224.506 184.929 225.008V228.482C184.929 228.662 185 228.835 185.128 228.963C185.256 229.09 185.429 229.162 185.609 229.162C185.79 229.162 185.963 229.09 186.09 228.963C186.218 228.835 186.29 228.662 186.29 228.482V225.008C186.295 224.357 186.558 223.734 187.02 223.276C187.482 222.817 188.107 222.56 188.758 222.56H188.981C189.632 222.565 190.255 222.828 190.713 223.29C191.172 223.752 191.429 224.377 191.429 225.028V227.771H189.286C188.874 227.771 188.479 227.934 188.187 228.226C187.896 228.517 187.732 228.912 187.732 229.325V237.592C187.731 237.797 187.77 237.999 187.846 238.188C187.923 238.377 188.037 238.549 188.18 238.694C188.323 238.84 188.494 238.955 188.682 239.034C188.87 239.114 189.072 239.155 189.276 239.157H197.554C197.966 239.157 198.361 238.993 198.653 238.701C198.944 238.41 199.108 238.015 199.108 237.603V229.335C199.105 228.925 198.942 228.533 198.653 228.242C198.365 227.952 197.974 227.786 197.564 227.781ZM197.716 237.613C197.716 237.638 197.711 237.662 197.702 237.685C197.692 237.708 197.677 237.729 197.659 237.746C197.641 237.763 197.62 237.776 197.596 237.785C197.573 237.793 197.548 237.797 197.523 237.796H189.256C189.206 237.796 189.159 237.777 189.123 237.743C189.087 237.709 189.065 237.662 189.063 237.613V229.335C189.065 229.285 189.087 229.239 189.123 229.205C189.159 229.171 189.206 229.152 189.256 229.152H197.534C197.582 229.152 197.629 229.171 197.663 229.206C197.697 229.24 197.716 229.286 197.716 229.335V237.613Z" fill="#263238"/>
<path d="M193.409 231.478C193.145 231.482 192.891 231.575 192.688 231.743C192.485 231.911 192.345 232.143 192.291 232.402C192.238 232.66 192.275 232.928 192.395 233.163C192.515 233.398 192.711 233.584 192.952 233.692V235.642H193.845V233.733C194.091 233.629 194.293 233.443 194.418 233.207C194.543 232.972 194.582 232.7 194.53 232.438C194.477 232.177 194.336 231.941 194.13 231.772C193.924 231.602 193.665 231.509 193.398 231.508L193.409 231.478Z" fill="#263238"/>
<path d="M171.94 213.602C179.482 211.183 183.636 203.108 181.217 195.566C178.798 188.023 170.723 183.87 163.181 186.289C155.639 188.707 151.485 196.782 153.904 204.325C156.323 211.867 164.398 216.021 171.94 213.602Z" fill="#B8060D"/>
<path d="M169.235 200.164L169.347 192.739C169.358 191.996 169.073 191.278 168.555 190.745C168.036 190.212 167.328 189.906 166.584 189.895C165.841 189.884 165.123 190.169 164.59 190.688C164.057 191.206 163.751 191.914 163.74 192.658V193.237H162.054C161.845 193.237 161.644 193.319 161.494 193.465C161.344 193.611 161.257 193.81 161.252 194.019C161.25 194.122 161.269 194.224 161.307 194.319C161.345 194.414 161.402 194.501 161.474 194.575C161.545 194.649 161.631 194.707 161.725 194.748C161.82 194.788 161.921 194.81 162.024 194.811H163.72V195.969H162.034C161.93 195.966 161.827 195.984 161.731 196.022C161.634 196.059 161.546 196.115 161.471 196.187C161.397 196.259 161.337 196.345 161.296 196.44C161.255 196.535 161.233 196.637 161.231 196.741C161.231 196.949 161.312 197.148 161.456 197.298C161.6 197.448 161.796 197.536 162.003 197.543H163.7V198.711H162.014C161.82 198.733 161.642 198.826 161.512 198.971C161.382 199.116 161.311 199.304 161.311 199.499C161.311 199.693 161.382 199.881 161.512 200.026C161.642 200.171 161.82 200.264 162.014 200.286H163.568C162.724 200.912 162.1 201.79 161.788 202.793C161.476 203.796 161.49 204.873 161.829 205.867C162.169 206.862 162.815 207.723 163.676 208.326C164.536 208.929 165.566 209.243 166.617 209.222C167.667 209.202 168.684 208.848 169.521 208.212C170.357 207.576 170.97 206.691 171.27 205.684C171.571 204.677 171.543 203.601 171.192 202.61C170.841 201.62 170.184 200.767 169.316 200.174L169.235 200.164ZM166.391 207.609C165.496 207.588 164.646 207.212 164.027 206.565C163.408 205.917 163.071 205.051 163.09 204.156C163.095 203.563 163.259 202.983 163.565 202.476C163.87 201.969 164.306 201.553 164.827 201.271L165.213 201.048L165.335 192.658C165.343 192.33 165.479 192.019 165.715 191.791C165.951 191.563 166.266 191.436 166.594 191.439C166.756 191.442 166.915 191.476 167.063 191.54C167.211 191.605 167.345 191.697 167.457 191.813C167.57 191.929 167.658 192.066 167.717 192.216C167.777 192.367 167.806 192.527 167.803 192.688L167.681 201.027L168.098 201.261C168.758 201.623 169.278 202.196 169.574 202.888C169.871 203.581 169.928 204.352 169.735 205.08C169.542 205.808 169.111 206.451 168.511 206.905C167.91 207.36 167.175 207.601 166.422 207.589L166.391 207.609Z" fill="#263238"/>
<path d="M173.765 191.825C173.144 191.817 172.536 191.993 172.015 192.331C171.495 192.669 171.087 193.153 170.842 193.723C170.596 194.292 170.525 194.922 170.638 195.532C170.75 196.142 171.041 196.705 171.473 197.15C171.905 197.595 172.46 197.902 173.066 198.032C173.673 198.162 174.304 198.109 174.881 197.881C175.457 197.652 175.953 197.258 176.306 196.748C176.659 196.238 176.852 195.634 176.863 195.014C176.869 194.601 176.794 194.191 176.642 193.807C176.49 193.423 176.264 193.073 175.976 192.776C175.688 192.48 175.344 192.244 174.965 192.08C174.586 191.917 174.178 191.83 173.765 191.825V191.825ZM173.694 196.538C173.381 196.536 173.075 196.44 172.817 196.264C172.558 196.087 172.358 195.837 172.242 195.547C172.126 195.256 172.1 194.937 172.166 194.631C172.232 194.325 172.388 194.046 172.613 193.829C172.839 193.612 173.124 193.467 173.433 193.413C173.741 193.359 174.058 193.398 174.345 193.525C174.631 193.652 174.872 193.862 175.038 194.127C175.205 194.393 175.288 194.701 175.278 195.014C175.262 195.424 175.088 195.811 174.793 196.095C174.497 196.38 174.103 196.538 173.694 196.538V196.538Z" fill="#263238"/>
<path d="M244.573 120.491C246.712 112.864 242.264 104.948 234.638 102.808C227.012 100.669 219.095 105.117 216.956 112.743C214.816 120.37 219.264 128.286 226.891 130.426C234.517 132.565 242.434 128.117 244.573 120.491Z" fill="#B8060D"/>
<path d="M237.572 118.624V109.624V108.985C237.572 108.58 237.412 108.191 237.127 107.904C236.841 107.616 236.454 107.454 236.049 107.451H226.979C226.575 107.451 226.188 107.61 225.901 107.893C225.614 108.176 225.45 108.561 225.445 108.964V111.168V117.019C224.843 116.682 224.165 116.503 223.474 116.501C222.845 116.581 222.252 116.84 221.767 117.249C221.281 117.657 220.923 118.197 220.736 118.803C220.549 119.409 220.541 120.056 220.713 120.667C220.884 121.278 221.228 121.827 221.703 122.247C222.178 122.668 222.764 122.942 223.391 123.038C224.018 123.134 224.66 123.048 225.239 122.789C225.818 122.53 226.31 122.109 226.657 121.578C227.003 121.046 227.189 120.426 227.192 119.792C227.187 119.386 227.1 118.985 226.938 118.613V112.702L236.008 112.753V117.08C235.404 116.748 234.727 116.57 234.038 116.562C233.408 116.64 232.814 116.898 232.327 117.305C231.84 117.711 231.481 118.25 231.292 118.856C231.104 119.461 231.094 120.109 231.263 120.72C231.433 121.331 231.775 121.881 232.249 122.303C232.723 122.725 233.308 123.001 233.935 123.099C234.562 123.197 235.204 123.112 235.784 122.855C236.363 122.597 236.857 122.178 237.205 121.647C237.553 121.117 237.74 120.497 237.745 119.863C237.779 119.442 237.72 119.019 237.572 118.624V118.624ZM223.454 121.498C223.117 121.421 222.809 121.251 222.566 121.006C222.322 120.762 222.152 120.453 222.077 120.116C222.001 119.78 222.022 119.428 222.138 119.103C222.254 118.778 222.459 118.492 222.73 118.278C223.002 118.065 223.328 117.933 223.671 117.897C224.015 117.861 224.361 117.924 224.671 118.077C224.98 118.23 225.24 118.467 225.42 118.762C225.6 119.056 225.693 119.396 225.689 119.741C225.62 120.268 225.348 120.747 224.93 121.075C224.512 121.404 223.982 121.556 223.454 121.498ZM236.1 111.178L226.958 111.107V108.873L236.1 108.954V111.178ZM234.068 121.559C233.733 121.481 233.427 121.309 233.185 121.064C232.943 120.819 232.775 120.511 232.7 120.175C232.625 119.839 232.647 119.489 232.763 119.165C232.878 118.84 233.083 118.555 233.354 118.342C233.624 118.129 233.949 117.997 234.292 117.961C234.634 117.924 234.98 117.985 235.289 118.137C235.598 118.288 235.858 118.524 236.039 118.817C236.22 119.109 236.315 119.447 236.313 119.792C236.247 120.32 235.975 120.802 235.557 121.133C235.139 121.463 234.608 121.616 234.078 121.559H234.068Z" fill="#263238"/>
<path d="M307.492 170.942C307.492 170.942 312.368 173.106 314.267 177.707C316.166 182.308 332.407 224.012 332.946 227.263C333.484 230.513 315.618 259.765 315.618 259.765L310.468 254.89L316.156 231.061L308.843 213.459L304.78 207.771" fill="#B8060D"/>
<path d="M307.492 170.942C307.492 170.942 312.368 173.106 314.267 177.707C316.166 182.308 332.407 224.012 332.946 227.263C333.484 230.513 315.618 259.765 315.618 259.765L310.468 254.89L316.156 231.061L308.843 213.459L304.78 207.771" stroke="#A8A8A8" stroke-linejoin="round"/>
<path d="M328.65 237.237C321.835 234.007 316.604 235.693 314.888 236.445L310.479 254.88L315.629 259.755C315.629 259.755 323.501 246.815 328.65 237.237Z" fill="white" stroke="#A8A8A8" stroke-linejoin="round"/>
<path d="M308.336 254.798C308.336 254.798 315.446 268.927 314.562 274.33C313.678 279.734 311.251 393.644 311.251 393.644L295.629 394.244L280.912 281.846L276.697 282.446L269.79 395.442L252.361 392.74L246.947 282.151L246.043 257.5L308.336 254.798Z" fill="#263238" stroke="#A8A8A8" stroke-linejoin="round"/>
<path d="M251.152 343.753C251.907 343.632 252.624 343.336 253.245 342.89C254.027 342.22 253.915 342.22 255.693 343.997C257.47 345.775 257.023 346.546 258.465 345.439C259.908 344.332 259.572 343.885 261.015 345.551C262.457 347.217 262.132 347.775 264.123 347.44C266.114 347.105 266.459 346.546 266.459 348.212C266.459 349.878 266.124 350.325 267.007 350.66C268.046 350.992 268.971 351.608 269.679 352.437C270.339 353.321 270.694 352.874 271.009 353.88C271.213 354.475 271.562 355.009 272.025 355.434L251.152 343.753Z" fill="#5E5E5E" stroke="#A8A8A8" stroke-linejoin="round"/>
<path d="M251.243 344.109C252.062 345.313 252.629 346.671 252.909 348.101C253.244 350.213 252.584 351.879 253.691 352.874C254.798 353.87 255.468 353.433 255.722 354.317C255.976 355.2 255.387 356.094 255.946 356.429C256.504 356.764 258.719 355.322 258.719 355.982C258.719 356.643 258.495 356.998 259.379 356.653C260.263 356.307 260.273 355.21 260.821 356.318C261.37 357.425 261.837 358.867 262.162 358.654C263.171 357.917 264.354 357.455 265.595 357.313C266.327 357.269 267.057 357.423 267.708 357.76C268.043 357.872 268.591 358.43 268.926 357.872C269.262 357.313 272.228 355.779 272.228 355.779L251.243 344.109Z" fill="#5E5E5E" stroke="#A8A8A8" stroke-linejoin="round"/>
<path d="M251.152 343.753L272.198 355.779C272.198 355.779 256.871 356.673 251.152 343.753Z" fill="white" stroke="#A8A8A8" stroke-linejoin="round"/>
<path d="M290.602 326.364C290.83 325.636 290.882 324.863 290.754 324.11C290.5 323.094 290.449 323.216 292.836 322.413C295.223 321.611 295.711 322.363 295.355 320.575C295 318.787 294.461 318.889 296.594 318.34C298.727 317.792 299.072 318.34 299.641 316.39C300.21 314.44 299.875 313.912 301.368 314.653C302.861 315.395 303.115 315.882 303.806 315.243C304.566 314.464 305.525 313.909 306.578 313.638C307.675 313.445 307.422 312.947 308.468 313.089C309.088 313.175 309.72 313.105 310.306 312.886L290.602 326.364Z" fill="#5E5E5E" stroke="#A8A8A8" stroke-linejoin="round"/>
<path d="M290.957 326.446C292.4 326.251 293.868 326.348 295.274 326.73C297.305 327.37 298.514 328.711 299.895 328.152C301.277 327.593 301.185 326.811 302.079 327.004C302.973 327.197 303.521 328.101 304.11 327.746C304.699 327.39 304.344 324.77 304.943 325.064C305.542 325.359 305.746 325.704 305.837 324.76C305.928 323.815 304.943 323.327 306.182 323.327C307.422 323.327 308.915 323.561 308.864 323.165C308.66 321.931 308.776 320.665 309.199 319.488C309.479 318.812 309.944 318.228 310.54 317.802C310.783 317.548 311.555 317.304 311.18 316.786C310.804 316.268 310.763 312.906 310.763 312.906L290.957 326.446Z" fill="#5E5E5E" stroke="#A8A8A8" stroke-linejoin="round"/>
<path d="M290.602 326.365L310.723 312.835C310.723 312.835 304.72 327.055 290.602 326.365Z" fill="white" stroke="#A8A8A8" stroke-linejoin="round"/>
<path d="M252.959 390.932C252.959 390.932 248.45 392.436 248.45 394.244C248.45 396.052 250.552 411.074 250.552 411.074C250.552 411.074 240.334 416.782 239.441 418.285C238.547 419.789 239.136 427 239.136 427H269.79C269.79 427 270.694 419.484 270.694 416.782C270.558 414.162 270.256 411.553 269.79 408.971L271.587 393.644C271.587 393.644 262.873 387.032 252.959 390.932Z" fill="white" stroke="#A8A8A8" stroke-linejoin="round"/>
<path d="M239.136 427H269.79C269.79 427 269.983 425.385 270.186 423.394H238.953C238.994 425.304 239.136 427 239.136 427Z" fill="white" stroke="#A8A8A8" stroke-linejoin="round"/>
<path d="M265.584 389.734C263.206 387.525 260.113 386.245 256.87 386.128C251.791 386.128 249.658 389.175 249.658 389.175L252.705 404.198H260.831L265.584 389.734Z" fill="white" stroke="#A8A8A8" stroke-linejoin="round"/>
<path d="M261.968 405.548H251.608C251.384 405.548 251.168 405.46 251.008 405.302C250.849 405.144 250.758 404.93 250.755 404.705V404.705C250.758 404.48 250.848 404.264 251.008 404.105C251.167 403.946 251.383 403.855 251.608 403.852H261.968C262.193 403.855 262.407 403.946 262.565 404.106C262.723 404.265 262.811 404.481 262.811 404.705V404.705C262.811 404.929 262.722 405.143 262.564 405.301C262.406 405.46 262.192 405.548 261.968 405.548V405.548Z" fill="white" stroke="#A8A8A8" stroke-linejoin="round"/>
<path d="M261.968 407.62H251.608C251.384 407.62 251.168 407.532 251.008 407.374C250.849 407.216 250.758 407.002 250.755 406.777V406.777C250.758 406.552 250.848 406.336 251.008 406.177C251.167 406.018 251.383 405.927 251.608 405.924H261.968C262.193 405.927 262.407 406.018 262.565 406.178C262.723 406.337 262.811 406.553 262.811 406.777V406.777C262.811 407.001 262.722 407.215 262.564 407.374C262.406 407.532 262.192 407.62 261.968 407.62V407.62Z" fill="white" stroke="#A8A8A8" stroke-linejoin="round"/>
<path d="M261.968 409.692H251.608C251.384 409.692 251.168 409.604 251.008 409.446C250.849 409.288 250.758 409.074 250.755 408.849V408.849C250.758 408.624 250.848 408.408 251.008 408.249C251.167 408.09 251.383 407.999 251.608 407.996H261.968C262.193 407.999 262.407 408.09 262.565 408.25C262.723 408.409 262.811 408.625 262.811 408.849V408.849C262.811 409.073 262.722 409.287 262.564 409.446C262.406 409.604 262.192 409.692 261.968 409.692V409.692Z" fill="white" stroke="#A8A8A8" stroke-linejoin="round"/>
<path d="M261.968 411.764H251.608C251.384 411.764 251.168 411.676 251.008 411.518C250.849 411.36 250.758 411.146 250.755 410.921C250.758 410.696 250.848 410.48 251.008 410.321C251.167 410.162 251.383 410.071 251.608 410.068H261.968C262.193 410.071 262.407 410.162 262.565 410.322C262.723 410.481 262.811 410.697 262.811 410.921C262.811 411.145 262.722 411.359 262.564 411.518C262.406 411.676 262.192 411.764 261.968 411.764V411.764Z" fill="white" stroke="#A8A8A8" stroke-linejoin="round"/>
<path d="M311.971 390.932C311.971 390.932 316.471 392.436 316.471 394.244C316.471 396.052 314.369 411.074 314.369 411.074C314.369 411.074 324.586 416.782 325.49 418.285C326.394 419.789 325.795 427 325.795 427H295.131C295.131 427 294.227 419.484 294.227 416.782C294.363 414.162 294.665 411.553 295.131 408.971L293.323 393.644C293.323 393.644 302.048 387.032 311.971 390.932Z" fill="white" stroke="#A8A8A8" stroke-linejoin="round"/>
<path d="M325.796 427H295.132C295.132 427 294.939 425.385 294.726 423.394H325.968C325.928 425.304 325.796 427 325.796 427Z" fill="white" stroke="#A8A8A8" stroke-linejoin="round"/>
<path d="M299.347 389.734C301.725 387.525 304.818 386.245 308.061 386.128C313.14 386.128 315.273 389.175 315.273 389.175L312.226 404.198H304.1L299.347 389.734Z" fill="white" stroke="#A8A8A8" stroke-linejoin="round"/>
<path d="M313.201 405.548H302.84C302.616 405.548 302.4 405.46 302.241 405.302C302.081 405.144 301.99 404.93 301.987 404.705V404.705C301.99 404.48 302.081 404.264 302.24 404.105C302.4 403.946 302.615 403.855 302.84 403.852H313.201C313.425 403.855 313.64 403.946 313.797 404.106C313.955 404.265 314.044 404.481 314.044 404.705V404.705C314.044 404.929 313.955 405.143 313.797 405.301C313.639 405.46 313.424 405.548 313.201 405.548V405.548Z" fill="white" stroke="#A8A8A8" stroke-linejoin="round"/>
<path d="M313.201 407.62H302.84C302.616 407.62 302.4 407.532 302.241 407.374C302.081 407.216 301.99 407.002 301.987 406.777V406.777C301.99 406.552 302.081 406.336 302.24 406.177C302.4 406.018 302.615 405.927 302.84 405.924H313.201C313.425 405.927 313.64 406.018 313.797 406.178C313.955 406.337 314.044 406.553 314.044 406.777V406.777C314.044 407.001 313.955 407.215 313.797 407.374C313.639 407.532 313.424 407.62 313.201 407.62V407.62Z" fill="white" stroke="#A8A8A8" stroke-linejoin="round"/>
<path d="M313.201 409.692H302.84C302.616 409.692 302.4 409.604 302.241 409.446C302.081 409.288 301.99 409.074 301.987 408.849V408.849C301.99 408.624 302.081 408.408 302.24 408.249C302.4 408.09 302.615 407.999 302.84 407.996H313.201C313.425 407.999 313.64 408.09 313.797 408.25C313.955 408.409 314.044 408.625 314.044 408.849V408.849C314.044 409.073 313.955 409.287 313.797 409.446C313.639 409.604 313.424 409.692 313.201 409.692V409.692Z" fill="white" stroke="#A8A8A8" stroke-linejoin="round"/>
<path d="M313.201 411.764H302.84C302.616 411.764 302.4 411.676 302.241 411.518C302.081 411.36 301.99 411.146 301.987 410.921V410.921C301.99 410.696 302.081 410.48 302.24 410.321C302.4 410.162 302.615 410.071 302.84 410.068H313.201C313.425 410.071 313.64 410.162 313.797 410.322C313.955 410.481 314.044 410.697 314.044 410.921C314.044 411.145 313.955 411.359 313.797 411.518C313.639 411.676 313.424 411.764 313.201 411.764V411.764Z" fill="white" stroke="#A8A8A8" stroke-linejoin="round"/>
<path d="M268.632 142.736C268.632 142.736 267.85 156.519 267.616 158.622C267.382 160.724 259.724 164.716 253.153 167.824C246.581 170.932 241.056 172.293 241.32 175.188C241.584 178.083 245.525 285.899 245.525 285.899C245.525 285.899 254.463 285.635 267.616 280.648C280.769 275.661 288.641 269.343 295.213 263.818C299.185 260.493 303.615 257.757 308.366 255.692C308.366 255.692 309.382 204.684 309.382 195.766C309.382 186.848 311.22 177.625 310.702 173.949C310.184 170.272 294.4 165.823 290.459 163.954L286.508 162.116C286.508 162.116 286.508 157.037 288.093 153.848L289.667 150.699L269.424 141.761L268.632 142.736Z" fill="#B8060D" stroke="#A8A8A8" stroke-linejoin="round"/>
<path d="M295.183 263.787C299.155 260.463 303.585 257.726 308.336 255.662C308.336 255.662 308.336 255.367 308.336 254.819C304.334 255.012 300.495 257.063 283.655 262.751C271.074 266.844 258.101 269.615 244.946 271.019C245.271 280.038 245.485 285.889 245.485 285.889C245.485 285.889 254.423 285.625 267.576 280.638C280.729 275.651 288.611 269.313 295.183 263.787Z" fill="white" stroke="#A8A8A8" stroke-linejoin="round"/>
<path d="M244.672 263.543C244.672 263.543 291.516 257.043 308.305 251.629" stroke="#A8A8A8" stroke-linejoin="round"/>
<path d="M290.459 163.883L286.508 162.045C286.508 162.045 286.508 156.966 288.092 153.777L289.666 150.628L269.424 141.69L268.631 142.706C268.631 142.706 267.849 156.489 267.616 158.591C267.443 159.962 264.132 162.126 260.028 164.33C262.568 167.143 269.261 173.776 277.072 175.421C283.369 176.742 288.834 169.927 292.074 164.513C291.403 164.3 290.865 164.076 290.459 163.883Z" fill="white" stroke="#A8A8A8" stroke-linejoin="round"/>
<path d="M279.978 187.61L280.201 185.467C280.476 182.738 280.476 179.989 280.201 177.26L279.978 175.127C279.978 175.127 275.011 174.873 273.488 177.158C271.964 179.444 272.716 183.74 273.102 185.06C273.742 187.224 279.978 187.61 279.978 187.61Z" fill="#263238" stroke="#A8A8A8" stroke-linejoin="round"/>
<path d="M279.978 202.764L280.201 200.631C280.476 197.902 280.476 195.153 280.201 192.424L279.978 190.281C279.978 190.281 275.011 190.027 273.488 192.312C271.964 194.598 272.716 198.884 273.102 200.215C273.742 202.388 279.978 202.764 279.978 202.764Z" fill="#263238" stroke="#A8A8A8" stroke-linejoin="round"/>
<path d="M279.978 187.61V190.281" stroke="#A8A8A8" stroke-linejoin="round"/>
<path d="M278.454 187.61V190.027" stroke="#A8A8A8" stroke-linejoin="round"/>
<path d="M288.093 153.777L289.667 150.628L269.424 141.69L268.632 142.706L270.359 145.753C270.359 145.753 275.66 155.575 286.945 158.429C287.091 156.829 287.478 155.261 288.093 153.777V153.777Z" fill="#263238" stroke="#A8A8A8" stroke-linejoin="round"/>
<path d="M291.505 120.391C291.505 120.391 294.664 127.755 294.664 128.801C294.603 129.562 294.328 130.291 293.872 130.903C293.872 130.903 298.605 135.372 298.341 136.429C298.077 137.485 295.71 138.795 295.71 138.795C295.71 138.795 297.548 148.526 297.548 149.836C297.548 151.146 293.872 154.305 286.508 153.513C282.003 152.978 277.777 151.05 274.421 147.998C274.421 147.998 267.585 140.634 267.311 136.165C267.037 131.696 272.318 118.837 278.88 116.968C285.441 115.099 291.505 120.391 291.505 120.391Z" fill="white" stroke="#A8A8A8" stroke-linejoin="round"/>
<path d="M290.46 131.828C290.46 132.772 290.043 133.534 289.536 133.534C289.028 133.534 288.611 132.772 288.611 131.828C288.611 130.883 289.028 130.121 289.536 130.121C290.043 130.121 290.46 130.883 290.46 131.828Z" fill="#263238"/>
<path d="M286.508 129.593C286.508 129.593 289.138 126.17 292.297 128.019" stroke="#A8A8A8" stroke-linejoin="round"/>
<path d="M285.99 139.841C285.99 139.841 287.565 142.472 293.1 141.426" stroke="#A8A8A8" stroke-linejoin="round"/>
<path d="M267.058 119.599C267.058 119.599 258.648 122.757 257.855 127.724C257.063 132.691 264.163 139.557 265.219 140.603C266.276 141.649 272.329 141.619 273.893 139.588C275.458 137.556 273.101 134.062 274.675 132.752C276.25 131.442 278.362 131.96 278.891 128.019C279.419 124.078 277.57 122.493 280.201 121.183C282.832 119.873 286.244 122.757 291.506 120.391C296.767 118.024 295.182 108.822 289.403 105.409C283.624 101.997 274.422 106.72 274.168 108.558C273.914 110.396 275.742 112.763 274.168 113.027C272.593 113.291 269.17 112.245 268.642 114.865C268.302 116.5 267.77 118.089 267.058 119.599V119.599Z" fill="#263238" stroke="#A8A8A8" stroke-linejoin="round"/>
<path d="M274.158 141.426C274.158 141.426 271.263 135.637 267.322 136.165C263.381 136.693 264.428 145.367 267.322 147.205C270.217 149.044 274.158 145.367 274.158 145.367" fill="white"/>
<path d="M274.158 141.426C274.158 141.426 271.263 135.637 267.322 136.165C263.381 136.693 264.428 145.367 267.322 147.205C270.217 149.044 274.158 145.367 274.158 145.367" stroke="#A8A8A8" stroke-linejoin="round"/>
<path d="M244.57 171.775C244.57 171.775 236.942 174.924 235.632 179.129C234.322 183.334 218.009 221.727 216.435 224.835C214.861 227.943 216.699 233.509 219.594 234.566C222.489 235.622 224.063 234.566 226.948 232.463C229.832 230.361 244.57 205.649 244.57 205.649" fill="#B8060D"/>
<path d="M244.57 171.775C244.57 171.775 236.942 174.924 235.632 179.129C234.322 183.334 218.009 221.727 216.435 224.835C214.861 227.943 216.699 233.509 219.594 234.566C222.489 235.622 224.063 234.566 226.948 232.463C229.832 230.361 244.57 205.649 244.57 205.649" stroke="#A8A8A8" stroke-linejoin="round"/>
<path d="M225.606 172.428L234.867 172.266C235.371 172.257 235.858 172.449 236.22 172.799C236.582 173.149 236.791 173.628 236.8 174.132L237.241 199.399C237.249 199.902 237.058 200.389 236.708 200.751C236.358 201.114 235.878 201.322 235.375 201.331L226.113 201.493C225.607 201.501 225.118 201.309 224.753 200.957C224.389 200.605 224.179 200.123 224.17 199.617L223.73 174.36C223.721 173.854 223.913 173.365 224.265 173C224.617 172.636 225.099 172.426 225.606 172.417L225.606 172.428Z" fill="#263238" stroke="#A8A8A8" stroke-linejoin="round"/>
<path d="M221.584 207.335C221.584 207.335 221.513 192.15 221.401 190.007C221.289 187.864 223.879 185.66 225.464 184.593C227.048 183.527 233.782 180.419 234.605 180.784C235.428 181.15 235.154 182.47 234.057 183.253C232.96 184.035 228.125 186.726 227.211 187.468C226.297 188.209 226.368 191.094 226.368 191.094C226.368 191.094 231.934 188.422 233.589 187.701C235.245 186.98 237.063 186.208 237.733 186.787C237.927 186.99 238.061 187.243 238.12 187.517C238.179 187.791 238.161 188.076 238.069 188.341C238.49 188.865 238.701 189.528 238.658 190.2C238.505 191.144 234.595 194.892 233.396 195.878C232.503 196.625 231.648 197.418 230.837 198.254C230.837 198.254 238.221 196.446 238.739 196.335C239.257 196.223 239.866 197.35 238.434 198.214C236.205 199.22 233.916 200.085 231.578 200.804C231.258 202.601 230.733 204.356 230.014 206.035C229.436 207.749 228.289 209.215 226.764 210.189C226.764 210.189 229.882 226.867 227.617 231.346C225.352 235.825 218.263 239.014 215.429 233.489C212.595 227.964 214.362 221.229 217.176 217.543C219.989 213.856 221.584 207.335 221.584 207.335Z" fill="white" stroke="#A8A8A8" stroke-linejoin="round"/>
<path d="M228.248 221.758C222.022 224.429 217.908 221.849 215.796 219.726C213.856 223.545 213.033 228.928 215.389 233.509C218.233 239.035 225.313 235.845 227.578 231.366C228.512 229.548 228.543 225.678 228.248 221.758Z" fill="#B8060D" stroke="#A8A8A8" stroke-linejoin="round"/>
<path d="M238.039 188.341L227.872 194.74" stroke="#A8A8A8" stroke-linejoin="round"/>
<path d="M238.039 188.341L227.872 194.74" stroke="#A8A8A8" stroke-linejoin="round"/>
<path d="M312.845 250.766L304.374 252.564C303.47 252.747 297.346 258.506 296.625 259.592C295.903 260.679 297.884 261.39 298.788 261.39C299.692 261.39 304.547 257.795 304.547 257.795L303.257 261.035L312.988 269.506C312.988 269.506 315.598 264.823 316.857 261.756C317.742 259.247 318.345 256.648 318.655 254.006" fill="white"/>
<path d="M312.845 250.766L304.374 252.564C303.47 252.747 297.346 258.506 296.625 259.592C295.903 260.679 297.884 261.39 298.788 261.39C299.692 261.39 304.547 257.795 304.547 257.795L303.257 261.035L312.988 269.506C312.988 269.506 315.598 264.823 316.857 261.756C317.742 259.247 318.345 256.648 318.655 254.006" stroke="#A8A8A8" stroke-linejoin="round"/>
</svg>
