<svg width="69" height="80" viewBox="0 0 69 80" fill="none" xmlns="http://www.w3.org/2000/svg">
<path d="M55.6918 71.0956V70.8456H55.4418V71.0956H55.6918ZM55.6918 71.0956V73.6971V73.7495C55.6918 75.2685 56.914 76.5081 58.433 76.5081H62.2392C63.7931 76.5081 65.12 75.251 65.12 73.6971V70.4496M55.6918 71.0956H62.2392C63.2344 71.0956 64.2296 70.8861 65.12 70.4496M65.12 70.4496L65.01 70.2251L65.37 70.0487V70.4496H65.12ZM65.37 73.6971C65.37 75.397 63.9231 76.7581 62.2392 76.7581H58.433C56.7739 76.7581 55.4418 75.4045 55.4418 73.7495L65.37 73.6971ZM65.37 73.6971V70.4496V73.6971ZM55.4418 73.6972V73.6971V73.6972ZM55.4418 73.6972V73.6973M55.4418 73.6972V73.6973M55.4418 73.6973V73.6974M55.4418 73.6973V73.6974M55.4418 73.6974V73.6975M55.4418 73.6974V73.6975M55.4418 73.6975V73.6976M55.4418 73.6975V73.6976M55.4418 73.6976V73.6977M55.4418 73.6976V73.6977M55.4418 73.6977V73.6978M55.4418 73.6977V73.6978M55.4418 73.6978V73.6979M55.4418 73.6978V73.6979M55.4418 73.6979V73.698M55.4418 73.6979V73.698M55.4418 73.698V73.6981M55.4418 73.698V73.6981M55.4418 73.6981V73.6982M55.4418 73.6981V73.6982M55.4418 73.6982V73.6983M55.4418 73.6982V73.6983M55.4418 73.6983V73.6984M55.4418 73.6983V73.6984M55.4418 73.6984V73.6986M55.4418 73.6984V73.6986M55.4418 73.6986V73.6987M55.4418 73.6986V73.6987M55.4418 73.6987V73.6988M55.4418 73.6987V73.6988M55.4418 73.6988V73.6989M55.4418 73.6988V73.6989M55.4418 73.6989V73.699M55.4418 73.6989V73.699M55.4418 73.699V73.6991M55.4418 73.699V73.6991M55.4418 73.6991V73.6992M55.4418 73.6991V73.6992M55.4418 73.6992V73.6993M55.4418 73.6992V73.6993M55.4418 73.6993V73.6994M55.4418 73.6993V73.6994M55.4418 73.6994V73.6995M55.4418 73.6994V73.6995M55.4418 73.6995V73.6996M55.4418 73.6995V73.6996M55.4418 73.6996V73.6997M55.4418 73.6996V73.6997M55.4418 73.6997V73.6998M55.4418 73.6997V73.6998M55.4418 73.6998V73.6999M55.4418 73.6998V73.6999M55.4418 73.6999V73.7M55.4418 73.6999V73.7M55.4418 73.7V73.7001M55.4418 73.7V73.7001M55.4418 73.7001V73.7002M55.4418 73.7001V73.7002M55.4418 73.7002V73.7003M55.4418 73.7002V73.7003M55.4418 73.7003V73.7004M55.4418 73.7003V73.7004M55.4418 73.7004V73.7005M55.4418 73.7004V73.7005M55.4418 73.7005V73.7006M55.4418 73.7005V73.7006M55.4418 73.7006V73.7007M55.4418 73.7006V73.7007M55.4418 73.7007V73.7008M55.4418 73.7007V73.7008M55.4418 73.7008V73.7009M55.4418 73.7008V73.7009M55.4418 73.7009V73.701M55.4418 73.7009V73.701M55.4418 73.701V73.7011M55.4418 73.701V73.7011M55.4418 73.7011V73.7012M55.4418 73.7011V73.7012M55.4418 73.7012V73.7013M55.4418 73.7012V73.7013M55.4418 73.7013V73.7014M55.4418 73.7013V73.7014M55.4418 73.7014V73.7015M55.4418 73.7014V73.7015M55.4418 73.7015V73.7016M55.4418 73.7015V73.7016M55.4418 73.7016V73.7017M55.4418 73.7016V73.7017M55.4418 73.7017V73.7018M55.4418 73.7017V73.7018M55.4418 73.7018V73.7019M55.4418 73.7018V73.7019M55.4418 73.7019V73.702M55.4418 73.7019V73.702M55.4418 73.702V73.7021M55.4418 73.702V73.7021M55.4418 73.7021V73.7022M55.4418 73.7021V73.7022M55.4418 73.7022V73.7023M55.4418 73.7022V73.7023M55.4418 73.7023V73.7024M55.4418 73.7023V73.7024M55.4418 73.7024V73.7025M55.4418 73.7024V73.7025M55.4418 73.7025V73.7026M55.4418 73.7025V73.7026M55.4418 73.7026V73.7027M55.4418 73.7026V73.7027M55.4418 73.7027V73.7029M55.4418 73.7027V73.7029M55.4418 73.7029V73.7029M55.4418 73.7029V73.7029M55.4418 73.7029V73.7031M55.4418 73.7029V73.7031M55.4418 73.7031V73.7032M55.4418 73.7031V73.7032M55.4418 73.7032V73.7033M55.4418 73.7032V73.7033M55.4418 73.7033V73.7034M55.4418 73.7033V73.7034M55.4418 73.7034V73.7035M55.4418 73.7034V73.7035M55.4418 73.7035V73.7036M55.4418 73.7035V73.7036M55.4418 73.7036V73.7037M55.4418 73.7036V73.7037M55.4418 73.7037V73.7038M55.4418 73.7037V73.7038M55.4418 73.7038V73.7039M55.4418 73.7038V73.7039M55.4418 73.7039V73.704M55.4418 73.7039V73.704M55.4418 73.704V73.7041M55.4418 73.704V73.7041M55.4418 73.7041V73.7042M55.4418 73.7041V73.7042M55.4418 73.7042V73.7043M55.4418 73.7042V73.7043M55.4418 73.7043V73.7044M55.4418 73.7043V73.7044M55.4418 73.7044V73.7045M55.4418 73.7044V73.7045M55.4418 73.7045V73.7046M55.4418 73.7045V73.7046M55.4418 73.7046V73.7047M55.4418 73.7046V73.7047M55.4418 73.7047V73.7048M55.4418 73.7047V73.7048M55.4418 73.7048V73.7049M55.4418 73.7048V73.7049M55.4418 73.7049V73.705M55.4418 73.7049V73.705M55.4418 73.705V73.7051M55.4418 73.705V73.7051M55.4418 73.7051V73.7052M55.4418 73.7051V73.7052M55.4418 73.7052V73.7053M55.4418 73.7052V73.7053M55.4418 73.7053V73.7054M55.4418 73.7053V73.7054M55.4418 73.7054V73.7055M55.4418 73.7054V73.7055M55.4418 73.7055V73.7056M55.4418 73.7055V73.7056M55.4418 73.7056V73.7057M55.4418 73.7056V73.7057M55.4418 73.7057V73.7058M55.4418 73.7057V73.7058M55.4418 73.7058V73.7059M55.4418 73.7058V73.7059M55.4418 73.7059V73.706M55.4418 73.7059V73.706M55.4418 73.706V73.7061M55.4418 73.706V73.7061M55.4418 73.7061V73.7062M55.4418 73.7061V73.7062M55.4418 73.7062V73.7063M55.4418 73.7062V73.7063M55.4418 73.7063V73.7064M55.4418 73.7063V73.7064M55.4418 73.7064V73.7065M55.4418 73.7064V73.7065M55.4418 73.7065V73.7066M55.4418 73.7065V73.7066M55.4418 73.7066V73.7067M55.4418 73.7066V73.7067M55.4418 73.7067V73.7068M55.4418 73.7067V73.7068M55.4418 73.7068V73.7069M55.4418 73.7068V73.7069M55.4418 73.7069V73.707M55.4418 73.7069V73.707M55.4418 73.707V73.7071M55.4418 73.707V73.7071M55.4418 73.7071V73.7072M55.4418 73.7071V73.7072M55.4418 73.7072V73.7074M55.4418 73.7072V73.7074M55.4418 73.7074V73.7075M55.4418 73.7074V73.7075M55.4418 73.7075V73.7076M55.4418 73.7075V73.7076M55.4418 73.7076V73.7077M55.4418 73.7076V73.7077M55.4418 73.7077V73.7078M55.4418 73.7077V73.7078M55.4418 73.7078V73.7079M55.4418 73.7078V73.7079M55.4418 73.7079V73.708M55.4418 73.7079V73.708M55.4418 73.708V73.7081M55.4418 73.708V73.7081M55.4418 73.7081V73.7082M55.4418 73.7081V73.7082M55.4418 73.7082V73.7083M55.4418 73.7082V73.7083M55.4418 73.7083V73.7084M55.4418 73.7083V73.7084M55.4418 73.7084V73.7085M55.4418 73.7084V73.7085M55.4418 73.7085V73.7086M55.4418 73.7085V73.7086M55.4418 73.7086V73.7087M55.4418 73.7086V73.7087M55.4418 73.7087V73.7088M55.4418 73.7087V73.7088M55.4418 73.7088V73.7089M55.4418 73.7088V73.7089M55.4418 73.7089V73.709M55.4418 73.7089V73.709M55.4418 73.709V73.7091M55.4418 73.709V73.7091M55.4418 73.7091V73.7092M55.4418 73.7091V73.7092M55.4418 73.7092V73.7093M55.4418 73.7092V73.7093M55.4418 73.7093V73.7094M55.4418 73.7093V73.7094M55.4418 73.7094V73.7095M55.4418 73.7094V73.7095M55.4418 73.7095V73.7096M55.4418 73.7095V73.7096M55.4418 73.7096V73.7097M55.4418 73.7096V73.7097M55.4418 73.7097V73.7098M55.4418 73.7097V73.7098M55.4418 73.7098V73.7099M55.4418 73.7098V73.7099M55.4418 73.7099V73.71M55.4418 73.7099V73.71M55.4418 73.71V73.7101M55.4418 73.71V73.7101M55.4418 73.7101V73.7102M55.4418 73.7101V73.7102M55.4418 73.7102V73.7103M55.4418 73.7102V73.7103M55.4418 73.7103V73.7104M55.4418 73.7103V73.7104M55.4418 73.7104V73.7105M55.4418 73.7104V73.7105M55.4418 73.7105V73.7106M55.4418 73.7105V73.7106M55.4418 73.7106V73.7107M55.4418 73.7106V73.7107M55.4418 73.7107V73.7108M55.4418 73.7107V73.7108M55.4418 73.7108V73.7109M55.4418 73.7108V73.7109M55.4418 73.7109V73.711M55.4418 73.7109V73.711M55.4418 73.711V73.7111M55.4418 73.711V73.7111M55.4418 73.7111V73.7112M55.4418 73.7111V73.7112M55.4418 73.7112V73.7113M55.4418 73.7112V73.7113M55.4418 73.7113V73.7114M55.4418 73.7113V73.7114M55.4418 73.7114V73.7115M55.4418 73.7114V73.7115M55.4418 73.7115V73.7116M55.4418 73.7115V73.7116M55.4418 73.7116V73.7118M55.4418 73.7116V73.7118M55.4418 73.7118V73.7118M55.4418 73.7118V73.7118M55.4418 73.7118V73.712M55.4418 73.7118V73.712M55.4418 73.712V73.7121M55.4418 73.712V73.7121M55.4418 73.7121V73.7122M55.4418 73.7121V73.7122M55.4418 73.7122V73.7123M55.4418 73.7122V73.7123M55.4418 73.7123V73.7124M55.4418 73.7123V73.7124M55.4418 73.7124V73.7125M55.4418 73.7124V73.7125M55.4418 73.7125V73.7126M55.4418 73.7125V73.7126M55.4418 73.7126V73.7127M55.4418 73.7126V73.7127M55.4418 73.7127V73.7128M55.4418 73.7127V73.7128M55.4418 73.7128V73.7129M55.4418 73.7128V73.7129M55.4418 73.7129V73.713M55.4418 73.7129V73.713M55.4418 73.713V73.7131M55.4418 73.713V73.7131M55.4418 73.7131V73.7132M55.4418 73.7131V73.7132M55.4418 73.7132V73.7133M55.4418 73.7132V73.7133M55.4418 73.7133V73.7134M55.4418 73.7133V73.7134M55.4418 73.7134V73.7135M55.4418 73.7134V73.7135M55.4418 73.7135V73.7136M55.4418 73.7135V73.7136M55.4418 73.7136V73.7137M55.4418 73.7136V73.7137M55.4418 73.7137V73.7138M55.4418 73.7137V73.7138M55.4418 73.7138V73.7139M55.4418 73.7138V73.7139M55.4418 73.7139V73.714M55.4418 73.7139V73.714M55.4418 73.714V73.7141M55.4418 73.714V73.7141M55.4418 73.7141V73.7142M55.4418 73.7141V73.7142M55.4418 73.7142V73.7143M55.4418 73.7142V73.7143M55.4418 73.7143V73.7144M55.4418 73.7143V73.7144M55.4418 73.7144V73.7145M55.4418 73.7144V73.7145M55.4418 73.7145V73.7146M55.4418 73.7145V73.7146M55.4418 73.7146V73.7147M55.4418 73.7146V73.7147M55.4418 73.7147V73.7148M55.4418 73.7147V73.7148M55.4418 73.7148V73.7149M55.4418 73.7148V73.7149M55.4418 73.7149V73.715M55.4418 73.7149V73.715M55.4418 73.715V73.7151M55.4418 73.715V73.7151M55.4418 73.7151V73.7152M55.4418 73.7151V73.7152M55.4418 73.7152V73.7153M55.4418 73.7152V73.7153M55.4418 73.7153V73.7154M55.4418 73.7153V73.7154M55.4418 73.7154V73.7155M55.4418 73.7154V73.7155M55.4418 73.7155V73.7156M55.4418 73.7155V73.7156M55.4418 73.7156V73.7157M55.4418 73.7156V73.7157M55.4418 73.7157V73.7158M55.4418 73.7157V73.7158M55.4418 73.7158V73.7159M55.4418 73.7158V73.7159M55.4418 73.7159V73.716M55.4418 73.7159V73.716M55.4418 73.716V73.7161M55.4418 73.716V73.7161M55.4418 73.7161V73.7163M55.4418 73.7161V73.7163M55.4418 73.7163V73.7164M55.4418 73.7163V73.7164M55.4418 73.7164V73.7165M55.4418 73.7164V73.7165M55.4418 73.7165V73.7166M55.4418 73.7165V73.7166M55.4418 73.7166V73.7167M55.4418 73.7166V73.7167M55.4418 73.7167V73.7168M55.4418 73.7167V73.7168M55.4418 73.7168V73.7169M55.4418 73.7168V73.7169M55.4418 73.7169V73.717M55.4418 73.7169V73.717M55.4418 73.717V73.7171M55.4418 73.717V73.7171M55.4418 73.7171V73.7172M55.4418 73.7171V73.7172M55.4418 73.7172V73.7173M55.4418 73.7172V73.7173M55.4418 73.7173V73.7174M55.4418 73.7173V73.7174M55.4418 73.7174V73.7175M55.4418 73.7174V73.7175M55.4418 73.7175V73.7176M55.4418 73.7175V73.7176M55.4418 73.7176V73.7177M55.4418 73.7176V73.7177M55.4418 73.7177V73.7178M55.4418 73.7177V73.7178M55.4418 73.7178V73.7179M55.4418 73.7178V73.7179M55.4418 73.7179V73.718M55.4418 73.7179V73.718M55.4418 73.718V73.7181M55.4418 73.718V73.7181M55.4418 73.7181V73.7182M55.4418 73.7181V73.7182M55.4418 73.7182V73.7183M55.4418 73.7182V73.7183M55.4418 73.7183V73.7184M55.4418 73.7183V73.7184M55.4418 73.7184V73.7185M55.4418 73.7184V73.7185M55.4418 73.7185V73.7186M55.4418 73.7185V73.7186M55.4418 73.7186V73.7187M55.4418 73.7186V73.7187M55.4418 73.7187V73.7188M55.4418 73.7187V73.7188M55.4418 73.7188V73.7189M55.4418 73.7188V73.7189M55.4418 73.7189V73.719M55.4418 73.7189V73.719M55.4418 73.719V73.7191M55.4418 73.719V73.7191M55.4418 73.7191V73.7192M55.4418 73.7191V73.7192M55.4418 73.7192V73.7193M55.4418 73.7192V73.7193M55.4418 73.7193V73.7194M55.4418 73.7193V73.7194M55.4418 73.7194V73.7195M55.4418 73.7194V73.7195M55.4418 73.7195V73.7196M55.4418 73.7195V73.7196M55.4418 73.7196V73.7197M55.4418 73.7196V73.7197M55.4418 73.7197V73.7198M55.4418 73.7197V73.7198M55.4418 73.7198V73.7199M55.4418 73.7198V73.7199M55.4418 73.7199V73.72M55.4418 73.7199V73.72M55.4418 73.72V73.7201M55.4418 73.72V73.7201M55.4418 73.7201V73.7202M55.4418 73.7201V73.7202M55.4418 73.7202V73.7203M55.4418 73.7202V73.7203M55.4418 73.7203V73.7204M55.4418 73.7203V73.7204M55.4418 73.7204V73.7205M55.4418 73.7204V73.7205M55.4418 73.7205V73.7206M55.4418 73.7205V73.7206M55.4418 73.7206V73.7207M55.4418 73.7206V73.7207M55.4418 73.7207V73.7209M55.4418 73.7207V73.7209M55.4418 73.7209V73.721M55.4418 73.7209V73.721M55.4418 73.721V73.7211M55.4418 73.721V73.7211M55.4418 73.7211V73.7212M55.4418 73.7211V73.7212M55.4418 73.7212V73.7213M55.4418 73.7212V73.7213M55.4418 73.7213V73.7214M55.4418 73.7213V73.7214M55.4418 73.7214V73.7215M55.4418 73.7214V73.7215M55.4418 73.7215V73.7216M55.4418 73.7215V73.7216M55.4418 73.7216V73.7217M55.4418 73.7216V73.7217M55.4418 73.7217V73.7218M55.4418 73.7217V73.7218M55.4418 73.7218V73.7219M55.4418 73.7218V73.7219M55.4418 73.7219V73.722M55.4418 73.7219V73.722M55.4418 73.722V73.7221M55.4418 73.722V73.7221M55.4418 73.7221V73.7222M55.4418 73.7221V73.7222M55.4418 73.7222V73.7223M55.4418 73.7222V73.7223M55.4418 73.7223V73.7224M55.4418 73.7223V73.7224M55.4418 73.7224V73.7225M55.4418 73.7224V73.7225M55.4418 73.7225V73.7226M55.4418 73.7225V73.7226M55.4418 73.7226V73.7227M55.4418 73.7226V73.7227M55.4418 73.7227V73.7228M55.4418 73.7227V73.7228M55.4418 73.7228V73.7229M55.4418 73.7228V73.7229M55.4418 73.7229V73.723M55.4418 73.7229V73.723M55.4418 73.723V73.7231M55.4418 73.723V73.7231M55.4418 73.7231V73.7232M55.4418 73.7231V73.7232M55.4418 73.7232V73.7233M55.4418 73.7232V73.7233M55.4418 73.7233V73.7234M55.4418 73.7233V73.7234M55.4418 73.7234V73.7235M55.4418 73.7234V73.7235M55.4418 73.7235V73.7236M55.4418 73.7235V73.7236M55.4418 73.7236V73.7237M55.4418 73.7236V73.7237M55.4418 73.7237V73.7238M55.4418 73.7237V73.7238M55.4418 73.7238V73.7239M55.4418 73.7238V73.7239M55.4418 73.7239V73.724M55.4418 73.7239V73.724M55.4418 73.724V73.7241M55.4418 73.724V73.7241M55.4418 73.7241V73.7242M55.4418 73.7241V73.7242M55.4418 73.7242V73.7243M55.4418 73.7242V73.7243M55.4418 73.7243V73.7244M55.4418 73.7243V73.7244M55.4418 73.7244V73.7245M55.4418 73.7244V73.7245M55.4418 73.7245V73.7246M55.4418 73.7245V73.7246M55.4418 73.7246V73.7247M55.4418 73.7246V73.7247M55.4418 73.7247V73.7248M55.4418 73.7247V73.7248M55.4418 73.7248V73.7249M55.4418 73.7248V73.7249M55.4418 73.7249V73.725M55.4418 73.7249V73.725M55.4418 73.725V73.7252M55.4418 73.725V73.7252M55.4418 73.7252V73.7253M55.4418 73.7252V73.7253M55.4418 73.7253V73.7254M55.4418 73.7253V73.7254M55.4418 73.7254V73.7255M55.4418 73.7254V73.7255M55.4418 73.7255V73.7256M55.4418 73.7255V73.7256M55.4418 73.7256V73.7257M55.4418 73.7256V73.7257M55.4418 73.7257V73.7258M55.4418 73.7257V73.7258M55.4418 73.7258V73.7259M55.4418 73.7258V73.7259M55.4418 73.7259V73.726M55.4418 73.7259V73.726M55.4418 73.726V73.7261M55.4418 73.726V73.7261M55.4418 73.7261V73.7262M55.4418 73.7261V73.7262M55.4418 73.7262V73.7263M55.4418 73.7262V73.7263M55.4418 73.7263V73.7264M55.4418 73.7263V73.7264M55.4418 73.7264V73.7265M55.4418 73.7264V73.7265M55.4418 73.7265V73.7266M55.4418 73.7265V73.7266M55.4418 73.7266V73.7267M55.4418 73.7266V73.7267M55.4418 73.7267V73.7268M55.4418 73.7267V73.7268M55.4418 73.7268V73.7269M55.4418 73.7268V73.7269M55.4418 73.7269V73.727M55.4418 73.7269V73.727M55.4418 73.727V73.7271M55.4418 73.727V73.7271M55.4418 73.7271V73.7272M55.4418 73.7271V73.7272M55.4418 73.7272V73.7273M55.4418 73.7272V73.7273M55.4418 73.7273V73.7274M55.4418 73.7273V73.7274M55.4418 73.7274V73.7275M55.4418 73.7274V73.7275M55.4418 73.7275V73.7276M55.4418 73.7275V73.7276M55.4418 73.7276V73.7277M55.4418 73.7276V73.7277M55.4418 73.7277V73.7278M55.4418 73.7277V73.7278M55.4418 73.7278V73.7279M55.4418 73.7278V73.7279M55.4418 73.7279V73.728M55.4418 73.7279V73.728M55.4418 73.728V73.7281M55.4418 73.728V73.7281M55.4418 73.7281V73.7282M55.4418 73.7281V73.7282M55.4418 73.7282V73.7283M55.4418 73.7282V73.7283M55.4418 73.7283V73.7284M55.4418 73.7283V73.7284M55.4418 73.7284V73.7285M55.4418 73.7284V73.7285M55.4418 73.7285V73.7286M55.4418 73.7285V73.7286M55.4418 73.7286V73.7287M55.4418 73.7286V73.7287M55.4418 73.7287V73.7288M55.4418 73.7287V73.7288M55.4418 73.7288V73.7289M55.4418 73.7288V73.7289M55.4418 73.7289V73.729M55.4418 73.7289V73.729M55.4418 73.729V73.7291M55.4418 73.729V73.7291M55.4418 73.7291V73.7292M55.4418 73.7291V73.7292M55.4418 73.7292V73.7293M55.4418 73.7292V73.7293M55.4418 73.7293V73.7294M55.4418 73.7293V73.7294M55.4418 73.7294V73.7295M55.4418 73.7294V73.7295M55.4418 73.7295V73.7297M55.4418 73.7295V73.7297M55.4418 73.7297V73.7298M55.4418 73.7297V73.7298M55.4418 73.7298V73.7299M55.4418 73.7298V73.7299M55.4418 73.7299V73.73M55.4418 73.7299V73.73M55.4418 73.73V73.7301M55.4418 73.73V73.7301M55.4418 73.7301V73.7302M55.4418 73.7301V73.7302M55.4418 73.7302V73.7303M55.4418 73.7302V73.7303M55.4418 73.7303V73.7304M55.4418 73.7303V73.7304M55.4418 73.7304V73.7305M55.4418 73.7304V73.7305M55.4418 73.7305V73.7306M55.4418 73.7305V73.7306M55.4418 73.7306V73.7307M55.4418 73.7306V73.7307M55.4418 73.7307V73.7308M55.4418 73.7307V73.7308M55.4418 73.7308V73.7309M55.4418 73.7308V73.7309M55.4418 73.7309V73.731M55.4418 73.7309V73.731M55.4418 73.731V73.7311M55.4418 73.731V73.7311M55.4418 73.7311V73.7312M55.4418 73.7311V73.7312M55.4418 73.7312V73.7313M55.4418 73.7312V73.7313M55.4418 73.7313V73.7314M55.4418 73.7313V73.7314M55.4418 73.7314V73.7315M55.4418 73.7314V73.7315M55.4418 73.7315V73.7316M55.4418 73.7315V73.7316M55.4418 73.7316V73.7317M55.4418 73.7316V73.7317M55.4418 73.7317V73.7318M55.4418 73.7317V73.7318M55.4418 73.7318V73.7319M55.4418 73.7318V73.7319M55.4418 73.7319V73.732M55.4418 73.7319V73.732M55.4418 73.732V73.7321M55.4418 73.732V73.7321M55.4418 73.7321V73.7322M55.4418 73.7321V73.7322M55.4418 73.7322V73.7323M55.4418 73.7322V73.7323M55.4418 73.7323V73.7324M55.4418 73.7323V73.7324M55.4418 73.7324V73.7325M55.4418 73.7324V73.7325M55.4418 73.7325V73.7326M55.4418 73.7325V73.7326M55.4418 73.7326V73.7327M55.4418 73.7326V73.7327M55.4418 73.7327V73.7328M55.4418 73.7327V73.7328M55.4418 73.7328V73.7329M55.4418 73.7328V73.7329M55.4418 73.7329V73.733M55.4418 73.7329V73.733M55.4418 73.733V73.7331M55.4418 73.733V73.7331M55.4418 73.7331V73.7332M55.4418 73.7331V73.7332M55.4418 73.7332V73.7333M55.4418 73.7332V73.7333M55.4418 73.7333V73.7334M55.4418 73.7333V73.7334M55.4418 73.7334V73.7335M55.4418 73.7334V73.7335M55.4418 73.7335V73.7336M55.4418 73.7335V73.7336M55.4418 73.7336V73.7337M55.4418 73.7336V73.7337M55.4418 73.7337V73.7338M55.4418 73.7337V73.7338M55.4418 73.7338V73.7339M55.4418 73.7338V73.7339M55.4418 73.7339V73.7341M55.4418 73.7339V73.7341M55.4418 73.7341V73.7341M55.4418 73.7341V73.7341M55.4418 73.7341V73.7343M55.4418 73.7341V73.7343M55.4418 73.7343V73.7344M55.4418 73.7343V73.7344M55.4418 73.7344V73.7345M55.4418 73.7344V73.7345M55.4418 73.7345V73.7346M55.4418 73.7345V73.7346M55.4418 73.7346V73.7347M55.4418 73.7346V73.7347M55.4418 73.7347V73.7348M55.4418 73.7347V73.7348M55.4418 73.7348V73.7349M55.4418 73.7348V73.7349M55.4418 73.7349V73.735M55.4418 73.7349V73.735M55.4418 73.735V73.7351M55.4418 73.735V73.7351M55.4418 73.7351V73.7352M55.4418 73.7351V73.7352M55.4418 73.7352V73.7353M55.4418 73.7352V73.7353M55.4418 73.7353V73.7354M55.4418 73.7353V73.7354M55.4418 73.7354V73.7355M55.4418 73.7354V73.7355M55.4418 73.7355V73.7356M55.4418 73.7355V73.7356M55.4418 73.7356V73.7357M55.4418 73.7356V73.7357M55.4418 73.7357V73.7358M55.4418 73.7357V73.7358M55.4418 73.7358V73.7359M55.4418 73.7358V73.7359M55.4418 73.7359V73.736M55.4418 73.7359V73.736M55.4418 73.736V73.7361M55.4418 73.736V73.7361M55.4418 73.7361V73.7362M55.4418 73.7361V73.7362M55.4418 73.7362V73.7363M55.4418 73.7362V73.7363M55.4418 73.7363V73.7364M55.4418 73.7363V73.7364M55.4418 73.7364V73.7365M55.4418 73.7364V73.7365M55.4418 73.7365V73.7366M55.4418 73.7365V73.7366M55.4418 73.7366V73.7367M55.4418 73.7366V73.7367M55.4418 73.7367V73.7368M55.4418 73.7367V73.7368M55.4418 73.7368V73.7369M55.4418 73.7368V73.7369M55.4418 73.7369V73.737M55.4418 73.7369V73.737M55.4418 73.737V73.7371M55.4418 73.737V73.7371M55.4418 73.7371V73.7372M55.4418 73.7371V73.7372M55.4418 73.7372V73.7373M55.4418 73.7372V73.7373M55.4418 73.7373V73.7374M55.4418 73.7373V73.7374M55.4418 73.7374V73.7375M55.4418 73.7374V73.7375M55.4418 73.7375V73.7376M55.4418 73.7375V73.7376M55.4418 73.7376V73.7377M55.4418 73.7376V73.7377M55.4418 73.7377V73.7378M55.4418 73.7377V73.7378M55.4418 73.7378V73.7379M55.4418 73.7378V73.7379M55.4418 73.7379V73.738M55.4418 73.7379V73.738M55.4418 73.738V73.7381M55.4418 73.738V73.7381M55.4418 73.7381V73.7382M55.4418 73.7381V73.7382M55.4418 73.7382V73.7383M55.4418 73.7382V73.7383M55.4418 73.7383V73.7384M55.4418 73.7383V73.7384M55.4418 73.7384V73.7386M55.4418 73.7384V73.7386M55.4418 73.7386V73.7387M55.4418 73.7386V73.7387M55.4418 73.7387V73.7388M55.4418 73.7387V73.7388M55.4418 73.7388V73.7389M55.4418 73.7388V73.7389M55.4418 73.7389V73.739M55.4418 73.7389V73.739M55.4418 73.739V73.7391M55.4418 73.739V73.7391M55.4418 73.7391V73.7392M55.4418 73.7391V73.7392M55.4418 73.7392V73.7393M55.4418 73.7392V73.7393M55.4418 73.7393V73.7394M55.4418 73.7393V73.7394M55.4418 73.7394V73.7395V73.7394ZM64.3459 45.5681L64.3462 45.5685V45.5911L64.4258 45.6652L65.7171 46.8693C67.3954 48.4459 68.3445 50.6323 68.3445 52.9376V73.6971C68.3445 77.0299 65.5617 79.75 62.2217 79.75H58.4155H58.4155H58.4155H58.4154H58.4154H58.4154H58.4153H58.4153H58.4152H58.4152H58.4152H58.4152H58.4151H58.4151H58.415H58.415H58.415H58.4149H58.4149H58.4148H58.4148H58.4147H58.4147H58.4146H58.4146H58.4145H58.4145H58.4144H58.4144H58.4143H58.4143H58.4143H58.4142H58.4142H58.4142H58.4141H58.4141H58.4141H58.414H58.414H58.414H58.4139H58.4139H58.4139H58.4138H58.4138H58.4138H58.4137H58.4137H58.4137H58.4136H58.4136H58.4136H58.4135H58.4135H58.4134H58.4134H58.4134H58.4133H58.4133H58.4132H58.4132H58.4132H58.4131H58.4131H58.413H58.413H58.413H58.4129H58.4129H58.4128H58.4128H58.4128H58.4127H58.4127H58.4126H58.4126H58.4125H58.4125H58.4124H58.4124H58.4123H58.4123H58.4123H58.4122H58.4122H58.4121H58.4121H58.412H58.412H58.4119H58.4119H58.4118H58.4118H58.4117H58.4117H58.4116H58.4116H58.4115H58.4115H58.4114H58.4114H58.4113H58.4113H58.4112H58.4112H58.4111H58.4111H58.411H58.4109H58.4109H58.4108H58.4108H58.4107H58.4107H58.4106H58.4106H58.4105H58.4105H58.4104H58.4103H58.4103H58.4102H58.4102H58.4101H58.4101H58.41H58.4099H58.4099H58.4098H58.4098H58.4097H58.4096H58.4096H58.4095H58.4095H58.4094H58.4093H58.4093H58.4092H58.4091H58.4091H58.409H58.409H58.4089H58.4088H58.4088H58.4087H58.4086H58.4086H58.4085H58.4085H58.4084H58.4083H58.4083H58.4082H58.4081H58.4081H58.408H58.4079H58.4079H58.4078H58.4077H58.4077H58.4076H58.4075H58.4075H58.4074H58.4073H58.4072H58.4072H58.4071H58.407H58.407H58.4069H58.4068H58.4068H58.4067H58.4066H58.4065H58.4065H58.4064H58.4063H58.4063H58.4062H58.4061H58.406H58.406H58.4059H58.4058H58.4057H58.4057H58.4056H58.4055H58.4055H58.4054H58.4053H58.4052H58.4052H58.4051H58.405H58.4049H58.4049H58.4048H58.4047H58.4046H58.4045H58.4045H58.4044H58.4043H58.4042H58.4042H58.4041H58.404H58.4039H58.4038H58.4038H58.4037H58.4036H58.4035H58.4034H58.4034H58.4033H58.4032H58.4031H58.403H58.403H58.4029H58.4028H58.4027H58.4026H58.4026H58.4025H58.4024H58.4023H58.4022H58.4021H58.4021H58.402H58.4019H58.4018H58.4017H58.4017H58.4016H58.4015H58.4014H58.4013H58.4012H58.4011H58.4011H58.401H58.4009H58.4008H58.4007H58.4006H58.4006H58.4005H58.4004H58.4003H58.4002H58.4001H58.4H58.3999H58.3999H58.3998H58.3997H58.3996H58.3995H58.3994H58.3993H58.3992H58.3992H58.3991H58.399H58.3989H58.3988H58.3987H58.3986H58.3985H58.3984H58.3984H58.3983H58.3982H58.3981H58.398H58.3979H58.3978H58.3977H58.3976H58.3975H58.3975H58.3974H58.3973H58.3972H58.3971H58.397H58.3969H58.3968H58.3967H58.3966H58.3965H58.3965H58.3964H58.3963H58.3962H58.3961H58.396H58.3959H58.3958H58.3957H58.3956H58.3955H58.3954H58.3953H58.3952H58.3951H58.3951H58.395H58.3949H58.3948H58.3947H58.3946H58.3945H58.3944H58.3943H58.3942H58.3941H58.394H58.3939H58.3938H58.3937H58.3936H58.3935H58.3934H58.3933H58.3932H58.3931H58.3931H58.393H58.3929H58.3928H58.3927H58.3926H58.3925H58.3924H58.3923H58.3922H58.3921H58.392H58.3919H58.3918H58.3917H58.3916H58.3915H58.3914H58.3913H58.3912H58.3911H58.391H58.3909H58.3908H58.3907H58.3906H58.3905H58.3904H58.3903H58.3902H58.3901H58.39H58.3899H58.3898H58.3897H58.3896H58.3895H58.3894H58.3893H58.3892H58.3891H58.389H58.3889H58.3888H58.3887H58.3886H58.3885H58.3884H58.3883H58.3882H58.3881H58.388H58.3879H58.3878H58.3877H58.3876H58.3875H58.3874H58.3873H58.3872H58.3871H58.387H58.3869H58.3868H58.3867H58.3866H58.3865H58.3864H58.3863H58.3862H58.3861H58.386H58.3859H58.3858H58.3857H58.3856H58.3855H58.3854H58.3853H58.3852H58.3851H58.385H58.3849H58.3848H58.3847H58.3846H58.3845H58.3844H58.3843H58.3842H58.3841H58.384H58.3839H58.3838H58.3837H58.3836H58.3835H58.3834H58.3833H58.3832H58.3831H58.383H58.3829H58.3828H58.3827H58.3826H58.3825H58.3824H58.3823H58.3821H58.382C55.0625 79.7159 52.3989 77.0171 52.4324 73.6996V73.6971V71.0956V70.8456H52.1824H16.914H16.664V71.0956V73.7146V73.7146V73.7146V73.7147V73.7147V73.7147V73.7148V73.7148V73.7148V73.7149V73.7149V73.715V73.715V73.715V73.7151V73.7151V73.7151V73.7152V73.7152V73.7153V73.7153V73.7154V73.7154V73.7155V73.7155V73.7156V73.7156V73.7157V73.7157V73.7158V73.7158V73.7158V73.7159V73.7159V73.7159V73.716V73.716V73.716V73.7161V73.7161V73.7161V73.7162V73.7162V73.7162V73.7163V73.7163V73.7163V73.7164V73.7164V73.7164V73.7165V73.7165V73.7166V73.7166V73.7166V73.7167V73.7167V73.7167V73.7168V73.7168V73.7169V73.7169V73.7169V73.717V73.717V73.7171V73.7171V73.7171V73.7172V73.7172V73.7173V73.7173V73.7174V73.7174V73.7174V73.7175V73.7175V73.7176V73.7176V73.7177V73.7177V73.7178V73.7178V73.7178V73.7179V73.7179V73.718V73.718V73.7181V73.7181V73.7182V73.7182V73.7183V73.7183V73.7184V73.7184V73.7185V73.7185V73.7186V73.7186V73.7187V73.7187V73.7188V73.7188V73.7189V73.7189V73.719V73.7191V73.7191V73.7192V73.7192V73.7193V73.7193V73.7194V73.7194V73.7195V73.7195V73.7196V73.7197V73.7197V73.7198V73.7198V73.7199V73.7199V73.72V73.7201V73.7201V73.7202V73.7202V73.7203V73.7204V73.7204V73.7205V73.7205V73.7206V73.7206V73.7207V73.7208V73.7208V73.7209V73.721V73.721V73.7211V73.7211V73.7212V73.7213V73.7213V73.7214V73.7215V73.7215V73.7216V73.7217V73.7217V73.7218V73.7219V73.7219V73.722V73.722V73.7221V73.7222V73.7222V73.7223V73.7224V73.7225V73.7225V73.7226V73.7227V73.7227V73.7228V73.7229V73.7229V73.723V73.7231V73.7231V73.7232V73.7233V73.7234V73.7234V73.7235V73.7236V73.7236V73.7237V73.7238V73.7239V73.7239V73.724V73.7241V73.7241V73.7242V73.7243V73.7244V73.7244V73.7245V73.7246V73.7247V73.7247V73.7248V73.7249V73.725V73.725V73.7251V73.7252V73.7253V73.7253V73.7254V73.7255V73.7256V73.7256V73.7257V73.7258V73.7259V73.726V73.726V73.7261V73.7262V73.7263V73.7263V73.7264V73.7265V73.7266V73.7267V73.7267V73.7268V73.7269V73.727V73.7271V73.7271V73.7272V73.7273V73.7274V73.7275V73.7276V73.7276V73.7277V73.7278V73.7279V73.728V73.728V73.7281V73.7282V73.7283V73.7284V73.7285V73.7285V73.7286V73.7287V73.7288V73.7289V73.729V73.729V73.7291V73.7292V73.7293V73.7294V73.7295V73.7296V73.7296V73.7297V73.7298V73.7299V73.73V73.7301V73.7302V73.7303V73.7303V73.7304V73.7305V73.7306V73.7307V73.7308V73.7309V73.7309V73.731V73.7311V73.7312V73.7313V73.7314V73.7315V73.7316V73.7317V73.7318V73.7318V73.7319V73.732V73.7321V73.7322V73.7323V73.7324V73.7325V73.7326V73.7327V73.7327V73.7328V73.7329V73.733V73.7331V73.7332V73.7333V73.7334V73.7335V73.7336V73.7337V73.7338V73.7338V73.7339V73.734V73.7341V73.7342V73.7343V73.7344V73.7345V73.7346V73.7347V73.7348V73.7349V73.735V73.7351V73.7352V73.7352V73.7353V73.7354V73.7355V73.7356V73.7357V73.7358V73.7359V73.736V73.7361V73.7362V73.7363V73.7364V73.7365V73.7366V73.7367V73.7368V73.7369V73.737V73.7371V73.7372V73.7373V73.7373V73.7374V73.7375V73.7376V73.7377V73.7378V73.7379V73.738V73.7381V73.7382V73.7383V73.7384V73.7385V73.7386V73.7387V73.7388V73.7389V73.739V73.7391V73.7392V73.7393V73.7394V73.7395V73.7396V73.7397V73.7398V73.7399V73.74V73.7401V73.7402V73.7403V73.7404V73.7405V73.7406V73.7407V73.7408V73.7409V73.741V73.7411V73.7412V73.7413V73.7414V73.7415V73.7416V73.7417V73.7418V73.7419V73.742V73.7421V73.7422V73.7423V73.7424V73.7425V73.7426V73.7427V73.7428V73.7429V73.743V73.7431V73.7432V73.7433V73.7434V73.7435V73.7436V73.7437V73.7438V73.7439V73.744V73.7441V73.7442V73.7443V73.7444V73.7445V73.7446V73.7447V73.7448V73.7449V73.745V73.7451V73.7452V73.7453V73.7454V73.7455V73.7456V73.7457V73.7458V73.7459V73.746V73.7461V73.7462V73.7463V73.7464V73.7465V73.7466V73.7467V73.7468V73.7469V73.747V73.7471V73.7472V73.7473V73.7475V73.7476V73.7477V73.7478V73.7479V73.748V73.7481V73.7482V73.7483V73.7484V73.7485V73.7486V73.7487V73.7488V73.7489V73.749V73.7491V73.7492V73.7493V73.7494V73.7495C16.664 77.0523 13.9985 79.75 10.6809 79.75H6.87472C3.53473 79.75 0.751953 77.0299 0.751953 73.6971V53.4448C0.769156 50.9863 1.85422 48.6645 3.73507 47.0885C3.73518 47.0884 3.73529 47.0883 3.7354 47.0882L5.69003 45.4652L5.7415 45.4224L5.76475 45.3597L10.9149 31.4629C10.915 31.4628 10.9151 31.4626 10.9151 31.4624C11.8041 29.098 14.0681 27.522 16.5997 27.522H53.4395C55.9713 27.522 58.2355 29.0982 59.1243 31.4629L64.3269 45.5168L64.3459 45.5681ZM13.7297 32.4732L13.729 32.4751L9.39901 44.1207L9.27366 44.4578H9.63334H37.691H37.9012L37.9373 44.2507C38.7378 39.652 42.7928 36.0248 47.6953 36.0248C52.5982 36.0248 56.6709 39.6525 57.4885 44.2516L57.5251 44.4578H57.7346H60.4059H60.7661L60.6401 44.1204L56.2927 32.4748L56.2921 32.4732C55.8363 31.2768 54.6956 30.4957 53.4203 30.5139H16.6016C15.3263 30.4957 14.1855 31.2768 13.7297 32.4732ZM54.1728 44.4578H54.4978L54.4145 44.1437C53.7801 41.7511 51.9134 39.904 49.5245 39.2525L49.5238 39.2523C45.8291 38.2562 42.0077 40.4473 41.0113 44.1427L40.9264 44.4578H41.2527H54.1728ZM10.7508 76.7581V76.7582L10.7565 76.758C12.412 76.72 13.726 75.3505 13.6895 73.6943V71.0956V70.8456H13.4395H6.89218C5.93244 70.8456 4.99197 70.6437 4.11966 70.2243L3.76134 70.052V70.4496V73.6971C3.76134 75.397 5.20822 76.7581 6.89218 76.7581H10.6984H10.6985H10.6986H10.6987H10.6988H10.6989H10.699H10.6991H10.6992H10.6993H10.6994H10.6995H10.6996H10.6997H10.6998H10.6999H10.7H10.7001H10.7002H10.7003H10.7004H10.7005H10.7006H10.7007H10.7008H10.7009H10.701H10.7011H10.7012H10.7013H10.7014H10.7015H10.7016H10.7018H10.7019H10.702H10.7021H10.7022H10.7023H10.7024H10.7025H10.7026H10.7027H10.7028H10.7029H10.703H10.7031H10.7032H10.7033H10.7034H10.7035H10.7036H10.7037H10.7038H10.7039H10.704H10.7041H10.7042H10.7043H10.7044H10.7045H10.7046H10.7047H10.7048H10.7049H10.705H10.7051H10.7052H10.7053H10.7054H10.7055H10.7056H10.7057H10.7058H10.7059H10.706H10.7062H10.7063H10.7064H10.7065H10.7066H10.7067H10.7068H10.7069H10.707H10.7071H10.7072H10.7073H10.7074H10.7075H10.7076H10.7077H10.7078H10.7079H10.708H10.7081H10.7082H10.7083H10.7084H10.7085H10.7086H10.7087H10.7088H10.7089H10.709H10.7091H10.7092H10.7093H10.7094H10.7095H10.7096H10.7097H10.7098H10.7099H10.71H10.7101H10.7102H10.7103H10.7104H10.7105H10.7107H10.7108H10.7109H10.711H10.7111H10.7112H10.7113H10.7114H10.7115H10.7116H10.7117H10.7118H10.7119H10.712H10.7121H10.7122H10.7123H10.7124H10.7125H10.7126H10.7127H10.7128H10.7129H10.713H10.7131H10.7132H10.7133H10.7134H10.7135H10.7136H10.7137H10.7138H10.7139H10.714H10.7141H10.7142H10.7143H10.7144H10.7145H10.7146H10.7147H10.7148H10.7149H10.7151H10.7152H10.7153H10.7154H10.7155H10.7156H10.7157H10.7158H10.7159H10.716H10.7161H10.7162H10.7163H10.7164H10.7165H10.7166H10.7167H10.7168H10.7169H10.717H10.7171H10.7172H10.7173H10.7174H10.7175H10.7176H10.7177H10.7178H10.7179H10.718H10.7181H10.7182H10.7183H10.7184H10.7185H10.7186H10.7187H10.7188H10.7189H10.719H10.7191H10.7192H10.7193H10.7194H10.7196H10.7197H10.7198H10.7199H10.72H10.7201H10.7202H10.7203H10.7204H10.7205H10.7206H10.7207H10.7208H10.7209H10.721H10.7211H10.7212H10.7213H10.7214H10.7215H10.7216H10.7217H10.7218H10.7219H10.722H10.7221H10.7222H10.7223H10.7224H10.7225H10.7226H10.7227H10.7228H10.7229H10.723H10.7231H10.7232H10.7233H10.7234H10.7235H10.7236H10.7237H10.7238H10.724H10.7241H10.7242H10.7243H10.7244H10.7245H10.7246H10.7247H10.7248H10.7249H10.725H10.7251H10.7252H10.7253H10.7254H10.7255H10.7256H10.7257H10.7258H10.7259H10.726H10.7261H10.7262H10.7263H10.7264H10.7265H10.7266H10.7267H10.7268H10.7269H10.727H10.7271H10.7272H10.7273H10.7274H10.7275H10.7276H10.7277H10.7278H10.7279H10.728H10.7281H10.7282H10.7284H10.7285H10.7286H10.7287H10.7288H10.7289H10.729H10.7291H10.7292H10.7293H10.7294H10.7295H10.7296H10.7297H10.7298H10.7299H10.73H10.7301H10.7302H10.7303H10.7304H10.7305H10.7306H10.7307H10.7308H10.7309H10.731H10.7311H10.7312H10.7313H10.7314H10.7315H10.7316H10.7317H10.7318H10.7319H10.732H10.7321H10.7322H10.7323H10.7324H10.7325H10.7326H10.7327H10.7329H10.733H10.7331H10.7332H10.7333H10.7334H10.7335H10.7336H10.7337H10.7338H10.7339H10.734H10.7341H10.7342H10.7343H10.7344H10.7345H10.7346H10.7347H10.7348H10.7349H10.735H10.7351H10.7352H10.7353H10.7354H10.7355H10.7356H10.7357H10.7358H10.7359H10.736H10.7361H10.7362H10.7363H10.7364H10.7365H10.7366H10.7367H10.7368H10.7369H10.737H10.7371H10.7373H10.7374H10.7375H10.7376H10.7377H10.7378H10.7379H10.738H10.7381H10.7382H10.7383H10.7384H10.7385H10.7386H10.7387H10.7388H10.7389H10.739H10.7391H10.7392H10.7393H10.7394H10.7395H10.7396H10.7397H10.7398H10.7399H10.74H10.7401H10.7402H10.7403H10.7404H10.7405H10.7406H10.7407H10.7408H10.7409H10.741H10.7411H10.7412H10.7413H10.7414H10.7415H10.7416H10.7418H10.7419H10.742H10.7421H10.7422H10.7423H10.7424H10.7425H10.7426H10.7427H10.7428H10.7429H10.743H10.7431H10.7432H10.7433H10.7434H10.7435H10.7436H10.7437H10.7438H10.7439H10.744H10.7441H10.7442H10.7443H10.7444H10.7445H10.7446H10.7447H10.7448H10.7449H10.745H10.7451H10.7452H10.7453H10.7454H10.7455H10.7456H10.7457H10.7458H10.7459H10.746H10.7462H10.7463H10.7464H10.7465H10.7466H10.7467H10.7468H10.7469H10.747H10.7471H10.7472H10.7473H10.7474H10.7475H10.7476H10.7477H10.7478H10.7479H10.748H10.7481H10.7482H10.7483H10.7484H10.7485H10.7486H10.7487H10.7488H10.7489H10.749H10.7491H10.7492H10.7493H10.7494H10.7495H10.7496H10.7497H10.7498H10.7499H10.75H10.7501H10.7502H10.7503H10.7504H10.7506H10.7507H10.7508ZM3.76134 53.4585V53.4614H4.01134L3.76134 53.4585ZM7.99213 47.4497H7.89994L7.82982 47.5096L7.99213 47.6997V47.4497ZM63.6684 49.0025L63.6679 49.0021L63.4963 49.1838L63.6684 49.0025Z" fill="black" stroke="white" stroke-width="0.5"/>
<path d="M18.1541 60.6951H18.4041V60.4451V56.4294V56.1794H18.1541H10.821H10.571V56.4294V60.4451V60.6951H10.821H18.1541ZM9.07506 53.1875H19.9C20.7222 53.1875 21.396 53.8613 21.396 54.6835V62.1911C21.396 63.0133 20.7222 63.6871 19.9 63.6871H9.07506C8.25286 63.6871 7.5791 63.0133 7.5791 62.1911V54.6835C7.5791 53.8613 8.25286 53.1875 9.07506 53.1875Z" fill="black" stroke="white" stroke-width="0.5"/>
<path d="M58.3113 60.6951H58.5613V60.4451V56.4294V56.1794H58.3113H50.9783H50.7283V56.4294V60.4451V60.6951H50.9783H58.3113ZM49.2323 53.1875H60.0573C60.8795 53.1875 61.5532 53.8613 61.5532 54.6835V62.1911C61.5532 63.0133 60.8795 63.6871 60.0573 63.6871H49.2323C48.4101 63.6871 47.7363 63.0133 47.7363 62.1911V54.6835C47.7363 53.8613 48.4101 53.1875 49.2323 53.1875Z" fill="black" stroke="white" stroke-width="0.5"/>
<path d="M27.5995 59.1239H41.5148C42.3528 59.1239 43.0108 59.796 43.0108 60.6199C43.0108 61.4421 42.337 62.1158 41.5148 62.1158H27.5995C26.7773 62.1158 26.1035 61.4421 26.1035 60.6199C26.1035 59.7977 26.7773 59.1239 27.5995 59.1239Z" fill="black" stroke="white" stroke-width="0.5"/>
<path d="M27.5995 54.7589H41.5148C42.3528 54.7589 43.0108 55.431 43.0108 56.2549C43.0108 57.0771 42.337 57.7508 41.5148 57.7508H27.5995C26.7773 57.7508 26.1035 57.0771 26.1035 56.2549C26.1035 55.4327 26.7773 54.7589 27.5995 54.7589Z" fill="black" stroke="white" stroke-width="0.5"/>
<path d="M56.193 16.1106L56.1951 16.1105L60.141 15.7962L60.6278 15.7574L60.3746 16.175C58.9786 18.4776 56.5692 19.7343 53.5108 19.7524M56.193 16.1106L53.5102 19.7524C53.5104 19.7524 53.5106 19.7524 53.5108 19.7524M56.193 16.1106C55.6897 16.155 55.2116 15.9343 54.8936 15.5255C52.9898 13.0481 52.9733 9.61103 54.8604 7.11725L54.8649 7.11129L54.8691 7.10507L54.8988 7.06058C55.2156 6.65791 55.7076 6.43775 56.2105 6.48212L56.2115 6.48221L59.9479 6.79648L60.5076 6.84356L60.1679 6.39618C58.6848 4.44279 56.3213 3.29476 53.5453 3.27684H53.5437C49.7419 3.27684 46.6873 5.41747 45.6398 8.90105C45.4458 9.52689 44.8651 9.94395 44.2085 9.92903V9.92896H44.2028H24.5432V9.92888L24.5367 9.92905C23.9755 9.94382 23.4522 9.61865 23.1964 9.10875C21.7941 6.18036 18.6537 4.16729 15.5166 4.16729C12.4196 4.16729 10.0256 5.46157 8.6654 7.8192L8.42816 8.23041L8.90145 8.19337L12.9172 7.87911L12.9196 7.87889C13.4283 7.83401 13.9045 8.0421 14.2193 8.44681L14.2203 8.44802C16.1567 10.9065 16.1747 14.3595 14.253 16.8712L14.2481 16.8777L14.2436 16.8845L14.2139 16.929C13.8971 17.3316 13.405 17.5518 12.9022 17.5074L12.9012 17.5073L9.16479 17.193L8.60505 17.146L8.94473 17.5933C10.4294 19.5488 12.7946 20.6603 15.5864 20.6603C19.4073 20.6603 22.4608 18.4833 23.5078 15.0009C23.7041 14.3682 24.2913 13.9209 24.9448 13.9209H44.5312M56.193 16.1106L44.5312 13.9209M53.5108 19.7524C49.8806 19.7883 47.01 17.1947 45.8967 14.8066L45.896 14.8049C45.6584 14.2854 45.1196 13.9371 44.5312 13.9209M53.5108 19.7524L44.5312 13.9209M62.7675 10.0173L62.7654 10.0171L57.0386 9.54569L56.8618 9.53113L56.7897 9.69332C56.3417 10.7014 56.3424 11.857 56.789 12.8804L56.8601 13.0433L57.0373 13.0297L62.7291 12.5932L62.7326 12.5929C62.8955 12.5781 63.0553 12.5933 63.1968 12.6358L63.1967 12.6362L63.2102 12.6394C64.0145 12.833 64.4955 13.6373 64.3004 14.4496C63.6496 17.069 62.2487 19.2163 60.2752 20.6625C58.4405 22.0045 56.1067 22.7244 53.557 22.7269L53.5519 22.7256C53.5445 22.7237 53.5285 22.7197 53.5112 22.7164C53.4931 22.713 53.4681 22.7094 53.4389 22.7094C49.0208 22.7094 45.5344 20.0992 43.7378 17.0194L43.6654 16.8954H43.5218H26.2019H26.0365L25.9718 17.0476C24.2326 21.1399 20.3811 23.6348 15.6214 23.6348C10.4166 23.6348 6.19068 20.5753 4.82706 15.8538L4.82726 15.8538L4.82405 15.8441C4.76662 15.6718 4.75113 15.4972 4.7661 15.3163C4.84168 14.4905 5.5611 13.8803 6.38004 13.9548L6.38292 13.955L12.1097 14.409L12.286 14.423L12.3579 14.2613C12.8059 13.2532 12.8052 12.0976 12.3586 11.0742L12.2875 10.9113L12.1103 10.9249L6.41848 11.3614L6.41848 11.3613L6.41272 11.3619C6.27155 11.376 6.12409 11.3627 5.96548 11.3311C5.16441 11.1516 4.66825 10.3478 4.84817 9.53578C5.46511 6.86331 6.83214 4.68313 8.80386 3.22134C10.6422 1.85962 12.9633 1.12298 15.5341 1.12298C19.4755 1.12298 23.3248 3.37823 25.3944 6.79899L25.4673 6.91958H25.6083H42.9981H43.1634L43.2281 6.76736C44.9664 2.67745 48.816 0.25 53.5786 0.25C55.9712 0.25 58.2957 0.984721 60.2619 2.35229C62.2399 3.75085 63.6719 5.77989 64.3198 8.11571L64.3195 8.1158L64.3235 8.12794C64.3809 8.30012 64.3964 8.47462 64.3815 8.65541C64.3061 9.48142 63.5866 10.0917 62.7675 10.0173Z" fill="black" stroke="white" stroke-width="0.5"/>
</svg>
