<svg width="109" height="80" viewBox="0 0 109 80" fill="none" xmlns="http://www.w3.org/2000/svg">
<path d="M7.45788 71.5543H12.6753C13.0702 71.5543 13.449 71.7112 13.7282 71.9905C14.0075 72.2697 14.1644 72.6485 14.1644 73.0435C14.1644 73.4384 14.0075 73.8172 13.7282 74.0964C13.449 74.3757 13.0702 74.5326 12.6753 74.5326H7.45788C7.06294 74.5326 6.68417 74.3757 6.40491 74.0964C6.12564 73.8172 5.96875 73.4384 5.96875 73.0435C5.96875 72.6485 6.12564 72.2697 6.40491 71.9905C6.68417 71.7112 7.06294 71.5543 7.45788 71.5543Z" fill="black" stroke="white" stroke-width="0.5"/>
<path d="M17.8934 71.5543H19.6326C20.0275 71.5543 20.4063 71.7112 20.6855 71.9905C20.9648 72.2697 21.1217 72.6485 21.1217 73.0435C21.1217 73.4384 20.9648 73.8172 20.6855 74.0964C20.4063 74.3757 20.0275 74.5326 19.6326 74.5326H17.8934C17.4985 74.5326 17.1197 74.3757 16.8405 74.0964C16.5612 73.8172 16.4043 73.4384 16.4043 73.0435C16.4043 72.6485 16.5612 72.2697 16.8405 71.9905C17.1197 71.7112 17.4985 71.5543 17.8934 71.5543Z" fill="black" stroke="white" stroke-width="0.5"/>
<mask id="path-3-inside-1" fill="white">
<path d="M101.372 20.8696H97.8933V6.95652C97.8908 5.11228 97.1572 3.34426 95.8531 2.04019C94.549 0.736109 92.781 0.00241582 90.9367 0H17.8933C16.0489 0.0020714 14.2807 0.735654 12.9765 2.03981C11.6724 3.34396 10.9388 5.11217 10.9367 6.95652V38.2609H7.45848C5.61413 38.2629 3.84591 38.9965 2.54176 40.3007C1.23761 41.6048 0.504025 43.373 0.501953 45.2174V73.0435C0.504025 74.8878 1.23761 76.656 2.54176 77.9602C3.84591 79.2643 5.61413 79.9979 7.45848 80H24.8498C26.694 79.9976 28.462 79.2639 29.7661 77.9598C31.0702 76.6557 31.8039 74.8877 31.8063 73.0435V67.8261H46.9693L46.0998 71.3043H40.502C40.0407 71.3043 39.5984 71.4876 39.2722 71.8137C38.9461 72.1399 38.7628 72.5822 38.7628 73.0435V78.2609C38.7628 78.7221 38.9461 79.1645 39.2722 79.4906C39.5984 79.8168 40.0407 80 40.502 80H101.372C103.216 79.9976 104.984 79.2639 106.288 77.9598C107.592 76.6557 108.326 74.8877 108.328 73.0435V27.8261C108.326 25.9818 107.592 24.2138 106.288 22.9098C104.984 21.6057 103.216 20.872 101.372 20.8696ZM28.328 73.0435C28.3268 73.9656 27.96 74.8496 27.3079 75.5016C26.6559 76.1537 25.7719 76.5205 24.8498 76.5217H7.45848C6.53635 76.5205 5.65235 76.1537 5.00031 75.5016C4.34827 74.8496 3.98142 73.9656 3.98021 73.0435V45.2174C3.98142 44.2953 4.34827 43.4113 5.00031 42.7592C5.65235 42.1072 6.53635 41.7403 7.45848 41.7391H9.68239L11.0259 45.7674C11.1413 46.1137 11.3628 46.4149 11.6589 46.6283C11.9551 46.8417 12.3108 46.9565 12.6759 46.9565H19.6324C19.9974 46.9565 20.3532 46.8417 20.6493 46.6283C20.9455 46.4149 21.1669 46.1137 21.2824 45.7674L22.6259 41.7391H24.8498C25.7719 41.7403 26.6559 42.1072 27.3079 42.7592C27.96 43.4113 28.3268 44.2953 28.328 45.2174V73.0435ZM13.3498 41.7391H18.9585L18.378 43.4783H13.9302L13.3498 41.7391ZM31.8063 64.3478V59.1304H63.1107V64.3478H31.8063ZM63.1107 67.8261V71.3043H62.7302L61.8607 67.8261H63.1107ZM59.1433 71.3043H49.6867L50.5563 67.8261H58.2737L59.1433 71.3043ZM42.2411 76.5217V74.7826H63.3302C63.4894 75.3922 63.7308 75.9772 64.0476 76.5217H42.2411ZM63.1107 27.8261V55.6522H31.8063V45.2174C31.8039 43.3731 31.0702 41.6051 29.7661 40.3011C28.462 38.997 26.694 38.2633 24.8498 38.2609H14.415V6.95652C14.4162 6.0344 14.7831 5.15039 15.4351 4.49835C16.0871 3.84632 16.9711 3.47947 17.8933 3.47826H90.9367C91.8589 3.47947 92.7429 3.84632 93.3949 4.49835C94.0469 5.15039 94.4138 6.0344 94.415 6.95652V20.8696H70.0672C68.2229 20.872 66.4549 21.6057 65.1508 22.9098C63.8468 24.2138 63.1131 25.9818 63.1107 27.8261ZM104.85 73.0435C104.849 73.9656 104.482 74.8496 103.83 75.5016C103.178 76.1537 102.294 76.5205 101.372 76.5217H70.0672C69.1451 76.5205 68.261 76.1537 67.609 75.5016C66.957 74.8496 66.5901 73.9656 66.5889 73.0435V27.8261C66.5901 26.904 66.957 26.02 67.609 25.3679C68.261 24.7159 69.1451 24.349 70.0672 24.3478H101.372C102.294 24.349 103.178 24.7159 103.83 25.3679C104.482 26.02 104.849 26.904 104.85 27.8261V73.0435Z"/>
</mask>
<path d="M101.372 20.8696H97.8933V6.95652C97.8908 5.11228 97.1572 3.34426 95.8531 2.04019C94.549 0.736109 92.781 0.00241582 90.9367 0H17.8933C16.0489 0.0020714 14.2807 0.735654 12.9765 2.03981C11.6724 3.34396 10.9388 5.11217 10.9367 6.95652V38.2609H7.45848C5.61413 38.2629 3.84591 38.9965 2.54176 40.3007C1.23761 41.6048 0.504025 43.373 0.501953 45.2174V73.0435C0.504025 74.8878 1.23761 76.656 2.54176 77.9602C3.84591 79.2643 5.61413 79.9979 7.45848 80H24.8498C26.694 79.9976 28.462 79.2639 29.7661 77.9598C31.0702 76.6557 31.8039 74.8877 31.8063 73.0435V67.8261H46.9693L46.0998 71.3043H40.502C40.0407 71.3043 39.5984 71.4876 39.2722 71.8137C38.9461 72.1399 38.7628 72.5822 38.7628 73.0435V78.2609C38.7628 78.7221 38.9461 79.1645 39.2722 79.4906C39.5984 79.8168 40.0407 80 40.502 80H101.372C103.216 79.9976 104.984 79.2639 106.288 77.9598C107.592 76.6557 108.326 74.8877 108.328 73.0435V27.8261C108.326 25.9818 107.592 24.2138 106.288 22.9098C104.984 21.6057 103.216 20.872 101.372 20.8696ZM28.328 73.0435C28.3268 73.9656 27.96 74.8496 27.3079 75.5016C26.6559 76.1537 25.7719 76.5205 24.8498 76.5217H7.45848C6.53635 76.5205 5.65235 76.1537 5.00031 75.5016C4.34827 74.8496 3.98142 73.9656 3.98021 73.0435V45.2174C3.98142 44.2953 4.34827 43.4113 5.00031 42.7592C5.65235 42.1072 6.53635 41.7403 7.45848 41.7391H9.68239L11.0259 45.7674C11.1413 46.1137 11.3628 46.4149 11.6589 46.6283C11.9551 46.8417 12.3108 46.9565 12.6759 46.9565H19.6324C19.9974 46.9565 20.3532 46.8417 20.6493 46.6283C20.9455 46.4149 21.1669 46.1137 21.2824 45.7674L22.6259 41.7391H24.8498C25.7719 41.7403 26.6559 42.1072 27.3079 42.7592C27.96 43.4113 28.3268 44.2953 28.328 45.2174V73.0435ZM13.3498 41.7391H18.9585L18.378 43.4783H13.9302L13.3498 41.7391ZM31.8063 64.3478V59.1304H63.1107V64.3478H31.8063ZM63.1107 67.8261V71.3043H62.7302L61.8607 67.8261H63.1107ZM59.1433 71.3043H49.6867L50.5563 67.8261H58.2737L59.1433 71.3043ZM42.2411 76.5217V74.7826H63.3302C63.4894 75.3922 63.7308 75.9772 64.0476 76.5217H42.2411ZM63.1107 27.8261V55.6522H31.8063V45.2174C31.8039 43.3731 31.0702 41.6051 29.7661 40.3011C28.462 38.997 26.694 38.2633 24.8498 38.2609H14.415V6.95652C14.4162 6.0344 14.7831 5.15039 15.4351 4.49835C16.0871 3.84632 16.9711 3.47947 17.8933 3.47826H90.9367C91.8589 3.47947 92.7429 3.84632 93.3949 4.49835C94.0469 5.15039 94.4138 6.0344 94.415 6.95652V20.8696H70.0672C68.2229 20.872 66.4549 21.6057 65.1508 22.9098C63.8468 24.2138 63.1131 25.9818 63.1107 27.8261ZM104.85 73.0435C104.849 73.9656 104.482 74.8496 103.83 75.5016C103.178 76.1537 102.294 76.5205 101.372 76.5217H70.0672C69.1451 76.5205 68.261 76.1537 67.609 75.5016C66.957 74.8496 66.5901 73.9656 66.5889 73.0435V27.8261C66.5901 26.904 66.957 26.02 67.609 25.3679C68.261 24.7159 69.1451 24.349 70.0672 24.3478H101.372C102.294 24.349 103.178 24.7159 103.83 25.3679C104.482 26.02 104.849 26.904 104.85 27.8261V73.0435Z" fill="black" stroke="white" mask="url(#path-3-inside-1)"/>
<path d="M99.6325 66.3369H99.8825V66.0869V29.5652V29.3152H99.6325H71.8064H71.5564V29.5652V66.0869V66.3369H71.8064H99.6325ZM70.0673 26.3369H101.372C101.767 26.3369 102.145 26.4938 102.425 26.7731C102.704 27.0523 102.861 27.4311 102.861 27.826V67.826C102.861 68.221 102.704 68.5998 102.425 68.879C102.145 69.1583 101.767 69.3152 101.372 69.3152H70.0673C69.6723 69.3152 69.2935 69.1583 69.0143 68.879C68.735 68.5998 68.5781 68.221 68.5781 67.826V27.826C68.5781 27.4311 68.735 27.0523 69.0143 26.7731C69.2935 26.4938 69.6723 26.3369 70.0673 26.3369Z" fill="black" stroke="white" stroke-width="0.5"/>
<path d="M85.4695 73.0435C85.4695 73.8659 84.8028 74.5326 83.9803 74.5326C83.1579 74.5326 82.4912 73.8659 82.4912 73.0435C82.4912 72.221 83.1579 71.5543 83.9803 71.5543C84.8028 71.5543 85.4695 72.221 85.4695 73.0435Z" fill="black" stroke="white" stroke-width="0.5"/>
</svg>
