<svg width="84" height="80" viewBox="0 0 84 80" fill="none" xmlns="http://www.w3.org/2000/svg">
<path d="M42.2472 10.4254C35.3309 10.4254 29.7236 16.032 29.7236 22.9489C29.7236 29.8652 35.3309 35.4718 42.2472 35.4718C49.1634 35.4718 54.7707 29.8652 54.7707 22.9489C54.763 16.0352 49.1602 10.4331 42.2472 10.4254ZM42.2472 32.6889C36.8679 32.6889 32.5066 28.3282 32.5066 22.9489C32.5066 17.5691 36.8679 13.2083 42.2472 13.2083C47.6264 13.2083 51.9877 17.5691 51.9877 22.9489C51.9814 28.3256 47.6238 32.6832 42.2472 32.6889Z" fill="black"/>
<path d="M42.2467 15.9912C38.4045 15.9912 35.2891 19.106 35.2891 22.9489C35.2891 26.7911 38.4045 29.9059 42.2467 29.9059C46.0889 29.9059 49.2044 26.7911 49.2044 22.9489C49.1999 19.1079 46.087 15.9957 42.2467 15.9912V15.9912ZM42.2467 27.1229C39.9415 27.1229 38.072 25.2541 38.072 22.9489C38.072 20.643 39.9415 18.7741 42.2467 18.7741C44.5519 18.7741 46.4214 20.643 46.4214 22.9489C46.4189 25.2534 44.5513 27.1204 42.2467 27.1229Z" fill="black"/>
<path d="M63.1184 29.9059C64.6548 29.9046 65.8994 28.6594 65.9013 27.123V18.7742C65.8994 17.2378 64.6548 15.9932 63.1184 15.9912H58.9424C58.3494 14.5517 57.5678 13.1975 56.6187 11.963L58.6978 8.35776C59.0723 7.71952 59.1768 6.9577 58.9876 6.24174C58.7984 5.52642 58.3315 4.91556 57.6908 4.54485L50.456 0.370126L50.442 0.36312C49.1126 -0.39233 47.4228 0.0688386 46.6616 1.39502L44.5774 5.00792C43.0289 4.8111 41.462 4.8111 39.9135 5.00792L37.8376 1.40839C37.0739 0.0732974 35.3731 -0.391056 34.0361 0.370126L26.7976 4.54739C26.1593 4.91747 25.6943 5.52706 25.5052 6.24047C25.316 6.95388 25.4192 7.71315 25.7905 8.35076L27.8734 11.963C26.9243 13.1975 26.1428 14.5517 25.5497 15.9912H21.3738C19.8374 15.9932 18.5927 17.2378 18.5908 18.7742V27.123C18.5927 28.6594 19.8374 29.9046 21.3738 29.9059H25.5497C26.1428 31.3455 26.9243 32.7003 27.8734 33.9348L25.7943 37.5394C25.4198 38.1783 25.3153 38.9395 25.5045 39.6554C25.6937 40.3714 26.1606 40.9816 26.8014 41.3523L34.0495 45.534C34.468 45.7704 34.9413 45.8946 35.4222 45.8939C36.4171 45.8997 37.3376 45.3671 37.8293 44.5021L39.9135 40.8886C41.462 41.0861 43.0289 41.0861 44.5774 40.8886L46.6539 44.4894C47.4183 45.8245 49.119 46.2882 50.456 45.5264L57.6946 41.3498C58.3328 40.979 58.7978 40.3701 58.987 39.6567C59.1762 38.9433 59.073 38.1834 58.7016 37.5458L56.6187 33.9348C57.5678 32.7003 58.3494 31.3455 58.9424 29.9059H63.1184ZM56.669 28.0587C56.0512 29.8327 55.1046 31.4735 53.8797 32.8971C53.4957 33.3449 53.4364 33.9864 53.7313 34.4972L56.3002 38.942L49.0738 43.1123L46.5132 38.6732C46.2195 38.163 45.6354 37.8929 45.0564 37.9999C43.1984 38.3388 41.2944 38.3388 39.4364 37.9999C38.8567 37.8923 38.2726 38.1624 37.9796 38.6732L35.4279 43.1167L28.2008 38.9369L30.7608 34.4978C31.0557 33.987 30.9965 33.3462 30.613 32.8978C29.3875 31.4748 28.441 29.8333 27.8231 28.0593C27.6295 27.4994 27.1014 27.123 26.5084 27.123H21.3738V18.7742H26.5084C27.1008 18.7742 27.6282 18.3984 27.8225 17.8385C28.441 16.0651 29.3875 14.4237 30.613 13.0007C30.9965 12.5522 31.0564 11.9108 30.7615 11.3999L28.1919 6.95515L35.4184 2.78489L37.979 7.22395C38.2714 7.73544 38.8561 8.00615 39.4358 7.89723C41.2938 7.559 43.1977 7.559 45.0558 7.89723C45.6348 8.00488 46.2189 7.73544 46.5132 7.22459L49.0642 2.78616H49.0668L49.0751 2.78807L56.2907 6.96216L53.7307 11.4012C53.4358 11.9121 53.495 12.5535 53.8785 13.0013C55.104 14.4249 56.0505 16.0664 56.6684 17.8397C56.8633 18.3996 57.3914 18.7748 57.9838 18.7742H63.1184V27.123H57.9838C57.3907 27.123 56.8633 27.4988 56.669 28.0587V28.0587Z" fill="black"/>
<path d="M4.67667 79.9999H11.6337C12.8146 79.9967 13.9383 79.4903 14.723 78.6081H49.6215C51.663 78.6087 53.6656 78.0469 55.409 76.9851L81.4924 61.1079C82.7453 60.3448 83.618 59.0887 83.8963 57.6485C84.174 56.2529 83.8587 54.8051 83.0256 53.6521C83.0007 53.6107 82.974 53.5712 82.9453 53.533C81.6026 51.7387 79.2611 51.0074 77.1361 51.7183L51.3795 60.304C50.9534 60.4455 50.5069 60.5181 50.0578 60.5181H49.2584C49.9196 58.7065 49.7297 56.6937 48.7405 55.0388L48.6157 54.8312C47.0997 52.3228 44.3862 50.787 41.4555 50.7781H34.1781C31.6111 50.7749 29.1211 49.9016 27.1147 48.3003C24.6139 46.3053 21.5106 45.2167 18.3111 45.2123H15.5517C14.9663 43.5491 13.3968 42.4351 11.6337 42.4293H4.67667C2.37211 42.4319 0.504501 44.2995 0.501953 46.604V75.8252C0.504501 78.1297 2.37211 79.9973 4.67667 79.9999V79.9999ZM25.3751 50.4736C27.8752 52.4686 30.9785 53.5572 34.1774 53.5611H41.4548C43.4084 53.5668 45.2181 54.5904 46.2277 56.2625L46.3532 56.4701C47.1124 57.7364 47.0309 59.3365 46.1461 60.5187H37.6891C34.9412 60.5168 32.255 61.3302 29.9702 62.8564L28.9511 63.536C28.5326 63.8093 28.2931 64.287 28.3236 64.7858C28.3542 65.2852 28.6504 65.7298 29.0995 65.9502C29.5485 66.1706 30.0817 66.1324 30.4951 65.8514L31.5142 65.1718C33.3417 63.9507 35.4909 63.2997 37.6891 63.3016H50.0572C50.8056 63.3016 51.5489 63.1813 52.2585 62.9449L78.0164 54.3598C78.9591 54.035 80.0044 54.3267 80.6433 55.0923C80.6675 55.1331 80.6949 55.172 80.7229 55.2108C81.1325 55.7573 81.2924 56.451 81.1637 57.1211C81.035 57.7912 80.6293 58.3759 80.0465 58.7314L53.9631 74.6085C52.6547 75.4041 51.1527 75.8252 49.6215 75.8252H15.8084V47.9952H18.3111C20.8781 47.9984 23.3686 48.8723 25.3751 50.4736V50.4736ZM3.28489 46.604C3.28552 45.8359 3.90848 45.2129 4.67667 45.2123H11.6337C12.4019 45.2129 13.0248 45.8359 13.0255 46.604V75.8252C13.0248 76.5934 12.4019 77.2157 11.6337 77.2163H4.67667C3.90848 77.2157 3.28552 76.5934 3.28489 75.8252V46.604Z" fill="black"/>
</svg>
