<svg width="81" height="80" viewBox="0 0 81 80" fill="none" xmlns="http://www.w3.org/2000/svg">
<mask id="path-1-inside-1" fill="white">
<path d="M79.0409 69.677H76.4601V63.2251C76.4601 62.5124 75.8825 61.9347 75.1697 61.9347H72.589V32.8499C74.9812 30.7117 75.8048 27.3189 74.6586 24.3223C73.5134 21.3257 70.6358 19.3488 67.4275 19.3524C67.2869 19.3524 67.1493 19.3665 67.0091 19.373L67.0016 19.365L56.9442 9.30812C57.542 6.41486 56.4412 3.43389 54.1059 1.62384C51.7716 -0.186719 48.6102 -0.510321 45.9569 0.789631C43.3035 2.08857 41.621 4.78475 41.62 7.73901C41.62 7.87964 41.6346 8.01775 41.6407 8.15686L30.425 19.373C30.2849 19.373 30.1473 19.3524 30.0066 19.3524C25.8744 19.3574 22.4756 22.606 22.2825 26.7332C21.9393 26.7367 21.6131 26.8819 21.3793 27.1329L16.1658 32.6563C15.9436 32.9003 15.818 33.2163 15.8125 33.5465V41.2888C15.8125 42.0015 16.3901 42.5791 17.1029 42.5791H19.6836C20.2764 42.5786 20.793 42.1739 20.9357 41.5982L22.1227 36.8627L26.071 33.7658L26.0826 33.7572C28.4814 35.1862 31.4664 35.1993 33.8777 33.7915L37.9041 36.966L40.3553 41.8699C40.5716 42.3059 41.0171 42.5811 41.5041 42.5791H42.7944C43.5072 42.5791 44.0848 42.0015 44.0848 41.2888V33.5465C44.0803 33.2169 43.9568 32.9008 43.7365 32.6563L38.5231 27.1329C38.3205 26.9081 38.0382 26.7695 37.7363 26.7463V26.6763L48.7171 15.6879L59.7059 26.6763C59.7059 26.8164 59.6852 26.954 59.6852 27.0946C59.6873 29.2928 60.6258 31.3861 62.266 32.8499V61.9347H54.5237C53.811 61.9347 53.2334 62.5124 53.2334 63.2251V69.677H42.9104C42.1976 69.677 41.62 70.2546 41.62 70.9674V78.7096C41.62 79.4224 42.1976 80 42.9104 80H79.0409C79.7536 80 80.3312 79.4224 80.3312 78.7096V70.9674C80.3312 70.2546 79.7536 69.677 79.0409 69.677V69.677ZM72.589 27.0946C72.5986 29.2056 71.3213 31.1089 69.3651 31.9013C67.4083 32.6936 65.1673 32.2153 63.7051 30.6931C62.2428 29.1708 61.8552 26.9112 62.7252 24.9892C62.8628 24.6827 63.0296 24.3919 63.2247 24.1187C63.2817 24.0391 63.3537 23.9695 63.4122 23.8934C63.5725 23.6867 63.7489 23.4932 63.9394 23.3137C64.0095 23.2492 64.0866 23.1938 64.1587 23.1333C64.3724 22.9564 64.5993 22.7966 64.8377 22.6559C64.8997 22.6191 64.9667 22.5874 65.0277 22.5536C65.3044 22.4074 65.5938 22.2865 65.8932 22.1927C66.3886 22.0279 66.9058 21.9402 67.4275 21.9331C70.2779 21.9331 72.589 24.2442 72.589 27.0946ZM49.3622 2.57751C52.2127 2.57751 54.5237 4.88859 54.5237 7.73901C54.5237 10.5894 52.2127 12.9005 49.3622 12.9005C46.5118 12.9005 44.2007 10.5894 44.2007 7.73901C44.2007 4.88859 46.5118 2.57751 49.3622 2.57751ZM20.1736 35.1081C19.9488 35.288 19.79 35.5375 19.7219 35.8173L18.6775 39.9984H18.3932V34.0627L22.6646 29.5337C22.8269 30.0207 23.0381 30.4909 23.2936 30.936C23.3047 30.9537 23.3133 30.9748 23.3224 30.9915C23.3536 31.0459 23.3884 31.0923 23.4207 31.1442C23.6142 31.4597 23.8295 31.7617 24.0659 32.0469L20.1736 35.1081ZM26.7328 31.0509C26.5397 30.8917 26.3578 30.7193 26.1884 30.5348C26.1295 30.4688 26.076 30.3992 26.0196 30.3306C25.8789 30.1623 25.7499 29.9854 25.632 29.8009C25.5654 29.6895 25.5029 29.5736 25.4475 29.4586C25.3588 29.2978 25.2791 29.133 25.2106 28.9626C25.1576 28.8341 25.1224 28.6894 25.0815 28.5513C25.0241 28.3699 24.9762 28.1859 24.9379 27.9994C24.5674 26.0654 25.3285 24.0885 26.9017 22.9039C28.4743 21.7189 30.5843 21.5324 32.3409 22.4226C34.0975 23.3132 35.1938 25.1258 35.1681 27.0946C35.1626 27.3698 35.1349 27.644 35.0855 27.9152C35.0683 28.007 35.0598 28.0997 35.0391 28.1914C34.7598 29.5095 33.9655 30.6623 32.8323 31.3917L32.8238 31.4093C30.9396 32.6594 28.4567 32.5132 26.7328 31.0509ZM41.5041 34.0627V38.398L40.0715 35.5466C39.9859 35.3787 39.8669 35.2295 39.7227 35.1081L35.897 32.1064C36.521 31.373 37.0029 30.5292 37.3164 29.6189L41.5041 34.0627ZM37.0004 23.7528C36.9822 23.715 36.962 23.6827 36.9424 23.6459H36.9313C36.1838 22.1549 34.9776 20.9447 33.4906 20.1911V20.182C33.4392 20.1553 33.3939 20.1256 33.3409 20.1009L42.3736 11.0683L42.3821 11.0824C43.1483 12.6676 44.4301 13.9454 46.0179 14.707L46.033 14.7156L37.0004 23.7528ZM60.6737 23.3087C60.5915 23.4528 60.5074 23.5955 60.4338 23.7528L51.7877 15.0946C51.8543 15.0725 51.9173 15.0417 51.9788 15.017C53.5469 14.45 54.8912 13.3945 55.8141 12.0063H55.8217C55.8469 11.9786 55.8691 11.9483 55.8892 11.9171L64.0831 20.0984C63.888 20.1896 63.7076 20.2929 63.5317 20.3963L63.5418 20.4053C62.3446 21.1014 61.3547 22.1045 60.6752 23.3112L60.6737 23.3087ZM64.8467 34.3852C66.5147 34.9876 68.3403 34.9876 70.0082 34.3852V61.9347H64.8467V34.3852ZM55.8141 68.3866H63.5564C64.2691 68.3866 64.8467 67.809 64.8467 67.0962C64.8467 66.3835 64.2691 65.8059 63.5564 65.8059H55.8141V64.5155H73.8794V69.677H55.8141V68.3866ZM77.7505 77.4192H44.2007V72.2577H77.7505V77.4192Z"/>
</mask>
<path d="M79.0409 69.677H76.4601V63.2251C76.4601 62.5124 75.8825 61.9347 75.1697 61.9347H72.589V32.8499C74.9812 30.7117 75.8048 27.3189 74.6586 24.3223C73.5134 21.3257 70.6358 19.3488 67.4275 19.3524C67.2869 19.3524 67.1493 19.3665 67.0091 19.373L67.0016 19.365L56.9442 9.30812C57.542 6.41486 56.4412 3.43389 54.1059 1.62384C51.7716 -0.186719 48.6102 -0.510321 45.9569 0.789631C43.3035 2.08857 41.621 4.78475 41.62 7.73901C41.62 7.87964 41.6346 8.01775 41.6407 8.15686L30.425 19.373C30.2849 19.373 30.1473 19.3524 30.0066 19.3524C25.8744 19.3574 22.4756 22.606 22.2825 26.7332C21.9393 26.7367 21.6131 26.8819 21.3793 27.1329L16.1658 32.6563C15.9436 32.9003 15.818 33.2163 15.8125 33.5465V41.2888C15.8125 42.0015 16.3901 42.5791 17.1029 42.5791H19.6836C20.2764 42.5786 20.793 42.1739 20.9357 41.5982L22.1227 36.8627L26.071 33.7658L26.0826 33.7572C28.4814 35.1862 31.4664 35.1993 33.8777 33.7915L37.9041 36.966L40.3553 41.8699C40.5716 42.3059 41.0171 42.5811 41.5041 42.5791H42.7944C43.5072 42.5791 44.0848 42.0015 44.0848 41.2888V33.5465C44.0803 33.2169 43.9568 32.9008 43.7365 32.6563L38.5231 27.1329C38.3205 26.9081 38.0382 26.7695 37.7363 26.7463V26.6763L48.7171 15.6879L59.7059 26.6763C59.7059 26.8164 59.6852 26.954 59.6852 27.0946C59.6873 29.2928 60.6258 31.3861 62.266 32.8499V61.9347H54.5237C53.811 61.9347 53.2334 62.5124 53.2334 63.2251V69.677H42.9104C42.1976 69.677 41.62 70.2546 41.62 70.9674V78.7096C41.62 79.4224 42.1976 80 42.9104 80H79.0409C79.7536 80 80.3312 79.4224 80.3312 78.7096V70.9674C80.3312 70.2546 79.7536 69.677 79.0409 69.677V69.677ZM72.589 27.0946C72.5986 29.2056 71.3213 31.1089 69.3651 31.9013C67.4083 32.6936 65.1673 32.2153 63.7051 30.6931C62.2428 29.1708 61.8552 26.9112 62.7252 24.9892C62.8628 24.6827 63.0296 24.3919 63.2247 24.1187C63.2817 24.0391 63.3537 23.9695 63.4122 23.8934C63.5725 23.6867 63.7489 23.4932 63.9394 23.3137C64.0095 23.2492 64.0866 23.1938 64.1587 23.1333C64.3724 22.9564 64.5993 22.7966 64.8377 22.6559C64.8997 22.6191 64.9667 22.5874 65.0277 22.5536C65.3044 22.4074 65.5938 22.2865 65.8932 22.1927C66.3886 22.0279 66.9058 21.9402 67.4275 21.9331C70.2779 21.9331 72.589 24.2442 72.589 27.0946ZM49.3622 2.57751C52.2127 2.57751 54.5237 4.88859 54.5237 7.73901C54.5237 10.5894 52.2127 12.9005 49.3622 12.9005C46.5118 12.9005 44.2007 10.5894 44.2007 7.73901C44.2007 4.88859 46.5118 2.57751 49.3622 2.57751ZM20.1736 35.1081C19.9488 35.288 19.79 35.5375 19.7219 35.8173L18.6775 39.9984H18.3932V34.0627L22.6646 29.5337C22.8269 30.0207 23.0381 30.4909 23.2936 30.936C23.3047 30.9537 23.3133 30.9748 23.3224 30.9915C23.3536 31.0459 23.3884 31.0923 23.4207 31.1442C23.6142 31.4597 23.8295 31.7617 24.0659 32.0469L20.1736 35.1081ZM26.7328 31.0509C26.5397 30.8917 26.3578 30.7193 26.1884 30.5348C26.1295 30.4688 26.076 30.3992 26.0196 30.3306C25.8789 30.1623 25.7499 29.9854 25.632 29.8009C25.5654 29.6895 25.5029 29.5736 25.4475 29.4586C25.3588 29.2978 25.2791 29.133 25.2106 28.9626C25.1576 28.8341 25.1224 28.6894 25.0815 28.5513C25.0241 28.3699 24.9762 28.1859 24.9379 27.9994C24.5674 26.0654 25.3285 24.0885 26.9017 22.9039C28.4743 21.7189 30.5843 21.5324 32.3409 22.4226C34.0975 23.3132 35.1938 25.1258 35.1681 27.0946C35.1626 27.3698 35.1349 27.644 35.0855 27.9152C35.0683 28.007 35.0598 28.0997 35.0391 28.1914C34.7598 29.5095 33.9655 30.6623 32.8323 31.3917L32.8238 31.4093C30.9396 32.6594 28.4567 32.5132 26.7328 31.0509ZM41.5041 34.0627V38.398L40.0715 35.5466C39.9859 35.3787 39.8669 35.2295 39.7227 35.1081L35.897 32.1064C36.521 31.373 37.0029 30.5292 37.3164 29.6189L41.5041 34.0627ZM37.0004 23.7528C36.9822 23.715 36.962 23.6827 36.9424 23.6459H36.9313C36.1838 22.1549 34.9776 20.9447 33.4906 20.1911V20.182C33.4392 20.1553 33.3939 20.1256 33.3409 20.1009L42.3736 11.0683L42.3821 11.0824C43.1483 12.6676 44.4301 13.9454 46.0179 14.707L46.033 14.7156L37.0004 23.7528ZM60.6737 23.3087C60.5915 23.4528 60.5074 23.5955 60.4338 23.7528L51.7877 15.0946C51.8543 15.0725 51.9173 15.0417 51.9788 15.017C53.5469 14.45 54.8912 13.3945 55.8141 12.0063H55.8217C55.8469 11.9786 55.8691 11.9483 55.8892 11.9171L64.0831 20.0984C63.888 20.1896 63.7076 20.2929 63.5317 20.3963L63.5418 20.4053C62.3446 21.1014 61.3547 22.1045 60.6752 23.3112L60.6737 23.3087ZM64.8467 34.3852C66.5147 34.9876 68.3403 34.9876 70.0082 34.3852V61.9347H64.8467V34.3852ZM55.8141 68.3866H63.5564C64.2691 68.3866 64.8467 67.809 64.8467 67.0962C64.8467 66.3835 64.2691 65.8059 63.5564 65.8059H55.8141V64.5155H73.8794V69.677H55.8141V68.3866ZM77.7505 77.4192H44.2007V72.2577H77.7505V77.4192Z" fill="black" stroke="white" stroke-width="0.6" mask="url(#path-1-inside-1)"/>
<path d="M19.5338 60.6443V60.7943H19.6838H35.1683C35.7981 60.7943 36.3086 61.3048 36.3086 61.9347V78.7096C36.3086 79.3395 35.7981 79.85 35.1683 79.85H1.6185C0.988612 79.85 0.478125 79.3395 0.478125 78.7096V49.031C0.478125 48.4011 0.988612 47.8906 1.6185 47.8906H18.3934C19.0233 47.8906 19.5338 48.4011 19.5338 49.031V60.6443ZM28.8664 63.2251V63.0751H28.7164H24.8452H24.6952V63.2251V67.0962V67.2462H24.8452H28.7164H28.8664V67.0962V63.2251ZM12.0915 50.3214V50.1714H11.9415H8.07037H7.92037V50.3214V54.1925V54.3425H8.07037H11.9415H12.0915V54.1925V50.3214ZM2.90887 50.1714H2.75887V50.3214V60.6443V60.7943H2.90887H17.103H17.253V60.6443V50.3214V50.1714H17.103H14.5223H14.3722V50.3214V55.4828C14.3722 56.1127 13.8618 56.6232 13.2319 56.6232H6.78C6.15011 56.6232 5.63963 56.1127 5.63963 55.4828V50.3214V50.1714H5.48962H2.90887ZM8.07037 63.0751H7.92037V63.2251V67.0962V67.2462H8.07037H11.9415H12.0915V67.0962V63.2251V63.0751H11.9415H8.07037ZM2.90887 63.0751H2.75887V63.2251V77.4192V77.5692H2.90887H17.103H17.253V77.4192V63.2251V63.0751H17.103H14.5223H14.3722V63.2251V68.3866C14.3722 69.0165 13.8618 69.527 13.2319 69.527H6.78C6.15011 69.527 5.63963 69.0165 5.63963 68.3866V63.2251V63.0751H5.48962H2.90887ZM33.8779 77.5692H34.0279V77.4192V63.2251V63.0751H33.8779H31.2971H31.1471V63.2251V68.3866C31.1471 69.0165 30.6366 69.527 30.0068 69.527H23.5549C22.925 69.527 22.4145 69.0165 22.4145 68.3866V63.2251V63.0751H22.2645H19.6838H19.5338V63.2251V77.4192V77.5692H19.6838H33.8779Z" fill="black" stroke="white" stroke-width="0.3"/>
<path d="M64.9967 74.8385C64.9967 74.2086 65.5072 73.6981 66.1371 73.6981H75.1697C75.7996 73.6981 76.3101 74.2086 76.3101 74.8385C76.3101 75.4684 75.7996 75.9788 75.1697 75.9788H66.1371C65.5072 75.9788 64.9967 75.4684 64.9967 74.8385Z" fill="black" stroke="white" stroke-width="0.3"/>
<path d="M59.6849 73.6981H60.9753C61.6052 73.6981 62.1157 74.2086 62.1157 74.8385C62.1157 75.4684 61.6052 75.9788 60.9753 75.9788H59.6849C59.055 75.9788 58.5445 75.4684 58.5445 74.8385C58.5445 74.2086 59.055 73.6981 59.6849 73.6981Z" fill="black" stroke="white" stroke-width="0.3"/>
<path d="M67.4271 65.9558H70.0078C70.6377 65.9558 71.1482 66.4663 71.1482 67.0962C71.1482 67.726 70.6377 68.2365 70.0078 68.2365H67.4271C66.7972 68.2365 66.2867 67.726 66.2867 67.0962C66.2867 66.4663 66.7972 65.9558 67.4271 65.9558Z" fill="black" stroke="white" stroke-width="0.3"/>
<path d="M30.0059 23.3735C32.0607 23.3735 33.727 25.0398 33.727 27.0946C33.727 29.1495 32.0607 30.8158 30.0059 30.8158C27.951 30.8158 26.2848 29.1495 26.2848 27.0946C26.2848 25.0398 27.951 23.3735 30.0059 23.3735ZM28.5655 27.0946C28.5655 27.8902 29.2103 28.535 30.0059 28.535C30.8015 28.535 31.4463 27.8902 31.4463 27.0946C31.4463 26.2991 30.8015 25.6543 30.0059 25.6543C29.2103 25.6543 28.5655 26.2991 28.5655 27.0946Z" fill="black" stroke="white" stroke-width="0.3"/>
<path d="M53.0835 7.73904C53.0835 9.79389 51.4172 11.4602 49.3623 11.4602C47.3075 11.4602 45.6412 9.79389 45.6412 7.73904C45.6412 5.6842 47.3075 4.01792 49.3623 4.01792C51.4172 4.01792 53.0835 5.6842 53.0835 7.73904ZM50.8027 7.73904C50.8027 6.94347 50.1579 6.29867 49.3623 6.29867C48.5668 6.29867 47.922 6.94347 47.922 7.73904C47.922 8.53462 48.5668 9.17942 49.3623 9.17942C50.1579 9.17942 50.8027 8.53462 50.8027 7.73904Z" fill="black" stroke="white" stroke-width="0.3"/>
<path d="M67.4268 30.8158C65.3719 30.8158 63.7057 29.1495 63.7057 27.0946C63.7057 25.0398 65.3719 23.3735 67.4268 23.3735C69.4816 23.3735 71.1479 25.0398 71.1479 27.0946C71.1479 29.1495 69.4816 30.8158 67.4268 30.8158ZM67.4268 25.6543C66.6312 25.6543 65.9864 26.2991 65.9864 27.0946C65.9864 27.8902 66.6312 28.535 67.4268 28.535C68.2224 28.535 68.8672 27.8902 68.8672 27.0946C68.8672 26.2991 68.2224 25.6543 67.4268 25.6543Z" fill="black" stroke="white" stroke-width="0.3"/>
</svg>
