<svg width="80" height="80" viewBox="0 0 80 80" fill="none" xmlns="http://www.w3.org/2000/svg">
<path d="M47.8372 14.4497H43.8239V10.4364C43.8239 10.0816 43.6829 9.74133 43.4321 9.49045C43.1812 9.23958 42.8409 9.09863 42.4861 9.09863H37.1351C36.7803 9.09863 36.44 9.23958 36.1891 9.49045C35.9383 9.74133 35.7973 10.0816 35.7973 10.4364V14.4497H31.784C31.4293 14.4497 31.089 14.5906 30.8381 14.8415C30.5872 15.0924 30.4463 15.4326 30.4463 15.7874V21.1385C30.4463 21.4933 30.5872 21.8335 30.8381 22.0844C31.089 22.3353 31.4293 22.4762 31.784 22.4762H35.7973V26.4895C35.7973 26.8443 35.9383 27.1846 36.1891 27.4354C36.44 27.6863 36.7803 27.8273 37.1351 27.8273H42.4861C42.8409 27.8273 43.1812 27.6863 43.4321 27.4354C43.6829 27.1846 43.8239 26.8443 43.8239 26.4895V22.4762H47.8372C48.192 22.4762 48.5322 22.3353 48.7831 22.0844C49.034 21.8335 49.1749 21.4933 49.1749 21.1385V15.7874C49.1749 15.4326 49.034 15.0924 48.7831 14.8415C48.5322 14.5906 48.192 14.4497 47.8372 14.4497ZM46.4994 19.8007H42.4861C42.1313 19.8007 41.7911 19.9417 41.5402 20.1925C41.2893 20.4434 41.1484 20.7837 41.1484 21.1385V25.1517H38.4728V21.1385C38.4728 20.7837 38.3319 20.4434 38.081 20.1925C37.8301 19.9417 37.4899 19.8007 37.1351 19.8007H33.1218V17.1252H37.1351C37.4899 17.1252 37.8301 16.9842 38.081 16.7334C38.3319 16.4825 38.4728 16.1422 38.4728 15.7874V11.7742H41.1484V15.7874C41.1484 16.1422 41.2893 16.4825 41.5402 16.7334C41.7911 16.9842 42.1313 17.1252 42.4861 17.1252H46.4994V19.8007Z" fill="black"/>
<path d="M76.9077 21.6201C76.9348 21.3847 76.9482 21.148 76.9479 20.9111C76.9414 19.6848 76.516 18.4977 75.7423 17.5463C74.9686 16.595 73.893 15.9366 72.6938 15.6804C71.3373 15.4222 69.9335 15.6889 68.7662 16.4265C67.5989 17.1642 66.7554 18.3176 66.4063 19.6536L60.5202 36.5896C60.4329 36.6242 60.348 36.6645 60.266 36.71L48.4402 43.6396C46.6306 44.7026 45.1296 46.2193 44.0856 48.0399C43.0416 49.8604 42.4906 51.9219 42.4872 54.0206V66.6223C42.1324 66.6223 41.7921 66.7633 41.5412 67.0141C41.2904 67.265 41.1494 67.6053 41.1494 67.9601V78.6621C41.1494 79.0169 41.2904 79.3572 41.5412 79.6081C41.7921 79.859 42.1324 79.9999 42.4872 79.9999H61.2158C61.5706 79.9999 61.9109 79.859 62.1617 79.6081C62.4126 79.3572 62.5536 79.0169 62.5536 78.6621V67.9601C62.5536 67.6053 62.4126 67.265 62.1617 67.0141C61.9109 66.7633 61.5706 66.6223 61.2158 66.6223V63.6792C61.2183 63.1142 61.3386 62.5559 61.5689 62.04C61.7992 61.524 62.1346 61.0618 62.5536 60.6827L71.5968 52.6427C72.586 51.7772 73.2941 50.6359 73.6302 49.3652L79.4361 27.6534C79.56 27.2 79.623 26.7321 79.6234 26.2621C79.6181 25.318 79.3644 24.392 78.8877 23.5771C78.411 22.7623 77.7281 22.0873 76.9077 21.6201V21.6201ZM68.9614 20.4429C69.1257 19.751 69.5446 19.1465 70.1347 18.7498C70.7248 18.3531 71.4427 18.1934 72.1453 18.3024C72.7449 18.428 73.2833 18.7556 73.6704 19.2304C74.0576 19.7052 74.27 20.2984 74.2723 20.9111V20.9378C73.0774 20.96 71.9224 21.3719 70.983 22.1108C70.0437 22.8497 69.3714 23.8753 69.0685 25.0314L65.3361 36.5495C64.771 36.2814 64.1652 36.1096 63.5435 36.0411L68.9614 20.4429ZM59.878 77.3244H43.8249V69.2978H59.878V77.3244ZM76.8542 26.9577L71.035 48.683C70.8336 49.4379 70.415 50.117 69.831 50.6361L60.7743 58.676C60.0735 59.308 59.5127 60.0796 59.128 60.9413C58.7432 61.8029 58.543 62.7356 58.5403 63.6792V66.6223H45.1627V54.0206C45.1693 52.3885 45.5993 50.7859 46.4106 49.3697C47.2219 47.9534 48.3868 46.7719 49.7913 45.9406L61.6038 39.0243C61.9083 38.8469 62.245 38.7314 62.5943 38.6844C62.9437 38.6375 63.2989 38.66 63.6395 38.7508C63.9801 38.8415 64.2994 38.9987 64.5791 39.2132C64.8588 39.4277 65.0933 39.6954 65.2692 40.0009C65.6167 40.619 65.7125 41.3473 65.5368 42.0343C65.4438 42.3735 65.285 42.6911 65.0692 42.9688C64.8534 43.2466 64.585 43.4791 64.2793 43.653L56.6139 48.081C56.3227 48.2661 56.1143 48.5565 56.0322 48.8917C55.9502 49.2268 56.0007 49.5807 56.1734 49.8794C56.3461 50.1781 56.6275 50.3986 56.9589 50.4947C57.2902 50.5908 57.6459 50.5552 57.9517 50.3953L65.617 45.9673C66.2297 45.6197 66.7667 45.153 67.1963 44.5947C67.6259 44.0364 67.9395 43.3978 68.1186 42.7166C68.4828 41.3478 68.2904 39.8905 67.5835 38.6631L67.5033 38.5427L71.637 25.7939C71.8012 25.1021 72.2201 24.4975 72.8102 24.1008C73.4003 23.7041 74.1182 23.5444 74.8208 23.6535C75.4204 23.7791 75.9588 24.1066 76.3459 24.5814C76.7331 25.0562 76.9456 25.6495 76.9479 26.2621C76.9524 26.4974 76.9208 26.732 76.8542 26.9577V26.9577Z" fill="black"/>
<path d="M37.1362 66.6224V54.0207C37.1327 51.922 36.5818 49.8605 35.5378 48.0399C34.4937 46.2193 32.9928 44.7026 31.1832 43.6396L19.3574 36.6967C19.2771 36.6565 19.1835 36.6298 19.1032 36.5897L13.2572 19.7473C12.9174 18.3918 12.074 17.2168 10.8984 16.4613C9.72292 15.7058 8.3037 15.4266 6.9296 15.6805C5.73042 15.9367 4.65481 16.595 3.88109 17.5464C3.10737 18.4977 2.68201 19.6849 2.67552 20.9111C2.67517 21.148 2.68857 21.3848 2.71565 21.6201C1.89529 22.0873 1.21242 22.7623 0.735703 23.5772C0.25899 24.3921 0.00524935 25.3181 0 26.2621C0.00259828 26.7312 0.0609778 27.1982 0.173909 27.6534L5.99316 49.3519C6.32571 50.6279 7.03416 51.7745 8.02656 52.6428L17.0564 60.6827C17.4796 61.0592 17.8187 61.5206 18.0515 62.037C18.2843 62.5533 18.4056 63.1129 18.4076 63.6793V66.6224C18.0528 66.6224 17.7125 66.7633 17.4616 67.0142C17.2108 67.2651 17.0698 67.6053 17.0698 67.9601V78.6622C17.0698 79.017 17.2108 79.3573 17.4616 79.6081C17.7125 79.859 18.0528 80 18.4076 80H37.1362C37.491 80 37.8313 79.859 38.0821 79.6081C38.333 79.3573 38.474 79.017 38.474 78.6622V67.9601C38.474 67.6053 38.333 67.2651 38.0821 67.0142C37.8313 66.7633 37.491 66.6224 37.1362 66.6224ZM5.35104 20.9111C5.35269 20.3003 5.56326 19.7085 5.94776 19.234C6.33226 18.7594 6.86755 18.4307 7.4647 18.3025C8.18663 18.1977 8.92149 18.3697 9.52191 18.784C10.1223 19.1984 10.5439 19.8244 10.7021 20.5365L16.0799 36.0412C15.4582 36.1097 14.8523 36.2815 14.2873 36.5495L10.5817 25.0983C10.2801 23.9308 9.6065 22.8932 8.66277 22.1425C7.71903 21.3919 6.5565 20.969 5.35104 20.9379V20.9111ZM18.8357 58.6761L9.7924 50.6361C9.20519 50.1143 8.78616 49.4299 8.58842 48.6696L2.75579 26.9578C2.70041 26.7301 2.67345 26.4965 2.67552 26.2621C2.67717 25.6514 2.88774 25.0596 3.27224 24.585C3.65674 24.1105 4.19203 23.7818 4.78918 23.6535C5.50604 23.5459 6.23704 23.7138 6.83517 24.1233C7.4333 24.5328 7.85419 25.1536 8.01318 25.8608L12.1201 38.5428L12.0398 38.6632C11.333 39.8906 11.1406 41.3478 11.5047 42.7166C11.6838 43.3979 11.9974 44.0365 12.4271 44.5948C12.8567 45.153 13.3936 45.6197 14.0063 45.9674L21.6717 50.3953C21.9774 50.5553 22.3331 50.5909 22.6645 50.4948C22.9959 50.3986 23.2773 50.1782 23.45 49.8794C23.6227 49.5807 23.6732 49.2268 23.5911 48.8917C23.5091 48.5566 23.3006 48.2661 23.0095 48.081L15.3441 43.653C15.0384 43.4791 14.77 43.2466 14.5542 42.9689C14.3384 42.6911 14.1795 42.3736 14.0866 42.0343C13.9109 41.3474 14.0067 40.6191 14.3542 40.0009C14.529 39.6961 14.7621 39.4287 15.0402 39.214C15.3183 38.9993 15.636 38.8415 15.9752 38.7496C16.3143 38.6576 16.6682 38.6334 17.0167 38.6783C17.3652 38.7231 17.7014 38.8362 18.0062 39.011L29.832 45.9406C31.2366 46.7719 32.4015 47.9535 33.2128 49.3697C34.0241 50.786 34.4541 52.3885 34.4607 54.0207V66.6224H21.0831V63.6793C21.0808 62.7343 20.8795 61.8003 20.4923 60.9383C20.1051 60.0763 19.5406 59.3055 18.8357 58.6761ZM35.7984 77.3244H19.7453V69.2979H35.7984V77.3244Z" fill="black"/>
<path d="M58.7358 3.92413C57.4939 2.68006 56.0189 1.6931 54.3951 1.01975C52.7713 0.346405 51.0307 -0.000124222 49.2729 3.3404e-08C47.515 0.000124289 45.7745 0.346899 44.1508 1.02048C42.5271 1.69406 41.0522 2.68122 39.8105 3.92546V3.92546C38.5689 2.68119 37.0941 1.69402 35.4705 1.02047C33.8468 0.346925 32.1063 0.000227123 30.3485 0.000227123C28.5908 0.000227123 26.8502 0.346925 25.2266 1.02047C23.603 1.69402 22.1282 2.68119 20.8866 3.92546C18.3827 6.43467 16.9766 9.83466 16.9766 13.3794C16.9766 16.9242 18.3827 20.3241 20.8866 22.8334L38.8661 40.8128C39.1169 41.0636 39.4571 41.2045 39.8119 41.2045C40.1666 41.2045 40.5068 41.0636 40.7577 40.8128L58.7371 22.8334C61.2409 20.3237 62.6468 16.9234 62.6466 13.3785C62.6463 9.83349 61.2399 6.43338 58.7358 3.92413V3.92413ZM39.8105 37.9755L22.7768 20.9418C21.2814 19.4443 20.2635 17.5371 19.8518 15.4612C19.4402 13.3853 19.6532 11.2339 20.464 9.27912C21.2749 7.32429 22.6471 5.65375 24.4072 4.47867C26.1673 3.30359 28.2362 2.67673 30.3526 2.67733C31.7584 2.67251 33.1511 2.94764 34.4495 3.4867C35.7479 4.02576 36.9259 4.81794 37.9149 5.81706L38.8647 6.76686C39.1156 7.01766 39.4558 7.15854 39.8105 7.15854C40.1652 7.15854 40.5054 7.01766 40.7563 6.76686L41.7088 5.81438C42.702 4.81943 43.8816 4.03008 45.1801 3.49151C46.4787 2.95295 47.8707 2.67573 49.2765 2.67573C50.6823 2.67573 52.0743 2.95295 53.3729 3.49151C54.6714 4.03008 55.8511 4.81943 56.8442 5.81438C58.8481 7.82099 59.9736 10.5409 59.9736 13.3767C59.9736 16.2126 58.8481 18.9325 56.8442 20.9391L39.8105 37.9755Z" fill="black"/>
</svg>
