<svg width="90" height="80" viewBox="0 0 90 80" fill="none" xmlns="http://www.w3.org/2000/svg">
<path d="M37.6374 65.3247C35.0409 65.3247 32.9287 67.4369 32.9287 70.0334C32.9287 72.6296 35.0409 74.7419 37.6374 74.7419C40.2338 74.7419 42.346 72.6296 42.346 70.0334C42.3459 67.4369 40.2336 65.3247 37.6374 65.3247ZM37.6374 72.1197C36.487 72.1197 35.5509 71.1838 35.5509 70.0334C35.5509 68.883 36.4868 67.9468 37.6374 67.9468C38.788 67.9468 39.7239 68.8828 39.7239 70.0334C39.7239 71.184 38.7878 72.1197 37.6374 72.1197Z" fill="black"/>
<path d="M65.8311 70.0334C65.8311 72.6296 67.9433 74.7419 70.5397 74.7419C73.136 74.7419 75.2482 72.6296 75.2482 70.0334C75.2482 67.4369 73.136 65.3247 70.5397 65.3247C67.9433 65.3247 65.8311 67.4369 65.8311 70.0334ZM72.6259 70.0334C72.6259 71.1838 71.69 72.1197 70.5395 72.1197C69.3891 72.1197 68.453 71.1838 68.453 70.0334C68.453 68.883 69.389 67.9468 70.5395 67.9468C71.6901 67.9468 72.6259 68.883 72.6259 70.0334Z" fill="black"/>
<path d="M85.5402 15.2201H58.2891C57.5649 15.2201 56.978 15.8071 56.978 16.5311C56.978 17.2552 57.5649 17.8422 58.2891 17.8422H85.5402C86.2793 17.8422 86.8803 18.4434 86.8803 19.1823C86.8803 19.9212 86.2793 20.5224 85.5402 20.5224C83.4285 20.5224 29.6324 20.5224 26.6618 20.5224L26.1808 17.8422H52.171C52.8952 17.8422 53.482 17.2552 53.482 16.5311C53.482 15.8071 52.8952 15.2201 52.171 15.2201H25.7098L24.0089 5.74579C24.0072 5.73617 24.0053 5.72638 24.0035 5.71677C23.3316 2.40432 20.3907 0 17.0106 0C13.6171 0 6.20798 0 3.96222 0C1.77746 0 0 1.77746 0 3.96221C0 6.14697 1.77746 7.92443 3.96222 7.92443H16.3504L25.1504 56.9434C25.1522 56.9532 25.1541 56.9628 25.1559 56.9726C25.7514 59.9071 28.128 62.1272 31.0123 62.5959C28.9637 64.4226 27.6707 67.0794 27.6707 70.0335C27.6707 75.5291 32.1416 80 37.6372 80C43.1328 80 47.6037 75.5291 47.6037 70.0335C47.6037 67.1295 46.3547 64.5123 44.3663 62.689H63.8104C61.822 64.5123 60.573 67.1295 60.573 70.0335C60.573 75.5291 65.0439 80 70.5397 80C74.6596 80 78.4066 77.4106 79.8635 73.5562C80.1196 72.8788 79.778 72.1222 79.1008 71.8663C78.4231 71.6106 77.667 71.9516 77.4107 72.6292C76.3371 75.4697 73.5758 77.378 70.5397 77.378C66.4899 77.378 63.1951 74.0834 63.1951 70.0336C63.1951 65.9838 66.4899 62.6892 70.5397 62.6892C73.5758 62.6892 76.3371 64.5976 77.4107 67.4381C77.6668 68.1155 78.4232 68.4569 79.1008 68.2009C79.778 67.9448 80.1196 67.1883 79.8635 66.5111C79.3009 65.0227 78.3958 63.7243 77.2607 62.6894H78.7929C80.9779 62.6894 82.7553 60.9119 82.7553 58.7272C82.7553 56.5424 80.9779 54.765 78.7929 54.765H32.809L32.3361 52.1311H77.5081C80.1412 52.1311 82.3384 50.1093 82.7321 47.3235L86.1555 23.0971C88.0491 22.8007 89.5024 21.1585 89.5024 19.183C89.5024 16.9975 87.725 15.2201 85.5402 15.2201V15.2201ZM14.0616 5.3023H3.96222C3.2233 5.3023 2.62213 4.70113 2.62213 3.96221C2.62213 3.2233 3.2233 2.62213 3.96222 2.62213H14.0616V5.3023ZM34.634 23.1445L35.8645 35.0154H29.2635L27.1324 23.1445H34.634ZM44.9814 70.0335C44.9814 74.0832 41.6866 77.3779 37.637 77.3779C33.5874 77.3779 30.2926 74.0832 30.2926 70.0335C30.2926 65.9837 33.5874 62.689 37.637 62.689C41.6866 62.689 44.9814 65.9837 44.9814 70.0335ZM78.7928 57.3866C79.5319 57.3866 80.133 57.9877 80.133 58.7266C80.133 59.4656 79.5319 60.0667 78.7928 60.0667H32.1487C30.0155 60.0667 28.1589 58.5525 27.7285 56.4643L18.8126 6.79989C18.8108 6.79027 18.8089 6.78066 18.8071 6.77087C18.6346 5.9199 17.8789 5.3023 17.0106 5.3023H16.6837V2.62213H17.0105C19.1438 2.62213 21.0006 4.13632 21.4309 6.22459L30.3468 55.8892C30.3485 55.8989 30.3505 55.9086 30.3522 55.9183C30.5249 56.7693 31.2806 57.3867 32.1487 57.3867H78.7928V57.3866ZM31.8654 49.5085L29.7343 37.6375H36.1363L37.3668 49.5085H31.8654ZM37.2701 23.1445H44.6124L45.0466 35.0154H38.5004L37.2701 23.1445ZM40.0031 49.5085L38.7726 37.6375H45.1428L45.577 49.5085H40.0031ZM53.9189 49.5085H48.2009L47.7667 37.6375H53.9189V49.5085ZM53.9189 35.0154H47.6707L47.2365 23.1445H53.9189V35.0154ZM62.259 49.5085H56.541V37.6375H62.6932L62.259 49.5085ZM62.7892 35.0154H56.541V23.1445H63.2234L62.7892 35.0154ZM70.6266 49.5085H64.8829L65.3171 37.6375H71.7847L70.6266 49.5085ZM72.0406 35.0154H65.4133L65.8475 23.1445H73.1987L72.0406 35.0154ZM80.1358 46.9561C79.9268 48.435 78.8216 49.5085 77.5081 49.5085H73.2613L74.4194 37.6375H81.4527L80.1358 46.9561ZM81.8233 35.0154H74.6753L75.8334 23.1445H83.5007L81.8233 35.0154Z" fill="black"/>
</svg>
