<svg width="80" height="80" viewBox="0 0 80 80" fill="none" xmlns="http://www.w3.org/2000/svg">
<path d="M74.9695 24.9323L74.9694 24.9322L41.2769 5.99911L41.2753 5.99824C40.4969 5.5485 39.5372 5.5485 38.7588 5.99823L38.7573 5.99912L5.06565 24.9317C5.06544 24.9318 5.06524 24.932 5.06504 24.9321C4.3493 25.3405 3.43721 25.0914 3.02776 24.376L3.02767 24.3758C2.61884 23.6595 2.86768 22.7469 3.58353 22.338L3.58456 22.3374L37.984 3.04431L74.9695 24.9323ZM74.9695 24.9323C75.6821 25.332 76.5843 25.0802 76.9864 24.3685M74.9695 24.9323L76.9864 24.3685M76.9864 24.3685C77.1832 24.0252 77.2345 23.617 77.1288 23.2354C77.0231 22.8538 76.7689 22.53 76.4226 22.3372C76.4226 22.3372 76.4225 22.3372 76.4225 22.3371L42.0508 3.04429C42.0508 3.04428 42.0508 3.04426 42.0507 3.04425C40.7878 2.33445 39.2465 2.33441 37.9841 3.04422L76.9864 24.3685ZM77.5827 20.2788L77.583 20.2789C78.9459 21.0403 79.7147 22.5485 79.5286 24.0981C79.3432 25.6484 78.2403 26.9323 76.7365 27.3502C75.7521 27.6234 74.6994 27.4937 73.8102 26.9905L73.8097 26.9903L40.0905 8.07081L40.0171 8.02962L39.9437 8.07081L6.22445 26.9903L6.22444 26.9903L6.22266 26.9913C5.65453 27.3204 5.00882 27.4931 4.35186 27.4913C3.99588 27.4887 3.64168 27.441 3.2974 27.35C1.79396 26.9317 0.690956 25.648 0.505523 24.0981L0.372937 24.114L0.505523 24.0981C0.320046 22.5485 1.08827 21.0402 2.45117 20.2789L2.45144 20.2788L36.8243 0.986253L36.8244 0.986188C38.8067 -0.128725 41.2275 -0.128737 43.2104 0.986198L43.2105 0.986252L77.5827 20.2788Z" fill="black" stroke="white" stroke-width="0.3"/>
<path d="M6.83457 31.2941C6.83457 30.6406 7.3644 30.1108 8.01787 30.1108C8.67134 30.1108 9.20117 30.6406 9.20117 31.2941V78.6667C9.20117 79.3201 8.67134 79.85 8.01787 79.85C7.3644 79.85 6.83457 79.3201 6.83457 78.6667V31.2941Z" fill="black" stroke="white" stroke-width="0.3"/>
<path d="M70.8326 31.2941C70.8326 30.6406 71.3625 30.1108 72.0159 30.1108C72.6694 30.1108 73.1992 30.6406 73.1992 31.2941V78.6667C73.1992 79.3201 72.6694 79.85 72.0159 79.85C71.3625 79.85 70.8326 79.3201 70.8326 78.6667V31.2941Z" fill="black" stroke="white" stroke-width="0.3"/>
<path d="M14.6842 35.851H14.5342V36.001V78.6667C14.5342 79.3201 14.0043 79.85 13.3509 79.85C12.6974 79.85 12.1676 79.3201 12.1676 78.6667V29.3345C12.1676 28.6811 12.6974 28.1512 13.3509 28.1512H66.6829C67.3364 28.1512 67.8662 28.6811 67.8662 29.3345V78.6667C67.8662 79.3201 67.3364 79.85 66.6829 79.85C66.0294 79.85 65.4996 79.3201 65.4996 78.6667V36.001V35.851H65.3496H14.6842ZM14.5342 33.3344V33.4844H14.6842H65.3496H65.4996V33.3344V30.6678V30.5178H65.3496H14.6842H14.5342V30.6678V33.3344Z" fill="black" stroke="white" stroke-width="0.3"/>
<path d="M30.5332 22.668V22.818H30.6832H50.6827C51.3362 22.818 51.866 23.3479 51.866 24.0013C51.866 24.6548 51.3362 25.1846 50.6827 25.1846H29.3499C28.6964 25.1846 28.1666 24.6548 28.1666 24.0013V18.6681C28.1666 18.0147 28.6964 17.4848 29.3499 17.4848H50.6827C51.3362 17.4848 51.866 18.0147 51.866 18.6681C51.866 19.3216 51.3362 19.8514 50.6827 19.8514H30.6832H30.5332V20.0014V22.668Z" fill="black" stroke="white" stroke-width="0.3"/>
<mask id="path-6-inside-1" fill="white">
<path d="M61.3505 72.0002H60.0172V57.3339C60.0172 56.5976 59.4202 56.0006 58.6839 56.0006H54.684V41.3343C54.684 40.598 54.087 40.001 53.3507 40.001H34.6845C33.9482 40.001 33.3512 40.598 33.3512 41.3343V48.0008H26.6847C25.9484 48.0008 25.3514 48.5978 25.3514 49.3341V56.0006H21.3515C20.6152 56.0006 20.0182 56.5976 20.0182 57.3339V72.0002H18.6849C17.9486 72.0002 17.3516 72.5972 17.3516 73.3335V78.6667C17.3516 79.403 17.9486 80 18.6849 80C19.4212 80 20.0182 79.403 20.0182 78.6667V74.6668H24.0181V78.6667C24.0181 79.403 24.6151 80 25.3514 80C26.0877 80 26.6847 79.403 26.6847 78.6667V74.6668H29.3513V78.6667C29.3513 79.403 29.9483 80 30.6846 80C31.4209 80 32.0179 79.403 32.0179 78.6667V74.6668H36.0178V78.6667C36.0178 79.403 36.6148 80 37.3511 80C38.0874 80 38.6844 79.403 38.6844 78.6667V74.6668H41.351V78.6667C41.351 79.403 41.948 80 42.6843 80C43.4206 80 44.0176 79.403 44.0176 78.6667V74.6668H48.0175V78.6667C48.0175 79.403 48.6145 80 49.3508 80C50.0871 80 50.6841 79.403 50.6841 78.6667V74.6668H53.3507V78.6667C53.3507 79.403 53.9477 80 54.684 80C55.4203 80 56.0173 79.403 56.0173 78.6667V74.6668H60.0172V78.6667C60.0172 79.403 60.6142 80 61.3505 80C62.0868 80 62.6838 79.403 62.6838 78.6667V73.3335C62.6838 72.5972 62.0868 72.0002 61.3505 72.0002ZM48.0175 58.6672H50.6841V61.3338H48.0175V58.6672ZM45.3509 42.6676V45.3342H42.6843V42.6676H45.3509ZM36.0178 42.6676H40.0177V46.6675C40.0177 47.4038 40.6147 48.0008 41.351 48.0008H46.6842C47.4205 48.0008 48.0175 47.4038 48.0175 46.6675V42.6676H52.0174V56.0006H36.0178V42.6676ZM29.3513 58.6672H32.0179V61.3338H29.3513V58.6672ZM28.018 50.6674H33.3512V56.0006H28.018V50.6674ZM22.6848 72.0002V58.6672H26.6847V62.6671C26.6847 63.4034 27.2817 64.0004 28.018 64.0004H33.3512C34.0875 64.0004 34.6845 63.4034 34.6845 62.6671V58.6672H38.6844V72.0002H22.6848ZM41.351 72.0002V58.6672H45.3509V62.6671C45.3509 63.4034 45.9479 64.0004 46.6842 64.0004H52.0174C52.7537 64.0004 53.3507 63.4034 53.3507 62.6671V58.6672H57.3506V72.0002H41.351Z"/>
</mask>
<path d="M61.3505 72.0002H60.0172V57.3339C60.0172 56.5976 59.4202 56.0006 58.6839 56.0006H54.684V41.3343C54.684 40.598 54.087 40.001 53.3507 40.001H34.6845C33.9482 40.001 33.3512 40.598 33.3512 41.3343V48.0008H26.6847C25.9484 48.0008 25.3514 48.5978 25.3514 49.3341V56.0006H21.3515C20.6152 56.0006 20.0182 56.5976 20.0182 57.3339V72.0002H18.6849C17.9486 72.0002 17.3516 72.5972 17.3516 73.3335V78.6667C17.3516 79.403 17.9486 80 18.6849 80C19.4212 80 20.0182 79.403 20.0182 78.6667V74.6668H24.0181V78.6667C24.0181 79.403 24.6151 80 25.3514 80C26.0877 80 26.6847 79.403 26.6847 78.6667V74.6668H29.3513V78.6667C29.3513 79.403 29.9483 80 30.6846 80C31.4209 80 32.0179 79.403 32.0179 78.6667V74.6668H36.0178V78.6667C36.0178 79.403 36.6148 80 37.3511 80C38.0874 80 38.6844 79.403 38.6844 78.6667V74.6668H41.351V78.6667C41.351 79.403 41.948 80 42.6843 80C43.4206 80 44.0176 79.403 44.0176 78.6667V74.6668H48.0175V78.6667C48.0175 79.403 48.6145 80 49.3508 80C50.0871 80 50.6841 79.403 50.6841 78.6667V74.6668H53.3507V78.6667C53.3507 79.403 53.9477 80 54.684 80C55.4203 80 56.0173 79.403 56.0173 78.6667V74.6668H60.0172V78.6667C60.0172 79.403 60.6142 80 61.3505 80C62.0868 80 62.6838 79.403 62.6838 78.6667V73.3335C62.6838 72.5972 62.0868 72.0002 61.3505 72.0002ZM48.0175 58.6672H50.6841V61.3338H48.0175V58.6672ZM45.3509 42.6676V45.3342H42.6843V42.6676H45.3509ZM36.0178 42.6676H40.0177V46.6675C40.0177 47.4038 40.6147 48.0008 41.351 48.0008H46.6842C47.4205 48.0008 48.0175 47.4038 48.0175 46.6675V42.6676H52.0174V56.0006H36.0178V42.6676ZM29.3513 58.6672H32.0179V61.3338H29.3513V58.6672ZM28.018 50.6674H33.3512V56.0006H28.018V50.6674ZM22.6848 72.0002V58.6672H26.6847V62.6671C26.6847 63.4034 27.2817 64.0004 28.018 64.0004H33.3512C34.0875 64.0004 34.6845 63.4034 34.6845 62.6671V58.6672H38.6844V72.0002H22.6848ZM41.351 72.0002V58.6672H45.3509V62.6671C45.3509 63.4034 45.9479 64.0004 46.6842 64.0004H52.0174C52.7537 64.0004 53.3507 63.4034 53.3507 62.6671V58.6672H57.3506V72.0002H41.351Z" fill="black" stroke="white" stroke-width="0.6" mask="url(#path-6-inside-1)"/>
</svg>
